<svg xmlns="http://www.w3.org/2000/svg" id="Capa_2" data-name="Capa 2" viewBox="0 0 284.9 300.63"><defs><style>      .cls-1 {        fill: #61272a;      }    </style></defs><g id="Capa_1-2" data-name="Capa 1"><g><path class="cls-1" d="M126.74,210.79c-.77.05-1.55.16-2.32.14-3.02-.08-6.03-.21-9.05-.3-2.15-.07-2.48.13-2.5,2.25-.03,3.52.09,7.05.21,10.58.01.37.43.73.66,1.09.43-.28.98-.47,1.28-.86,1.07-1.4,2.62-1.47,3.44-.04.22.38.16.91.23,1.38-.5-.02-1-.03-1.5-.08-.19-.02-.36-.15-.86-.39-.07.89-.17,1.6-.17,2.31,0,1.52-.33,1.84-1.79,1.66-.81-.1-1.84-.59-1.98.83-.14,1.31.46,1.88,1.95,1.83,3.32-.11,6.64-.23,9.95-.43.36-.02.79-.54.99-.92.26-.49.31-1.09.45-1.64.61.31,1.24.57,1.81.94.23.15.31.51.46.77.19-.08.38-.16.57-.25-.15-1.71-.3-3.43-.44-5.14.25-.06.51-.12.76-.18.61,1.54,1.23,3.09,1.92,4.82.39-1.15.67-2.16,1.08-3.12.12-.29.59-.44.9-.65.16.29.42.57.46.88.11.79.12,1.6.17,2.54,1.5-.53,1.24-3.11,3.6-2.62-.55,1.42-1.18,2.74-1.57,4.11-.65,2.25-2.25,2.69-4.31,2.75-5.52.15-11.04.42-16.55.61-.86.03-1.74-.13-2.59-.29-2.12-.41-2.26-.65-1.81-2.7.32-1.46-.03-1.9-1.85-1.93-3.43-.06-6.86-.05-10.28,0-3.26.04-6.51.23-9.77.24-7.98.03-15.97.07-23.95-.02-6.78-.08-13.57-.36-20.35-.55-.15,0-.31,0-.46-.02-3.34-.19-4.78-1.72-4.8-5.11,0-.12.16-.24.51-.72.65,1.06,1.17,1.98,1.76,2.86.23.35.62.59.93.88.18-.42.49-.83.52-1.26.07-1.2.02-2.4.02-3.61.27-.04.54-.08.81-.12.49,1.62.99,3.24,1.48,4.85l.42.13c.5-1.61,1-3.23,1.51-4.89,1.57,1.34.58,2.8.36,4.19.13.1.26.2.39.3.83-1.15,1.67-2.3,2.5-3.45.25.15.51.31.76.46,0,.69.16,1.42-.04,2.05-.3.97.05,1.21.9,1.22.36,0,.73-.02,1.07.09,2.75.84,2.6-.03,2.64-2.24.03-1.77,0-3.55,0-5.36-2.84,0-5.34,0-7.84,0-4.6,0-9.2,0-13.8.03-.6,0-1.21.12-1.79.28-2.15.61-3.65-.2-4.18-2.34-.28-1.14-.53-2.29-.75-3.44-.04-.22.1-.47.17-.78,1.94.53,1.63,2.5,2.66,3.85.56-1.52,1.08-2.9,1.68-4.52,1.55,1.54.38,3.18.96,4.75.71-1.01,1.35-1.93,2.02-2.83.18-.24.48-.39.72-.58.1.35.34.73.28,1.06-.38,2.09-.41,2.08,1.78,2.1,3.02.02,6.04.01,9.05.1,1.07.03,1.64-.16,1.57-1.4-.03-.55.37-1.12.58-1.68.18,0,.35,0,.53.01.41.9.82,1.79,1.27,2.78,1.15.27,1.69-.17,1.64-1.5-.03-.78.17-1.56.27-2.34.15-.03.3-.05.45-.08.18.36.42.71.52,1.09.1.39-.04.85.1,1.21.26.68.61,1.85.99,1.88,1.31.1,1.01-1.1,1.04-1.91.05-1.87.06-3.63,1.09-5.44.7-1.24.4-3.09.41-4.67.04-10.9.03-21.8.05-32.7,0-3.58.09-7.15.12-10.73,0-.39-.09-.79-.15-1.34-2.61.32-5.04.04-7.24-1.39-1.83-1.19-2-1.81-.65-3.68,1.62-2.24,3.29-4.44,4.95-6.64,2.04-2.69,4.12-5.35,6.12-8.07.29-.4.4-1.16.24-1.63-.52-1.53-1.32-2.96-1.81-4.5-1.12-3.54-3.63-6.1-5.97-8.79-.04-.05-.19,0-.36,0,0,.3-.06.59,0,.86.81,3.35,1.17,6.85,3.56,9.63.38.44.43,1.18.63,1.78l-.56.32c-.42-.43-.92-.82-1.25-1.31-1.83-2.73-4.65-3.8-7.63-4.6-1.81-.49-3.66-.84-5.46-1.35-1.31-.37-1.85-1.39-1.78-2.71.02-.29.24-.65.49-.81.12-.08.57.15.73.35.59.7,1.11,1.44,1.76,2.3,1.96-2.39,3.24.54,4.98.57-.44-1.4-.88-2.62-1.18-3.89-.08-.32.29-.74.45-1.12.27.26.67.47.79.79.36.95.55,1.97.93,2.91.52,1.28,1.43,2.16,2.85,2.47.67-2.28-2.01-4.42.4-6.78-1.89-1.54-3.53-3.21-5.48-4.39-2.34-1.41-3.29-3.37-3.5-6.42,2.3,2.14,2.84,5.47,6.27,6.54-.46-1.38-.83-2.53-1.23-3.67-.2-.57-.68-1.14-.64-1.68.13-1.63-.79-2.17-2.11-2.65-1.55-.57-3.28-.91-4.25-2.53-.71-1.18-.96-2.31.01-3.68.53,1.23,1,2.32,1.54,3.56,1.66-1.45,2,.94,2.95.98.17-2.02.34-3.98.51-5.95.27-.01.54-.03.81-.04.17.88.26,1.77.51,2.62.26.87.67,1.7,1.02,2.54.56-.76,1.12-1.53,1.68-2.28.31-.41.63-.81.95-1.22.16.52.53,1.07.45,1.55-.32,1.87.41,3.39,1.11,4.94.14,0,.29,0,.43-.01.16-.77.22-1.58.53-2.28.23-.53.8-.91,1.22-1.36.27.49.59.95.78,1.47.16.42.08.93.26,1.33.26.58.67,1.09,1.01,1.63.51-.36,1.01-.75,1.54-1.08.42-.26.87-.46,1.31-.68,0,.6.15,1.25-.04,1.78-.17.49-.71.85-1.09,1.27-1.4,1.53-2.04,1.51-3.42-.11-.16-.19-.34-.37-.54-.51-.11-.08-.29-.06-.81-.13v4.47h-.51c-.6-.71-1.1-1.42.11-2.38-.57-.66-1.15-1.33-1.73-2-.66.73-1.2,1.33-1.94,2.15.34.57.88,1.3,1.24,2.1.44.99.75,2.05,1.1,3.08.1.28.09.65.28.85,1.51,1.7,3.06,3.37,4.94,5.42v-11.32c.18-.03.35-.07.53-.1.18.45.47.9.52,1.36.25,2.59.28,5.22.7,7.79.51,3.09,1.32,6.13,2.02,9.19.21.92.5,1.82.78,2.83.31-.15.55-.19.65-.32,1.48-2.02,2.98-4.03,4.39-6.09.35-.52.57-1.23.58-1.86.05-1.89-.06-3.78-.06-5.67,0-1.99-.76-3.74-1.4-5.58-.94-2.69-1.47-5.53-2.2-8.29-.58-2.17-1.21-4.33-1.82-6.5-.24-.83-.37-1.7-1.65-1.54-.46.06-1.03-.39-1.47-.72-2.12-1.55-2.42-1.52-4.12.49-.2.23-.41.44-.74.8-.43-.38-1.1-.68-1.17-1.09-.25-1.32-1.37-1.48-2.24-1.74-3.08-.94-3.7-3.01-1.27-5.82.17.82.28,1.41.4,1.99.21,1,.21,2.05,1.83,1.82.49-.07,1.1.89,1.7,1.31.39.27.88.4,1.33.6.02-.52.17-1.09.02-1.55-.29-.92-.85-1.75-1.1-2.68-.15-.55.05-1.2.4-1.92,1.71,2.95,3.31,5.84,6.67,7.11-.46-1.32-.94-2.67-1.38-4.03-.72-2.16-.61-4.29.04-6.48.54-1.85.77-3.8,1.08-5.71.13-.78.26-1.43,1.63-1.07-.43,2.92-1.03,5.85-1.25,8.8-.13,1.79-.2,3.91.62,5.36,1.96,3.47,2.56,7.31,3.76,10.98.14.42.27.85.51,1.25.8-4.53,1.59-9.01.16-13.57-.42-1.33-.21-2.85-.47-4.26-.58-3.13-1.28-6.24-1.91-9.26-2.8-.41-3.14-.81-3.18-3.74-.01-.85.13-1.71.21-2.64,2.68.27,1.07,2.5,1.88,3.67,1.65-.78,2,.23,2.22,1.57.18,1.08.52,2.13,1.07,3.18.23-1.37.43-2.74.72-4.1.07-.31.44-.55.67-.82.21.31.62.62.6.92-.08,1.68-.28,3.35-.39,5.02-.17,2.47-.32,4.93-.47,7.4.15.04.3.09.45.13.44-.83.81-1.71,1.32-2.49,2.37-3.71,3.69-7.84,4.89-12.02.23-.78.41-1.63.86-2.28.34-.49,1.08-.7,1.64-1.04.03.54.17,1.1.06,1.61-.17.77-.52,1.49-.79,2.24l.43.36c.36-.34.67-.77,1.1-1,.6-.33,1.29-.52,1.94-.77-.18.68-.26,1.4-.56,2.01-.18.37-.66.67-1.08.83-2.71,1.06-3.05,3.54-3.75,5.98,2.66.39,3.37-2.39,5.41-3.05.71,1.2-.01,2.07-.81,2.69-1.65,1.28-3.2,3.02-5.91,2.08-.26.59-.57,1.32-.9,2.05-.44.97-.74,2.05-1.37,2.89-1.21,1.63-1.72,3.46-1.36,5.35.75,3.92-.36,7.59-.99,11.36-.39,2.32-.19,4.74-.17,7.11,0,.42.46.83,1.05,1.15-.05-.71-.09-1.42-.11-1.78.69-.91,1.38-1.58,1.77-2.4,2.43-5,2.48-10.38,2.26-15.77-.03-.62-.47-1.22-.7-1.83-.22-.58-.41-1.16-.64-1.84,2.81.1,2.51,2.52,3.4,3.93,1.22-.23,1.21-2.57,2.96-1.9-.6,2.98-2.75,5.19-2.8,8.25,3.57-1.55,5.71-5.98,4.41-8.96-.19-.43-.77-1-1.12-.97-.98.08-1.77.03-2.05-1.06-.32-1.21-.49-2.43.64-3.38.11-.09.26-.14.56-.29.14.74.21,1.44.42,2.08.11.34.5.83.74.82.38-.02.84-.33,1.08-.65.33-.44.41-1.05.73-1.5.2-.29.63-.42.95-.62.17.39.51.81.46,1.17-.09.7-.48,1.35-.6,2.05-.19,1.16-.27,2.34-.42,3.74,1.06-1.09,1.8-1.95,2.66-2.67.24-.21.81-.03,1.23-.03-.05.37-.03.76-.17,1.1-.21.51-.54.98-1.01,1.81,1.12-.39,1.94-.67,2.75-.96.57,1.5-.14,2.51-1.93,2.34-1.26-.12-1.71.42-2.38,1.32-1.95,2.62-4.16,5.05-6.14,7.65-1.61,2.11-2.31,4.65-3.11,7.3,2.28-.47,2.8-1.07,3.09-2.89.1-.62.58-1.19.94-1.91,1.38,1.82,1.07,3.5-.68,5.12-1.62,1.51-3.18,1.99-4.03,1.25-1.46,2.23-1.85,7.39-.69,9.56,3.28-4.19,6.53-8.36,9.78-12.53,1.35-1.73,2.73-3.45,4.01-5.23.43-.6.61-1.38.76-1.73,1.23-1.21,2.38-2.13,3.26-3.25,1.8-2.29,3.48-4.67,5.15-7.05.69-.98,1.52-.67,2.33-.42,1.36.43,1.79.05,1.78-1.41-.04-4.6.07-9.21.11-13.81.02-2.46-.05-2.57-2.28-3.53-1.82-.78-2.09-2.89-.55-4.69,1.22-1.43,2.53-2.79,3.74-4.23,2.4-2.85,3.53-6.27,4.42-9.83,1.55-6.2,3.38-12.33,4.79-18.56,1.43-6.37,2.67-12.81,3.64-19.27.54-3.56.37-7.22.54-10.83.05-1-.32-1.39-1.34-1.3-.6.05-1.23-.04-1.81-.21-.31-.09-.77-.62-.72-.75.16-.35.53-.63.87-.87.14-.1.4-.01.6-.03,2.1-.16,2.43-.52,2.38-2.62-.02-.72-.15-1.46,0-2.14.12-.53.62-.97.94-1.45.3.47.79.91.85,1.41.12.95.04,1.94-.02,2.91-.08,1.24.34,1.81,1.68,1.58.82-.15,1.68-.1,2.64-.15-.42,1.91-1.78,2.14-3.09,2.2-1.08.05-1.51.47-1.4,1.48.44,4.16.53,8.4,1.42,12.46,1.52,6.92,3.54,13.73,5.37,20.59,1.64,6.17,3.49,12.29,4.91,18.5,1.13,4.96,3.74,8.88,7.18,12.41.77.79,1.41,1.71,2.28,2.78-.98.64-1.7,1.36-2.57,1.62-1.23.37-1.54,1.06-1.55,2.22-.03,5.73-.13,11.46-.15,17.19-.01,3.71.06,3.55,3.67,4.36,8.28,1.86,16.52,3.87,24.77,5.86,7.7,1.86,15.39,3.76,23.07,5.69.7.18,1.47.56,1.96,1.08,6.21,6.59,12.38,13.22,18.56,19.83,6.75,7.21,13.51,14.41,20.26,21.62,1.39,1.48,2.8,2.94,4.36,4.58-1.75,1.08-3,2.12-4.97,2.26-3.69.26-3.44-.58-3.48,3.74-.06,5.58-.2,11.15-.34,16.73-.01.56-.29,1.12-.44,1.68-.18,0-.35.02-.53.03-.18-.78-.5-1.56-.51-2.34-.1-5.78-.1-11.57-.2-17.35-.05-2.82-.12-2.8-2.85-3.14-7.41-.92-14.82-1.83-22.22-2.8-9.22-1.2-18.43-2.45-27.64-3.7-6.63-.9-13.26-1.83-19.89-2.76-1.98-.28-2.85.36-2.81,2.33.06,3.06.3,6.13.35,9.19.06,3.89-.01,7.78,0,11.67,0,5.61.02,11.23.03,16.84,0,.2,0,.41-.01.61-.08.8.04,1.8-1.11,1.8-.17,0-.49-1.12-.5-1.73-.14-9.31-.23-18.63-.35-27.94-.06-4.4-.12-8.79-.25-13.19-.02-.59-.33-1.29-.73-1.72-6.13-6.52-12.31-12.99-18.47-19.49-1.97-2.08-3.9-4.2-5.87-6.28-5.37-5.69-10.75-11.36-16.14-17.04-.34-.36-.74-.66-1.2-1.06-.36.38-.64.65-.89.95-5.09,6.15-10.24,12.26-15.24,18.48-3.08,3.82-5.94,7.81-8.89,11.74-3.53,4.7-6.9,9.54-10.63,14.07-1.81,2.19-2.4,4.48-2.4,7.13,0,11.24-.03,22.49-.04,33.73,0,5.1.02,10.2-.01,15.3,0,1.12.25,1.7,1.52,1.69,5.67-.07,11.34-.1,17.01-.09,1.33,0,1.73-.48,1.73-1.82,0-11.41.07-22.82.1-34.23,0-2.92.07-5.84-.09-8.75-.42-7.86,1.36-15.31,4.73-22.27,2.25-4.64,5.68-8.6,9.5-12.14.37-.34.78-.67,1.06-1.08,1.26-1.86,2.35-2.01,4.02-.56,3.7,3.23,6.6,7.11,8.89,11.42,2.4,4.52,4.64,9.13,5.2,14.33.2,1.88.49,3.75.57,5.63.17,3.98.35,7.96.32,11.94-.03,5.37-.32,10.73-.38,16.1-.05,4.59.08,9.19.13,13.78.02,1.93.06,3.86.06,5.8,0,.99.48,1.31,1.44,1.33,3.42.07,6.84.17,10.26.34.72.04,1.42.41,2.13.63-.04.26-.07.53-.11.79ZM165.35,117.7c-.03.23-.06.47-.09.7-.64.09-1.31.31-1.93.23-.96-.13-1.88-.47-2.82-.71-3.2-.84-6.37-1.82-9.61-2.49-4.2-.86-8.45-1.41-12.67-2.19-4.27-.79-8.5-1.78-12.78-2.53-5.62-.99-11.28-1.82-16.91-2.72-.52-.08-1.03-.17-1.68-.28,1.01,2.02,2.5,3.19,4.5,3.54,4.41.77,8.86,1.36,13.26,2.17,6.28,1.16,12.54,2.43,18.79,3.74.76.16,1.43.8,2.14,1.22-.07.1-.14.19-.21.29-10.93-2.01-21.85-4.02-32.93-6.05.31,1.96,1.43,3.03,3.16,3.32,6.65,1.11,13.32,2.11,19.95,3.31,4.27.78,8.48,1.87,12.72,2.76,6.5,1.36,13.02,2.64,19.51,4.04.96.21,1.82.92,2.72,1.4l-.27.64c-17.55-3.81-35.08-7.66-53.02-9.89,1.1,1.02,2.23,2.21,3.57,2.53,4.66,1.1,9.4,1.88,14.11,2.8,6.26,1.22,12.53,2.45,18.78,3.73.54.11.99.68,1.48,1.04-.08.14-.15.28-.23.42-.39,0-.79.06-1.17,0-9.28-1.78-18.56-3.59-27.85-5.36-1.25-.24-2.54-.25-3.81-.37-.05.17-.1.34-.14.5.92,1.26,2.06,2.43,3.59,2.75,4.64.96,9.35,1.63,14,2.55,12.23,2.42,24.45,4.88,36.66,7.39,3.44.71,6.83,1.67,10.25,2.49.29.07.63-.04.95-.1.6-.12,1.24-.46,1.8-.35,3.8.75,7.59,1.59,11.38,2.42,2.03.45,4.05.94,6.08,1.41-1.19-1.54-2.09-3.23-4.34-3.51-1.81-.22-3.57-.88-5.33-1.4-.48-.14-.9-.49-1.34-.75.06-.21.12-.41.18-.62,1.82.34,3.64.69,5.52,1.05-.57-1.59-1.47-2.38-2.92-2.71-7.42-1.67-14.85-3.32-22.26-5.04-1.23-.29-2.39-.89-3.58-1.35.07-.26.15-.51.22-.77,7.95,1.37,15.77,3.44,24.12,5.02-1.44-1.57-2.42-3.01-4.29-3.38-4.86-.98-9.71-1.98-14.56-2.99-8.8-1.83-17.61-3.68-26.41-5.54-.57-.12-1.1-.45-1.64-.69l.25-.85c14.05,2.55,27.86,6.32,42.35,8.64-1.22-1.27-2.2-2.34-3.24-3.35-.27-.26-.72-.38-1.1-.47-5.69-1.21-11.39-2.39-17.07-3.63-.77-.17-1.48-.63-2.22-.95.05-.21.1-.41.14-.62.56,0,1.13-.11,1.66.02,4.98,1.15,9.95,2.34,14.93,3.5.31.07.66,0,1.16,0-1.07-2.14-2.78-3.09-4.87-3.51-2.46-.49-4.92-.97-7.37-1.47-2.7-.56-5.4-1.12-8.08-1.76-.57-.14-1.05-.63-1.57-.95.09-.19.19-.38.28-.57,5.78,1.15,11.56,2.29,17.33,3.44l.21-.51c-.98-.47-1.92-1.1-2.95-1.37-3.11-.83-6.27-1.47-9.39-2.27-9.46-2.41-18.9-4.89-28.36-7.29-3.8-.96-7.63-1.76-11.44-2.63-.59,1.84-.29,2.72.9,2.93,2.4.44,4.83.79,7.2,1.37,6.8,1.66,13.57,3.41,20.35,5.16.53.14,1,.54,1.5.82l-.09.56c-.68.04-1.39.25-2.03.1-4.72-1.12-9.41-2.36-14.13-3.47-4.16-.98-8.23-2.53-12.6-2.35-.72.03-1.93-.39-1.95.78-.01.49,1.04,1.05,1.67,1.49.32.22.78.22,1.18.32,2.48.6,4.94,1.24,7.43,1.77,3.64.77,7.3,1.45,10.94,2.18,4.05.81,8.11,1.62,12.15,2.47.75.16,1.46.55,2.19.83ZM140.77,144.28c.1-.16.21-.31.31-.47.8-.08,1.63-.32,2.41-.21,5.61.8,11.22,1.67,16.82,2.52,8.08,1.23,16.16,2.48,24.25,3.68,3.49.52,6.99.89,10.48,1.41.78.12,1.5.58,2.25.89-.06.24-.12.47-.18.71-9.11-1.15-18.23-2.22-27.33-3.49-9.1-1.27-18.18-2.73-27.26-4.11-.1.23-.19.47-.29.7.49.41.93.97,1.49,1.2.94.37,1.96.6,2.97.76,6.42.97,12.84,1.87,19.25,2.84,6.87,1.04,13.73,2.13,20.6,3.19,10.7,1.65,21.41,3.28,32.12,4.94,1.13.17,2.23.47,3.67.78-1.28-2.27-2.49-3.65-5.04-3.88-4.98-.43-9.93-1.26-14.88-1.98-.7-.1-1.35-.55-2.02-.83.07-.24.14-.49.21-.73,5.33.72,10.67,1.44,16,2.16.08-.19.17-.38.25-.57-.4-.36-.75-.89-1.22-1.04-1.16-.38-2.37-.61-3.56-.87-1.93-.42-3.97-.58-5.37-2.2.29-.61.55-1.16.88-1.84,1.72,2.69,4.45,2.29,6.93,2.68-.92-1.23-1.55-2.58-3.51-2.67-2.59-.12-5.16-.65-7.73-1.04-2.37-.36-4.76-.67-7.11-1.15-4.05-.84-8.07-1.77-12.09-2.71-.91-.21-1.6-.68-1.31-1.55,9.27,1.72,18.43,3.41,28.02,5.19-.49-.8-.67-1.5-1.1-1.71-1.43-.72-2.89-1.5-4.43-1.85-5.77-1.33-11.58-2.51-17.38-3.7-.67-.14-1.41-.01-2.11,0-.7.01-1.43.16-2.1.02-7.36-1.5-14.71-3.03-22.06-4.57-9.31-1.94-18.61-3.92-27.92-5.82-2.3-.47-4.66-.69-6.99-1.02-.11.2-.22.41-.32.61,1.41,1.25,2.81,2.53,4.25,3.75.24.2.66.21,1,.26,3.79.51,7.6.88,11.37,1.54,10.77,1.87,21.52,3.83,32.27,5.8,1.13.21,2.22.69,3.32,1.05-.06.22-.11.43-.17.65-7.78-.28-15.27-2.57-22.93-3.64-7.7-1.07-15.34-2.53-23.01-3.82-.07.18-.14.36-.21.55,1.22,1.12,2.42,2.26,3.66,3.35.16.14.49.08.74.12,3.27.49,6.54.95,9.8,1.5.51.08.95.53,1.43.81-.05.18-.1.36-.15.54-3.35-.34-6.7-.67-10.05-1.01-.08.19-.15.38-.23.57,1.1,1.23,2.2,2.46,3.3,3.69ZM128.23,108.6c0-3.6-.04-7.11,0-10.62.09-6.69-.65-13.39.33-20.07.18-1.19-.21-1.94-1.38-2.35-3.23-1.12-6.43-2.33-9.67-3.43-.8-.27-1.76-.52-2.55-.33-4.66,1.11-9.3,2.33-13.94,3.57-1.29.34-2.46.88-1.57,2.62.12.24,0,.61,0,.91,0,5.46,0,10.93.05,16.39,0,.39.44,1.04.8,1.14,2.16.61,4.38,1.03,6.54,1.64.9.25,1.83.68,2.52,1.29,1.57,1.38,2.98,2.94,4.49,4.39.56.54,1.22.97,2.1,1.66.07-.87.15-1.36.15-1.84-.06-7.52-.15-15.04-.19-22.56,0-1.84.14-3.68.21-5.52.03-.91.47-1.41,1.37-1.08,2.68.98,5.35,2.01,7.99,3.09.5.2.85.75,1.27,1.14-.11.17-.22.33-.32.5-.66-.18-1.34-.31-1.97-.55-1.82-.69-3.62-1.42-5.42-2.14-1-.4-1.41-.08-1.4,1.01.02,9.41.03,18.81.01,28.22,0,.87.25,1.36,1.13,1.49,3.02.45,6.04.91,9.44,1.42ZM82.82,209.2c0-4.04,0-7.85,0-11.67.02-8.44.02-16.88.08-25.32.01-1.63.14-3.27.39-4.88.06-.41.76-1.02,1.19-1.04,3.47-.19,6.94-.23,10.42-.36,3.72-.14,7.44-.31,11.15-.51,1.19-.06,1.82.29,1.82,1.59-.02,6.95.01,13.9,0,20.85,0,6.44,0,12.87-.07,19.31-.02,1.77,1.31,1.57,2.32,1.74,1.25.21,1.06-.91,1.07-1.58.09-4.96.16-9.92.15-14.88-.03-10.03-.15-20.06-.19-30.09-.02-5.22-.8-10.31-2.67-15.18-2.49-6.5-6.52-12.01-11.38-16.94-.7-.71-1.12-.58-1.71.14-1.32,1.63-2.78,3.14-4.09,4.77-3.06,3.82-6.34,7.52-7.58,12.44-.88,3.49-2.17,6.93-2.57,10.48-.52,4.6-.42,9.29-.46,13.94-.09,10.58-.11,21.17-.16,31.75,0,1.82,0,3.63,0,5.58.76-.05,1.35-.09,2.29-.15ZM96.16,209.29c3.03,0,5.78.04,8.54-.05.36-.01.96-.71.99-1.12.14-2.04.13-4.09.16-6.13.1-6.65.24-13.31.3-19.96.04-4.3-.04-8.59-.09-12.89,0-.77.05-1.58-1.17-1.51-2.34.13-4.69.23-7.04.26-.89.01-1.14.35-1.14,1.18-.03,4.6-.13,9.2-.15,13.8-.02,3.63.12,7.26.05,10.88-.07,3.83-.3,7.65-.44,11.48-.05,1.32,0,2.63,0,4.05ZM94.6,209.38c.14-13.84.28-27.49.42-41.2-2.63,0-5.12,0-7.61,0-.85,0-1.42.24-1.46,1.31-.11,3.26-.48,6.52-.48,9.78,0,9.55.14,19.1.17,28.65,0,1.1.35,1.47,1.37,1.46,2.35-.02,4.69,0,7.6,0ZM139.45,148.18c.68-1.41-.04-2.17-.7-2.93-2.46-2.81-4.91-5.63-7.41-8.4-4.49-4.97-8.95-9.98-13.55-14.85-4.74-5.02-9.64-9.88-14.47-14.82-2.43-2.49-4.83-5.01-7.29-7.47-.62-.62-1.3-1.68-2.35-.38-3.61,4.51-7.31,8.95-10.86,13.51-3.36,4.31-6.6,8.72-9.85,13.12-1.76,2.38-3.34,4.9-5.16,7.23-2.51,3.2-5.19,6.27-7.74,9.43-1.82,2.26-3.57,4.59-5.32,6.91-1.56,2.06-3.08,4.16-4.73,6.39,1.27.41,2.43,1.16,3.41-.15,2.7-3.6,5.29-7.27,8-10.87,4.58-6.09,9.2-12.15,13.83-18.21,4.68-6.14,9.4-12.26,14.08-18.4,1.76-2.3,3.46-4.64,5.36-7.18,14.98,15.75,29.82,31.34,44.77,47.05ZM105.27,226.61c.2,0,.4-.02.6-.03.86-2.97,1.73-5.94,2.59-8.9.22.03.45.06.67.09-.14,2.83-.29,5.66-.44,8.6h2.4c0-4.22-.03-8.35,0-12.47.03-3.05.05-3.07-3.01-2.96-3.51.12-3.58.12-3.61,3.66-.01,1.49-.42,2.44-2,2.27-1.97-.21-2.34.92-2.42,2.47-.03.56-.16,1.11-.2,1.67-.15,1.86-.52,2.21-2.37,2.19-.31,0-.61-.04-.92-.03-.82,0-1.59.35-1.27,1.22.32.88-.61,2.57,1.34,2.55,1.93-.03,3.86-.09,5.78-.29.42-.04.91-.69,1.12-1.16.45-1.02.74-2.11,1.1-3.18.12.04.24.08.35.12.1,1.4.19,2.79.29,4.19ZM93.21,226.97v-4.06c-.38-.03-.58-.06-.78-.06-5.22.06-10.43.16-15.65.19-3.98.02-7.96-.05-11.94-.08-3.6-.03-3.95.35-3.44,3.74,0,.04.05.08.17.28h31.64ZM66.39,217.12c.1,1.37.2,2.7.3,4.16,1.08-.1,1.98-.26,2.88-.26,8.79-.03,17.58-.05,26.37-.06,2.03,0,2.38-.33,2.27-2.34-.03-.5-.15-.99-.23-1.5h-31.6ZM70.84,211.4c-.27-.05-.51-.15-.75-.14-3.48.05-6.96.03-10.43.2-2.11.1-2.2.3-2.22,2.48-.04,2.96-.03,5.93-.01,8.89,0,1.02.06,2.04.21,3.05.05.34.47.62.72.93.31-.32.81-.6.88-.96.19-1.05.19-2.13.3-3.2.13-1.23.61-1.9,2.08-1.81,3.03.19,3.27-.17,2.74-3.2-.03-.15-.06-.3-.11-.45-.43-1.36.19-1.95,1.48-1.97,1.68-.03,3.35,0,5.13,0v-3.81ZM102.14,211.56c-.78-.06-1.29-.14-1.79-.14-8.28.03-16.56.07-24.84.1-2.23,0-2.88.84-2.16,2.96.13.38.77.84,1.17.84,4.08-.03,8.17-.18,12.25-.25,4.59-.07,9.19-.07,13.78-.17.47-.01,1.19-.42,1.33-.81.26-.73.18-1.58.25-2.54ZM95.95,74.44c.47,0,.64.05.76,0,5.2-2.43,10.66-4.07,16.25-5.3,1.63-.36,1.96-1.14,1.17-2.73-1.14.43-2.25.94-3.41,1.27-3.04.87-6.09,1.71-9.15,2.47-2.43.6-4.03,2.18-5.61,4.3ZM115.75,69.23c5.03,1.75,9.86,3.43,14.97,5.21-1.41-1.87-2.11-4.04-4.82-4.18-1.14-.06-2.27-.57-3.39-.89-2.17-.62-4.34-1.26-6.65-1.93-.05.87-.08,1.42-.11,1.79ZM120.49,50.51c-.17-.79-.26-1.37-.42-1.94-.15-.51-.6-1.04-.52-1.49.27-1.51-.22-2.34-1.77-2.57-.6-.09-1.19-.31-1.74-.57-.26-.12-.41-.47-.62-.72.08-.08.16-.16.24-.24,1.14.43,2.27.86,3.41,1.29-.28-1-.56-1.97-.83-2.93-.19-.05-.34-.1-.49-.11-.86-.08-1.71-.16-2.57-.23-.02.81-.06,1.63-.06,2.44-.01,2.57,0,2.57,2.54,3.32.55.16,1.05.47,1.58.7-.08.2-.16.4-.23.6-1.26-.41-2.51-.81-3.83-1.23-.45.93-.41,1.77.6,2.16,1.45.56,2.96.96,4.7,1.51ZM126.08,68.69c-.6-2.13-1.41-3.71-3.73-3.88-.63-.05-1.23-.48-1.86-.67-1.48-.45-2.98-.86-4.6-1.32-.16,1.35-.56,2.54.84,3,3.03,1,6.11,1.88,9.36,2.87ZM115.56,57.39c-.13,1.48-.84,2.94.65,3.54,2.42.98,4.98,1.61,7.48,2.39.14-.12.28-.24.42-.36-.52-.89-.83-2.17-1.61-2.59-2.13-1.15-4.46-1.94-6.95-2.98ZM109.44,102.63c.08-.2.16-.39.24-.59-.73-.5-1.4-1.2-2.21-1.47-2.03-.68-4.11-1.2-6.18-1.73-1.32-.34-2.66-.58-4.41-.96,1.79,2.02,3.39,3.26,5.74,3.47,2.3.21,4.56.83,6.84,1.27ZM102.63,103.11c-.08.16-.16.32-.24.48.89.7,1.68,1.71,2.7,2.05,1.8.59,3.72.8,5.61,1.1,1.32.21,2.66.28,4.13.43-1.12-1.55-1.38-1.7-3.58-2.18-2.87-.63-5.74-1.26-8.62-1.88ZM113.16,52.64c-5.1.68-8.69,1.97-7.8,4.67.51-.11,1.06-.18,1.57-.35,1.74-.58,3.45-1.27,5.22-1.77,1.5-.42,1.71-1.22,1.01-2.55ZM113.57,59.99c-1.21.34-2.16.63-3.13.88-1.7.45-3.4.91-5.11,1.31-1.22.29-1.45,1.02-1.12,2.23,3.16-.87,6.23-1.72,9.46-2.61-.03-.53-.06-1.12-.1-1.82ZM113.8,63.27c-.55.17-.83.26-1.11.35-2.12.7-4.22,1.45-6.35,2.08-1.27.38-2.63.47-3.88.88-.44.14-.7.83-1.04,1.26.44.07.92.28,1.32.18,3.71-.9,7.41-1.85,11.21-2.81-.04-.54-.09-1.13-.15-1.95ZM112.77,47.92c-1.68.69-3.36,1.36-5.03,2.06-1.24.52-1.43,1.4-.88,2.65,1.55-.53,3.01-1.11,4.52-1.51,2.12-.56,2.28-.79,1.39-3.2ZM115.2,53.44c.23,1.11.16,2.54.62,2.74,1.99.86,4.14,1.36,6.32,2.02.11-1.77-.45-2.56-2-2.9-1.51-.34-2.93-1.08-4.94-1.87ZM113.21,56.4c-.73.26-1.34.48-1.94.7-1.81.69-3.63,1.34-5.41,2.09-.43.18-.71.68-1.07,1.04.48.09,1.02.37,1.44.25,2.15-.62,4.27-1.36,6.41-2.02,1.07-.33.96-1,.56-2.06ZM112.79,44.51c-1.21.37-2.31.74-3.42,1.03-1.62.42-1.97.98-1.58,2.83,1.42-.55,2.82-1.12,4.24-1.63,1.06-.38,1.23-1.07.76-2.22ZM121.06,54.01c.17-.19.34-.38.51-.57-.46-.59-.8-1.42-1.4-1.71-1.08-.52-2.31-.76-3.49-1.04-.41-.1-.88.05-1.33.09.17.53.21,1.4.54,1.53,1.68.67,3.44,1.15,5.17,1.7ZM108.68,43.94c3.92.11,4.94-.76,4.05-3.56-1.47,1.07-4.04.69-4.05,3.56ZM112.71,36.27c-2.43.18-2.9.8-2.86,3.66,2.7-.09,3.32-.86,2.86-3.66ZM114.81,37.44c-.49,2.12.63,2.99,3.1,2.39-.17-1.87-.36-2.02-3.1-2.39ZM117.18,37.12c-.41-1.36.05-2.7-1.53-2.93-.32-.05-1.01.47-1.07.81-.31,1.89,1.44,1.29,2.6,2.12ZM112.53,32.07c-1.59.02-1.94.89-1.68,2.01.06.27.91.64,1.22.52,1.43-.55.64-1.58.46-2.53ZM116.14,32.93c-.4-1.45-.79-2.85-1.17-4.24-.68,3.38-.74,4.37,1.17,4.24ZM48.98,113.83c1.06-1.45.9-2.63-.27-3.3.1,1.22.18,2.26.27,3.3Z"></path><path class="cls-1" d="M171.15,270.85c-.48-.04-.97-.18-1.43-.1-5.2.87-9.47-.69-12.83-4.77-.68-.83-1.51-1.53-2.24-2.32-.85-.94-.74-1.81.38-2.37,2.26-1.12,4.61-1.56,7.13-.84,3.05.88,6.1,1.71,8.87,4.35.3-2.07.8-3.71.72-5.31-.14-2.76.99-4.72,3.06-6.31.2-.15.38-.34.56-.51.03-.03.04-.09.06-.14-1.59-1.85-3.39-2.28-5.56-1.25-.32.15-.53.67-.65,1.06-.27.87-.41,1.78-.67,2.66-.33,1.12-1.24,1.63-2.25,1.35-.9-.25-2.02-.79-2.38-1.53-.31-.62.1-1.89.61-2.55.78-1.01,1.92-1.75,2.91-2.6l-.13-.48h-6.25c-.49.79-1.02,1.78-1.67,2.68-.72,1-1.9,1.15-2.53.14-.55-.89-.94-2.15-.75-3.13.13-.66,1.34-1.17,2.14-1.6.41-.22.99-.12,1.88-.19-.93-1.05-1.79-1.83-2.42-2.77-.75-1.12-1.37-2.34-1.92-3.57-.12-.26.28-.76.44-1.15.34.17.8.25,1.01.52,1.4,1.76,2.74,3.56,4.12,5.35.46.6.95,1.18,1.43,1.77.16-.11.31-.23.47-.34-.87-1.86-1.75-3.71-2.62-5.57-.68-1.46-.22-2.57,1.37-3.35,1.89-.93,3.18-.81,3.57.72.31,1.21-.12,2.64-.37,3.95-.11.56-.96,1.21-.82,1.56.39,1,.92,2.29,1.76,2.71,1.22.6,2.76.6,4.17.73.98.09,1.15-.54.73-1.29-.32-.57-.9-1.02-1.14-1.61-.42-1.04-.97-2.17-.91-3.24.04-.79.82-1.96,1.52-2.18.87-.27,2.27-.05,2.9.54.55.51.68,1.95.4,2.77-1.12,3.24-.9,4.58,1.67,6.99.89.84,1.76,1.71,2.7,2.49.38.32.93.43,1.73.79-.54-1.07-1.06-1.72-1.18-2.43-.25-1.42-.73-3.04-.3-4.3.78-2.29,2.14-4.39,3.28-6.56.11-.21.35-.5.54-.52,1.71-.11,2.49-1.59,3.69-2.45,1.54-1.09,3.28-1.33,4.95-.59,1.86.83,3.7,1.79,5.32,3.01,1.08.81,1.76,2.17,2.72,3.41.32-.21.83-.53,1.32-.88,1.42-1.01,3.01-1.28,4.68-.94,1.6.32,3.19.74,4.77,1.15,2.45.63,3.83,2.29,4.25,4.71.35,2.01.75,4.04.74,6.05,0,1.06-.76,2.17-1.33,3.17-.48.82-1.19,1.51-1.8,2.25,1.81,1.69,2.48,1.54,3.22-.73.98-3.03,1.69-6.1,1.38-9.35-.25-2.59-.25-5.2-.59-7.77-.27-2.07-.84-2.37-2.65-1.44-3.2,1.65-6.19,1.4-9.13-.53-.17-.11-.35-.24-.54-.3-3.53-1.11-5.89-3.23-6.01-7.34-2.56.82-4.45-.17-6.33-1.45-.93-.63-2.1-.92-2.96-1.27-.13-.86-.16-1.63-.36-2.35-.42-1.56-.52-3.02,0-4.65.38-1.19.08-2.61.08-3.92,0-2.04.92-3.75,2.88-4.23,1.47-.36,3.1-.1,4.65-.05.38.01.74.28,1.49.57-.21-.92-.28-1.59-.51-2.19-.86-2.29-.53-4.33,1.19-6.09,1.18-1.2,2.45-2.31,3.64-3.51.84-.85,1.8-.81,2.84-.55,1.27.32,2.54.79,3.84.88,2.62.19,4.18,1.68,5.31,3.84.18.35.38.68.7,1.24.56-.77,1.01-1.36,1.43-1.97,2.28-3.24,6.67-2.7,8.4-.22.92,1.31,2.13,2.4,3.48,3.89.6-2.56.47-4.57-.59-6.48-.13-.24-.58-.4-.89-.42-4.24-.23-7.16-2.65-9.33-5.97-1.5-2.3-2.59-4.87-3.79-7.35-.33-.7-.38-1.53-.65-2.67,4.03,1.78,7.72,3.41,11.65,5.14.08-1.54.11-2.9.24-4.26.13-1.31.32-2.62.56-3.92.21-1.17.95-1.36,1.71-.54,1.32,1.41,2.53,2.92,3.76,4.42.32.38.53.85.93,1.49.38-.98.59-1.82,1.01-2.53,2.09-3.54,5.42-5.3,9.3-6.13,1.11-.24,2.03.3,2.01,1.51-.04,4.15-.14,8.27-2.51,11.98-1.49,2.34-3.72,3.4-6.14,4.3-2.87,1.07-4.75,3.89-4.61,6.66,1.68-1.08,3.3-2.65,5.23-3.28,4.63-1.51,9.28-1.29,13.54,1.44,1.36.87,1.49,1.61.4,2.71-2.22,2.24-4.35,4.65-6.86,6.52-3.27,2.45-6.98,2.65-10.71.74-1.61-.82-1.86-.71-1.67,1,.33,2.94-.7,5.31-2.98,7.32,3.71,2.88,3.33,6.41,1.91,10.25,1.24-.23,2.35-.33,3.36-.69.32-.11.63-1.02.51-1.45-1.33-4.71-.2-7.63,3.99-10.2.51-.31.94-.78,1.32-1.24,1.93-2.37,5.21-2.19,6.94.41.33.5.6,1.04.98,1.69,3.63-2.5,6.59-5.35,7.48-9.76.34-1.7.44-3.45.72-5.17.17-1.07-.14-1.72-1.19-2.15-2.54-1.04-4.16-4.2-3.73-6.89.25-1.57,1.25-1.1,2.13-.88.57-1.33,1.15-2.57,1.63-3.85.44-1.18.99-1.06,1.79-.34,3.07,2.78,3.89,6.99,2.09,11.02-1.02,2.3-1.28,3.8-1.03,6.71,2.32-2.15,4.51-4.1,5.6-6.93.91-2.37,1.05-4.62-.54-6.97-.74-1.11-.66-2.9-.59-4.37.05-1.09.97-1.57,2.18-1.71,1.09-.12,2.15-.67,3.16-1.15,1.74-.83,3.47-.56,4.06,1.22.62,1.87,1.89,3.88.43,5.92,2.04,2.26.61,4.6-1.32,5.16-1.25.36-2.62.27-3.92.49-.44.07-1.1.39-1.18.72-.75,2.8-2.49,4.87-4.58,6.76-.9.81-1.66,1.77-2.41,2.78,2.03-.36,4.12-.37,5.67-2.09.71-.78,1.62-1.42,2.52-1.99,2.5-1.59,4.98-.87,7.26.42,1.23.69,2.87.73,3.66,2.31.56,1.11.45,1.93-.51,2.48-1.97,1.14-4.04,2.12-6.04,3.21-.67.36-1.42.73-1.86,1.31-.93,1.22-1.79,1.61-2.92.62-.91-.79-1.66-1.91-2.13-3.03-.82-1.92-1.01-2.03-3.06-1.7-3.5.57-5.83,2.65-7.49,5.15,2.41,1.33,4.8,2.71,7.25,3.98,2.33,1.21,3.83,2.87,3.68,5.65-.01.18.09.38.21.82.7-.51,1.31-.92,1.88-1.36,3.26-2.56,7.01-3.27,10.86-2.11,2.94.89,5.73,2.36,8.48,3.79,1.46.76,1.35,1.32.03,2.34-2.99,2.31-5.9,4.74-9.01,6.88-2.48,1.72-5.44,2.33-8.43,2.38-1.13.02-1.3.35-1.25,1.3.12,2.24.17,2.47,2.36,2.65,4.39.36,7.25,2.81,9.15,6.54,1.12,2.18,2.08,4.44,2.97,6.72.22.55.14,1.55-.23,1.91-.37.36-1.35.41-1.93.21-3.17-1.11-6.44-1.02-9.71-1.02-2.81,0-5.24-1.05-7.52-2.68-.89-.64-2.09-.85-3.17-1.2-1.04-.34-2.1-.61-3.04-.87-.48,1.15-.84,2.61-1.63,3.75-1.79,2.59-6.56,3.57-9.39,2.16-1.32-.66-2.7-1.18-3.99-1.89-1.68-.92-2.28-2.54-2.53-4.33-.2-1.45-.39-2.89-.61-4.52-4.2,2.22-7.29.46-10.12-2.23-.81-.77-1.55-1.02-2.37-.19-1.4,1.41-2.93,2.74-4.03,4.36-.6.88-.44,2.28-.62,3.41,3.14-.23,5.4-2.59,8.29-2.93.09.21.19.43.28.64-.93.58-1.84,1.2-2.79,1.75-1.54.9-3.15,1.7-4.65,2.66-.66.42-1.25,1.04-1.7,1.69-.96,1.38-1.84,2.83-2.68,4.28-.28.49-.37,1.09-.55,1.64.14.09.28.18.43.26.37-.42.76-.82,1.1-1.26,7.07-9.12,18.21-6.44,24.3-1.04,1.41,1.25,1.31,2.27-.12,3.23-3.52,2.34-7.04,4.69-10.56,7.02-.59.39-1.21.75-1.72,1.08,1.43,1.83,2.83,3.61,4.29,5.48.7-1.93,1.29-3.62,1.93-5.29.12-.32.38-.63.66-.84.31-.23.76-.52,1.05-.44.26.07.48.59.56.95.11.49.08,1.01.1,1.52,3.09-.24,5.71-3.23,9.12-1.56-1.12,3.39-1.97,3.83-7.52,4.21.61.18,1.21.39,1.83.52.6.12,1.31,0,1.8.28.56.32,1.21.92,1.31,1.49.08.47-.44,1.27-.92,1.59-1.98,1.32-4.4.69-5.83-1.21-1.04-1.38-2.12-.13-3,.04.59,3.75,1.17,7.37,1.73,10.98.06.4.16.86.02,1.21-.28.68-.59,1.48-1.14,1.85-.27.18-1.17-.4-1.68-.77-2.94-2.12-6.02-3.84-9.77-4-3.75-.17-6.53-1.93-8.12-5.37-1.16-2.51-2.22-5.08-3.33-7.64-.65.22-1.72.52-2.73.97-.27.12-.55.71-.49,1.02.24,1.35.82,2.67.88,4.02.11,2.48-.06,4.97-.11,7.46-.01.5-.05,1-.07,1.49,1.43-1.32,2.84-2.6,4.22-3.9.83-.79,1.6-.93,2.77.28-1.59,1.42-3.14,2.72-4.59,4.14-2.48,2.42-3.13,5.8-4.53,8.79-.29.63-.94,1.1-1.42,1.64-.18-.11-.36-.22-.53-.33.8-3.62,1.6-7.24,2.45-11.08-.68.08-.92.03-1.05.13-2.08,1.55-4.04,1.39-5.55-.7-1.08-1.49-2.2-3.03-2.46-5.13,3.33.08,6.37.46,9.09,2.79.6-3.12-.49-5.77-.98-8.47-.31-1.72-1.4-2.87-3.06-3.59-.2.7-.38,1.37-.59,2.04-.46,1.5-1.06,2.76-2.76,3.39-1.48.55-2.69,1.96-4.18,2.31-3.58.83-7.17,1.19-9.99-2.19-1.42-1.71-1.57-3.58-1.58-5.58,0-.55.08-1.1.1-1.46h-6.89c.25,1.1.44,2.24.75,3.33,1.72,5.98.76,11.31-4.1,15.44-1.62,1.38-3.76,2.2-5.74,3.1-.95.43-1.72-.2-1.85-1.25-.89-7.21-.5-14.05,5.52-19.29.11-.09.17-.25.38-.58-1.72.55-3.41.79-4.72,1.62-1.11.7-2.08,1.98-2.58,3.22-1.33,3.27-3.36,5.92-6.02,8.19-1.93,1.65-4.19,2.31-6.55,2.08-2.98-.3-5.92-1.02-8.87-1.58-.45-.08-.89-.22-1.31-.39-.37-.16-.95-.36-1-.63-.08-.42.07-1.15.37-1.33,2.56-1.53,3.98-4.1,5.72-6.33,3.33-4.28,7.6-6.35,12.99-6.29,3,.03,6.01,0,9.01-.09.6-.02,1.19-.39,1.79-.6-.02-.18-.04-.35-.06-.53ZM166.55,267.75l.04.04c-1.33-1.19-2.67-2.38-4-3.57l.11-.38c.61.14,1.32.13,1.82.45,1.24.79,2.37,1.76,3.58,2.6.47.33,1.05.51,1.79.85-.64-4.72-10.31-6.91-13.32-4.82,2.79,3.99,7.36,7.69,11.31,5.61-.54-.31-.93-.54-1.32-.76ZM188.88,258.43c-2.52-3.35-10.3-5.09-13.42-2.97-.9.61-1.4,2-1.78,3.14-.37,1.13-.28,2.4-.54,3.58-.62,2.79-.05,5.25,2.21,7.04,2.2,1.74,4.72,2.66,7.58,1.68,1.84-.63,5.33-3.93,6.61-6.17-1.35-.06-2.31,1.92-3.96.73.92-.72,1.77-1.44,2.67-2.08.75-.54,1.43-.82,2.51-.41,2.24.86,5.59-1.07,6.39-3.49h-1.91c-.08-.66-.15-1.3-.23-1.9-1.63-.52-3.03-.54-3.77,1.28.79,1.34.73,1.49-.71,2.36-.61.37-1.18.8-1.74,1.24-1.55,1.2-3.33,1.24-5.12,1.2-.05-.15-.1-.29-.15-.44,1.33-.51,2.67-1.01,4-1.52-.03-.13-.06-.25-.09-.38h-4.46c1.35-1.86,3.32-1,5.39-1.41-1.83-.54-3.21-.94-4.59-1.35.02-.17.05-.34.07-.51,1.61.12,3.22.24,5.06.38ZM183.09,240.71c-.77,1.63-1.29,3.14-2.14,4.43-1.67,2.52-1.18,6.15,1.38,7.66,2.06,1.21,4.26,2.19,6.42,3.2.44.21,1.03.09,1.83.14-.58-1.24-1.01-2.21-1.47-3.15-.75-1.54-.75-2.03.02-2.88.24,2.38.57,2.81,3.01,3.81-.82-1.52-1.54-2.99-.79-4.92.59,1.29,1.08,2.34,1.6,3.48.34-1.05.59-1.82.84-2.59.17.04.35.07.52.11.25,1.12.5,2.23.81,3.57.38-1.58.7-2.86,1-4.15.27-1.14.62-2.27.77-3.43.47-3.58-.79-5.42-5.07-7.58-3.45-1.74-5.78-.85-7.14,2.74-.18.49-.4.96-.6,1.44-.13,0-.27-.02-.4-.03-.17-.53-.34-1.06-.59-1.86ZM200.41,258.56c.05.11.11.23.16.34,2.44-.42,4.88-.8,7.31-1.27,2.74-.53,4.9-3.36,4.76-6.17-.07-1.38-.21-2.75-.38-4.12-.29-2.3-2.66-4.18-4.96-4.15-.88.01-1.83-.17-2.64-.52-1.48-.64-2.68-.39-3.76.72-2.87,2.93-3.47,6.71-4.04,10.49.12.09.25.18.37.27.72-.89,1.45-1.78,2.17-2.68.1.09.21.18.31.28-.49,1.23-.97,2.45-1.62,4.07,1.76-1.88,3.31-3.25,5.31-3.91.12.14.23.28.35.42-1.46,1.44-2.91,2.88-4.37,4.32.06.05.12.09.18.14,1.6-.81,3.21-1.62,4.81-2.43.11.18.22.35.32.53-1.43,1.22-2.85,2.44-4.28,3.66ZM247.3,235.35c.34.05.45.1.54.08.65-.15,1.3-.28,1.93-.48,4.07-1.31,7.77-3.17,10.12-6.97,1.5-2.43.75-4.85-1.79-6.1-.9-.44-1.71-1.08-2.54-1.66-2.65-1.87-7.39-2.5-9.46.9-1.85,3.03-2.72,6.27-2.69,10,1.05-1.31.5-3.31,2.52-4.18-.34,1.38-.62,2.48-.95,3.82,1.17-.93,1.45-2.56,3.42-2.44-.83,1.31-1.53,2.42-2.24,3.54,1.42-.46,2.28-1.74,4.23-1.69-1.22,1.27-2.16,2.26-3.1,3.24.06.07.13.15.19.22.91-.36,1.81-.73,2.72-1.09l.07.19c-.95.84-1.91,1.68-2.98,2.62ZM214.51,214.4c.11.08.23.16.34.25-.26.99-.51,1.98-.83,3.21,1.29-.91,2.22-1.56,3.14-2.2.03.07.06.14.09.2-.54.84-1.08,1.69-1.75,2.74,1.43-.46,2.52-.81,3.61-1.16.06.14.13.28.19.41-.97.78-1.93,1.56-2.9,2.34.08.15.15.3.23.45,2.2-.33,4.46-.42,6.57-1.03,5.05-1.45,6.25-6.45,2.6-10.27-1.27-1.32-2.54-2.64-3.84-3.94-1.5-1.51-3.77-1.55-5.09.13-1.18,1.51-2.29,3.17-3,4.93-.93,2.3-1.45,4.77-2.15,7.16.23.1.46.2.69.29.7-1.18,1.39-2.36,2.09-3.54ZM247.91,241.94c2.26,2.59,4.31,4.93,6.34,7.28,1.35,1.56,2.99,1.99,4.97,1.48,1.98-.51,3.08-1.89,3.38-3.76.39-2.41.5-4.87.76-7.3.24-2.24-1.16-3.35-2.89-3.93-3.63-1.21-7.02.26-10.48.99-.15.03-.26.28-.55.59,1.48.15,2.78.28,4.08.41,0,.17,0,.34,0,.5-1.35.19-2.7.38-4.05.56,0,.11,0,.22,0,.33,1.55.29,3.1.59,4.65.88-.02.18-.05.35-.07.53h-5.31c1.34.7,2.57,1.34,4.13,2.16-2.08.52-3.31-1.24-4.97-.72ZM229.48,278.92c-1.46-.68-2.64-1.24-3.82-1.79,1.94,3.07,4.25,5.75,5.7,8.97l-.44.37c-1.92-2.01-3.83-4.01-5.83-6.1-.15,1.27-.29,2.38-.42,3.5-.22,0-.44-.02-.67-.03-.11-1.23-.33-2.46-.32-3.69,0-2.03-1.18-3.3-2.57-4.48-.19-.16-.56-.2-.82-.14-.12.03-.25.43-.22.64.19,1.36.47,2.7.64,4.06.09.74.02,1.49.02,2.43-1.93-1.38-2.13-3.28-2.47-5.05-.43-2.27-1.62-3.66-4.08-4.15.7,3.12.87,6.28,2.74,8.98,1.45,2.11,3.31,3.33,5.97,3.45,1.6.07,3.27.4,4.76.98,2.02.78,3.9,1.91,5.97,2.96,0-.54.06-.98,0-1.41-.32-2.01-.57-4.04-1.04-6.02-1.24-5.18-4.16-8.96-9.42-10.5-1.45-.43-3.05-.36-4.58-.52-.04.18-.08.36-.12.54.4.29.76.66,1.2.85,2.41,1.06,4.82,2.13,7.27,3.08,1.33.52,2.28,1.23,2.57,3.04ZM226.23,264.62c1.28.64,2.36,1.18,3.43,1.72-.06.15-.12.3-.19.45-1.69-.08-3.23-.59-4.66-1.65-.38-.28-1.13-.4-1.54-.22-2.06.89-4.11,1.82-6.07,2.9-.77.43-1.31,1.28-2.18,2.18.69.1.84.15.98.13.3-.03.61-.07.9-.15,2.8-.78,5.52-.65,8.27.42.73.28,1.9.18,2.55-.24,3.72-2.41,7.36-4.95,11-7.49.81-.57.45-1.15-.2-1.57-.98-.64-1.96-1.3-3-1.86-3.14-1.69-6.49-2.71-10.01-1.8-3.36.88-6.03,2.98-8,5.87-.3.44-.32,1.07-.47,1.62.58,0,1.36.25,1.71-.04,1.04-.84,2.05-1.79,2.83-2.87,1.21-1.68,2.48-3.14,5.01-3.37-1.13,1.51-2.1,2.81-3.07,4.1.09.06.18.13.27.19,2.17-.95,4.33-1.9,6.5-2.85.07.14.15.27.22.41-.12.41-.24.83-.36,1.26,2.4.38,4.82-.89,7.39.55-1.99.94-3.82.79-5.62.81-1.9.02-3.79.09-5.69,1.5ZM210.47,215.54c.3-.08.6-.16.89-.25,0-2.58.17-5.17-.06-7.73-.16-1.87-.98-3.58-3.18-4.01-1.19-.23-2.49-.25-3.56-.74-1.12-.52-1.94-.44-2.79.32-.76.68-1.48,1.41-2.24,2.09-2.35,2.1-2.49,4.58-1.18,7.23,1.43,2.9,4.24,4.32,6.76,6.05.26.18.76.02,1.39.02-.82-1.49-1.53-2.77-2.24-4.05.17-.11.35-.21.52-.32.89.95,1.78,1.9,2.73,2.91-.3-1.39-.56-2.62-.82-3.85.16-.03.31-.05.47-.08.58,1.16,1.16,2.31,1.74,3.47l.25-.08v-2.92c.11-.01.23-.02.34-.03l.97,1.97ZM202.69,221.47c-1.46-1.28-3.14-.83-4.82-.63,1.52-1.75,3.48-1,5.36-1.11-1.42-1.2-2.82-2.36-4.4-3.22-1.72-.93-3.56-1.68-5.41-2.32-2.27-.79-5.04,1.6-3.67,4.38.63,1.28.3,2.29-.36,3.43-.35.61-.56,1.6-.31,2.21.75,1.82,2,3.28,3.9,4.11,2.57,1.12,5.11.59,7.43-.43,1.93-.85,4.07-1.65,5.29-3.93-2,.38-4,.76-6,1.14-.05-.18-.11-.37-.16-.55,1-.44,2-.88,2.99-1.32l-.08-.28h-3.78l-.08-.5c1.36-.32,2.71-.65,4.11-.98ZM196.86,266.75c-.7,1.53.46,3.32-.88,5.12-.44-2.16-.8-3.89-1.15-5.61-.55,1.53.23,3.33-1.68,4.75v-5.27c-.83,1.88-.82,4.06-3.24,5.5.59-1.6,1.04-2.82,1.49-4.04-2.54,1.4-4.63,3.21-5.22,5.97-.31,1.46-.08,3.32.59,4.65,1.33,2.66,7.55,3.54,9.99,1.68.12-.09.21-.23.34-.31.51-.33,1.01-.7,1.55-.97,2.33-1.18,3.03-2.68,2.41-5.25-.61-2.56-2.22-4.42-4.2-6.22ZM199.27,265.86c-.07.11-.14.21-.21.32,2.01,2.29,4.03,4.56,6.01,6.87.97,1.13,2.17,1.49,3.42.82,1.23-.66,2.69-1.39,3.34-2.5,1.04-1.8,2.11-3.94,2.09-5.93-.04-4.6-3.15-6.67-7.7-5.74-1.4.28-2.82.44-4.23.67-.3.05-.59.19-.89.29,0,.12,0,.24,0,.36,1.45.26,2.9.52,4.35.79-.01.18-.03.36-.04.54-.87,0-1.73,0-2.6,0-.91,0-1.82,0-2.77,0,1.53,1.01,3.66.51,4.86,2.05-.04.16-.09.31-.13.47-1.87-.36-3.73-.72-5.6-1.08-.03.09-.06.19-.09.28,1.24.74,2.48,1.48,3.72,2.21-.09.18-.18.35-.27.53-1.09-.32-2.18-.63-3.27-.95ZM241.37,246.42c-.23-.06-.46-.12-.69-.18.15-1.19.3-2.39.48-3.85-.66,1.08-1.09,2.01-1.72,2.77-1.56,1.88-1.62,3.91-1.09,6.19.54,2.37,1.7,3.95,4.15,4.48.43.09.85.36,1.23.62,2.4,1.63,4.36-.12,6.45-.82,1.4-.47.97-1.83,1.37-2.81,1.21-2.98-2.66-8.18-5.66-8.94.16.8.31,1.57.49,2.45-1.94-.39-1.42-2.22-2.31-3.36-.14,1.49.89,2.85-.12,4.03-.19.02-.38.03-.57.05-.19-1.46-.37-2.92-.55-4.32-.46,1.18-.96,2.43-1.45,3.69ZM237.72,235.28c-.47-1.97-1.69-3.26-3.8-3.51-1.15-.14-2.36-.21-3.49-.03-2.54.41-4.68,3.66-3.99,6.13.28,1.02.16,1.76-.37,2.56-.71,1.09-.56,2,.53,2.76,1.38.96,2.72,1.98,4.12,2.92,1.11.75,2.36.86,3.46.08,1.57-1.11,3.07-2.34,4.54-3.59.41-.35.59-.96.97-1.62-1.37.36-2.45.65-3.53.93-.05-.1-.1-.21-.15-.31.42-.52.84-1.04,1.47-1.83-1.88.36-3.43.65-4.97.94-.06-.2-.12-.4-.17-.59,1.15-.36,2.28-.82,3.45-1.06,1.04-.21,1.97-.68,1.56-1.71-.25-.62-1.38-1.04-2.2-1.25-.81-.21-1.71-.05-2.57-.05,0-.26,0-.51.01-.77h5.11ZM206.6,226.63c-1.98,1.01-3.55,1.78-5.11,2.61-2.41,1.28-2.68,2.14-1.34,4.48.29.5.79.95,1.29,1.25,1.45.85,2.95,1.62,4.44,2.42,1.67.9,4.72.69,6.02-.2.73-.5,1.71-.64,2.58-.96.34-.13.78-.22.98-.48,1.03-1.32.96-2.36-.13-3.63-.86-1.01-1.69-2.06-2.56-3.06-.34-.39-.78-.69-1.24-1.1-.29,1.07-.53,1.91-.76,2.76-.19,0-.39-.01-.58-.02-.1-1.01-.2-2.03-.28-2.9-.72,1.28-1.51,2.69-2.3,4.09-.15-.07-.3-.15-.46-.22.42-1.48.84-2.96,1.25-4.44-1.13.85-1.28,2.53-3.35,2.53.52-1.04.92-1.85,1.55-3.12ZM145.13,284.46c1.14,1.87,6.25,3.11,9.86,2.38,2.84-.57,8-6.51,8.26-9.91-.84.42-1.71.87-2.28,1.57-1.19,1.46-2.2,3.06-3.35,4.56-.31.41-.84.65-1.27.96-.1-.11-.2-.22-.3-.33.74-1.16,1.48-2.32,2.22-3.48-1,.18-1.79.59-2.56,1.02-1.56.86-3.07,1.84-4.7,2.55-1.13.49-2.41.61-3.63.9-.07-.22-.15-.45-.22-.67.67-.4,1.33-.81,2.02-1.18,1.93-1.04,3.89-2.04,5.79-3.13.37-.21.8-.8.74-1.13-.07-.33-.69-.59-1.1-.8-.33-.17-.72-.23-1.3-.41,1.09-1.11,2.25-.72,3.09-.38,3.14,1.27,4.79-1.39,7.51-2.39-8.12-1.38-13.51.21-18.75,9.89ZM213.45,226.15c.79,3.37,5.1,7.53,8.14,7.96.65.09,1.41-.14,2.03-.42,3.16-1.43,3.89-4.36,4.37-7.39.39-2.44-1.19-4.88-4.04-4.8-2.39.07-4.77.32-7.15.49v.43c1.1.18,2.2.37,3.3.55v.6c-1.1.1-2.2.19-3.28.29,1.08.33,2.12.66,3.16.98-.04.21-.08.41-.12.62-1.76-.13-3.52-.27-5.71-.44,1.21,1.11,2.11,1.93,3.08,2.83-1.9.81-2.51-.85-3.78-1.71ZM282.13,228.66c-6.39-5.36-15.12-5.94-20.03,1.44,2.25-.36,4.39-.58,5.78-2.7.43-.66,1.35-1.06,2.12-1.4.36-.16.9.12,1.73.27-1.16.74-1.89,1.21-2.95,1.89,1.45,0,2.46.05,3.46-.01,1.83-.11,3.66-.36,5.49-.38.66,0,1.33.47,2,.73-.06.12-.11.24-.17.35-3.01.39-6.01.78-9.02,1.17-.02.15-.05.3-.07.44.86.34,1.74.63,2.58,1.03.39.18.7.55,1.05.84-.47.16-1.01.55-1.39.44-1.27-.38-2.47-.97-3.71-1.43-1.89-.71-4.15-.47-5.47.57,1.79.65,3.88.57,5.23,2.28-2.16-.16-4.31-.74-6.56.89.28.11.51.13.66.26,3.06,2.48,6.37,1.89,9.33.19,3.46-1.98,6.61-4.53,9.93-6.86ZM277.58,255.78c-1.12-4.51-2.95-8.66-7.63-10.77-1.26-.57-2.75-.68-4.15-.9-.31-.05-.69.38-1.04.59.31.28.57.68.94.82.46.18,1.01.1,1.51.21.59.13,1.15.34,1.73.52-.02.15-.04.31-.06.46-.89.14-1.78.29-2.91.47,3.11,2.16,6,4.17,8.89,6.18-.1.17-.2.35-.29.52-2.74-.11-4.47-2.79-7.48-3.35.77,1.34,1.34,2.33,2.01,3.49-3.53-.38-3.1-3.86-4.77-5.8-1.2,1.43-2.29,2.72-3.38,4.02,1.92,1.86,3.32,2.64,5.86,2.86,3.53.31,7.08.45,10.76.68ZM243.76,203.96l.04.53c-2.61.63-5.23,1.26-8.22,1.98,1.64.84,2.78,1.43,3.93,2.02-.11.24-.21.48-.32.73-1.83-.55-3.67-1.09-5.5-1.64-.04.14-.08.28-.12.43.51.33,1.01.65,1.52.98-.99.31-1.89.26-2.78.33-.28.02-.53.35-.8.54.18.22.32.57.54.64,1.27.37,2.54.9,3.83.95,4.06.17,9.53-3.74,11.07-7.72-3.05-2.43-7.99-3-12.08-1.37-2.37.94-4.17,2.43-4.82,4.97.12.13.24.26.37.38,1.19-1.15,2.37-2.29,3.56-3.44.06.07.13.14.19.21-.24.35-.47.7-.93,1.38,2.01-.61,3.62-1.27,5.29-1.57,1.71-.3,3.48-.25,5.23-.35ZM234.02,228.03c.32-1.35.55-2.3.77-3.24.15,0,.3,0,.45,0,.11,1.3-.1,2.75.42,3.87.55,1.21,1.78,2.11,2.81,3.26-.35-2.06-.64-3.77-.93-5.47.16-.03.32-.06.48-.09.53,1.28,1.05,2.56,1.58,3.84.11-.04.21-.07.32-.11-.11-1.23-.21-2.46-.32-3.69.16-.03.32-.06.48-.09.48,1.1.96,2.19,1.42,3.24.5-1.92,1.01-3.73,1.43-5.56.3-1.33.6-2.69.65-4.04.05-1.37-.9-2.2-2.1-2.73-1.13-.5-1.79.17-2.51.9-.89.9-1.8,1.8-2.82,2.54-2.08,1.5-2.3,3.75-2.57,5.99-.04.31.2.65.44,1.4ZM175.16,275.34c-1.69-.31-3.21.52-4.25,2.26-2.31,3.89-3.26,8.11-2.83,12.62.19,2.02.81,2.35,2.73,1.51,3.89-1.71,5.9-4.83,6.36-8.89.23-2.01-.09-4.09-.16-6.13-.22-.03-.44-.06-.66-.09-.24.45-.7.9-.68,1.34.04,1.5.27,2.99.38,4.49.03.36-.16.73-.24,1.1-.29-.21-.59-.4-.85-.64-.28-.26-.52-.56-1.1-1.18v5.69c-.09.01-.18.03-.27.04-.29-.63-.59-1.27-.85-1.83-.8,1.2-1.46,2.36-2.3,3.37-.35.42-1.06.54-1.61.79.17-.57.24-1.19.52-1.7,1.05-1.89,2.16-3.74,3.25-5.61-.1-.1-.2-.19-.3-.29-.77.17-1.54.33-2.31.5-.19-1.02-.05-1.48,1.13-1.87,2.63-.88,3.3-3.08,4.05-5.46ZM218.37,234.57c-.32.6-.45,1.27-.85,1.54-1.06.71-.68,1.47-.43,2.39.37,1.36.61,2.76.81,4.15.22,1.57.32,3.15.5,4.95,1.48-2.86,4.69-4.19,5.5-7.35.41-1.61.77-3.24,1.15-4.86-.14-.07-.29-.13-.43-.2-2.23,1.11-4.27.45-6.24-.62ZM225.19,197.15c.18-.13.37-.26.55-.39-.61-1.07-1.1-2.23-1.85-3.19-2.35-3.05-6.28-2.92-9.39-4.58.86,1.88,1.79,3.62,2.86,5.28.77,1.19,1.61,2.4,2.64,3.35,1.52,1.41,3.43,1.9,5.59,1.45-2.34-1.62-4.68-3.24-7.02-4.86l.32-.67c.71.19,1.52.23,2.11.61,1.45.92,2.8,1.99,4.19,3.01ZM232.68,195.44c5.42-.35,10.29-8.13,7.99-12.87-2.31,2.08-3.91,4.56-5.53,7.53,1.88-.86,3.33-1.53,4.78-2.2.09.15.18.31.27.46-.21.24-.37.55-.63.7-1.05.62-2.1,1.25-3.21,1.76-1.97.91-3.41,2.21-3.67,4.61ZM261.5,190.14c0,.66-.06,1.22.01,1.77.19,1.36.63,1.51,1.78.8.68-.42,1.45-.74,2.22-.98,1.06-.33,1.61.19,1.08,1.13-.52.93-1.35,1.74-2.18,2.44-.87.72-.98,1.18.04,1.82,1.18.75,2.36.64,3.47,0,.28-.16.47-1.15.29-1.31-1.48-1.32-.8-2.51.07-3.75.65-.93.44-2.61-.39-3.33-.79-.68-1.55-.78-2.06.33-.27.58-.46,1.2-.56,1.45-1.38-.14-2.52-.25-3.76-.37ZM263.9,208.86c2.11-.11,4.21-.21,6.32-.32l.15.43c-.61.4-1.18.88-1.83,1.17-.72.33-1.51.49-2.27.73-.03.14-.05.27-.08.41.55.27,1.07.68,1.64.78,1.68.29,4.77-1.31,5.41-2.82.1-.23-.33-.87-.66-1.05-.94-.5-1.97-.84-2.94-1.29-2.11-.97-4.2-.45-5.74,1.96ZM253.76,200.39v-3.13c.75.52,1.27.87,1.8,1.23.73-2.31.17-4.87-1.25-5.97-.35.67-.89,1.3-1.03,2.02-.28,1.5-.91,2.2-2.47,1.53-.04,2.2.87,3.6,2.95,4.32ZM239.98,181.34c-4.43.26-9.41,7.75-7.97,11.41,1.62-4.38,4.3-8.01,7.97-11.41ZM209.29,222.3c-.33.16-.53.21-.66.33-.35.31-.68.64-1.02.96.43.26.84.7,1.28.73.48.03,1.06-.6,1.46-.48,2.35.69,1.7-1.62,2.51-2.44.08-.08-.11-.58-.3-.74-1.48-1.28-3.1-1.22-4.86.19.5.46,1,.91,1.6,1.46ZM226.5,187.66c.23-.04.46-.09.69-.13.35,2.04.69,4.07,1.13,6.64.47-.82.92-1.26.93-1.71.07-3.16-1.29-5.75-3.52-7.98-.21,2.76-.7,5.53.77,8.16v-4.97ZM240.82,237.29c.79.73,1.63,1.58,2.57,2.31.22.17.94.05,1.13-.18.41-.49.62-1.15.92-1.73.21,0,.43-.01.64-.02-.44-.75-.7-1.87-1.36-2.19-1.52-.75-2.96-.38-3.91,1.81ZM227.99,198.73c.1,0,.21.01.31.02.29-.95.76-1.89.8-2.84.02-.44-.8-.91-1.23-1.37-.24.5-.72,1.02-.67,1.48.11.92.51,1.8.79,2.7ZM205.48,288.86c-1.83-.74-1.95-3.23-4.18-3.01.29,2.13,1.69,3.22,4.18,3.01ZM263.58,210.41c-.46.8.47,3.93,1.23,4.08.24.05.82-.5.81-.52-.68-1.17-.48-2.88-2.03-3.56ZM170.62,242.18c0,.17,0,.35.01.52.5,0,1.27.19,1.43-.04.29-.42.21-1.09.29-1.66-.19-.06-.39-.12-.58-.19-.38.46-.77.91-1.15,1.37ZM163.15,239.45c-.38.62-.71.99-.81,1.41-.04.16.6.67.65.64.37-.28.76-.6.95-1,.07-.15-.4-.54-.79-1.04Z"></path><path class="cls-1" d="M120.06,181.69c0-4.55-.25-9.11.08-13.63.27-3.72,1.44-7.29,3.91-10.3,1.37-1.67,2.56-1.85,3.97-.13,2.64,3.23,3.99,6.96,4.04,11.16.09,6.8.26,13.6.38,20.4.03,1.58-.02,3.16,0,4.74.01,1.01-.49,1.29-1.44,1.3-3,.02-6,.07-8.99.21-1.62.08-2.24-.41-2.24-2.08,0-3.89,0-7.77,0-11.66.1,0,.2,0,.3,0ZM126.52,192.02v-20.92c.68.07,1.16.23,1.58.14.55-.12,1.44-.38,1.49-.69.16-1.02-.72-.87-1.37-.83-1.1.06-1.54-.35-1.49-1.52.1-2.19.09-4.39.02-6.58-.01-.37-.5-.73-.77-1.1-.31.35-.75.66-.9,1.07-.15.4-.01.91-.01,1.36,0,2.23,0,4.46,0,6.75-1,0-1.96-.05-2.92.03-.33.02-.64.34-.96.52.33.22.64.48.99.64.22.09.5.02.76.02,1.95-.04,2.08.08,2.08,2.07,0,4.49,0,8.98,0,13.46,0,1.48.01,2.96,0,4.45,0,.86.28,1.39,1.49,1.15Z"></path><path class="cls-1" d="M166.78,183.88c0,3.43-.02,6.85,0,10.28.01,1.43-.42,2.15-2.05,2.03-2.13-.16-4.29-.05-6.43-.09-2.08-.04-2.43-.26-2.53-2.37-.21-4.7-.39-9.4-.37-14.1.02-3.26,0-6.61.74-9.74.53-2.27,2.07-4.4,3.49-6.34,1.18-1.6,2.76-1.4,4.04.16,1.66,2.03,2.74,4.41,2.84,6.99.18,4.38.05,8.78.05,13.17.07,0,.14,0,.21,0ZM157.54,172.92c-.11,1,.1,1.58,1.14,1.14,1.03-.43,1.31.23,1.39.97.15,1.42.28,2.85.25,4.28-.07,4.23-.25,8.47-.33,12.7-.02.86-.24,2.16,1.09,2.13,1.34-.03.81-1.31.8-2.07-.09-5.26-.22-10.53-.39-15.79-.04-1.31.27-1.97,1.74-1.58.87.23,1.61.04,1.75-1.11-.21-.1-.38-.22-.57-.27-.92-.28-2.32-.28-2.66-.88-.46-.81-.12-2.08-.09-3.15.01-.46.2-.92.16-1.37-.07-.86-.25-1.71-.39-2.56-.23,0-.47,0-.7.02-.13,1.58-.28,3.17-.38,4.75-.17,2.7-.16,2.7-2.8,2.79Z"></path><path class="cls-1" d="M177.63,185.33c.25-4.28.28-8.59.86-12.82.27-1.97,1.42-3.91,2.54-5.63,1.15-1.77,2.63-1.67,4.05-.1,1.74,1.92,2.8,4.17,2.9,6.76.15,4.07.14,8.15.26,12.22.05,1.63.35,3.25.36,4.87,0,1.47-.3,2.95-.33,4.42-.03,1.21-.69,1.64-1.71,1.59-2.44-.13-4.88-.34-7.32-.55-1-.09-1.46-.53-1.42-1.7.11-3.01.04-6.03.04-9.05-.08,0-.16,0-.24-.01ZM179.81,174.85l-.06.38c.4.15.8.43,1.2.43,1.54,0,1.9.91,1.87,2.2-.1,4.85-.21,9.71-.29,14.56,0,.56-.59,1.51.58,1.46.28-.01.71-.95.74-1.48.11-2.2.09-4.4.1-6.6.01-2.95,0-5.9,0-8.84.5-.1.71-.09.88-.18.36-.19.7-.43,1.05-.64-.35-.19-.67-.49-1.04-.55-1-.15-1-.76-.96-1.56.08-1.68.09-3.37.06-5.06,0-.37-.28-.73-.43-1.1-.17.02-.34.05-.51.07-.16,2.3-.31,4.6-.47,6.92h-2.74Z"></path><path class="cls-1" d="M65.02,183.43c0-3.47-.06-6.95.02-10.42.07-2.95,1.29-5.55,2.93-7.94,1.11-1.61,2.47-1.77,3.78-.29.85.96,1.65,2.2,1.88,3.42.57,3.09,1.05,6.24,1.13,9.38.14,5.5-.08,11.01-.1,16.51,0,1.28-.12,1.84-1.76,1.63-1.84-.23-3.75.21-5.64.32-2.22.13-2.49-.13-2.49-2.33,0-3.43,0-6.85,0-10.28.08,0,.16,0,.24,0ZM70.65,173.94c-.16-2.55-.32-5.12-.48-7.68-.22,0-.45.01-.67.02-.08,1.7-.26,3.41-.22,5.1.07,2.54.13,2.53-2.24,2.4-.09,0-.18.09-.59.31.52.59.92,1.48,1.47,1.58.99.18.98.74.98,1.4-.04,5.15-.12,10.3-.14,15.45,0,.45.36.9.55,1.35.33-.42.91-.82.94-1.25.17-2.65.24-5.31.28-7.97.04-3.15,0-6.3,0-9.44,1-.16,1.91-.31,2.81-.46-.02-.2-.03-.41-.05-.61-.82-.07-1.63-.13-2.64-.21Z"></path><path class="cls-1" d="M208.29,184.73c0,3.37-.02,6.74,0,10.1.01,1.79-.15,1.96-1.89,1.94-2.19-.02-4.37,0-6.56.04-1.35.02-1.71-.66-1.69-1.94.1-4.84.24-9.69.1-14.53-.1-3.64.53-7.02,2.37-10.14,1.6-2.72,3.98-2.72,5.32.2.98,2.14,1.67,4.51,1.99,6.84.34,2.45.08,4.99.08,7.49.09,0,.17,0,.26,0ZM203.12,194.68c.25-.05.5-.11.74-.16v-16.43c.49.06.64.11.78.08.49-.1.98-.23,1.47-.34-.39-.26-.83-.47-1.17-.79-.37-.35-.9-.78-.91-1.2-.04-1.37.16-2.75.17-4.12,0-.3-.39-.6-.6-.9-.22.24-.61.47-.64.74-.12.85-.15,1.72-.14,2.58.02,1.32.1,2.63-1.97,2.41,1.91,1.82,1.96,1.82,2.04,4.25.06,1.58-.04,3.16-.09,4.74-.08,2.5-.21,4.99-.24,7.49,0,.54.36,1.09.55,1.63Z"></path><path class="cls-1" d="M42.14,135.95c-1.59,1.71-3.19,3.43-4.93,5.3,1.67.83,2.8,1.07,3.87-.31.32-.42,1.07-.51,1.62-.75.1.54.2,1.08.31,1.62.1.51.21,1.03.31,1.54.45-.18,1-.25,1.32-.56.61-.59,1.05-1.34,1.64-1.96.35-.37.84-.62,1.26-.93.24.47.52.92.7,1.4.18.51.27,1.05.53,2.13,1-1.09,1.7-1.85,2.66-2.91.47.98.88,1.83,1.38,2.86.37.04,1.01.11,1.67.18-.82,1.55-2.14,1.9-3.51,1.04-.33-.21-.86-.39-1.18-.28-1.24.44-2.08.02-2.78-1.08-2,.68-3.92,3.7-6.18.42-1.03,0-2.16.18-3.21-.04-2.12-.44-2.66-1.74-1.6-3.63.36-.65.99-1.15,1.38-1.8.19-.32.27-.91.1-1.19-.16-.26-.83-.48-1.09-.35-2,1.01-3.93.3-5.82-.25-1.57-.46-1.8-1.9-.8-3.92-2.3-1.82-2.78-3.17.87-5.2-1.35-3.16-1.03-4.2,1.66-5.19-.11-.27-.22-.54-.34-.8-.79-1.75-.18-3.05,1.75-3.37,1.65-.27,3.33-.33,5.03-.49.56,1.04.05,1.57-.86,1.8-.83.21-1.71.23-2.55.42-.54.12-1.04.39-1.56.6.36.38.7.77,1.08,1.13.18.17.41.27.87.56-.89.69-1.65,1.3-2.44,1.89-1.56,1.16-1.56,1.45-.03,2.72.26.22.5.47.87.81-1.39.95-2.67,1.82-4.26,2.91,1.2.51,2.13.91,3.33,1.42-.69.89-1.31,1.7-2.23,2.89,1.4.42,2.71,1.2,3.89,1.04,1.23-.17,2.34-1.25,3.61-1.99.06.35.12.54.12.73,0,1.57.42,1.82,1.8,1.2.45-.2,1.01-.18,1.52-.26.07.21.15.42.22.62Z"></path><path class="cls-1" d="M31.09,98.97c.39.78.81,1.55,1.17,2.35.2.43.53,1.07.37,1.33-.2.31-.86.4-1.34.45-.71.09-1.43.06-2.14.08.41.64.81,1.29,1.22,1.93.11.17.25.32.6.74-1.4.94-2.75,1.85-4.15,2.8,1,1.29,2.16,1.65,3.66,1.16,1.18-.39,2.11-.28,2.18,1.34.06,1.29.98,1.24,1.9.93.28-.09.48-.46.75-.51.55-.09,1.23-.24,1.64,0,.3.18.46,1.02.32,1.44-.48,1.4.32,1.78,1.34,1.61,1.2-.19,2.36-.72,3.49-1.1-.09,1.4-1.83,2.96-3.67,2.97-.89,0-1.91-.21-2.62-.69-.53-.36-.67-1.31-1-2.03-2.62.59-2.47,1.29-3.95-1.94-1.75-.42-3.24-.61-4.6-1.14-1.84-.72-1.96-2.46-.37-3.69.6-.47,1.24-.89,1.85-1.33-1.44-2.62-1.35-2.84,1.12-4.5.4-.27.67-1.07.63-1.59-.17-2.15.36-2.7,2.55-2.28.08-.33.17-.67.26-1.01.54-1.98,2.16-2.51,3.72-1.21.72.6,1.43,1.21,2.46,2.09-.01-3.84,2.52-4.48,4.92-5.25.15.16.3.32.46.48-.8.75-1.48,1.79-2.43,2.16-1.35.53-1.68,1.21-1.43,2.54.33,1.75-.07,2.12-1.73,1.48-1.35-.52-2.59-1.3-4.04-2.05-.45.58-.7,1.17.15,1.8.24.18.53.39.63.66.16.42.18.9.26,1.35-.47-.04-1.03.05-1.4-.16-.8-.47-1.51-1.11-2.26-1.68-.18.15-.36.3-.53.45Z"></path><path class="cls-1" d="M243.84,133.86c.72-.77,1.42-1.49,2.08-2.24.75-.87,1.53-1.06,2.54-.39.48.32,1.11.49,1.69.58,2.03.31,2.67,1.08,2.37,3.11-.1.65-.4,1.28-.45,1.93-.04.44.08.99.34,1.33,1.16,1.52,1.07,2.53-.26,3.86-.37.37-.69,1.16-.55,1.59.58,1.71.49,2.05-1.3,2.81-.44-.96-.99-1.89-1.25-2.9-.11-.4.36-1,.67-1.45.45-.64.98-1.22,1.74-2.15-1.06.1-1.64.16-2.34.23.12-2.26,2.16-3.96,1.74-6.45-.89.68-1.62,1.23-2.58,1.97-.2-1.17-.34-1.98-.49-2.87-1.64,1.29-3.16,2.48-4.91,3.84-.47-1.23-.79-2.06-1.1-2.89-.14-.04-.27-.09-.41-.13-.56,1.31-1.12,2.63-1.69,3.94.11.05.21.1.32.14.5-.36,1-.73,1.53-1.11.52,1.15-.69,4.57-1.68,4.68-.49.05-1.07-.63-1.67-1.02-.07.19-.19.69-.43,1.14-.23.43-.59.79-1.13,1.48-.56-2.43-1.04-4.54-1.53-6.65-.13,0-.27.02-.4.03-.19,1.22-.39,2.44-.58,3.66-.21.03-.42.05-.63.08-.21-.49-.6-.98-.6-1.47.01-.96.12-1.96.44-2.86.21-.58.84-1.4,1.31-1.41.59-.01,1.22.65,1.78,1.08.22.17.31.5.67,1.13.82-.96,1.52-1.75,2.17-2.57.28-.36.4-.84.69-1.18,1.24-1.47,2.6-1.11,3.88,1.13Z"></path><path class="cls-1" d="M47.19,89.12c-.96.42-1.89.89-2.88,1.23-.3.1-.86-.07-1.09-.31-2.15-2.23-2-4.68.35-6.82.03-.03.04-.09.06-.14-.75-1.49-1.62-2.94-2.2-4.5-.74-1.97-.26-2.52,1.78-2.87.56-.09,1.19-.55,1.51-1.03,1.41-2.05,1.37-2.08,3.43-.92.16-.43.27-.88.48-1.28.66-1.26,2.07-1.45,3.03-.39.51.56.84,1.31,1.42,1.79.41.34,1.19.66,1.61.49.82-.33,1.4-1.04.95-2.1-.32-.75-.76-1.49-.87-2.28-.17-1.19-.26-2.43-.1-3.6.21-1.53,1.09-1.91,2.56-1.31.51.21,1,.47,1.54.74.24-1.04.45-1.98.74-3.23,1.06.71,1.82,1.22,2.28,1.54-.4,1.17-.73,2-.96,2.85-.26.95-1.45,1.45-2.22.85-.43-.34-.83-.74-1.59-1.43-.22.95-.59,1.66-.47,2.26.2,1.02.59,2.06,1.13,2.95.61,1.01.51,1.81-.2,2.64-.1.12-.21.23-.33.32-3.67,2.47-3.86,3.01-6.18-.93-.1-.18-.16-.38-.24-.56-.14.06-.29.11-.43.17-.08.4-.27.81-.23,1.21.08,1.01-.09,2.01-1.15,2.19-.52.09-1.17-.63-1.87-1.04-.17,2.79-2.26,2.07-4.57,1.66.48,1.04.71,1.78,1.12,2.4.65.98,1.42,1.87,2.13,2.81.52.69.42,1.22-.45,1.52-.19.07-.36.2-.55.27-1.06.39-1.76,1.27-1.3,2.23.37.76,1.41,1.23,2.22,1.72.44.26,1.02.29,1.53.43.01.16.02.33.03.49Z"></path><path class="cls-1" d="M23.91,170.14c.2,1.27.41,2.46.56,3.67.1.79-.14,1.23-1.11,1.18-.63-.03-1.29.3-1.93.46.31.76.59,1.54.95,2.28.17.34.48.62.75.94-1.23.53-2.37,1.03-3.52,1.52l.12.53c.54.21,1.11.37,1.61.65.31.18.5.56.74.85-.31.22-.6.56-.95.62-.8.16-1.63.19-2.77.3.55.75.87,1.18,1.19,1.61-1.12.51-1.82.28-2.27-.76-.59-1.38.21-1.97,1.44-2.27-1.37-1.32-1.28-2.19.14-3.39.35-.3.74-.9.68-1.3-.51-3.29-.39-3.49,3.08-4.01-.16-1.33-.35-2.67-.47-4.02-.11-1.17.12-2.06,1.66-1.33.15-.48.27-.86.39-1.25.51-1.56,1.63-1.77,2.9-.67.47.41,1.18.53,1.78.79.4.18.8.37,1.2.55.25.11.51.32.75.31,2.33-.09,3.04.62,3.28,2.89.12,1.11.53,2.26,1.08,3.24.53.94.75,1.8-.16,2.38-.29.19-1.16-.52-1.76-.82.06-.12.11-.23.17-.35-.57-.03-1.14-.05-1.61-.07.11-1.93.21-3.69.32-5.67-1.19.66-1.25,2.58-2.81,1.82-.2-.74-.38-1.39-.55-2.01-.82.51-1.5.93-2.17,1.34-.13-.79-.26-1.58-.42-2.52-.97.78-.18,2.93-2.3,2.48Z"></path><path class="cls-1" d="M150.59,206.48c.48-1.01.9-1.87,1.4-2.92-.55,0-.88.02-1.22,0-1.54-.11-1.97-1.07-1.24-2.43.7-1.3,1.23-2.69,1.74-4.37-2.03.93-3.02.3-3.17-1.85q-.93,3.2-3.38,2.84c.17.95.41,1.82.45,2.71.03.48-.13,1.24-.45,1.4-.4.21-1.1.06-1.58-.14-.77-.32-1.47-.81-2.39-1.32q1.52,3.43-.31,4.18c-.46-1.56-.96-3.08-1.32-4.63-.09-.4.2-1.25.43-1.29.59-.11,1.27.01,1.85.23.43.16.75.61,1.5,1.26.09-1.2.19-1.96.2-2.73.04-1.99.39-2.31,2.31-2.6.58-.09,1.06-.78,1.6-1.17.58-.42,1.33-1.24,1.76-1.11.66.2,1.11,1.08,1.84,1.89,2.76-.06,3.13.75,2.02,5.56,1.82.62,1.8,1.88,1.04,3.36-.38.74-.19,1.23.41,1.85.43.45.82,1.52.58,1.91-.44.71-1.19.56-1.9-.14-.37-.37-1.2-.29-2.19-.49Z"></path><path class="cls-1" d="M170.58,227.56c1.23-1.1,2.47-2.21,4.04-3.62.03,2.69-3.59,3.48-2.21,6.41.5-.51,1.02-.88,1.33-1.37.41-.64.62-1.4,1-2.06.22-.38.62-.67.93-.99.25.49.72.98.71,1.46,0,.84-.31,1.67-.54,2.8.76-.58,1.3-1.08,1.93-1.44.34-.2.82-.17,1.23-.25.02.46.24,1.13.01,1.35-.8.8-1.66,1.82-2.67,2.08-1.6.41-3.34.36-5.01.35-2.44-.01-4.87-.15-7.3-.27-.93-.05-1.86-.18-2.83-.28.3-.54.55-.89.7-1.28.19-.53.31-1.09.45-1.64.54.16,1.08.31,1.77.52.29-1.5.6-3.1.92-4.8,1.58.61,1.05,1.87,1.3,2.81.14.52.41,1.01.62,1.51.3-.42.7-.8.89-1.26.43-1.08.7-2.23,1.16-3.29.17-.39.71-.61,1.09-.91.22.42.64.85.62,1.25-.06.94-.34,1.86-.53,2.78.13.05.26.09.39.14Z"></path><path class="cls-1" d="M85.64,258.58c.98-2.69,1.83-5.02,2.68-7.34.22.06.43.11.65.17,1.38,1.79-1.52,3.25-.49,5.23,1.37-1.26,2.7-2.49,4.17-3.85,1.19,1.29-.35,2.49-.58,4,4.04.41,8.28-.81,12.13,1.13.02.16.05.33.07.49-.63.17-1.25.47-1.88.48-5.9.14-11.79.21-17.69.36-.97.02-1.48-.31-1.47-1.26.02-1.99.04-3.99.17-5.98.03-.45.51-.87.78-1.31.34.41.95.8.97,1.22.08,1.72-.07,3.45-.04,5.17.01.51.35,1.02.53,1.49Z"></path><path class="cls-1" d="M253.71,177.72c.48.84,1.12,1.96,0,2.87-.58.47-1.54.59-2.34.63-.35.02-.73-.56-1.09-.86.35-.19.68-.44,1.06-.55,1.13-.33,1.09-.91.41-1.67-.62-.7-1.25-1.39-2.09-2.31,2.35-.85,4.96.02,6.65-2.35-.81-.34-1.41-.57-1.99-.83-.87-.38-.93-.88-.17-1.45.12-.09.3-.13.39-.24.55-.62,1.08-1.26,1.61-1.89-.71-.46-1.42-.93-2.14-1.38-.45-.28-.92-.52-1.38-.78.42-.37.87-.71,1.26-1.11.47-.49.96-1,1.29-1.58.1-.18-.33-.94-.44-.92-1.45.25-2.25-.96-3.38-1.4-.8-.31-1.7-.35-2.55-.56-.27-.07-.5-.28-.89-.5,1.05-1.15,2.04-1.97,3.62-1.43.29.1.61.18.9.15,1.14-.14,2.15-.23,2.14,1.44,0,.29.61.64.99.88,2.04,1.26,2.18,2.14.61,3.98-.16.19-.3.41-.41.55.77.78,1.93,1.45,2.17,2.36.22.82-.58,1.9-1.03,3.16.9.72,1.43,2.17.29,3.47-.89,1-2.3,1.55-3.51,2.32Z"></path><path class="cls-1" d="M222.24,133.37c-.31-1-.69-1.9-.85-2.84-.25-1.45.37-2.31,1.74-2.26,1.44.05,1.49-.76,1.38-1.75-.12-1.06-.36-2.11-.47-3.17-.23-2.3.75-3.13,2.97-2.52.44.12.86.32,1.45.55.29-.55.57-1.13.89-1.68.79-1.39,1.83-1.53,2.97-.48.42.39,1.01.6,1.41.99.19.19.27.69.16.94-.2.46-.51.99-.92,1.21-.25.14-.88-.13-1.15-.41-.34-.34-.49-.86-.82-1.49-.95,1.5-2.17,2.69-1.41,4.59.15.37-.11.91-.19,1.38-.4-.32-.94-.56-1.17-.98-1.35-2.41-1.32-2.42-2.88-3.15.1,1.39.1,2.6.28,3.77.19,1.19.68,2.35.81,3.54.19,1.83-.23,2.07-1.83,1.26-.31-.16-.63-.31-1-.5-.63,2.01,2.59,2.82,1.63,4.61-1.14.35-2.01.62-3.12.97.71.86,1.2,1.31,1.51,1.87.16.29.09.8-.06,1.11-.06.13-.69.14-.94,0-1.13-.62-2.21-1.33-2.37-2.79-.17-1.52.62-2.38,2-2.78Z"></path><path class="cls-1" d="M79.11,71.83c.51-2,2.11-2.63,4.15-2.12,1.99.5,2.39,1.05,2.23,3.13-.03.41.07.88-.1,1.21-.92,1.72-.04,2.67,1.32,3.54,1.35.86,1.32,2.06.4,3.49.66,0,1.25-.18,1.59.04.67.42,1.76,1.18,1.68,1.57-.32,1.42.66,1.73,1.47,2.1,1.11.52,1.58,1.26,1.65,2.49.03.64.61,1.23.83,1.87.2.58.52,1.38.28,1.79-.3.53-1.11.77-1.94,1.28v-2c-.64-.15-1.3-.31-2.11-.51.3-.84.56-1.54.8-2.25.32-.9.12-1.42-.97-1.25-.4.06-.81.13-1.22.12-.92-.03-1.31-.43-.95-1.39.21-.55.28-1.14.42-1.72-.13-.15-.26-.29-.39-.44-.76.43-1.5.89-2.28,1.29-.4.21-.86.31-1.29.46-.08-.45-.32-.96-.2-1.35.28-.87.71-1.69,1.14-2.51.58-1.11.26-1.87-.82-2.35-.65-.29-1.33-.5-2.01-.72-1.13-.36-1.4-1.1-.46-1.8,1.32-.98,1.18-2.32,1.16-3.61-.02-1.19-.87-1.59-2.03-1.15-.77.29-1.56.52-2.34.78Z"></path><path class="cls-1" d="M69,59.29c1.06-.24,2.07-.68,3.06-.64,1.26.05,1.83.96,1.67,2.27-.12,1.01-.1,1.81,1.26,2.16.5.13.81,1.37,1,2.16.14.56-.14,1.22-.1,1.82.05.9.29,1.58,1.52,1.3.49-.11,1.41.16,1.6.53.45.86-.29,1.15-1.03,1.43-.65.25-1.18.8-1.78,1.17-1.07.65-1.65.35-1.61-.87.03-.93.13-1.8-.81-2.46-.19-.14.14-.99.2-1.52.06-.53.09-1.07.14-1.6-.51.08-1.01.2-1.52.24-.52.03-1.04-.02-1.56-.04.04-.51-.09-1.13.15-1.51.68-1.1.85-2.15.21-3.36-.76.68-1.38,1.54-2.22,1.9-1.47.63-1.34-.9-1.84-1.77-.29.16-.63.26-.84.49-1.71,1.84-2.03,1.8-2.92-.57-.66.55-1.27,1.06-2.04,1.71-.56-1.94.37-3.21,1.19-4.45.13-.2,1.05-.04,1.48.19.35.19.49.74.75,1.16.75-.34,1.48-.95,2.16-.9.67.05,1.28.77,1.88,1.17Z"></path><path class="cls-1" d="M249.03,157.21c.28-.72.52-1.3.78-1.97-.47-.13-.79-.21-1.17-.32.36-.76.68-1.46.9-1.92-.96-.54-2.03-.81-2.41-1.47-.34-.59.09-1.61.18-2.45.21,0,.42-.02.63-.03.21.51.41,1.02.77,1.91.48-.48.95-.82,1.25-1.27,1.1-1.65,2.1-3.37,3.22-5.01.61-.89,1.53-1.51,2.62-.94,1.04.55,1.22,1.57.85,2.67-.24.72-.51,1.43-.79,2.2.19.14.33.28.5.37,1.91,1.07,2.14,1.72,1.15,3.86-.45.98-.79,1.72.54,2.33.37.17.72,1.16.55,1.55-.34.8-1.03,1.44-1.58,2.15-.14-.09-.27-.18-.41-.27v-1.44c-2.58-.07-2.65-.23-1.16-2.75-2.06-1.32,1.17-2.35.03-3.76h-2.17c.64-1.75,1.2-3.31,1.88-5.18-.67.18-.87.17-.93.26-.99,1.34-1.99,2.68-2.92,4.06-.49.73-.74,1.3-.15,2.39.59,1.09.35,2.77.1,4.12-.2,1.09-1.17,1.47-2.27.91Z"></path><path class="cls-1" d="M143.95,226.95c1.79.93,1.28,3.97,4,3.31.11-2.28.21-4.53.32-6.78.21-.02.42-.04.62-.06.36,2.14.73,4.28,1.09,6.42,1.84-1.62.96-4.47,3.71-5.8-.31,2.18-.57,3.93-.82,5.68.11.03.22.06.34.08,1.08-1.55,2.16-3.1,3.24-4.65.16.05.32.1.48.14,0,.42.13.9-.02,1.26-.75,1.84-1.5,3.69-2.42,5.44-.26.5-1.09.95-1.68.98-2.85.12-5.71.17-8.56.06-.96-.03-1.99-.45-2.82-.96-.36-.22-.31-1.12-.44-1.71.5.1,1.01.2,1.52.29.52.09,1.04.17,1.56.25.02-.42.07-.84.06-1.26-.03-.82-.1-1.63-.16-2.7Z"></path><path class="cls-1" d="M132.12,262.39c1.04-2.17,2.04-4.37,3.17-6.5.21-.4,1.01-.84,1.38-.73.8.23.45.84.19,1.45-.79,1.82-1.49,3.68-2.19,5.54-.11.29-.05.64-.08,1.15,2.29-1.24,2.89-4.51,6.27-4.23-.87,1.27-1.65,2.4-2.52,3.67,1.65.65,3.05.32,4.49-.02.52-.12,1.13.11,1.69.19-.49.47-.96,1.31-1.49,1.36-4.11.38-8.23.63-12.36.84-.37.02-1.12-.59-1.09-.83.31-2.36.72-4.72,1.17-7.06.06-.32.49-.56.75-.84.16.04.33.08.49.13-.11,1.91-.22,3.83-.33,5.74l.46.15Z"></path><path class="cls-1" d="M14.2,197.43c-.19,1.37-.35,2.47-.51,3.59q-2.7-1.03-3.44,1.2c-.99-.5-1.94-.97-3.21-1.61.29.59.38.99.63,1.22,1.04,1,.56,1.59-.51,2.01-.71.28-1.44.52-2.52.9.44,1.12.85,2.18,1.34,3.41-.73.99-1.6,2.2-2.51,3.36-.15.19-.7.35-.78.27-.25-.27-.59-.8-.48-1,.51-.93,1.17-1.79,1.82-2.75-2-2.62-1.59-4.41,1.23-5.56.19-1.47-.08-3.14.63-3.96,1.09-1.27,2.2.45,3.37.94.67-1.12,1.46-1.94,2.81-1.09.36-.55.6-1.09,1-1.46,1.49-1.36,2.25-1.43,3.49-.16.76.78,1.72,1.4,2.66,1.98,1.26.77.16,1.31-.12,2.4-1.66-1.25-3.09-2.34-4.88-3.69Z"></path><path class="cls-1" d="M37.11,196.43c-.48-1.31-.84-2.31-1.29-3.54-.7.82-1.28,1.5-1.87,2.18l-.45-.14v-3.4l-.33-.15c-.51.82-1.03,1.64-1.51,2.4-.75-.05-1.55.08-2.17-.19-.52-.23-.98-.88-1.2-1.44-.32-.81-.4-1.72-.59-2.58l-.51-.11c-.46.62-.88,1.28-1.4,1.83-.32.33-.8.51-1.21.75-.15-.4-.4-.79-.42-1.2-.06-.98.02-1.99-1.31-2.39-.15.2-.3.46-.51.65-.3.27-.65.48-.98.71-.17-.48-.57-1.03-.46-1.44.47-1.74,2.7-2.36,4.08-1.2.26.22.47.51.68.73,2.75-.94,2.93-.81,4.83,3.39q3.39-2.72,4.6-.83c.9.28,1.8.28,2.13.72,1.19,1.59,1.18,3.42-.1,5.24Z"></path><path class="cls-1" d="M37.29,180.41c1.96-.18,2.82-1.51,3.53-3.14.2.28.38.43.42.6.33,1.59,1.2,2.56,2.81,3.03,1.98.58,2.46,1.86,1.35,3.62-.56-.93-1.06-1.77-1.59-2.65-1.67,1.61-1.86,1.57-3.23-.42-1.3.34-2.52.79-3.77.95-2.43.31-1.07-1.86-1.77-2.9-.23.25-.42.51-.66.7-.47.37-.98.69-1.47,1.03-.31-.55-.79-1.07-.89-1.65-.21-1.26-.13-1.27-1.6-1.57v2.53c-1.7-.56-2.23.06-1.96,1.63.04.24-.51.58-.81.89-1.21-1.37-.84-2.76-.3-4.1.08-.19.68-.16,1.16-.25,0,.02,0-.18.02-.37.29-2.34,1.88-2.98,3.92-1.61.36.24.77.54,1.17.57,2.84.23,2.84.21,3.68,3.09Z"></path><path class="cls-1" d="M240.13,155.65c1.22-2.44,2.43-4.87,3.65-7.31.2.07.4.14.6.22-.03.41.03.85-.1,1.22-1.09,3.08-2.22,6.13-3.31,9.21-.75,2.1-1.43,4.23-2.22,6.32-.21.55-.69,1-1.04,1.49-.25-.65-.81-1.36-.69-1.93,1.28-5.88,1.2-11.87,1.5-17.83.03-.66.07-1.34.23-1.97.1-.37.45-.68.68-1.02.18.37.52.73.52,1.1.04,2.3.01,4.61-.02,6.91-.02,1.16-.11,2.32-.17,3.48.13.04.25.07.38.11Z"></path><path class="cls-1" d="M174.98,214.16c.94-1.26,1.25-3.02,3.37-2.68,1.68.27,2.91,1.63,2.92,3.33,0,.67.38,1.35.62,2.01.2.57.41,1.14.66,1.69.27.59.49,1.24.9,1.7,1.07,1.21.84,2.06-.86,2.59-.17-.4-.35-.81-.56-1.29-1.08-.08-2.22-.16-3.37-.24-.27-1.56,2.35-1.68,1.45-3.47-.68.23-1.33.45-2.14.73.31-1.85.6-3.57.93-5.55-2,.67-2.45,1.97-2.56,2.99-1.07.13-1.87.31-2.66.29-.42,0-.94-.24-1.23-.55-.37-.39-.54-.96-1.03-1.89-.62,1.17-1.06,2.01-1.57,2.95-.78.04-1.19-.42-.97-1.29.21-.82.53-1.62.89-2.39.38-.82,1.01-.86,1.79-.46,1.1.55,2.24,1.01,3.41,1.53Z"></path><path class="cls-1" d="M107.77,240.17c.36-.47.7-.95,1.07-1.41.38-.47.78-.91,1.18-1.37.18.02.35.03.53.05.07.84.15,1.69.22,2.59,2.65.55,5.71-.88,8.9.89-.92.31-1.49.64-2.08.67-4.43.23-8.87.35-13.3.62-1.46.09-1.94-.44-1.83-1.82.24-2.89,1.3-6.63,4.17-7.49-.66,2.23-2.14,4.17-1.31,6.68.53-.87,1.02-1.77,1.61-2.6.22-.31.67-.46,1.01-.68.05.37.2.77.13,1.11-.18.88-.47,1.73-.71,2.59.14.05.27.11.41.16Z"></path><path class="cls-1" d="M237.34,107.05c-.35.39-.75.75-1.03,1.18-.39.6-.66,1.27-1.04,1.88-1.38,2.27-2.3,2.27-3.9-.32.06.81.06,1.27.13,1.72.09.5.29.98.35,1.49.14,1.09.5,2.27-1.12,2.71-.33.09-.52.7-.76,1.07-.28.43-.55.86-.88,1.36-1.16-1.69-1.17-2.84.19-3.95.82-.67.8-1.22.59-2.08-.19-.78-.18-1.63-.15-2.44.05-1.2.78-1.61,1.75-.96,1.7,1.14,2.74.44,3.41-1.46.7-1.97,2.09-2.62,3.88-1.6.54.31.83,1.41.88,2.17.07,1.15-.28,2.21.74,3.31.54.58.22,1.99.2,3.02,0,.19-.4.51-.62.51-.2,0-.47-.31-.61-.54-.56-.94-1.17-1.86-1.6-2.86-.24-.54-.24-1.22-.21-1.83.04-.72.22-1.43.34-2.14-.19-.07-.39-.15-.58-.22Z"></path><path class="cls-1" d="M160.82,204.3c.78-.66,1.58-1.69,2.84-.82,1.28.88,2.24,1.99,1.75,3.71,1.87,1.34,1.85,1.34,1.04,3.7-.1.3-.04.79.14,1.04,1.24,1.69.45,3.75-1.95,4.42.06-.6.1-1.11.17-1.62.07-.5.17-.99.26-1.48-1.79-.34-1.78-.36-.92-2,.32-.61.5-1.29.83-2.18-1.33.47-2.25.79-3.17,1.12.41-1.92,2.36-3.15,1.13-5.27-.72.74-1.3,1.82-1.95,1.85-.74.04-1.53-.83-2.36-1.34-.26.35-.44.77-.75.97-.28.18-.8.28-1.06.14-.22-.12-.4-.71-.3-.98.34-.85.74-1.71,1.29-2.42.21-.27,1-.36,1.37-.19.57.26,1.02.82,1.63,1.35Z"></path><path class="cls-1" d="M233.8,168.98c-.3-.88-.76-1.75-.87-2.65-.24-1.92-.24-3.87-.47-5.79-.08-.65-.58-1.25-.86-1.88-.22-.51-.54-1.03-.55-1.55,0-.39.41-.78.63-1.17.23.35.48.7.7,1.05.11.17.18.36.28.56,1.5-2.18,1.22-5.36-.62-7.05-.27-.24-.71-.32-1.08-.42-1.65-.44-2.13-1.92-1.06-3.27.3-.38.48-.86.95-1.71.32.63.66,1.03.72,1.48.08.58-.05,1.19-.1,1.87,1.79-.89,2.95-.3,3.24,1.9.27,2,.35,4.1.02,6.07-.6,3.62-.13,7.22-.25,10.82-.02.54-.06,1.07-.09,1.61-.19.05-.39.09-.58.14Z"></path><path class="cls-1" d="M11.33,212.83c.52,1.23,1.04,2.47,1.74,4.14.47-2.34.89-4.38,1.3-6.43.24.03.48.05.72.08.09.92.23,1.84.26,2.76.08,2.38,1.75,3.78,4.12,3.39.4-.07.8-.15,1.21-.21,1.72-.27,2.07,0,2.41,1.87-1.96.1-3.92.27-5.88.29-2.19.02-4.39.03-6.56-.17-1.61-.15-2.43-1.36-2.21-3.47.72.78,1.44,1.55,2.18,2.36v-4.46c.23-.05.47-.11.7-.16Z"></path><path class="cls-1" d="M42.24,204.17c-1.36,1.42-3.01,1.46-4.52,1.3-1.19-.13-2.23-.39-3.11.78-.16-.05-.32-.1-.48-.15-.07-1.3-.14-2.59-.22-4.12-.63.53-1.07.9-1.64,1.38-.37-1.08-.72-2.11-1.13-3.31q-.68,2.52-3.41,1.26c-.16.81-.31,1.59-.51,2.62-.39-.21-1.09-.42-1.09-.61,0-1.25.05-2.53.4-3.7.07-.22,1.55-.03,2.61-.03-.02.04.12-.22.28-.46.3-.49.61-.98.91-1.47.53.43,1.17.78,1.55,1.31.55.76.97,1.34,2.09,1.42.68.05,1.5.86,1.87,1.54.38.68.58,1.04,1.48,1.14,1.61.17,3.18.7,4.92,1.11Z"></path><path class="cls-1" d="M148.54,186.43c-1.33-2.48-1.83-31.05-.59-32.81.3,1.04.69,1.8.71,2.57.08,2.86.04,5.73.05,8.6,0,3.98-.02,7.96.02,11.94.03,2.65.17,5.3.2,7.95,0,.58-.25,1.17-.39,1.75Z"></path><path class="cls-1" d="M9.85,193.46c-.07-1.2-.53-2.45-.1-3.13.83-1.3,1.93-2.44,2.69-3.82.12-.23,1.09-.3,1.36-.07.89.72,1.44.18,2.18-.22.46-.25,1.21-.4,1.63-.19,1.46.73,2.76,4.02,2.29,6.22-.68-.89-1.24-1.47-1.62-2.16-.38-.69-.58-1.47-.98-2.52-1.14,1.36-2.42,1.52-3.65.96-1.04.66.68,3.94-2.64,2.02.08,1.72,1.61,2.22,2.15,3.4-.92.71-1.86,1.44-2.8,2.16.05.07.11.14.16.2-.6.33-1.19.66-1.89,1.05-1.86-1.06-1.56-2.11,1.23-3.89Z"></path><path class="cls-1" d="M134.55,210.32c-1.45-.44-2.65-.81-4.04-1.24-.62,2.26,2.33,4,.25,6.11-.99-.53-2.48-.75-1.78-2.67.07-.2-.09-.49-.15-.73-.5-2.37.05-3.37,2.42-4.3-.04-.65-.24-1.39-.08-2.03.17-.66.56-1.53,1.09-1.76.52-.23,1.34.2,2.02.39.53.15,1.2.7,1.53.53,1.71-.88,2.45.08,3.11,1.38.09.18.2.35.3.53.24-.13.46-.24.7-.36.55,1.24-.44,1.11-.99,1.42-1.39.8-1.36-.81-2.25-1.24-1.31,1-2.57.84-3.5-1.02-.12.15-.24.3-.36.45.51,1.32,1.02,2.64,1.74,4.53Z"></path><path class="cls-1" d="M75.05,245.98c-8.58-.16-17.16.78-25.74.03-.05-.22-.09-.45-.14-.67.64-.23,1.27-.63,1.91-.65,5.97-.18,11.94-.33,17.92-.42,1.58-.02,3.16.18,4.73.37.5.06.95.43,1.43.66-.04.23-.07.46-.11.69Z"></path><path class="cls-1" d="M46.99,188.69c-1.57.47-2.65.79-3.89,1.16.07-.42.25-1.02.24-1.61,0-.4-.28-.79-.43-1.19-.34.18-.8.27-1,.55-.67.94-1.25,1.94-1.94,3.03-.62-.51-1.06-.87-1.48-1.21.67-1.03,1.32-2.05,2-3.04,1.11-1.61,2.74-1.68,4.06-.23.2.21.56.37.85.39,1.66.11,3.29,1.4,3.51,3.03.08.63-.29,1.31-.47,2.06.54.48,1.81.84.77,2.07-.6.71-2.72.82-3,0-.27-.79.2-1.85.37-2.79.11-.66.26-1.32.43-2.22Z"></path><path class="cls-1" d="M146.47,211.43q-1.56,3.39-2.92,1.92c-.41.44-.84.89-1.27,1.34-.41-1.54-.68-2.96.49-3.96.32-.27,1.15.06,2.05.14q1.56-1.73,3.59.51c2.34-.89,3.51-.27,4.22,2.17.1.36.51.88.79.89,1.67.05,1.16.81.61,1.62-.26.38-.52.74-.96,1.36-.32-.77-.45-1.11-.63-1.55-.26.15-.49.36-.75.42-.33.07-.86.15-.98-.02-.2-.26-.19-.73-.16-1.1.03-.35.32-.68.31-1.01-.02-.45-.21-.9-.33-1.34-.33.24-.65.5-.99.72-.45.28-.93.7-1.4.71-.25,0-.55-.71-.78-1.12-.29-.51-.54-1.04-.87-1.69Z"></path><path class="cls-1" d="M52.15,203.53c-.38.7-.69,1.27-1.13,2.09-.53-.68-.91-1.16-1.23-1.56-.68,1.94-1.37,3.9-2,5.67-.96.12-1.73.19-2.49.32-.84.14-1.26-.28-1.07-1,.24-.93.22-1.82,1.51-2.49,1.15-.6,1.87-2.42,2.32-3.85.66-2.05.46-2.03,2.52-1.47,1.45.4,2.96.57,4.56.87.18,1.28-.55,1.71-2.99,1.44Z"></path><path class="cls-1" d="M239.32,118.61c-.56.22-1,.47-1.48.54-.27.04-.72-.14-.85-.35-.14-.24-.04-.65.05-.96.05-.16.29-.34.47-.36,1.76-.21,3.54-.61,5.29-.5,1.28.08,1.96,2.44,1.4,4.04-.15.42-.38.81-.46.97.65.43,1.75.85,1.72,1.18-.08,1.09-.36,2.31-.98,3.19-.43.61-1.53.76-2.33,1.11-.11-.18-.23-.35-.34-.53.28-.44.55-.89.83-1.33.26-.41.54-.81.96-1.43-.83.04-1.35.06-1.96.09,0-1.96,1.65-3.64.63-5.96-.8,1.23-1.45,2.21-2.09,3.19-.15,0-.3-.02-.45-.02-.13-.91-.25-1.81-.4-2.88Z"></path><path class="cls-1" d="M222.71,147.97c-1.6-1.85-2.93-3.39-4.42-5.12-.2.96-.32,1.74-.55,2.48-.1.31-.44.55-.68.82-.27-.26-.71-.48-.79-.78-.14-.53-.07-1.12-.05-1.68.1-3.08.58-3.39,3.21-1.84,1.08.64,1.85.9,2.9-.21,1.28-1.34,1.97-1.19,3.13.26,1.09,1.36,2.98,2.38,1.89,5.04-.56-.91-1.15-1.59-1.43-2.39-.37-1.09-.83-1.66-2.1-1.39-1.25.27-1.31,1-1.15,2.05.13.85.03,1.73.03,2.77Z"></path><path class="cls-1" d="M134.58,248.76c-7.49.54-14.99-.02-22.64-.08,1.42-1.91,3.42-1.32,5.12-1.42,3.36-.19,6.73-.2,10.1-.14,2.08.04,4.16.33,6.23.56.42.05.81.36,1.21.54-.01.18-.02.36-.03.53Z"></path><path class="cls-1" d="M69.26,86.26c-.76-2.84.56-5.28.33-7.74-3.04-.78-4.07-4.16-1.67-7.11.36,1.78.66,3.22.96,4.66.13.05.27.1.4.15.51-.96,1.02-1.91,1.54-2.89,1.51,1.37.53,10.69-1.56,12.94Z"></path><path class="cls-1" d="M25.23,235.29c.77-.28,1.53-.74,2.32-.79,2.6-.19,5.21-.29,7.81-.31,4.39-.05,8.78-.04,13.16,0,.58,0,1.15.35,1.72.54-.03.14-.07.28-.1.42-8.24.28-16.49.55-24.73.83-.06-.23-.12-.45-.18-.68Z"></path><path class="cls-1" d="M49.19,173.92c-.21-.17-.52-.43-.83-.68-1.08,1.15-1.85,2.8-4.02,1.98-.13,1.12-.25,2.17-.39,3.38-1.81-.84-1.89-2.2-1.61-3.5.25-1.13.51-2.43,2.22-2.49.5-.02,1.22-.67,1.4-1.19.75-2.11,1.53-2.37,3.11-.9.28.26.82.22,1.22.38.52.21,1.01.48,1.52.73-.37.39-.71.8-1.11,1.15-.41.36-.88.66-1.52,1.13Z"></path><path class="cls-1" d="M58.7,251.56c-6.27,1.29-12.56.9-19.06.25,1.18-1.68,16.48-1.88,19.06-.25Z"></path><path class="cls-1" d="M62.2,178.26c.14,1.02.41,2.04.4,3.07-.02,5.87-.11,11.74-.16,17.61-.01,1.73.11,3.46.08,5.19-.02.87-.24,1.74-.37,2.61-.17-.02-.34-.03-.5-.05v-28.38c.18-.02.37-.03.55-.05Z"></path><path class="cls-1" d="M25.63,208.5c-.56-.62-1.13-1.25-1.84-2.04q-.12,2.69-3.08,1.15c-.06.42-.15.81-.15,1.19,0,1.24-.47,1.67-1.72,1.21-.36-.13-.88.11-1.31.25-.45.14-.88.35-1.43.35.85-1.09.33-3.37,2.91-2.92v-3.67c1.28.76,2.21,1.31,3.15,1.87,1.52-1.58,2.18-1.63,3.61-.22,1.04,1.02,1.02,1.73-.15,2.85Z"></path><path class="cls-1" d="M244.87,162.13c.25,3.05-1.37,5.5-2.72,8.14.99.89,1.73.69,2.41-.43.72-1.19,1.52-2.33,2.29-3.49.16.05.32.1.48.15.03.35.19.75.08,1.05-.66,1.85-2.35,4.66-5.24,4.63-1,0-2,.57-3.02.8-.43.09-.91-.05-1.37-.08.18-.38.26-.9.56-1.12,2.87-2.1,4.37-5.03,5.3-8.36.15-.53.52-.99.79-1.49.15.07.3.13.45.2Z"></path><path class="cls-1" d="M161.15,220.26c-.43.39-.83.84-1.32,1.15-.3.19-.73.19-1.1.27-.03-.37-.11-.74-.09-1.1.01-.38.11-.76.18-1.18-1.37-.31-2.66-1.05-3.47.76-.08.18-.99.19-1.35,0-.27-.15-.5-.95-.35-1.14.57-.72,1.21-1.5,2.01-1.9,2.19-1.13,2.72-.94,4.37.87.24.27.67.48,1.03.5,1.46.09,1.77,1.19,2.1,2.27.35,1.14-.15,2.02-1.04,2.65-.3.21-.82.12-1.24.17,0-.38-.1-.77,0-1.13.17-.68.45-1.33.68-1.99-.13-.07-.27-.13-.4-.2Z"></path><path class="cls-1" d="M138.78,219.07c-.21.89-.43,1.78-.68,2.81-.8-.35-1.41-.63-2.1-.93-.29.69-.51,1.23-.75,1.79-1.23-.86-1.7-2.77-.95-3.69.63-.78,1.25-.73,2.52.3.3-1.29-.13-3.13,1.69-3.32,1.93-.2,1.87,1.74,2.31,2.76.71,0,1.65-.13,1.7.02.23.74.31,1.56.23,2.33-.01.14-1.1.4-1.53.22-.98-.41-1.85-1.07-2.77-1.62l.34-.67Z"></path><path class="cls-1" d="M225.74,163.92c1.03,1.08,2.03,2.13,2.99,3.14,0-1.3-.04-2.69.03-4.08.02-.3.43-.58.66-.87.22.25.64.48.65.74.13,3.2,1.03,6.2,2.31,9.11.05.11-.06.28-.1.42-3.06-.88-7.7-6.66-6.54-8.46Z"></path><path class="cls-1" d="M193.65,188.37c-.05-.48-.14-.97-.14-1.45-.09-8.02-.17-16.03-.25-24.05,0-.26-.11-.57,0-.75.21-.35.54-.64.83-.95.26.31.63.59.74.95.12.42.01.91,0,1.37-.14,7.24-.26,14.49-.42,21.73-.02,1.06-.2,2.11-.31,3.16h-.46Z"></path><path class="cls-1" d="M92.13,236.42h-20.88c-.07-.18-.13-.36-.2-.54.44-.22.87-.62,1.31-.62,6.17,0,12.35.06,18.52.14.44,0,.88.25,1.32.39-.03.21-.05.42-.08.64Z"></path><path class="cls-1" d="M173.34,158.42c.94,1.06,1.23,17.39.36,20.97-1.12-1.92-1.43-19.99-.36-20.97Z"></path><path class="cls-1" d="M173.93,207.28c-.88-8.17-.95-16.36-.72-24.55.27,0,.54,0,.81,0,.71,8.17.08,16.37-.09,24.56Z"></path><path class="cls-1" d="M143.83,153.37c.91,1.96,1.27,21.77.27,23.04-.34-7.41-.68-14.44-.97-21.46-.02-.42.36-.85.69-1.58Z"></path><path class="cls-1" d="M73.2,258.02c-4.82.79-9.64.89-14.44-.17-.06-.16-.12-.33-.17-.49.56-.24,1.12-.68,1.68-.69,3.66-.07,7.33-.08,10.99-.01.71.01,1.41.47,2.12.72l-.18.65Z"></path><path class="cls-1" d="M77.3,240.49c-2.32.98-13.64,1.1-15.43.2,1.37-1.57,12.63-1.79,15.43-.2Z"></path><path class="cls-1" d="M71.55,140.62c.36,6.99.25,13.96,0,20.94-1.19-2.36-1.31-19.94,0-20.94Z"></path><path class="cls-1" d="M123.4,217.7c-.09.92-.17,1.79-.25,2.67-.8-.12-1.59-.25-2.49-.39-.12.61-.23,1.22-.37,1.97-1.17-.68-1.53-1.59-1.45-2.74.06-.95.51-1.5,1.48-1.23.85.23,1.13,0,1.38-.84.51-1.7.85-1.76,2.44-1.06.36.16.87-.06,1.28.03.7.15,1.41.33,2.04.65.22.11.37.72.28,1-.07.2-.61.27-.95.32-.24.04-.62-.16-.73-.05-1.06,1.05-1.9.45-2.65-.33Z"></path><path class="cls-1" d="M113.14,126.64c.94,1.34,1.41,16.88.71,21.14-.92-1.84-1.61-20.07-.71-21.14Z"></path><path class="cls-1" d="M140.68,239.26h-17.14c-.05-.18-.1-.37-.14-.55.68-.29,1.37-.83,2.05-.84,4.38-.05,8.77-.03,13.15.08.77.02,1.52.58,2.28.88-.06.14-.13.28-.19.43Z"></path><path class="cls-1" d="M76.67,133.65v19.72c-1.48-1.59-1.39-17.89,0-19.72Z"></path><path class="cls-1" d="M19.54,241.92c.5-.23.98-.59,1.49-.65,1.41-.15,2.84-.23,4.27-.23,3.1,0,6.21.04,9.31.14.75.02,1.5.34,2.24.51-.02.19-.04.37-.07.56h-17.12c-.04-.11-.08-.22-.12-.33Z"></path><path class="cls-1" d="M135.82,167.13c-.32-6.04-.64-12.09-.95-18.13.22-.06.44-.13.65-.19.34.78.94,1.54.97,2.33.16,5.01.19,10.03.25,15.04,0,.34-.2.69-.3,1.03-.2-.03-.41-.05-.61-.08Z"></path><path class="cls-1" d="M81.28,128.01c.05,5.33.58,10.67-.36,15.97-.18.01-.36.03-.54.04-.12-.46-.33-.91-.34-1.37-.09-4.24-.18-8.48-.18-12.72,0-.71.47-1.42.72-2.12.23.07.46.14.69.2Z"></path><path class="cls-1" d="M52.58,82.18c.34.65.53,1.15.83,1.56.32.43.74.79,1.12,1.18.42-.45.93-.85,1.21-1.37.21-.4.12-.96.17-1.52,1.41.04,2.09.88,2.37,1.91.22.8.4,1.91-1.22,1.74-.4-.04-.86.73-1.32,1.08-.66.5-1.53,1.47-2,1.32-.69-.23-1.17-1.24-1.6-2-.68-1.21-.99-2.48.44-3.89Z"></path><path class="cls-1" d="M135.87,195.5c-.36-7.17-.29-14.34-.25-21.51.27-.04.53-.07.8-.11.14.62.39,1.24.39,1.86,0,5.92-.04,11.84-.08,17.77,0,.68-.1,1.35-.15,2.03-.23-.01-.47-.03-.7-.04Z"></path><path class="cls-1" d="M122.73,136.69c1.21,1.67,1.4,16.52.24,18.21-.78-1.08-.99-17.15-.24-18.21Z"></path><path class="cls-1" d="M152.34,172.45c-1.02-2.17-1.21-15.48-.07-16.79.85,5.82,1.12,11.28.07,16.79Z"></path><path class="cls-1" d="M53.46,183.25c-.75-.08-1.63.04-1.79-.25-.32-.55-.23-1.34-.34-2.23-.8.55-1.44.98-2.08,1.43-.54-.98-.08-3.23.63-3.63.8-.46,3.15.53,3.66,1.43.44.77,1.06,1.44,1.55,2.18.29.43.6.89.67,1.37.03.19-.65.73-.88.66-.51-.16-.95-.58-1.4-.92-.1-.07-.09-.27-.02-.04Z"></path><path class="cls-1" d="M66.67,146.42c-.11,5.16.68,10.34-.67,15.42.2-5.15-1.41-10.37.67-15.42Z"></path><path class="cls-1" d="M34.22,228.46h-11.77c1.34-2.1,10.42-2.02,11.77,0Z"></path><path class="cls-1" d="M117.79,144.61c-.6-4.65-.82-9.31-.32-13.98,1.28,1.2,1.46,11.95.32,13.98Z"></path><path class="cls-1" d="M62.96,124.58c.45-.76.74-1.42,1.19-1.96.25-.29.76-.35,1.15-.52.12.41.42.85.34,1.21-.39,1.72-1.58,2.81-3.08,3.6q-2.72-1.55-1.37-5.6c.68,1.26,1.19,2.2,1.77,3.27Z"></path><path class="cls-1" d="M213.04,164.31c1.02.99,1.24,12.32.28,14.35-.72-1.52-.95-13.33-.28-14.35Z"></path><path class="cls-1" d="M53.66,231.93c3.75-.95,7.53-.99,11.51-.42-1.05,1.33-9.63,1.71-11.51.42Z"></path><path class="cls-1" d="M126.62,256.48c1.17,2.61,2.11,5.01,1.69,7.71-.05.3-.57.63-.93.75-.22.07-.79-.25-.81-.42-.21-2.45-.35-4.91-.5-7.37,0-.11.18-.23.55-.66Z"></path><path class="cls-1" d="M117.06,266.12c-1.78,0-3.57.03-5.35,0-1.43-.03-2.86-.1-4.28-.27-.45-.05-.85-.5-1.28-.77.4-.18.79-.49,1.21-.53,4.28-.42,6.57-.12,9.71,1.58Z"></path><path class="cls-1" d="M127.51,140.31c1.51,3.96.4,8.04.29,12.07-1.09-3.97-1.11-7.99-1.08-12.02.26-.02.53-.03.79-.05Z"></path><path class="cls-1" d="M94.79,111.62c.21,4.27.25,8.53-.44,12.8-.91-4.25-1.05-8.51-.33-12.78l.77-.02Z"></path><path class="cls-1" d="M131.69,145.77c.28.56.67.97.66,1.38,0,3.48-.08,6.95-.15,10.43,0,.23-.14.47-.23.73-.95-.99-1.24-10.66-.29-12.55Z"></path><path class="cls-1" d="M79.34,251.79c2.23.78,3.6,6.09,2.04,7.6-1.12-.57-2.53-5.68-2.04-7.6Z"></path><path class="cls-1" d="M99.35,112.74v12.01c-1.4-1.22-1.47-10.37,0-12.01Z"></path><path class="cls-1" d="M103.79,130.04c-.97-4.45-.5-8.93-.69-13.71,1.27,1.15,1.71,11.44.69,13.71Z"></path><path class="cls-1" d="M191.26,206.72v-16.07c.13,0,.25,0,.38-.01.54,5.35.59,10.72.15,16.09-.17,0-.35,0-.52,0Z"></path><path class="cls-1" d="M222.49,169.16c.41.33.79.72,1.24.98.43.25,1.3.59,1.34.52.77-1.3,1.36-.43,1.85.16.61.72,1.1,1.55,0,2.32l-.11-.4c-.71.14-1.41.36-2.12.4-.51.02-1.33-.05-1.49-.36-.54-1.03-.86-2.19-1.26-3.3.18-.11.36-.21.54-.32Z"></path><path class="cls-1" d="M89.32,130.33v-12.16c.21,0,.43,0,.64,0,.35,4.05.52,8.1-.13,12.16-.17,0-.34,0-.51.01Z"></path><path class="cls-1" d="M177.16,236.39c-.84.11-1.67.3-2.51.33-1.47.05-2.95.05-4.43-.02-.41-.02-.81-.37-1.21-.56.36-.28.7-.74,1.09-.79,1.86-.23,3.74-.43,5.61-.47.54-.01,1.09.55,1.63.84-.06.22-.13.45-.19.67Z"></path><path class="cls-1" d="M63,164.08c-1.65-3.65-1.14-7.34-.23-11.04.65,3.66.32,7.35.23,11.04Z"></path><path class="cls-1" d="M228.76,155.89c-.39-.45-.95-.83-1.14-1.35-.65-1.82-1.24-3.67-1.7-5.54-.08-.31.62-.81.96-1.22.36.46.94.87,1.06,1.38.44,1.91.74,3.86,1.09,5.8.04.23.05.46.08.69-.12.08-.24.16-.35.24Z"></path><path class="cls-1" d="M79.09,104.29c.45.69.82,1.27,1.29,2,.8-.6,1.58-1.17,2.55-1.89.73,2.47-1.5,2.87-2.3,4.11-3.29-2.1-3.44-2.47-1.54-4.22Z"></path><path class="cls-1" d="M108.91,122.06c.41,4.35.08,8.71-.24,13.06-.92-4.35-.65-8.7-.51-13.05.25,0,.5,0,.75,0Z"></path><path class="cls-1" d="M85.19,123.3c.62,3.82.66,7.64-.06,11.46-1.03-3.82-.36-7.64.06-11.46Z"></path><path class="cls-1" d="M169.3,171.72l-.96-13.42c.21-.07.43-.13.64-.2.21.57.6,1.14.61,1.73.08,2.65.02,5.3.07,7.94.03,1.3.19,2.6.29,3.89-.22.02-.44.04-.66.06Z"></path><path class="cls-1" d="M143.46,191.16c.1-4.07-.41-8.15.82-12.19v12.21c-.27,0-.54-.01-.82-.02Z"></path><path class="cls-1" d="M117.89,206.97c-.67-3.07-.74-6.14-.18-9.21.22,0,.44,0,.65,0v9.19c-.16,0-.32.01-.48.02Z"></path><path class="cls-1" d="M7.08,218.78H0c1.14-2.13,3.03-1.72,4.59-1.87,1.18-.12,2.3.32,2.49,1.87Z"></path><path class="cls-1" d="M118.43,158.93c-1.14-.95-1.34-7.79-.36-9.73,1.02,3.4.43,6.57.36,9.73Z"></path><path class="cls-1" d="M21.67,223.31c-2.36,1.06-6.36.93-8.53-.29.93-.92,5.73-.75,8.53.29Z"></path><path class="cls-1" d="M123.3,206.87c-.86-1.4-1.14-7.74-.41-9.45,1.04,1.05,1.3,6.9.41,9.45Z"></path><path class="cls-1" d="M169.55,206.12c-.61-4.82-.31-9.62.45-14.41v14.41c-.15,0-.3,0-.45,0Z"></path><path class="cls-1" d="M70.63,207.56c-1.04-1.13-1.31-7.88-.3-9.19.83,2.94.71,5.93.3,9.19Z"></path><path class="cls-1" d="M95.05,236.65c2.06.35,3.25,2.22,3.15,4.86-1.68.11-3.71-2.92-3.15-4.86Z"></path><path class="cls-1" d="M177.48,208.37v-9.84c1.4,1.45,1.39,7.14,0,9.84Z"></path><path class="cls-1" d="M99.17,234.93c1.79,1.81,1.65,4.32,2.37,6.8-.51-.24-1.33-.36-1.48-.74-.78-1.91-1.44-3.88-.89-6.06Z"></path><path class="cls-1" d="M182.59,207.44c-1.53-2.81-.93-5.79-.73-8.74,1.38,2.81.73,5.8.73,8.74Z"></path><path class="cls-1" d="M121.23,260.17c.29-.46.39-.83.58-.89.22-.06.63.08.78.27.73.98,1.51,1.96,2.04,3.05.2.42-.23,1.15-.37,1.73-.42-.24-1.02-.37-1.24-.73-.68-1.11-1.22-2.3-1.79-3.43Z"></path><path class="cls-1" d="M208.8,162.91c1.16.67,1.5,6.83.58,8.92-.89-3-1.07-5.89-.58-8.92Z"></path><path class="cls-1" d="M46.76,120.22c-1.4,1.96-2.18,2.16-3.3,1.25-1.35-1.11-1.64-2.87-.55-3.99,1.25.9,1.13,3.46,3.85,2.74Z"></path><path class="cls-1" d="M137.14,232.26c-.46-.33-.99-.66-.96-.7.52-.99,1-2.03,1.72-2.86.2-.23,1.18.05,1.69.31.21.11.34.99.16,1.17-.78.76-1.69,1.38-2.6,2.08Z"></path><path class="cls-1" d="M78.92,258.34c-.53.14-1.12.51-1.39.34-1.21-.72-2.34-1.57-3.45-2.45-.16-.13-.16-.8,0-.93.31-.24.94-.51,1.16-.36,1.16.77,2.24,1.66,3.33,2.54.13.11.15.35.34.85Z"></path><path class="cls-1" d="M198.3,160.94c.73,2.84.53,5.31.07,7.87-1.29-1.05-1.44-5.77-.07-7.87Z"></path><path class="cls-1" d="M49.65,81.67c.57,1.29,1.12,2.32,1.45,3.41.09.3-.39.93-.76,1.16-.25.16-1.04-.02-1.13-.23-.4-.99-.74-2.03-.86-3.08-.04-.31.71-.71,1.3-1.27Z"></path><path class="cls-1" d="M66.84,197.77c.27,2.83-.24,5.63-.63,8.45-.6-2.82-.71-5.64-.24-8.45.29,0,.58,0,.87,0Z"></path><path class="cls-1" d="M151.74,246.57h-8.52c1.13-1.35,5.85-1.19,8.52,0Z"></path><path class="cls-1" d="M121.84,264.59c-1.45.69-3.82.28-4.42-.7-.23-.37-.18-1.06.02-1.47.09-.19.95-.24,1.27-.05,1.05.63,2.01,1.41,3.13,2.22Z"></path><path class="cls-1" d="M189.99,168.01c-.12-1.43-.21-2.87-.38-4.29-.1-.84-.42-1.65-.51-2.49-.04-.34.28-.73.44-1.09.31.16.89.32.89.49.06,2.45.04,4.9.04,7.35-.16.01-.32.03-.48.04Z"></path><path class="cls-1" d="M74.58,198.67c.88,2.96,1.04,5.73.04,8.61-.64-1.21-.75-7.64-.04-8.61Z"></path><path class="cls-1" d="M24.63,217.87c-.43-.98-.91-1.94-1.23-2.96-.04-.12.78-.72,1.22-.75,1.39-.1,1.47,1.11,1.53,2,.03.55-.5,1.13-.78,1.7-.25,0-.49,0-.74,0Z"></path><path class="cls-1" d="M80.28,234.27c1.37-1.67,3.67-1.6,6.56,0h-6.56Z"></path><path class="cls-1" d="M164.33,157.05c1.35.68,1.69,2.45.9,4.72-1.3-.8-1.68-2.8-.9-4.72Z"></path><path class="cls-1" d="M177.45,159.25c1.1,1.33,1.08,5.55,0,7.11v-7.11Z"></path><path class="cls-1" d="M186.78,207.46c-.12-.41-.33-.82-.36-1.24-.11-1.42-.2-2.84-.19-4.26,0-.39.38-.79.58-1.18.2.35.56.7.57,1.05.06,1.86.03,3.72.03,5.58-.21.02-.42.03-.62.05Z"></path><path class="cls-1" d="M201.54,167.01c-.18-1.55-.37-3.1-.51-4.65-.01-.15.29-.45.47-.47.19-.02.47.16.6.33.51.68.36,3.94-.56,4.79Z"></path><path class="cls-1" d="M155.46,156.86c1.59.78,1.92,3.62.72,5.49l-.72-5.49Z"></path><path class="cls-1" d="M42.06,209.7c.78.63,1.23,3.13.64,3.65-.22.2-1.19.03-1.21-.09-.22-1.22-.35-2.47.57-3.56Z"></path><path class="cls-1" d="M93.02,242.02c-1.65-.16-3.3-.32-4.95-.48-.05-.15-.09-.3-.14-.44.41-.17.87-.55,1.23-.47,1.3.29,2.97-.78,3.86,1.39Z"></path><path class="cls-1" d="M159.05,229.38c-.59.98-.92,1.67-1.39,2.23-.23.27-.94.51-1.11.37-.31-.26-.6-.86-.51-1.22.36-1.35,1.45-1.43,3.01-1.38Z"></path><path class="cls-1" d="M179.76,232.24s-.09-.08-.09-.12c-.14-1.12.36-1.89,1.42-2.19.21-.06.8.43.85.74.15.81-.79,1.44-2.18,1.57Z"></path><path class="cls-1" d="M181.93,163.46c-.15-1.25-.29-2.5-.44-3.75.14-.02.29-.03.43-.05,1.08,1.44,1.19,2.42,0,3.8Z"></path><path class="cls-1" d="M186.69,160.16c1.11,1.28.38,2.63.41,3.97-1.16-1.04-1.33-2.51-.41-3.97Z"></path><path class="cls-1" d="M127.55,203.55v-4.03h.49v4.07l-.49-.03Z"></path><path class="cls-1" d="M76.32,159.88c-.12,1.42-.24,2.85-.36,4.27l-.38-.02v-4.29c.25.01.5.03.74.04Z"></path><path class="cls-1" d="M35.7,225.67c1.67.36,1.92,1.27,2.07,2.23.03.17-.19.45-.36.57-.1.07-.45-.04-.51-.16-.38-.76-.7-1.54-1.19-2.63Z"></path><path class="cls-1" d="M205.48,165.66c-.11-.96-.21-1.92-.32-2.88.29-.03.58-.05.87-.08.06.96.12,1.92.18,2.88-.25.02-.49.05-.74.07Z"></path><path class="cls-1" d="M194.01,136.42c-.79,0-1.36.1-1.89-.01-8.94-1.87-17.87-3.77-26.81-5.64-1.15-.24-2.32-.38-3.48-.51-1.27-.15-1.96-.9-2.37-2.05,3.43-.3,33.15,6.6,34.56,8.23Z"></path><path class="cls-1" d="M203.97,149.73c-1.63-.12-3.27-.12-4.88-.36-8.32-1.26-16.65-2.52-24.95-3.91-4.33-.73-8.59-1.83-12.92-2.61-2.86-.51-5.78-.7-8.66-1.12-.81-.12-1.57-.57-2.35-.87,0-.16.02-.33.03-.49.41-.08.84-.28,1.23-.22,5.97.82,11.94,1.59,17.89,2.55,4.74.77,9.42,1.87,14.15,2.68,5.79.99,11.61,1.81,17.4,2.75,1.08.18,2.11.63,3.16.96-.03.22-.07.43-.1.65Z"></path><path class="cls-1" d="M103.95,89.29c.13-1.99.24-3.97.4-5.96.04-.45.13-1,.41-1.29.66-.69,1.37-1.58,2.21-1.81,1.2-.33,2.27.51,2.61,1.65.56,1.89,1,3.84,1.22,5.79.2,1.82.11,3.68.03,5.52-.08,1.89-.7,2.43-2.56,2.46q-4.02.07-4.17-3.91c-.03-.82,0-1.64,0-2.45-.05,0-.09,0-.14,0Z"></path><path class="cls-1" d="M119.81,88.48c0-1.74-.13-3.49.05-5.2.12-1.13.56-2.28,1.1-3.29.68-1.27,1.86-1.23,2.61.05.54.91,1.13,1.93,1.22,2.94.37,4.06.9,8.12.06,12.2-.26,1.27-.85,1.47-1.94,1.07q-3.29-1.22-3.21-4.85c.02-.97,0-1.94,0-2.91.03,0,.06,0,.1,0Z"></path><path class="cls-1" d="M113.53,74.26c-.58,1.81-10.59,4.78-12.27,3.49,4.12-1.52,8.03-2.79,12.27-3.49Z"></path><path class="cls-1" d="M126.09,98.55v8.64c-.42-.39-1-.68-1-.98-.03-2.33.04-4.67.11-7,0-.22.22-.43.34-.65.19,0,.37,0,.56,0Z"></path><path class="cls-1" d="M122.75,106.32c-.39-3.12-.21-5.85-.12-8.88,1.44,1.29,1.53,7.19.12,8.88Z"></path><path class="cls-1" d="M120.77,97.69c-.12,2.18-.22,4.37-.37,6.55,0,.14-.34.32-.54.36-.1.02-.38-.24-.37-.36.09-2.2.22-4.39.34-6.59.32.01.63.02.95.03Z"></path><path class="cls-1" d="M95.31,132.02c1.06,1.01,2.14,1.69,2.73,2.66,2.39,3.97,4.82,7.95,6.88,12.1,1.8,3.62,2.8,7.56,2.91,11.65.08,3.26.12,3-3.11,3.67-1.76.37-3.65.09-5.49.12-5.11.09-10.22.19-15.33.3-1.1.02-1.7-.27-1.6-1.58.27-3.59.89-7.1,2.42-10.38,1.68-3.6,3.25-7.28,5.18-10.75,1.48-2.65,3.46-5.02,5.41-7.79ZM91.23,144.24c3.28,3.76,5.13,11.88,2.95,14.32-.45-2.39-.68-4.55-1.28-6.6-.6-2.08-1.56-4.05-2.39-6.12-3.12,4.54-5.25,11.19-4.63,14.39.18.03.38.09.57.09,4.8-.04,9.59-.08,14.39-.13,1.33-.01,2.67,0,3.98-.16.44-.06,1.17-.66,1.15-.99-.16-4.76-1.28-9.27-3.74-13.5-2.41,2.96-3.48,6.32-3.98,9.9-.15,1.09-.39,1.98-1.83,1.97-.04-.51-.15-.92-.09-1.3.63-4.07,1.63-8,4.15-11.4.31-.42.6-1.23.4-1.6-1.14-2.14-2.44-4.21-3.91-6.69-2.11,2.88-3.94,5.37-5.74,7.82Z"></path><path class="cls-1" d="M101.62,163.79c1.61-1.48,4.08-1.19,4.58.48-1.49-.16-2.85-.3-4.58-.48Z"></path><path class="cls-1" d="M99.95,170.54c.28,3.96.38,7.9-.18,11.82-1.22-1.75-1.12-10.72.18-11.82Z"></path><path class="cls-1" d="M99.79,197.54c.82.85.87,8.94.06,10.7-1.01-1.3-1.05-9.55-.06-10.7Z"></path><path class="cls-1" d="M103.25,207.38c-.86-3.3-.79-6.62-.13-9.95,1.2,3.29.14,6.63.13,9.95Z"></path><path class="cls-1" d="M103.39,171v10.29c-.25,0-.49,0-.74-.01-.21-3.46-.32-6.92.25-10.35.16.02.33.05.49.07Z"></path><path class="cls-1" d="M99.45,193.95c-1.32-2.2-.88-4.53-.61-6.84,1.5,2.19.57,4.55.61,6.84Z"></path><path class="cls-1" d="M87.88,183.02v-11.38c1.41.97,1.34,8.9,0,11.38Z"></path><path class="cls-1" d="M91.87,181.08c.07-3.11-.27-6.24.45-9.32.52,3.14,1.11,6.27-.45,9.32Z"></path><path class="cls-1" d="M92.02,207.42c-.39-2.69-.78-5.38.16-8.03,1,2.7.52,5.37-.16,8.03Z"></path><path class="cls-1" d="M88.05,206.94v-9.49c.17,0,.35,0,.52,0,1.12,3.16-.08,6.35.08,9.53-.2-.01-.4-.02-.6-.03Z"></path><path class="cls-1" d="M91.88,194.35v-7.69c1.16,1.65,1.36,6.25,0,7.69Z"></path><path class="cls-1" d="M103.62,221.11c.95.96.47,1.68-.75,2.31.06-.78.12-1.56.18-2.34.19.01.38.02.57.04Z"></path><path class="cls-1" d="M176,267.31c-2.06-.77-2.53-1.92-1.63-3.94.59,1.42,1.05,2.53,1.63,3.94Z"></path><path class="cls-1" d="M183.89,249.7c.42,1.42.74,2.48,1.12,3.75-1.52-.71-1.97-2.07-1.12-3.75Z"></path><path class="cls-1" d="M182.32,247.49c.08.88.16,1.77.23,2.65-1.06-.74-1.74-1.52-.86-2.59.21-.02.42-.04.63-.06Z"></path><path class="cls-1" d="M209.47,248.44c-1-1.13-1.92-2.17-2.9-3.28.61.19,1.49.24,2.02.7.72.62,1.45,1.47.88,2.58Z"></path><path class="cls-1" d="M205.65,244.61c-.69.02-1.37.05-2.06.04-.02,0-.08-.73-.04-.74.66-.14,1.34-.23,2.02-.32.03.34.06.68.09,1.02Z"></path><path class="cls-1" d="M254.69,222.11c-.27-.1-.58-.15-.81-.3-1.33-.84-2.57-1.02-3.94.04-.5.39-1.36.3-2.06.43.45-.58.79-1.33,1.37-1.71,1.57-1.02,3.26-.6,4.84.04.41.17.63.77.94,1.18-.11.11-.23.22-.34.32Z"></path><path class="cls-1" d="M258.48,224.24c-.1.66-.17,1.13-.21,1.44-.75.22-1.32.45-1.91.54-.27.04-.57-.16-.86-.26.1-.2.15-.52.31-.59.78-.37,1.59-.68,2.67-1.13Z"></path><path class="cls-1" d="M222.22,208.93c2.2.46,3.84,3.23,3.19,4.69-1-1.46-2-2.94-3.19-4.69Z"></path><path class="cls-1" d="M260.45,244.86c1.06,1.45.71,2.04-1.44,2.52.52-.9.93-1.63,1.44-2.52Z"></path><path class="cls-1" d="M257.88,247.82c-1.85,1.2-2.39,1.01-2.74-.8.89.26,1.63.48,2.74.8Z"></path><path class="cls-1" d="M201.91,207.88c-.76-1.45-.58-3.24.54-4.05.29-.21,1.03-.28,1.14-.11.23.31.34.94.17,1.26-.52.99-1.2,1.9-1.86,2.9Z"></path><path class="cls-1" d="M205.38,206.39c.41-1.46,1.17-1.48,2.02-1.1.04.17.08.34.12.51-.71.2-1.43.39-2.14.59Z"></path><path class="cls-1" d="M191.85,226.36c-.56-.95-1.14-1.89-1.64-2.87-.08-.16.16-.57.36-.74.13-.11.57-.1.66.02.73.97,1.61,1.92,1.28,3.25-.22.11-.44.22-.65.34Z"></path><path class="cls-1" d="M192.64,218.44c-.91-.47-1.82-.94-2.84-1.47q1.16-.9,3.04.99c-.07.16-.13.32-.2.48Z"></path><path class="cls-1" d="M195.81,275.66c-.54,2.31-1.71,3.16-3.28,2.87-2.73-.5-3.36-1.08-3.07-3.29,1.81,2.77,3.9,2.47,6.35.42Z"></path><path class="cls-1" d="M211.95,267.41c-.69,2.41-1.79,3.9-4.45,4.41.29-.77.36-1.4.71-1.78.71-.76,1.54-1.42,2.37-2.06.3-.23.73-.31,1.37-.57Z"></path><path class="cls-1" d="M242.32,252.78c1.38.97,2.76,1.94,4.47,3.15-.72.26-1.28.62-1.43.5-1.19-1-2.3-2.09-3.44-3.16.13-.16.27-.32.4-.48Z"></path><path class="cls-1" d="M232.41,237.89c1.57-1.47,2.34-1.4,3.82.38-1.16-.11-2.33-.23-3.82-.38Z"></path><path class="cls-1" d="M229.14,242.84c1.61.14,2.93.25,4.5.38-1.98,1.24-3.18,1.15-4.5-.38Z"></path><path class="cls-1" d="M228.6,238.46c.37.66.74,1.32,1.11,1.98-.18.11-.36.21-.54.32-.88-.36-1.42-.93-1.04-2.06.16-.08.32-.16.48-.24Z"></path><path class="cls-1" d="M220.55,230.05c.99.53,1.97,1.07,2.91,1.58.53-.73,1-1.39,1.48-2.05.38,1.57-.67,2.12-1.62,2.68-.87.51-1.23-.16-1.67-.78-.32-.44-.89-.7-1.35-1.04l.26-.39Z"></path><path class="cls-1" d="M227.39,224.73c-.19.54-.37,1.07-.6,1.73-.55-.3-.96-.53-1.72-.95.82-.48,1.4-.81,1.99-1.15.11.12.22.24.33.36Z"></path><path class="cls-1" d="M166.55,267.75c-.17.2-.44.61-.5.58-2.08-.93-4.15-1.91-6.14-3.08,1.48-.93,2.42.29,3.5.7,1.13.42,2.12,1.21,3.17,1.83,0,0-.04-.04-.04-.04Z"></path><path class="cls-1" d="M95.95,150.42c-1.32-1.85-.86-9.87.64-11.25,1.07,1.62.61,9.67-.64,11.25Z"></path><path class="cls-1" d="M90.46,152.36c.91.84,1.23,4.18.47,4.91-.17.17-.98.05-1.1-.16-.46-.81-.03-3.68.63-4.74Z"></path><path class="cls-1" d="M101.58,157.62c-.54-2-.15-3.59.06-5.26,1.32.71,1.36,3.4-.06,5.26Z"></path></g></g></svg>