<svg xmlns="http://www.w3.org/2000/svg" viewBox="0 0 822.07 345.46"><defs><style>.cls-1{isolation:isolate;}.cls-2{mix-blend-mode:multiply;}.cls-3{fill:#692228;}</style></defs><g class="cls-1"><g id="Capa_2"><g id="Capa_1-2"><g class="cls-2"><path class="cls-3" d="M426.86,35.17c4.43-4.88,10.4-7.23,15.28-8.5,3.8-1,9.41-1.45,12.39-1.45,4.16,0,8.68.91,11.85,1.99.99.36,2.35-.18,3.62-1,.18-.18.36,0,.45.09.18.09.36.27.27.45-1.81,4.16-1.9,8.5-1.45,12.12,0,.18-.09.36-.36.45-.54,0-.72-.09-.9-.63-.36-1.54-.9-3.8-1.81-5.15-.9-1.27-1.72-2.35-3.17-3.35-2.53-1.9-5.97-3.08-11.76-3.08-7.24,0-12.93,2.89-17.46,8.59-3.44,4.25-6.06,11.3-6.06,20.53s5.88,26.86,24.96,26.86c5.52,0,10.04-2.44,12.84-4.88,2.08-1.9,3.26-4.07,4.34-6.15.18-.27.36-.27.63,0,.18.27.36.63.27,1.27-.81,3.53-2.71,7.78-3.98,9.68-.72.81-.99.9-1.54.9-2.35-.18-7.69,1.36-14.02,1.36-22.43,0-31.74-15.74-31.74-29.57,0-6.15,1.45-13.84,7.33-20.53Z"></path><path class="cls-3" d="M543.71,27.3c-1.08.27-2.26.54-3.17,1.09-1.18.54-1.99,1.27-2.17,3.35-.18,1.63-.45,5.97-.81,22.34-.27,8.59-.91,15.55-5.34,21.89-4.16,5.88-12.3,9.32-19.72,9.32-6.51,0-12.3-2.26-15.92-5.52-5.43-5.06-6.33-11.94-6.42-17.91-.09-3.62-.09-9.59.18-18.45.36-10.67.36-12.39-.54-13.84-.81-.99-2.98-1.81-4.7-2.17l.09-.36c.09-.27.45-.54,1.63-.54,1.9,0,5.88.45,7.69.36,3.71-.18,7.23-.54,9.31-.54.45,0,.54,0,.54.27,0,.36-.18.72-.27.81-4.52.9-5.52,1.9-6.06,3.8-.36,1.54-.63,4.61-.72,9.5-.09,4.97-.36,14.11-.36,20.71,0,8.32,2.8,13.2,6.6,16.37,3.35,2.8,7.42,3.71,12.48,3.8,9.32.09,13.11-4.43,14.92-6.87,3.26-4.43,4.16-12.12,4.16-21.89.09-10.49,0-17.09-.36-19.9-.45-3.62-2.71-4.61-7.14-5.16-.9-.18-.99-.36-.9-.54.09-.09.09-.27.18-.36.18-.27.9-.45,1.54-.36,2.26.18,5.15.36,6.78.36,2.53,0,7.05-.45,8.5-.54.45,0,.45.09.36.36l-.36.63Z"></path><path class="cls-3" d="M573.74,53.71c4.07,0,8.05-.09,11.67-.27,4.7-.18,5.79-.45,8.14-5.07.27-.27.72-.18,1.08-.09-.09,2.08-.63,4.97-.63,7.69.09,2.99.45,5.52.54,6.78,0,.27-.18.36-.63.36-.27,0-.54-.09-.72-.63-.36-.99-.81-2.35-1.45-3.53-.91-1.63-2.17-2.71-5.88-2.99-1.9-.18-5.06-.18-9.59-.18-3.53,0-4.61.36-4.97.45-.36.09-.54.27-.72.63-.18.54-.81,4.25-.81,11.49,0,6.15.09,9.32.72,10.76.9,1.81,2.53,2.53,10.49,2.53,13.02,0,16.1-1.27,19.72-11.03.09-.09.36.09.63.27.18.09.18.27.18.45-.18,3.98-1.54,9.22-2.62,11.85-.36.54-.63.72-1.09.72-.72,0-1.27,0-4.16-.09-2.8-.09-8.77-.18-14.65-.18-6.96,0-13.93.36-21.53.72-.18-.09-.27-.36-.09-.63.09-.36.18-.36.36-.45,3.8-1.27,4.88-2.08,4.97-3.53.09-1,.54-7.69.54-17v-15.1c0-10.76-.18-14.29-.45-16.82-.18-1.18-.54-1.63-1.27-2.08-1-.54-2.35-.9-4.34-1.18-.18-.09-.27-.27-.27-.54l.09-.18c0-.18.18-.27,1.17-.27h2.53c2.8,0,5.88.27,11.12.27h7.51c4.97,0,11.21-.54,15.65-.54,1.9,0,2.17.18,2.44.54.18.27.36.72.18,1.45-.81,5.34-.81,8.41-.81,10.22-.81-.09-1.18-.27-1.27-.72-1.45-7.51-2.53-9.13-8.86-9.13h-7.14c-4.7,0-7.51.36-8.59.63-.81.27-1,.72-1,3.35,0,6.96.09,13.11.09,19.44,0,.9.45,1.63,1.18,1.63h2.53Z"></path><path class="cls-3" d="M615.07,26.49c3.44.09,6.33.36,10.58.36.81,0,1.18.09,1.54.36.27.45.45.81.81,1.45.36,1,4.52,6.06,5.52,7.15,5.34,5.88,18.72,19.17,35.54,35.99.27-3.71.36-11.03.27-18.63-.09-9.13-.18-14.56-.54-19.08-.27-2.8-.63-4.43-2.62-5.16-1.36-.63-3.62-1.18-4.16-1.27-.27-.18-.45-.36-.45-.72l-.09-.27c2.62,0,5.25.18,7.96.18,3.26,0,6.15-.63,8.14-.54.63,0,.81.09.9.36l.18.45c-1.81.63-3.17,1.09-4.52,2.08-1.45,1-2.08,3.53-2.44,16.28-.18,8.41-.36,14.47-.36,26.32,0,4.88.45,10.22.45,12.21,0,.54-.45,1.08-1,1.45-.27.09-.45,0-.81-.54-4.34-7.14-13.38-15.83-21.89-24.69-7.33-7.6-14.38-14.83-22.34-22.88-.36,1.63-.36,6.42-.36,14.02,0,16.37.18,24.51,1.08,27.49.63,2.26,2.62,2.89,7.24,4.16l.18.45c.18.45-.09.54-.36.54-4.07,0-7.33-.36-10.4-.36s-5.15.45-6.42.54c-.27-.27-.45-.63-.36-.91,4.88-1.81,5.61-2.8,6.06-6.15.36-2.44.9-10.31.9-23.42l.09-11.3c0-8.5-.54-10.22-1.63-11.67-1.27-1.63-2.62-2.44-6.06-2.98-.45-.09-.63-.27-.63-.63v-.63Z"></path><path class="cls-3" d="M707.78,83.1c1.27-.18,3.44-.63,5.07-1.27,1.81-.54,3.17-1.36,3.53-3.71.18-1,.45-6.96.45-20.35v-9.13c0-16.73.09-19.53-.36-19.9h-7.24c-9.22,0-10.76,1.08-11.85,1.63-1.54.9-3.44,3.98-4.7,6.69-.18.45-.36.36-.54.18-.36-.27-.45-.63-.45-1.08.81-1.99,2.98-6.78,4.16-13.2.18-.09.36-.09.63.09.27.09.36.18.45.54.27,1.81.54,2.35,1.18,2.53.72.45,1.63.54,3.89.54,3.17.18,6.6.18,14.2.18,9.77,0,18.54-.18,23.69-.36,3.35-.09,4.25-.27,5.25-.72.9-.27,1.81-1.27,2.35-2.35.18-.27.27-.36.45-.36s.36.27.54.54c.09.18,0,.63-.09,1-1.63,4.79-1.72,6.78-2.17,11.94,0,.45-.09.63-.27.63-.09,0-.36,0-.54-.18-.18-.09-.36-.36-.36-.9-.18-1.63-.36-3.35-.54-4.34-.18-.81-.54-1.54-1.36-1.99-.9-.45-4.25-1.18-11.58-1.18h-5.7c-1.36,0-1.72.9-1.81,2.17-.09,1.63-.45,6.87-.45,18.63v9.22c0,13.02.27,17,.45,18.63.18,1.36.54,2.35,1.45,3.17,1.45,1.36,4.7,1.9,7.78,2.35.27.09.45.18.36.36l-.09.27c-.18.36-.45.54-1.54.54-2.62,0-7.96-.27-11.94-.27s-7.6.63-10.85.63c-1.08,0-1.36-.18-1.45-.63v-.54Z"></path><path class="cls-3" d="M781.67,26.49c2.8,8.41,4.7,13.02,7.87,21.16,2.98,7.78,10.04,24.51,11.21,27.04,1.9,4.16,2.8,7.33,8.14,8.5.18.18-.18,1-.27,1-5.06,0-7.96-.27-10.76-.27-2.98,0-6.42.36-7.51.36-.18,0-.36-.09-.45-.27-.09-.18-.09-.45-.09-.63,4.97-1.63,5.16-2.89,3.71-7.24-.54-1.54-3.08-8.68-4.43-12.12-.36-1.08-.72-1.81-1.63-1.81-5.97-.09-13.93.09-19.08.45-1,0-1.63.54-1.99,1.36-1.36,3.26-4.52,11.4-4.61,14.29,0,2.08,1.08,3.08,5.7,4.7.27.36,0,.9-.36,1-3.98-.09-6.15-.36-8.14-.36-2.35,0-5.06.36-6.33.36-.45,0-.72-.09-.81-.27-.09-.18-.09-.54-.09-.72,3.89-1.18,4.52-2.08,7.6-8.95,2.35-4.97,12.75-30.03,17.54-42.23.9-2.35,1.45-3.8,1.9-5.16.09-.45.18-.72.54-.9.36-.18,1.08-.54,1.45-.54.54,0,.72.45.91,1.27ZM777.42,59.77c4.16,0,6.51-.09,8.5-.18,1.09,0,1.27-.54,1.09-1.27-3.44-9.13-5.16-13.75-8.41-21.52-.45-1.08-.99-.9-1.27-.18-3.89,9.41-5.15,12.21-8.77,21.98-.27.63.18,1.09,1.72,1.09.54,0,2.8.09,7.14.09Z"></path></g><g class="cls-2"><path class="cls-3" d="M147.95,196.06c3.02,3.69,4.7,8.39,4.7,13.09,0,11.42-10.07,23.84-33.24,23.84-12.09,0-24.51-3.36-36.93-6.71-13.43,4.03-28.2,6.38-44.99,6.38-32.57,0-25.52-20.14-4.03-20.14,14.44,0,31.56,5.71,49.02,10.41,39.95-15.11,61.1-51.37,86.95-88.63,27.87-40.62,59.09-81.92,100.05-99.38-11.75-20.81-39.62-30.89-70.84-30.89-18.8,0-35.59,3.02-50.69,7.39,35.25,26.86,24.84,93.33-12.42,121.53-15.44,26.19-41.96,46.33-77.89,46.33C-43.41,179.28-2.45,0,109.68,0c15.11,0,26.86,3.36,36.26,9.74,15.44-5.04,32.9-7.72,52.71-7.72,31.89,0,61.1,10.41,75.2,31.22,11.08-4.36,23.17-6.71,36.26-6.71,59.09,0,48.01,72.85,2.01,72.85-1.34,0-1.34-2.01,0-2.01,42.97,0,54.39-68.82-2.01-68.82-12.42,0-24.17,2.69-34.58,7.39,4.7,7.72,7.39,17.12,7.39,27.86,0,23.5-21.82,47-48.01,53.72,3.69,3.69,6.04,8.73,6.04,14.77,0,32.23-74.53,34.92-74.53,87.29,0,17.79,12.42,27.53,27.53,27.53,33.24,0,60.43-38.94,60.43-57.74,0-9.06-5.04-14.77-14.77-14.77-27.19,0-49.69,31.22-49.69,48.34,0,4.03,2.69,7.72,5.71,7.72,2.01,0,1.68,1.34-.67,1.34-6.04,0-10.41-6.04-10.41-13.43,0-18.8,23.5-47,51.7-47,14.1,0,20.48,7.72,20.48,17.79,0,20.81-28.87,59.76-62.78,59.76-16.45,0-30.21-10.07-30.21-31.56,0-49.69,68.49-65.8,68.49-92.66,0-2.69-.67-4.7-1.68-6.71-3.69.67-7.39,1.01-10.74,1.01-12.76,0-11.42-8.39-1.68-8.39,5.04,0,10.41,1.68,14.44,4.7,22.16-7.39,43.31-32.23,43.31-56.4,0-8.06-1.68-15.11-4.7-21.15-34.92,17.46-60.77,56.74-86.28,96.35-24.84,38.27-52.04,74.19-96.35,89.97,9.74,2.35,18.8,4.36,27.87,4.36,24.51,0,33.91-11.08,33.91-21.49,0-3.69-1.01-7.39-3.36-10.07-1.01-1.01.34-2.01,1.01-1.01ZM143.25,10.74c-8.73-5.37-19.81-8.73-33.57-8.73C.23,2.01-40.73,177.26,57.64,177.26c32.9,0,59.42-19.47,74.19-41.97-10.07,6.71-21.49,10.41-34.58,10.41-61.1,0-45.32-103.74,45.99-134.96ZM77.45,224.6c-15.78-4.7-31.22-10.07-43.98-10.07-18.13,0-25.85,16.11,4.03,16.11,15.11,0,28.54-2.01,39.95-6.04ZM134.86,130.6c5.71-10.41,9.06-21.15,9.06-30.89,0-12.42-3.69-16.45-3.69-18.8,0-3.36,3.02-5.04,5.37-5.04,2.69,0,5.04,1.68,5.04,5.04,0,15.11-4.36,31.56-12.09,46.33,32.9-29.54,40.62-90.98,6.71-115.15-90.98,29.54-106.42,131.6-48.01,131.6,14.44,0,26.86-5.04,37.6-13.09ZM228.86,116.5c-2.35-2.69-6.38-4.03-11.08-4.03-6.71,0-8.06,5.04,2.01,5.04,3.02,0,6.04-.34,9.07-1.01Z"></path><path class="cls-3" d="M283.92,196.06c-5.04,7.72-8.39,15.44-8.39,22.16,0,5.37,3.02,9.06,10.74,9.06,24.51,0,51.37-36.26,51.37-36.26h2.35s-27.86,38.27-54.72,38.27c-10.74,0-17.79-8.06-17.79-19.14,0-27.87,39.95-48.68,57.07-48.68,4.7,0,7.05,1.34,7.05,4.36,0,10.74-30.21,29.54-47.67,30.21ZM284.92,194.38c15.78-.67,43.31-19.47,43.31-28.87,0-1.68-1.01-2.35-2.69-2.35-11.08,0-29.54,15.11-40.62,31.22Z"></path><path class="cls-3" d="M365.16,292.75c20.48-3.36,31.56-39.62-7.05-39.62-4.7,0-10.74.67-10.74.67-31.89,40.29-76.54,91.65-106.42,91.65-8.73,0-12.76-4.03-12.76-11.75,0-22.83,57.07-70.5,111.46-80.24l23.17-31.22,5.71-8.06h-1.01c-9.06,8.73-18.8,15.11-25.85,15.11-8.73,0-12.76-8.06-12.76-16.45,0-24.84,38.27-51.37,59.09-51.37,6.04,0,8.39,3.02,8.39,7.39,0,4.03-2.35,9.74-2.35,9.74h1.01c7.05-9.4,12.42-16.79,12.42-16.79h.67s1.34,2.01,5.37,2.01c5.71,0,11.08-5.04,11.08-5.04.67,0,.67.67.67.67,0,0-26.52,28.87-53.71,63.79-6.38,7.72-14.1,17.79-22.83,28.87,0,0,6.04-.33,9.4-.33,39.95,0,28.87,38.27,7.39,41.63-1.01.34-1.34-.67-.34-.67ZM338.3,255.15c-52.37,10.07-106.76,56.4-106.76,78.56,0,6.38,3.02,9.4,11.08,9.4,27.19,0,64.46-45.99,95.68-87.96ZM342.67,227.29c15.44,0,51.7-41.29,51.7-58.42,0-3.36-1.34-5.37-5.04-5.37-16.45,0-53.38,41.29-53.38,57.75,0,3.69,2.02,6.04,6.71,6.04ZM379.6,227.29c17.46,0,43.64-36.26,43.64-36.26h2.35s-27.53,38.27-46.33,38.27l.34-2.01Z"></path><path class="cls-3" d="M439.02,227.29c16.45,0,42.64-36.26,42.64-36.26h2.35s-27.53,38.27-44.99,38.27c-7.72,0-13.76-4.03-13.76-11.42,0-21.15,39.28-35.25,39.28-50.69,0-6.38-6.04-10.07-9.74-14.77-6.71,9.74-17.46,22.83-29.21,38.61h-2.35c12.42-16.79,23.5-30.21,30.22-40.29,0,0-1.34-2.69-1.34-5.37,0-15.11,11.41-19.81,11.41-11.75,0,4.03-2.69,9.74-7.72,17.12,4.03,6.04,13.43,11.08,13.43,21.15,0,19.14-37.26,34.92-37.26,49.35,0,4.03,2.35,6.04,7.05,6.04Z"></path><path class="cls-3" d="M491.39,196.06c-5.04,7.72-8.39,15.44-8.39,22.16,0,5.37,3.02,9.06,10.74,9.06,24.51,0,51.37-36.26,51.37-36.26h2.35s-27.87,38.27-54.72,38.27c-10.74,0-17.79-8.06-17.79-19.14,0-27.87,39.95-48.68,57.07-48.68,4.7,0,7.05,1.34,7.05,4.36,0,10.74-30.21,29.54-47.67,30.21ZM492.39,194.38c15.78-.67,43.31-19.47,43.31-28.87,0-1.68-1.01-2.35-2.69-2.35-11.08,0-29.54,15.11-40.62,31.22Z"></path><path class="cls-3" d="M572.3,173.91c1.01-4.7,2.69-8.73,4.36-11.75-7.05,7.39-14.77,18.13-20.48,26.52-.67,1.01-3.02.67-2.35,0,24.51-33.91,34.58-42.97,44.32-42.97,9.06,0,7.72,10.74,1.01,10.74-3.02,0-3.69-3.02-9.74-3.02-8.39,0-15.11,13.43-15.11,24.17,0,8.73,3.02,14.77,3.02,25.51,0,16.45-16.45,27.87-32.23,27.87-14.44,0-20.48-9.4-20.48-19.47,0-11.42,8.39-23.84,18.46-23.84,4.03,0,7.05,2.69,7.05,6.38,0,7.05-8.73,13.77-18.8,13.77,4.36-5.04,10.07-11.42,10.07-15.11,0-1.68-.67-2.35-2.01-2.35-5.04,0-13.09,10.07-13.09,21.49,0,8.73,5.04,17.12,17.79,17.12,24.51,0,23.84-33.91,28.2-55.06ZM569.27,226.28c16.45-6.38,36.26-35.25,36.26-35.25h2.35s-20.14,29.54-37.94,36.93c-1.01.34-1.68-1.34-.67-1.68Z"></path><path class="cls-3" d="M647.5,191.03s-27.53,38.27-44.65,38.27c-6.04,0-9.74-3.36-9.74-11.08,0-19.14,33.91-55.73,33.91-55.73h.67s2.01,2.01,6.04,2.01c5.37,0,11.41-4.7,11.41-4.7,1.01-.34.67,0,.67,0,0,0-49.02,47.34-49.02,61.44,0,3.69,1.68,6.04,6.71,6.04,15.44,0,41.63-36.26,41.63-36.26h2.35ZM662.27,128.25c0,4.03-9.4,11.08-13.09,11.08-4.03,0,1.01-14.77,8.06-14.77,2.69,0,5.04,1.68,5.04,3.69Z"></path><path class="cls-3" d="M733.1,191.03c-5.04,5.71-10.41,10.07-17.46,10.07-5.37,0-8.73-3.36-9.74-9.06-12.09,19.14-29.21,39.95-44.32,39.95-10.07,0-15.11-6.71-15.11-15.11,0-19.81,37.6-35.59,37.6-50.02,0-2.69-1.34-3.36-3.69-3.36-11.75,0-32.9,27.53-32.9,27.53h-2.35s22.16-29.54,35.59-29.54c5.71,0,10.07,4.03,10.07,10.07,0,20.14-38.61,35.25-38.61,50.69,0,4.7,3.02,7.72,9.4,7.72,15.11,0,32.23-22.16,44.32-41.63.34-13.09,12.09-33.57,20.81-33.57,2.01,0,3.02,1.01,3.02,3.02,0,9.4-20.81,20.48-20.81,34.24,0,4.03,2.01,7.39,6.71,7.39,6.04,0,11.08-3.36,15.11-8.39h2.35Z"></path><path class="cls-3" d="M781.11,161.48c6.04,0,8.06,3.02,8.06,7.39,0,3.02-1.34,7.05-1.34,7.05h.67c6.04-7.72,10.74-13.43,10.74-13.43h.34s2.01,2.01,6.04,2.01c5.71,0,11.08-4.7,11.08-4.7.34-.34,1.01-.34.67,0,0,0-45.32,46.33-45.32,61.1,0,4.03,2.01,6.38,6.38,6.38,14.77,0,41.29-36.26,41.29-36.26h2.35s-27.87,38.27-43.98,38.27c-5.71,0-9.74-4.03-9.74-11.42,0-4.7,1.68-10.07,4.03-15.78h-.67c-11.75,14.44-27.19,27.19-36.93,27.19-8.73,0-12.76-8.06-12.76-16.45,0-24.84,38.27-51.37,59.09-51.37ZM735.12,227.29c16.11,0,52.04-41.29,52.04-58.42,0-3.36-1.34-5.37-5.04-5.37-16.79,0-53.04,41.29-53.04,57.75,0,3.69,2.01,6.04,6.04,6.04Z"></path></g></g></g></g></svg>