<svg xmlns="http://www.w3.org/2000/svg" id="Capa_2" viewBox="0 0 75.75 76.51"><defs><style>.cls-1{fill:#692228;}</style></defs><g id="Capa_1-2"><path class="cls-1" d="M49.94,22.21C49.94,7.43,37.87,0,37.87,0c0,0-12.07,7.43-12.07,22.21s12.07,31.3,12.07,31.3c0,0,12.07-16.53,12.07-31.3Z"></path><path class="cls-1" d="M34.7,53.51s-9.03-21.5-24.38-23C-.2,29.49-3.83,41.16,4.9,49.08c0,0,6.64-18.39,29.8,4.44Z"></path><path class="cls-1" d="M23.01,63.41c2.25-3.24-1.37-10.46-7.83-8.41-7.54,2.4-5.45,14.59,4.6,13.9,10.48-.71,15.64-13.9,15.64-13.9-5.64,6.44-9.49,7.82-12.41,8.41Z"></path><path class="cls-1" d="M65.43,30.52c-15.35,1.5-24.38,23-24.38,23,23.16-22.83,29.8-4.44,29.8-4.44,8.73-7.91,5.1-19.59-5.42-18.56Z"></path><path class="cls-1" d="M60.57,55c-6.46-2.05-10.08,5.17-7.83,8.41-2.92-.59-6.78-1.97-12.41-8.41,0,0,5.16,13.19,15.64,13.9,10.05.69,12.15-11.51,4.6-13.9Z"></path><path class="cls-1" d="M37.87,55.73s-3.18,7.44-7.99,12.78c-.42,2.38,1.53,8,7.99,8s8.41-5.62,7.99-8c-4.81-5.34-7.99-12.78-7.99-12.78Z"></path></g></svg>