<svg xmlns="http://www.w3.org/2000/svg" id="Capa_2" viewBox="0 0 457.89 208.45"><defs><style>.cls-1{fill:#fff;}</style></defs><g id="Design"><path class="cls-1" d="M28.68,42.78c-.07.81-.18,1.56-.26,1.69-.08.12-.05,1.41.06,2.85.29,3.78.38,6.07.52,12.96.14,6.95-.09,9.71-.99,11.74-.87,1.97-1.99,2.66-3.33,2.05-1.65-.74-2.63-3-3.53-8.14-.86-4.89-.98-6.47-.94-12.64l.03-5.84.67-3.27c.37-1.8.83-3.65,1.02-4.12.31-.75.34-1.48.34-6.31,0-3.82-.11-6.58-.35-9.19-.2-2.05-.38-3.78-.42-3.84-.04-.06-.16-.96-.27-2.01-.11-1.05-.34-2.64-.5-3.54-.16-.9-.38-2.15-.49-2.78-.11-.63-.37-1.69-.58-2.37-.48-1.58-.48-3.2,0-3.95.48-.77,1.48-1.82,1.73-1.82.11,0,.49.26.85.58.77.67.89.7.89.2,0-.48.58-.8.99-.56.42.23.85,1.48,1.12,3.24.12.79.38,2.26.58,3.26.37,1.87.62,3.61.96,6.61,1.08,9.64,1.45,14.24,1.37,16.72-.07,2.1.13,2.41,1.69,2.69.64.11,1.27.17,1.4.12.13-.04,2.52-.22,5.31-.38,2.79-.16,5.46-.38,5.94-.48.47-.1,1.26-.18,1.74-.18.48,0,1.65-.13,2.59-.29.94-.15,2.11-.33,2.6-.39,1.03-.13,2.07-.76,2.39-1.45.14-.28.32-2.58.45-5.74.12-2.9.31-5.83.4-6.51.1-.69.26-2.45.37-3.93.21-3.03.69-5.62,1.65-9.07.73-2.62.98-3.19,1.64-3.79,1.61-1.46,3.28-1.32,4.27.38.93,1.58,1.19,3.11,1.83,10.47.09,1,.24,2.09.35,2.43.17.55.33,2.02.51,4.85.16,2.48-.22,7.14-.75,9.19-.29,1.1-.59,2.09-.67,2.2-.08.11-.3.67-.49,1.25-.47,1.46-1.32,3.12-2.01,3.9l-.58.66.11,8.59c.14,10.97.39,19.27.69,22.19.27,2.71.16,3.51-.63,4.41-.79.9-1.76.93-2.72.09-1.06-.93-1.24-1.61-2.23-8.52-.54-3.73-.75-5.82-.96-9.48-.1-1.74-.27-4.02-.37-5.08-.1-1.05-.24-4.03-.3-6.61-.12-4.77-.24-5.67-.83-6.18-.72-.63-1.61-.61-7.7.15-4.14.51-6.61.71-9.48.76-2.11.03-3.23.14-4.21.4l-1.34.36-.12,1.46h0ZM58.28,17.28c-.16.81-.26,15.9-.1,15.9.08,0,.23-.11.34-.24.38-.48.46-1.44.45-4.93-.01-4.24-.24-13.06-.33-12.97-.03.03-.11.44-.16.91-.05.47-.14,1.06-.2,1.33h0Z"></path><path class="cls-1" d="M119.41,26.06c.12,1.85-.06,8.79-.3,11.84-.06.79-.28,2.27-.49,3.27-.21,1.01-.55,2.72-.77,3.81-.49,2.42-1.73,6.38-2.59,8.25-.72,1.58-2.86,4.78-4.38,6.58-.97,1.15-1.56,1.65-5.04,4.34-1.56,1.2-5.24,3.25-6.81,3.79-2.49.86-6.34,1.15-9.44.7-.69-.1-1.89-.31-2.67-.47-1.36-.28-1.48-.35-3.05-1.81-.9-.84-1.72-1.52-1.82-1.52-.26,0-1.79-3.36-2.06-4.52-.97-4.17-1.04-4.66-1.12-8.37-.07-2.96-.02-4.12.23-5.48,1.22-6.64,1.21-6.26.17-8.45-1.2-2.54-1.45-4.79-.75-7.08.41-1.35,1.51-3.63,2.46-5.08,1.45-2.21,6.04-6.65,8.55-8.26,1.43-.92,5.75-2.97,7.36-3.5,1.52-.49,5.26-1.06,6.06-.92.32.06,1.53.19,2.71.3,2.49.23,3.58.57,5.92,1.84,3.36,1.81,5.12,3.63,6.78,6.95.87,1.74.93,1.99,1.05,3.8h0ZM82.92,31.47c-.13.94.06,1.06.64.4.21-.24.87-1.17,1.46-2.08.59-.91,1.84-2.47,2.78-3.48.93-1.01,1.96-2.13,2.27-2.48.32-.36,1.16-1.19,1.88-1.86,1.32-1.23,1.55-1.59.98-1.59-.97,0-5.77,3.5-6.95,5.06-2.01,2.67-2.81,4.25-3.06,6.03h0ZM114.1,36.92c.43-2.06.45-2.41.29-4.9-.22-3.38-.3-3.88-.95-5.77-1.21-3.55-2.63-5.59-4.83-6.89l-1.21-.72-.69.46c-.95.63-1.78.87-3.57,1.02-.84.07-1.85.24-2.24.38-1.95.68-5.89,3.7-8.96,6.88-1.76,1.82-3.97,4.92-5.1,7.15-1.56,3.08-2.9,7.59-3.33,11.25-.99,8.27.72,14.33,4.69,16.67,1.53.9,2.81,1.2,5.1,1.21,1.81,0,2.34-.07,4.01-.59,1.55-.48,2.13-.77,3.03-1.52,1.61-1.33,4.26-4.25,5.69-6.25,4.14-5.79,6.6-11.38,8.07-18.37h0Z"></path><path class="cls-1" d="M166.16,23c.88,1.78,1.31,4.03.97,5.06-.29.89-1.05,1.47-2.19,1.66-.94.16-1.71-.08-2.62-.82-.76-.62-2.43-2.79-3.05-3.97-.4-.76-1.37-2.08-1.81-2.46-.83-.71-2.72-.82-4.38-.26-.84.29-1.3.59-2.01,1.36-.86.91-2.98,4.41-2.91,4.8.01.09-.2.57-.47,1.05-.9,1.59-2.67,6.86-2.55,7.57.03.16-.04.49-.15.72s-.24,1.08-.29,1.9c-.05.81-.15,1.64-.21,1.85-.12.38-.18,2.12-.18,4.95,0,.86.11,2.51.23,3.66s.17,2.2.1,2.32c-.07.13,0,1.3.15,2.62.42,3.64.68,6.95.56,7.31-.06.18-.04,1.32.04,2.54.08,1.22.07,2.58,0,3.03-.08.44-.16,1-.18,1.25-.01.24-.43,1.07-.93,1.84-.92,1.43-1.28,1.68-2.51,1.76-.78.05-1.94-.77-2.37-1.67-.19-.4-.46-.83-.6-.96-.34-.32-1.31-6.13-1.19-7.14.05-.43.02-1.78-.06-3-.08-1.22-.13-2.57-.09-3.01.04-.44.06-1.68.07-2.76,0-1.08.04-2.06.08-2.16.04-.11.07-1.07.06-2.14,0-1.07.04-2.13.1-2.36.06-.22.1-1.06.08-1.87s.04-1.78.12-2.17c.08-.39.03-1.96-.1-3.49-.14-1.53-.28-3.48-.32-4.34-.08-1.8-1.07-7.89-1.42-8.83-.13-.35-.44-1.22-.67-1.93-.24-.71-.6-1.48-.8-1.7-.56-.62-1.19-2.12-1.4-3.35-.16-.97-.13-1.18.27-1.75.74-1.04,2.24-1.02,3.43.05.73.65,2.11,2.65,2.21,3.21.04.21.16.46.28.54.12.08.53,1.19.92,2.47.38,1.28.81,2.48.93,2.67.13.19.32.58.44.85.27.67,1.02.56,1.38-.2.81-1.7,2.16-4.08,3.33-5.85.73-1.1,1.62-2.46,1.95-3.01.33-.55.67-1.01.75-1.02.08-.02.56-.5,1.07-1.08,1.19-1.36,2.18-1.98,4.07-2.57,1.21-.38,1.75-.46,2.57-.39,2,.17,4.96,2.13,6.1,4.04.2.34.49.73.64.87.36.32,1.79,2.73,2.59,4.36h0Z"></path><path class="cls-1" d="M204.3,68.07c1.93,1.42,2.57,2.29,2.57,3.49,0,2.29-3.41,4.25-5.54,3.2-.69-.34-2.51-2.24-3.2-3.33-.53-.84-1.33-3.01-1.83-4.95-.51-2.02-.82-5.39-.75-8.42.03-1.37,0-2.5-.06-2.5s-.42.37-.79.81c-3.53,4.22-7.69,7.99-10.05,9.11-3.64,1.72-8.04,1.36-10.01-.82-.87-.96-1.95-3.15-2.29-4.63-.15-.66-.38-2.55-.51-4.2-.21-2.64-.2-3.3.1-5.48.65-4.91.88-5.81,2.17-8.72,2.65-6,4.42-8.71,7.51-11.48,2.89-2.59,5.83-4.35,8.38-5,1.85-.47,4.34.12,6.45,1.55,1.45.97,1.99.93,2.77-.21,1.52-2.21,2.47-2.9,3.68-2.67.83.16,1.75,1.17,2.05,2.27.37,1.35.1,4.69-.6,7.36-.33,1.27-.72,2.8-.86,3.39-.15.6-.39,1.42-.55,1.83-.78,2.07-1.05,3.71-1.26,7.57-.27,5.12-.26,7.56.08,12.02.48,6.46,1.08,8.75,2.53,9.82h0ZM196.21,41.83c.83-6.62.84-6.97.11-9.27-.59-1.89-1.03-2.5-1.79-2.5-.35,0-1.03-.14-1.51-.32l-.89-.32-1.47.7c-2.58,1.24-5.44,4.36-8.21,8.97-1.25,2.07-1.66,2.99-2.38,5.24-2.6,8.13-2.92,9.59-2.91,13.6,0,2.29.37,3.58,1.19,4.23.58.45.96.47,2.3.12.55-.14,1.85-.72,2.89-1.28,1.58-.86,2.28-1.39,4.26-3.34,2.7-2.63,5.8-6.59,6.39-8.17.92-2.44,1.74-5.58,2.01-7.67h0Z"></path><path class="cls-1" d="M252.2,23c.88,1.78,1.31,4.03.97,5.06-.29.89-1.05,1.47-2.19,1.66-.94.16-1.7-.08-2.62-.82-.76-.62-2.43-2.79-3.05-3.97-.4-.76-1.37-2.08-1.81-2.46-.83-.71-2.72-.82-4.38-.26-.84.29-1.3.59-2.01,1.36-.86.91-2.98,4.41-2.91,4.8.01.09-.2.57-.47,1.05-.89,1.59-2.67,6.86-2.55,7.57.02.16-.04.49-.15.72-.11.23-.24,1.08-.29,1.9-.05.81-.15,1.64-.21,1.85-.12.38-.18,2.12-.18,4.95,0,.86.11,2.51.23,3.66.12,1.15.17,2.2.1,2.32-.07.13,0,1.3.15,2.62.42,3.64.68,6.95.56,7.31-.06.18-.04,1.32.04,2.54.08,1.22.07,2.58,0,3.03-.08.44-.16,1-.18,1.25-.01.24-.43,1.07-.93,1.84-.92,1.43-1.28,1.68-2.51,1.76-.78.05-1.94-.77-2.37-1.67-.19-.4-.46-.83-.6-.96-.34-.32-1.31-6.13-1.19-7.14.05-.43.02-1.78-.06-3-.08-1.22-.13-2.57-.09-3.01.04-.44.06-1.68.07-2.76,0-1.08.04-2.06.08-2.16.04-.11.07-1.07.06-2.14,0-1.07.04-2.13.1-2.36.06-.22.1-1.06.08-1.87s.04-1.78.12-2.17c.08-.39.03-1.96-.1-3.49-.14-1.53-.28-3.48-.32-4.34-.08-1.8-1.07-7.89-1.42-8.83-.13-.35-.44-1.22-.67-1.93-.24-.71-.6-1.48-.8-1.7-.56-.62-1.19-2.12-1.4-3.35-.16-.97-.13-1.18.27-1.75.74-1.04,2.24-1.02,3.43.05.73.65,2.11,2.65,2.21,3.21.04.21.16.46.28.54.12.08.53,1.19.92,2.47.38,1.28.81,2.48.93,2.67.13.19.32.58.44.85.27.67,1.02.56,1.38-.2.81-1.7,2.16-4.08,3.33-5.85.74-1.1,1.62-2.46,1.95-3.01.33-.55.67-1.01.75-1.02.08-.02.56-.5,1.07-1.08,1.19-1.36,2.18-1.98,4.07-2.57,1.21-.38,1.75-.46,2.57-.39,2,.17,4.96,2.13,6.1,4.04.2.34.49.73.64.87.36.32,1.79,2.73,2.59,4.36h0Z"></path><path class="cls-1" d="M275.42,3.26c0,1.3-.03,1.42-.74,2.85-.53,1.06-1.12,1.92-2.06,2.98-1.47,1.67-2.34,2.33-4.48,3.41-2.17,1.09-5.15,1.62-6.66,1.18-.65-.19-1.56-1.03-1.96-1.8-.86-1.67.01-3.92,2.03-5.24.64-.42.83-.46,2.18-.47,1.67-.02,1.55.05,2.5-1.57.92-1.58,1.4-2.18,2.38-2.99,1.43-1.17,2.45-1.61,3.79-1.61,2.22,0,3,.85,3,3.26ZM271.73,27.2c.28,2.13.3,2.97.21,7.62-.1,5.03-.22,7.41-.55,10.44-.08.79-.23,2.35-.33,3.48-.49,5.52-1.89,13.23-2.84,15.67-1.13,2.88-1.58,3.59-2.59,4.04-.74.33-1.18.38-1.53.15-.13-.09-.6-.26-1.05-.39-2.27-.67-3.09-3.48-2.77-9.47.1-1.75.21-4.19.26-5.4.17-4.15,1.18-10.12,2.22-13.05.34-.97,1.27-5.1,1.58-7.01.14-.86.39-1.92.58-2.38.3-.76.32-1.03.22-3.28-.12-2.87-.08-2.99,1.38-4.26,1.45-1.26,2.59-1.35,3.72-.29.88.82,1.17,1.63,1.5,4.14ZM267.02,47.56c.07-1.24.04-1.13-.38,1.26-.26,1.43-.58,3.61-.72,4.83-.14,1.22-.35,2.84-.47,3.6-.13.81-.18,1.73-.12,2.22l.11.83.12-.71c.07-.39.33-2.17.59-3.96.48-3.31.73-5.67.87-8.07h0ZM267.22,46.02c.04-.11.04-.32,0-.47-.04-.16-.08-.07-.08.19,0,.26.03.39.07.28h0ZM270.35,6.25c.53-.72,1.43-2.66,1.3-2.8-.16-.16-1.36.6-1.81,1.14-.77.93-1.46,2.42-1.46,3.14v.64l.72-.71c.4-.39.96-1.03,1.25-1.42h0Z"></path><path class="cls-1" d="M329.17,26.06c.12,1.85-.06,8.79-.3,11.84-.06.79-.28,2.27-.49,3.27-.21,1.01-.55,2.72-.77,3.81-.49,2.42-1.73,6.38-2.59,8.25-.72,1.58-2.86,4.78-4.38,6.58-.97,1.15-1.56,1.65-5.04,4.34-1.56,1.2-5.24,3.25-6.81,3.79-2.49.86-6.34,1.15-9.44.7-.69-.1-1.89-.31-2.67-.47-1.36-.28-1.48-.35-3.05-1.81-.9-.84-1.72-1.52-1.82-1.52-.26,0-1.79-3.36-2.06-4.52-.97-4.17-1.04-4.66-1.12-8.37-.07-2.96-.02-4.12.23-5.48,1.22-6.64,1.21-6.26.17-8.45-1.2-2.54-1.45-4.79-.75-7.08.41-1.35,1.51-3.63,2.46-5.08,1.45-2.21,6.04-6.65,8.55-8.26,1.43-.92,5.75-2.97,7.36-3.5,1.52-.49,5.26-1.06,6.06-.92.32.06,1.53.19,2.71.3,2.49.23,3.58.57,5.92,1.84,3.36,1.81,5.12,3.63,6.78,6.95.87,1.74.93,1.99,1.05,3.8h0ZM292.68,31.47c-.13.94.06,1.06.64.4.21-.24.87-1.17,1.46-2.08.59-.91,1.84-2.47,2.78-3.48.93-1.01,1.96-2.13,2.27-2.48.32-.36,1.16-1.19,1.88-1.86,1.32-1.23,1.55-1.59.98-1.59-.97,0-5.77,3.5-6.95,5.06-2.01,2.67-2.81,4.25-3.06,6.03h0ZM323.86,36.92c.43-2.06.45-2.41.29-4.9-.22-3.38-.3-3.88-.95-5.77-1.21-3.55-2.63-5.59-4.83-6.89l-1.21-.72-.69.46c-.95.63-1.78.87-3.57,1.02-.84.07-1.85.24-2.24.38-1.95.68-5.89,3.7-8.96,6.88-1.76,1.82-3.97,4.92-5.1,7.15-1.56,3.08-2.9,7.59-3.33,11.25-.99,8.27.72,14.33,4.69,16.67,1.53.9,2.81,1.2,5.1,1.21,1.81,0,2.34-.07,4.01-.59,1.55-.48,2.13-.77,3.03-1.52,1.61-1.33,4.26-4.25,5.69-6.25,4.14-5.79,6.6-11.38,8.07-18.37h0Z"></path><path class="cls-1" d="M366.96,53.52c.11.14.21,1.33.21,2.69.01,2.21-.03,2.51-.42,3.11-.23.37-.43.82-.43.99,0,.17-.31.93-.69,1.68-.51,1.01-1.14,1.83-2.45,3.13-2.72,2.72-5.82,4.52-8.82,5.13-.88.18-1.71.39-1.84.47-.24.15-4.48.53-5.64.5-.37,0-1.04-.09-1.48-.18-2.14-.42-4.46-2.25-5.28-4.17-.21-.5-.53-1.22-.7-1.59-.22-.48-.31-1.28-.32-2.79-.01-1.89.04-2.22.46-3.08.5-.99,1.35-1.6,2.27-1.62.61-.01,1.85.65,2.32,1.25.39.49.99,2.24.99,2.87,0,.35.56,1.73,1.13,2.8.24.44.71.86,1.39,1.22.9.48,1.18.54,2.18.45.64-.05,1.72-.33,2.4-.62.69-.29,1.51-.62,1.83-.75,1.36-.53,4.1-2.58,5.22-3.9,3.03-3.59,3.3-7.15.87-11.22-1.4-2.34-2.83-4.04-4.8-5.69-1.02-.86-1.97-1.7-2.12-1.88-.15-.17-.35-.32-.46-.32-.21,0-.77-.49-3.48-2.96-1.83-1.68-3.36-3.5-3.76-4.46-.37-.91-.65-2.7-.66-4.21,0-1.53.8-5.35,1.39-6.54.21-.42.56-1.16.78-1.64.95-2.03,2.02-3.83,3.59-6.09.88-1.25,3.46-3.76,4.34-4.22,1.36-.7,3.61-.46,4.96.54,1.11.82,1.6,3.53,1.06,5.83-.44,1.91-2.52,6.05-3.91,7.8-.64.8-1.29,1.73-1.47,2.07-.17.33-.87,1.23-1.56,1.99l-1.25,1.38v1.21c0,.66.08,1.41.17,1.66.1.25,1.39,1.75,2.89,3.32,1.49,1.57,2.71,2.96,2.71,3.09s.14.34.31.49c.36.3,3.88,4.28,4.91,5.56.39.48.9,1.23,1.15,1.67.24.44.69,1.19.99,1.67.36.58.58,1.25.65,1.99.06.61.2,1.23.31,1.36h0ZM353.43,22.88c-.21.42-.38.88-.38,1.04,0,.31-.02.33,1.02-.98.39-.49.71-.95.71-1.01s.25-.52.55-1.02c.6-1,1.06-2.24.94-2.57-.08-.23-2.46,3.23-2.46,3.58,0,.11-.18.55-.39.96h0Z"></path><path class="cls-1" d="M442.77,40.63c1.45.48,1.88,1.6,1.24,3.24-.31.79-.72,1.35-2.17,2.88l-1.78,1.89-.19,1.99c-.1,1.1-.19,2.33-.19,2.74s-.06.8-.13.84c-.08.05-.19.98-.25,2.06-.06,1.09-.18,2.56-.27,3.26-.08.71-.22,2.16-.31,3.22-.09,1.06-.27,2.73-.41,3.71-.13.97-.41,2.98-.6,4.45-.2,1.48-.41,2.74-.48,2.81-.07.07-.12.45-.12.85,0,.84-.28,2.7-.48,3.16-.08.18-.26,1.01-.42,1.85-.15.84-.32,1.6-.37,1.69-.19.3-.49,1.61-.5,2.12,0,.45-.28,1.4-1.4,4.8-.62,1.89-1.92,4.02-2.63,4.29-.16.06-.85.15-1.55.21-1.09.09-1.33.06-1.72-.21-.85-.58-1.25-1.35-1.47-2.8-.11-.75-.25-1.44-.31-1.53-.2-.33-.18-7.77.03-7.97.11-.11.19-.65.19-1.23,0-1.33.47-5.49.67-5.86.08-.16.18-.88.23-1.61.1-1.58.35-3.29.56-3.74.08-.18.25-1.08.38-2.01.13-.93.42-2.56.66-3.62.24-1.06.53-2.62.66-3.46.12-.84.31-2,.4-2.58.1-.58.29-1.81.45-2.74.15-.93.33-1.78.41-1.89.07-.11.17-.98.22-1.93.07-1.4.04-1.79-.16-2.05-.24-.31-.27-.3-1,.4-.42.4-1.07,1.19-1.45,1.77-.38.58-1.16,1.59-1.74,2.26-.58.66-1.06,1.29-1.06,1.39,0,.21-2.9,2.99-3.55,3.41-.22.14-.98.7-1.69,1.23-1.62,1.22-3.31,2-4.72,2.18-1.61.21-3.43.18-4.26-.08-.93-.28-2.39-1.42-3.32-2.6-.63-.79-.9-1.37-1.64-3.54-.09-.27-.2-1.42-.25-2.58-.04-1.15-.16-2.26-.26-2.46-.14-.27-.14-.5,0-.88.17-.5.4-2.58.61-5.5.05-.79.16-1.52.23-1.61.07-.09.17-.58.23-1.09.06-.51.2-1.23.32-1.61.12-.38.34-1.27.49-1.97.15-.71.32-1.4.37-1.53.09-.24.55-1.9,1.09-3.86.15-.58.34-1.12.4-1.21.26-.32.94-2.18,1.11-3.01.1-.47.54-1.59.98-2.49,1.03-2.09,2.26-3.35,3.43-3.53.42-.06,1.06-.06,1.45,0,.97.14,1.95,1.15,2.21,2.27.1.44.25.93.33,1.08.18.35.18.88,0,.99-.08.05-.19.36-.25.69-.06.34-.39,1.04-.74,1.58-.91,1.42-3.6,6.88-4.12,8.37-.25.71-.54,1.69-.65,2.17-.11.49-.32,1.32-.45,1.85-.13.53-.32,1.62-.41,2.41-.09.79-.25,2.03-.34,2.74-.1.74-.15,2.68-.11,4.59.07,3.51.14,3.87.98,4.8.46.5,1.51,1.03,1.63.83.06-.09.26-.16.46-.16s.74-.18,1.2-.4c.46-.22,1.58-.74,2.48-1.14.9-.41,1.75-.82,1.89-.92.35-.26,3.06-3.28,3.06-3.42,0-.06.28-.45.61-.86.66-.82,2.29-3.19,2.29-3.36,0-.06.34-.61.75-1.24.42-.63.91-1.39,1.09-1.7.18-.31.42-.71.53-.88.51-.86,1.99-4.02,2.45-5.23.28-.75.69-1.62.91-1.94.22-.32.39-.68.39-.81s.1-.38.21-.55c.12-.18.31-.68.42-1.12.41-1.68,1.01-3.24,1.47-3.86.26-.35.62-.94.79-1.3.54-1.11,1.46-1.68,2.7-1.67,1.04,0,1.91.61,2.53,1.76.42.78.48,1.07.54,2.57.04,1.11-.03,2.22-.2,3.22-.15.84-.33,2-.41,2.57-.16,1.15-.47,6.17-.38,6.26.03.03.36-.04.74-.16.6-.2.79-.19,1.45.03h0ZM435.05,56.4c.11-.36.17-1.04.13-1.5l-.06-.85-.5.85c-.54.92-.87,1.88-1.09,3.2-.27,1.67-.62,3.3-.78,3.67-.09.21-.29,1.22-.44,2.26-.6,4.08-1.04,6.8-1.23,7.43-.1.36-.24,1.5-.3,2.54-.1,1.68-.5,5.61-.78,7.76-.18,1.33.16,1.71.85.97.55-.59.72-1.17,1.06-3.55.17-1.19.37-2.25.46-2.35.08-.11.25-.95.38-1.88.12-.93.32-1.79.42-1.92.11-.12.27-1.31.36-2.63.1-1.33.26-2.92.37-3.54.54-3.14.75-4.92.85-7.24.06-1.4.2-2.84.3-3.2h0Z"></path><path class="cls-1" d="M32.59,198.41c1.93,1.42,2.57,2.29,2.57,3.49,0,2.29-3.41,4.25-5.54,3.2-.69-.34-2.51-2.24-3.2-3.33-.53-.84-1.33-3.01-1.83-4.95-.51-2.02-.82-5.39-.75-8.42.03-1.37,0-2.5-.06-2.5s-.42.37-.79.81c-3.53,4.22-7.69,7.99-10.05,9.11-3.64,1.72-8.04,1.36-10.01-.82-.87-.96-1.95-3.15-2.29-4.63-.15-.66-.38-2.55-.51-4.2-.21-2.64-.2-3.3.1-5.48.65-4.91.88-5.81,2.17-8.72,2.65-6,4.42-8.71,7.51-11.48,2.89-2.59,5.83-4.35,8.38-5,1.85-.47,4.34.12,6.45,1.55,1.45.97,1.99.93,2.77-.21,1.52-2.21,2.47-2.9,3.68-2.67.83.16,1.75,1.17,2.05,2.27.37,1.35.1,4.69-.6,7.36-.33,1.27-.72,2.8-.86,3.39-.15.6-.39,1.42-.55,1.83-.78,2.07-1.05,3.71-1.26,7.57-.27,5.12-.26,7.56.08,12.02.48,6.46,1.08,8.75,2.53,9.82h0ZM24.49,172.18c.83-6.62.84-6.97.11-9.27-.59-1.89-1.03-2.5-1.79-2.5-.35,0-1.03-.14-1.51-.32l-.89-.32-1.47.7c-2.59,1.24-5.44,4.36-8.21,8.97-1.25,2.07-1.66,2.99-2.38,5.24-2.6,8.13-2.92,9.59-2.91,13.6,0,2.29.37,3.58,1.19,4.23.58.45.96.47,2.3.12.55-.14,1.85-.72,2.89-1.28,1.58-.86,2.28-1.39,4.26-3.34,2.7-2.63,5.79-6.59,6.39-8.17.92-2.44,1.74-5.58,2.01-7.67h0Z"></path><path class="cls-1" d="M71.14,192.21c1.01.51,2.63,2.12,2.63,2.61,0,1.17-1.53,2.17-5.16,3.35-3,.98-5.38,1.2-7.49.69-.55-.13-1.82-.64-2.81-1.12-2.43-1.18-3.77-2.62-5.54-5.92-1.63-3.05-2.09-4.5-2.84-8.94-1.84-10.8-.27-23.4,3.75-30.01,3.06-5.04,4.66-6.62,6.97-6.94,2.38-.32,4.25,2.71,4.04,6.53-.09,1.57-.39,2.34-1.16,2.9-.75.56-1.56.49-2.57-.22-1.51-1.06-2.13-.76-3.63,1.78-1.55,2.62-2.17,4.95-2.69,10.03-.16,1.58-.35,3.4-.41,4.04-.16,1.59.23,7.02.7,9.41.45,2.36,1.14,4.43,1.9,5.78,1.07,1.9,3.86,5.83,4.39,6.18.71.48,2.56.42,4.8-.13,2.39-.59,3.95-.59,5.12.01h0Z"></path><path class="cls-1" d="M112.61,145.88c.38.17,1.21.99,1.21,1.51,0,.62-.56,1.77-1.21,2.47-.55.6-13.3,1.07-14.4,1.35-2,.51-1.87.24-1.85,3.8.01,3.26.38,11.58.65,14.83.09,1.06.74,12.22.77,17.05.11,14.56-.33,19.38-1.92,20.89-.59.55-3.47.96-4.35.43-.33-.2-.57-3.65-1.1-5.97-.08-.37-.24-1.92-.35-3.46-.11-1.53-.66-5.68-.77-9.43-.06-1.8-.29-33.99-.25-34.5.11-1.31-.02-2.18-.14-2.24-.32-.17-1.79.22-2,.24-.61.06-2.72.21-4.58.16-.38-.01-1.37-.1-1.69-.45-.38-.41-.67-.79-.67-1.58,0-1.18.44-2.69,1.33-3.03,1.71-.64,2.32-.19,3.72-.52.37-.09,2.71-.64,3.34-.71l1.13-.12.15-2.23c.05-.92.13-2.06.17-2.54.05-.48.17-2.81.28-5.2.1-2.38.25-4.5.33-4.71.09-.21.22-2.85.3-5.87.08-3.08.22-5.65.33-5.87.1-.21.36-.8.58-1.32.44-1.02.44-2.15,1.08-2.33.62-.18,2.9-.59,3.42.41.4.78.48,1.18.54,2.69.04.98-.01,2.89-.12,4.24-.1,1.35-.2,5.08-.21,8.28-.01,3.2-.33,4.68-.15,9.19,0,.12.17,1.09.17,2.42v2.3h.43c.4,0,2.91-.59,9.01-.89,1.69-.08,5.29,0,6.83.7h0Z"></path><path class="cls-1" d="M134.54,133.6c0,1.3-.03,1.42-.74,2.85-.53,1.06-1.12,1.92-2.06,2.98-1.47,1.67-2.34,2.33-4.48,3.41-2.17,1.09-5.15,1.62-6.66,1.18-.65-.19-1.56-1.03-1.96-1.8-.86-1.67.01-3.92,2.03-5.24.64-.42.83-.46,2.18-.47,1.67-.02,1.55.05,2.5-1.57.92-1.58,1.4-2.18,2.38-2.99,1.43-1.17,2.45-1.61,3.79-1.61,2.22,0,3,.85,3,3.26ZM130.86,157.54c.28,2.13.3,2.97.21,7.62-.1,5.03-.22,7.41-.55,10.44-.08.79-.23,2.35-.33,3.48-.49,5.52-1.89,13.23-2.84,15.67-1.12,2.88-1.58,3.59-2.58,4.04-.74.33-1.18.38-1.53.15-.13-.09-.6-.26-1.05-.39-2.27-.67-3.09-3.48-2.77-9.47.1-1.75.21-4.19.26-5.4.17-4.15,1.18-10.12,2.22-13.05.34-.97,1.27-5.1,1.58-7.01.13-.86.39-1.92.58-2.38.3-.76.32-1.03.22-3.28-.12-2.87-.08-2.99,1.38-4.26,1.45-1.26,2.59-1.35,3.72-.29.88.82,1.17,1.63,1.5,4.14ZM126.14,177.9c.07-1.24.04-1.13-.38,1.26-.26,1.43-.58,3.61-.72,4.83-.14,1.22-.35,2.84-.47,3.6-.13.81-.18,1.73-.12,2.22l.11.83.12-.71c.07-.39.33-2.17.59-3.96.48-3.31.74-5.67.87-8.07h0ZM126.34,176.36c.04-.11.04-.32,0-.47-.04-.16-.08-.07-.08.19,0,.26.03.39.08.28h0ZM129.47,136.6c.53-.72,1.43-2.66,1.3-2.8-.16-.16-1.36.6-1.81,1.14-.77.93-1.46,2.42-1.46,3.14v.64l.72-.71c.4-.39.96-1.03,1.25-1.42h0Z"></path><path class="cls-1" d="M183.11,153.04c.59,1.62.2,10.33-.57,12.65-.13.4-.42,1.47-.64,2.37-.22.91-.5,1.89-.64,2.19-.13.3-.46,1.12-.74,1.82-.28.7-.97,2.22-1.54,3.37-.58,1.15-1.26,2.61-1.52,3.24-.27.63-.81,1.67-1.2,2.32-.39.65-.97,1.65-1.28,2.23-1.95,3.69-4.91,7.44-8.23,10.46-2.02,1.84-2.64,2.19-4.53,2.63-2.02.46-2.89.49-3.86.11-.47-.18-1.33-.39-1.91-.46-1.13-.13-2.25-.61-2.94-1.25-.83-.77-2.17-3.28-2.5-4.69-.18-.75-.38-1.45-.45-1.55-.07-.1-.22-.76-.33-1.46-.12-.7-.34-2.01-.5-2.92-.66-3.76-.99-6.59-1.19-10.12-.12-2.1-.3-3.85-.42-3.99-.28-.36-.28-14.27,0-14.63.11-.14.26-1.16.33-2.26.18-2.87.53-4.11,1.61-5.77,1.46-2.22,3.02-2.72,4.29-1.37,1.2,1.28,1.34,2.48.84,6.98-.39,3.43-.46,21.95-.1,24.51.73,5.15,1.06,6.88,1.73,8.93.25.75.5,1.72.58,2.14l.13.77h.81c.77,0,.88-.07,2.08-1.31.7-.72,1.27-1.4,1.27-1.52s.44-.7.97-1.29c.53-.59,1.21-1.48,1.51-1.97.29-.49.76-1.27,1.04-1.73.28-.46.75-1.33,1.06-1.93.31-.6.8-1.51,1.09-2.01.99-1.71,1.47-2.66,2.08-4.16.33-.82.74-1.74.9-2.04.16-.3.3-.65.3-.77s.21-.7.47-1.27c.55-1.24,1.97-5.18,2.38-6.62.26-.91.59-2.14,1.19-4.38.12-.45.28-.9.35-1.01.07-.1.32-1,.54-2,.23-1,.53-2.08.66-2.4.14-.32.25-.71.25-.89,0-.64.82-1.75,1.68-2.28.48-.3,1-.54,1.16-.54.8,0,3.37,2.58,3.83,3.86h-.01Z"></path><path class="cls-1" d="M207.98,133.6c0,1.3-.03,1.42-.74,2.85-.53,1.06-1.12,1.92-2.06,2.98-1.47,1.67-2.34,2.33-4.48,3.41-2.17,1.09-5.15,1.62-6.66,1.18-.65-.19-1.56-1.03-1.96-1.8-.86-1.67.01-3.92,2.03-5.24.64-.42.83-.46,2.18-.47,1.67-.02,1.55.05,2.5-1.57.92-1.58,1.4-2.18,2.38-2.99,1.43-1.17,2.45-1.61,3.79-1.61,2.22,0,3,.85,3,3.26ZM204.29,157.54c.28,2.13.3,2.97.21,7.62-.1,5.03-.22,7.41-.55,10.44-.08.79-.23,2.35-.33,3.48-.49,5.52-1.89,13.23-2.84,15.67-1.13,2.88-1.58,3.59-2.59,4.04-.74.33-1.18.38-1.53.15-.13-.09-.6-.26-1.05-.39-2.27-.67-3.09-3.48-2.77-9.47.1-1.75.21-4.19.26-5.4.17-4.15,1.18-10.12,2.22-13.05.34-.97,1.27-5.1,1.58-7.01.14-.86.39-1.92.58-2.38.3-.76.32-1.03.22-3.28-.12-2.87-.08-2.99,1.38-4.26,1.45-1.26,2.59-1.35,3.72-.29.88.82,1.17,1.63,1.5,4.14ZM199.58,177.9c.07-1.24.04-1.13-.38,1.26-.26,1.43-.58,3.61-.72,4.83-.14,1.22-.35,2.84-.47,3.6-.13.81-.18,1.73-.12,2.22l.11.83.12-.71c.07-.39.33-2.17.59-3.96.48-3.31.73-5.67.87-8.07h0ZM199.78,176.36c.04-.11.04-.32,0-.47-.04-.16-.08-.07-.08.19,0,.26.03.39.07.28h0ZM202.91,136.6c.53-.72,1.43-2.66,1.3-2.8-.16-.16-1.36.6-1.81,1.14-.77.93-1.46,2.42-1.46,3.14v.64l.72-.71c.4-.39.96-1.03,1.25-1.42h0Z"></path><path class="cls-1" d="M263.64,193.03c.35.82.36.96.1,2.45-.34,1.92-1.03,3.44-1.83,4.01-.68.49-2.34.65-3.36.34-1.13-.35-2.82-2.14-3.79-4.02-1.09-2.11-2.46-5.36-2.79-6.65-.14-.53-.45-1.7-.7-2.6-.25-.9-.67-2.8-.94-4.23-.27-1.43-.62-3.16-.78-3.85-.31-1.37-.76-4.43-1.07-7.4-.33-3.16-.34-3.24-.67-2.96-.34.27-1.51,2.69-2.38,4.88-.33.84-1.51,3.37-2.61,5.63-1.1,2.26-2.01,4.15-2.01,4.2,0,.16-2.28,4.24-3.58,6.42-.67,1.11-1.58,2.46-2.04,3.01-.45.54-1.4,1.67-2.1,2.51-2.48,2.95-5.68,3.92-8.97,2.71-1.34-.49-1.99-1.07-3.06-2.72-1.26-1.94-1.76-3.13-2.19-5.17-1.07-5.08-1.14-7.52-.37-12.13.82-4.85,1.13-5.81,2.99-9.17,3.12-5.65,7.68-9.2,16.53-12.88,3.03-1.26,4.98-1.78,7.21-1.92,1.65-.1,1.84-.15,2.04-.55.16-.32.2-3.25.15-10.47-.06-7.96-.01-10.63.22-12.93.16-1.59.29-3.59.29-4.44.01-3.48.72-8.33,1.42-9.68,1.07-2.05,3.4-2.01,4.73.09,1.94,3.06,2.74,10.29,2.11,19-.27,3.7-1.13,8.97-2.31,14.14l-.59,2.6.49,1.44c.61,1.82.63,3.25.06,4.86-.56,1.59-.57,3.58-.01,6.69.23,1.32.52,3.48.64,4.81.17,2.05.97,7.11,1.24,7.82.05.12.18.95.29,1.83.29,2.2,1.8,7.43,2.6,9.02.88,1.74,1.57,2.5,3.26,3.55,1.16.72,1.47,1.03,1.78,1.75h0ZM245.79,161.12c.78-2.32.81-2.49.5-2.79-.43-.42-2.77-.36-5.27.15-1.87.38-4.4,1.58-7.16,3.37-3.16,2.07-7.75,8.29-9.06,12.28-.97,2.96-1.13,3.88-1.13,6.8,0,2.93.14,3.94.89,6.25.6,1.84,1.11,2.62,2.1,3.18,1.05.6,1.94.56,3-.11,1.51-.96,1.96-1.61,7.12-10.32,5.01-8.46,6.76-12.1,9.01-18.81h0ZM227.87,194.86c.17-.11-.16-.24-.96-.4-.67-.13-1.54-.4-1.94-.59-1.02-.49-.89-.1.18.58.91.58,2.15.77,2.72.41ZM252.23,135.72c.19-.95.49-3.98.49-4.97,0-1.3-.38-3.32-.59-3.11-.46.46-.75,2.58-.75,5.44s.02,3,.39,3.03c.25.02.41-.11.47-.39h0ZM252.14,126.55c.11,0,.2-.41.2-.9,0-1.07-.09-1.04-.26.08-.08.51-.05.82.07.82Z"></path><path class="cls-1" d="M308.82,198.41c1.93,1.42,2.57,2.29,2.57,3.49,0,2.29-3.41,4.25-5.54,3.2-.69-.34-2.51-2.24-3.2-3.33-.53-.84-1.33-3.01-1.83-4.95-.51-2.02-.82-5.39-.75-8.42.03-1.37,0-2.5-.06-2.5s-.42.37-.79.81c-3.53,4.22-7.69,7.99-10.05,9.11-3.64,1.72-8.04,1.36-10.01-.82-.87-.96-1.95-3.15-2.29-4.63-.15-.66-.38-2.55-.51-4.2-.21-2.64-.2-3.3.1-5.48.65-4.91.88-5.81,2.17-8.72,2.65-6,4.42-8.71,7.51-11.48,2.89-2.59,5.83-4.35,8.38-5,1.85-.47,4.34.12,6.45,1.55,1.45.97,1.99.93,2.77-.21,1.52-2.21,2.47-2.9,3.68-2.67.83.16,1.75,1.17,2.05,2.27.37,1.35.1,4.69-.6,7.36-.33,1.27-.72,2.8-.86,3.39-.15.6-.39,1.42-.55,1.83-.78,2.07-1.05,3.71-1.26,7.57-.27,5.12-.26,7.56.08,12.02.48,6.46,1.08,8.75,2.53,9.82h0ZM300.73,172.18c.83-6.62.84-6.97.11-9.27-.59-1.89-1.03-2.5-1.79-2.5-.35,0-1.03-.14-1.51-.32l-.89-.32-1.47.7c-2.58,1.24-5.44,4.36-8.21,8.97-1.25,2.07-1.66,2.99-2.38,5.24-2.6,8.13-2.92,9.59-2.91,13.6,0,2.29.37,3.58,1.19,4.23.58.45.96.47,2.3.12.55-.14,1.85-.72,2.89-1.28,1.58-.86,2.28-1.39,4.26-3.34,2.7-2.63,5.79-6.59,6.39-8.17.92-2.44,1.74-5.58,2.01-7.67h0Z"></path><path class="cls-1" d="M369.59,193.03c.36.82.36.96.1,2.45-.34,1.92-1.03,3.44-1.83,4.01-.68.49-2.34.65-3.36.34-1.13-.35-2.82-2.14-3.79-4.02-1.09-2.11-2.46-5.36-2.79-6.65-.14-.53-.45-1.7-.7-2.6-.25-.9-.67-2.8-.94-4.23-.27-1.43-.62-3.16-.78-3.85-.31-1.37-.76-4.43-1.07-7.4-.33-3.16-.34-3.24-.67-2.96-.34.27-1.51,2.69-2.38,4.88-.33.84-1.51,3.37-2.61,5.63-1.1,2.26-2.01,4.15-2.01,4.2,0,.16-2.28,4.24-3.58,6.42-.67,1.11-1.58,2.46-2.04,3.01-.45.54-1.4,1.67-2.1,2.51-2.48,2.95-5.68,3.92-8.97,2.71-1.34-.49-1.99-1.07-3.06-2.72-1.26-1.94-1.76-3.13-2.19-5.17-1.07-5.08-1.14-7.52-.37-12.13.82-4.85,1.13-5.81,2.99-9.17,3.12-5.65,7.68-9.2,16.53-12.88,3.03-1.26,4.98-1.78,7.21-1.92,1.65-.1,1.84-.15,2.04-.55.16-.32.2-3.25.15-10.47-.06-7.96-.01-10.63.22-12.93.16-1.59.29-3.59.29-4.44.01-3.48.72-8.33,1.42-9.68,1.07-2.05,3.4-2.01,4.73.09,1.94,3.06,2.75,10.29,2.11,19-.27,3.7-1.13,8.97-2.31,14.14l-.59,2.6.49,1.44c.61,1.82.63,3.25.06,4.86-.56,1.59-.57,3.58-.01,6.69.23,1.32.52,3.48.64,4.81.17,2.05.97,7.11,1.24,7.82.05.12.18.95.29,1.83.29,2.2,1.8,7.43,2.6,9.02.88,1.74,1.57,2.5,3.26,3.55,1.17.72,1.47,1.03,1.78,1.75h0ZM351.75,161.12c.78-2.32.81-2.49.5-2.79-.43-.42-2.77-.36-5.27.15-1.87.38-4.4,1.58-7.16,3.37-3.16,2.07-7.75,8.29-9.06,12.28-.97,2.96-1.13,3.88-1.13,6.8,0,2.93.14,3.94.89,6.25.6,1.84,1.11,2.62,2.1,3.18,1.05.6,1.94.56,3-.11,1.51-.96,1.96-1.61,7.12-10.32,5.01-8.46,6.76-12.1,9.01-18.81h0ZM333.83,194.86c.17-.11-.16-.24-.96-.4-.67-.13-1.54-.4-1.94-.59-1.02-.49-.9-.1.18.58.91.58,2.15.77,2.72.41ZM358.18,135.72c.19-.95.49-3.98.49-4.97,0-1.3-.38-3.32-.59-3.11-.46.46-.75,2.58-.75,5.44s.02,3,.39,3.03c.25.02.41-.11.47-.39h0ZM358.09,126.55c.11,0,.2-.41.2-.9,0-1.07-.09-1.04-.26.08-.08.51-.05.82.07.82Z"></path><path class="cls-1" d="M418.99,188.08c.66.74-.52,6.58-4.68,8.63-1.63.81-9.13,3.29-10.34,3.21-4.59-.27-7.25-.34-9.15-1.3-1.64-.83-3.82-2.42-5.14-3.74l-1.4-1.4-.86.11c-.47.06-1.25.16-1.72.22-1.22.15-2.33-.35-2.76-1.26-.5-1.06-.31-2.14.64-3.58,1.31-1.99,1.32-2.07.61-5.17-.39-1.69-.56-6.7-.29-8.52.37-2.45,1.21-5.55,2.14-7.85.48-1.19.87-2.22.87-2.28s.39-.76.86-1.57c.48-.81,1.15-1.99,1.5-2.62.71-1.3,2.59-3.52,4.58-5.4,1.38-1.3,5.43-4.09,6.8-4.68,2.44-1.05,6.17-1.74,8.07-1.5.56.07,1.5.38,2.11.68,1.3.66,2.01,1.58,2.63,3.43.36,1.05.4,1.53.39,3.94-.01,3.12-.24,4.44-1.3,7.66-.81,2.44-2.75,6.67-3.6,7.87-.33.46-.73,1.15-.88,1.52s-.64,1.13-1.08,1.68c-.44.55-1.33,1.67-1.98,2.5-1.59,2.01-7.33,7.83-8.54,8.67-.53.37-1.44,1.1-2.02,1.62-.88.81-1.05,1.05-1.05,1.56s.15.74.89,1.41c3.32,3.01,5.45,4.28,10.21,3.27,8.08-1.72,11.89-10.03,14.49-7.11h0ZM388.86,183.12c.6.59.63.6,1.37.15,2.94-1.79,10.06-9.71,11.75-13.09.22-.44.74-1.36,1.16-2.06.98-1.64,2.98-6.05,3.31-7.34.54-2.06.24-5.12-.57-6.03-.71-.79-3.3-.06-5.8,1.63-1.53,1.04-4.29,3.57-5.59,5.13-2.6,3.14-4.37,6.92-5.83,12.48-.25.97-.4,2.21-.47,4-.13,3.41,0,4.49.66,5.14h0Z"></path><path class="cls-1" d="M457.67,183.86c.11.14.21,1.33.21,2.69.01,2.21-.03,2.51-.42,3.11-.23.37-.43.82-.43.99,0,.17-.31.93-.69,1.68-.51,1.01-1.14,1.83-2.45,3.13-2.72,2.72-5.82,4.52-8.82,5.13-.88.18-1.71.39-1.84.47-.24.15-4.48.53-5.64.5-.37,0-1.04-.09-1.48-.18-2.14-.42-4.46-2.25-5.28-4.17-.21-.5-.53-1.22-.7-1.59-.22-.48-.31-1.28-.32-2.79-.01-1.89.04-2.22.46-3.08.5-.99,1.35-1.6,2.27-1.62.61-.01,1.85.65,2.32,1.25.39.49.99,2.24.99,2.87,0,.35.56,1.73,1.13,2.8.24.44.71.86,1.39,1.22.9.48,1.18.54,2.18.45.64-.05,1.72-.33,2.4-.62.69-.29,1.51-.62,1.83-.75,1.36-.53,4.1-2.58,5.22-3.9,3.03-3.59,3.3-7.15.87-11.22-1.4-2.34-2.83-4.04-4.8-5.69-1.02-.86-1.97-1.7-2.12-1.88-.15-.17-.35-.32-.46-.32-.21,0-.77-.49-3.48-2.96-1.83-1.68-3.36-3.5-3.76-4.46-.37-.91-.65-2.7-.66-4.21,0-1.53.8-5.35,1.39-6.54.21-.42.56-1.16.78-1.64.95-2.03,2.02-3.83,3.59-6.09.88-1.25,3.46-3.76,4.34-4.22,1.36-.7,3.61-.46,4.96.54,1.11.82,1.6,3.53,1.06,5.83-.44,1.91-2.52,6.05-3.91,7.8-.64.8-1.29,1.73-1.47,2.07-.17.33-.87,1.23-1.56,1.99l-1.25,1.38v1.21c0,.66.08,1.41.17,1.66.1.25,1.39,1.75,2.89,3.32,1.49,1.57,2.71,2.96,2.71,3.09s.14.34.31.49c.36.3,3.88,4.28,4.91,5.56.39.48.9,1.23,1.15,1.67.24.44.69,1.19.99,1.67.36.58.58,1.25.65,1.99.06.61.2,1.23.31,1.36h0ZM444.15,153.22c-.21.42-.38.88-.38,1.04,0,.31-.02.33,1.02-.98.39-.49.71-.95.71-1.01s.25-.52.55-1.02c.6-1,1.06-2.24.94-2.57-.08-.23-2.46,3.23-2.46,3.58,0,.11-.18.55-.39.96h0Z"></path></g></svg>