<svg xmlns="http://www.w3.org/2000/svg" id="Capa_2" viewBox="0 0 985.79 248.59"><defs><style>.cls-1{fill:#fff;}</style></defs><g id="Design"><path class="cls-1" d="M267.66,24.43c.27.14.34-.28.41-.34-.55-.1-.43.45-.41.34Z"></path><path class="cls-1" d="M263.42,25.68l-.02-.19c-.1.23-.19.45-.27.66.09-.16.18-.31.29-.47Z"></path><path class="cls-1" d="M261.04,28.34c.38-.03.52-.28.63-.63.09-.35.27-.74.56-.9l.18.04c-.08-.21-.13-.4-.19-.62-.28.31-.48.77-.67,1.15-.15.41-.32.75-.52.96Z"></path><path class="cls-1" d="M258.9,30.11c.32-.14.13.52.2-.55-.04.05-.06.06-.09.09-.01.1-.07.23-.11.46Z"></path><path class="cls-1" d="M259.01,29.66c.09-.48-.31.29,0,0h0Z"></path><path class="cls-1" d="M259.04,31.8c-.1-.18-.2-.37-.29-.57-.16.15-.15.73-.28.54.2.64.34.44.57.03Z"></path><path class="cls-1" d="M259.61,32.22c-.06-.08-.09-.17-.14-.26-.06.07-.08.16.14.26Z"></path><path class="cls-1" d="M259.21,31.37l.27.59c.1-.11.33-.16-.1-.27.21,0,0-.07-.17-.32Z"></path><path class="cls-1" d="M259.31,30.99c.18-.35.31-.74.51-.2,0-1.02-.53-.93-.51.2Z"></path><path class="cls-1" d="M261.66,28.77c.11-.07.21-.15.32-.21l-.07-.34c.02.16-.47.48-.25.55Z"></path><path class="cls-1" d="M260.14,35.41c.13-.07.18-.43.31-.59l-.39-.24c.05.24.22.65.08.83Z"></path><path class="cls-1" d="M260.45,34.83c.19.12.37.23.59.3-.36-.4-.46-.45-.59-.3Z"></path><path class="cls-1" d="M260.4,32.07c-.24-.23-.41-.5-.62-.8.22.36.39.69.67.96l-.05-.16Z"></path><path class="cls-1" d="M262.17,37.03c-.17.04-.34.07-.52.1.29-.01.59-.06.88-.14l-.36.04Z"></path><path class="cls-1" d="M263.84,37.53c-.38.22.27.56-.09.67.51.09,1-.16,1.4-.37-.41.12-.86.07-1.31-.3Z"></path><path class="cls-1" d="M265.78,37.48c-.17.09-.39.21-.63.34.22-.06.43-.15.63-.34Z"></path><path class="cls-1" d="M261.78,35.86c-.01.1-.08.34.18.62l.02-.48c-.06-.04-.13-.09-.2-.13Z"></path><path class="cls-1" d="M261.98,35.97v.02c.22.15.37.25.43.29-.05-.04-.19-.13-.43-.31Z"></path><path class="cls-1" d="M261.73,35.82s.03.02.05.03c0-.05,0-.06-.05-.03Z"></path><path class="cls-1" d="M260.5,33.6c.16.1.39.24.58.26.18.02.3-.08.28-.42-.35-.03-.36.42-.87.17Z"></path><path class="cls-1" d="M261.83,35.23l-.37-.48c-.07.09-.1.28-.31.25.23.09.46.16.69.23Z"></path><path class="cls-1" d="M262.15,35.3c-.11,0-.22-.03-.32-.07.05.06.09.12.15.17l.16-.1Z"></path><path class="cls-1" d="M264.62,37.08c.32-.17.63-.18.99-.21-.37-.09-.75-.12-1.1-.16-.08.12-.3.34.12.37Z"></path><path class="cls-1" d="M263.28,36.66h.07s-.05-.07-.07,0Z"></path><path class="cls-1" d="M268.93,35.78s-.06-.03-.09-.04l.02.07.06-.03Z"></path><path class="cls-1" d="M264.47,36.61c-.25-.13-.43-.06-.62.03.22,0,.44.01.67.05.04-.05.05-.09-.04-.09Z"></path><path class="cls-1" d="M266.81,37.12c-.17-.05-.35-.1-.53-.14.15.11.49.28.53.14Z"></path><path class="cls-1" d="M263.39,36.81s-.03,0-.05,0c.05.12.06.07.05,0Z"></path><path class="cls-1" d="M263.39,36.81c.16,0,.31-.1.45-.16-.17,0-.33,0-.5.01.02.04.04.1.05.15Z"></path><path class="cls-1" d="M268.09,33.03c.26.32.02.94-.54.78-.23.45.43,1.59,1.29,1.94-.07-.16-.12-.31.25-.84-.15-.03-.49.05-.75.05-.27-.01-.45-.11-.33-.37.47-.54.53-.18.94-.21-.27-.11-.18-.39-.17-.69.02-.3.01-.61-.28-.83l-.19.51c-.07-.08-.06-.34-.22-.33Z"></path><path class="cls-1" d="M267.71,36.27l-.24.13c.31-.02.55.03,1.07.12.37-.39.37-.58.33-.71-.4.21-.82.39-1.23.54l.07-.09Z"></path><path class="cls-1" d="M266.3,36.71c.2-.45.7-.79.3-1.16-.64.16-.43.45-.85.7,1.16-.28-.35.29.53.41-.24.11-.46.16-.68.21.22.03.45.06.66.11l-.03-.02h0s0,0,0,0c-.06-.05-.08-.08-.01-.05,0,0,.02-.01.03-.01,0-.06.03-.12.05-.17.37.03.07.1-.05.17,0,.02-.01.04-.01.07h0c.43-.12.83-.34,1.22-.55-.28,0-.58.18-1.17.3Z"></path><path class="cls-1" d="M262.37,33.29s-.04.06-.06.09c.07.01.11,0,.06-.09Z"></path><path class="cls-1" d="M262.41,33.73c-.08,0-.27.09-.35-.13,0-.24.16-.13.26-.23-.15-.02-.5-.18-.42.29l.08.02c.09.39.17,1.13.08,1.14.16-.38.26-.66.36-1.09Z"></path><path class="cls-1" d="M263.87,35.57c.3.01.61-.03.9-.04-.11-.15-.22-.29-.31-.43l-.04.22c-.43-.16-.42.11-.54.25Z"></path><path class="cls-1" d="M269.14,35.9l.09.48c.09-.31.17-.62.22-.92l-.31.44Z"></path><polygon class="cls-1" points="270.23 35.01 270.46 35.34 270.55 34.93 270.23 35.01"></polygon><path class="cls-1" d="M266.1,26.64l.06.09s-.04-.07-.06-.09Z"></path><path class="cls-1" d="M265.56,27.15l.05-.19c-.05.1-.08.18-.05.19Z"></path><path class="cls-1" d="M256.97,31.94c-.3.44-.76,1.05-.33.89l.4-.22c-.13-.26-.12-.48-.06-.67Z"></path><path class="cls-1" d="M270.4,33.67c-.05,0-.1,0-.16,0,.08.14.16.27.23.39-.02-.12-.05-.25-.08-.39Z"></path><path class="cls-1" d="M268.95,32.6l.37-.1c-.12.01-.24.04-.37.1Z"></path><path class="cls-1" d="M267.01,28.31c.04-.14.08-.28.1-.43-.04,0-.06.21-.1.43Z"></path><path class="cls-1" d="M268.71,23.55c-.25-.3-.49-.49-.72-.59.33.39.46.87.72.59Z"></path><path class="cls-1" d="M264.95,22.5c-.17.08-.24.18-.23.27.17-.08.27-.17.23-.27Z"></path><path class="cls-1" d="M267,22.66c.06.05.1.09.16.14.27,0,.54.02.83.15-.24-.27-.58-.51-.99-.29Z"></path><path class="cls-1" d="M261.18,26.45s-.02.02-.04.04c.06-.01.06-.02.04-.04Z"></path><path class="cls-1" d="M265.62,32.88c-.11.05-.3.09-.49.13.09.01.24-.02.49-.13Z"></path><path class="cls-1" d="M272.95,30.49c-.02.31.04.06,0,0h0Z"></path><path class="cls-1" d="M270.98,31.33c-.03-.06-.08-.12-.17-.16.09.05.15.1.17.16Z"></path><path class="cls-1" d="M264.55,25.14h-.02c.06.08.05.07.02,0Z"></path><path class="cls-1" d="M272.68,30.91c.07-.1.14-.22.19-.36-.04.06-.1.17-.19.36Z"></path><path class="cls-1" d="M272.89,30.89c-.03.1-.06.18-.1.25.05.05.13.04.1-.25Z"></path><path class="cls-1" d="M272.98,30.05c-.01.18-.06.35-.11.5.04-.06.07-.08.08-.06,0-.09.02-.22.03-.44Z"></path><path class="cls-1" d="M268.72,22.79s0-.03,0-.05c-.23.04-.16.06,0,.05Z"></path><path class="cls-1" d="M263,34.09s-.02,0-.02,0v.02s.02-.03.02-.03Z"></path><path class="cls-1" d="M263.51,34.04c-.42.4-.48.24-.52.08-.21.36-.41.73-.6,1.11.41-.37.78-.75,1.12-1.19Z"></path><path class="cls-1" d="M266.08,27.56c.12-.09.22-.17.36-.23.66.09.45.14.97-.04-.66.16-.72.02-.76-.07-.03-.09-.06-.12-.71-.32.1,0,.2.01.29.03-.01.01.06.04.04.05.31.06.08,0-.17-.16-.27-.16-.53-.4-.38-.45.16.02.29.14.38.29l-.05-.12-1.17.47.22-.22c.11.02.08.26-.02.24.17-.06.35-.06.54-.08v.04c.09-.21.35-.47.5-.59.11.22-.12.12-.11.3.14-.09.29-.16.44-.21.02.39-.36.58-.55.51-.02.69.03.61.17.5.13-.12.39-.28.49.22l-.32.03c-.16.78.11.59.07,1.14.05-.12.11-.44.17-.77.07-.31.14-.64.39-.71.04.15.11.26.44.13-.27.4-.07.42.14.54l-.43.48c.28,0,.49-.23.81-.33.17.26-.19.64-.47.94.18.37.43-.73.85-.4.02.46.37.5.9.81-.09.33-.38.1-.52.25.19,0,.37.02.55.05,0,.06-.15.09-.23.1.24.14.63-.17.88.13.35-.03.14.23-.08.47-.24.25-.45.44-.08.67-.19.08-.39-.08-.64-.07.26.26.3.39.4.51.09.13.23.25.46.6-.18.09-.35.17-.55.23.58-.07.93.51,1.08,1.17.29,0,.51-.02.64-.06-.01.3-.09.58-.15.89-.14.02-.27-.18-.42-.44.02.07.03.15.04.21-.35.09-.55-.27-.75-.62.15,0,.31,0,.47.01-.22-.36-.53-.7-.87-.85.05.07.07.17.05.25-.07-.09-.13-.16-.2-.18-.07-.02.02.1.1.27-.22-.1-.44-.2-.66-.3l.21.19c-.25.1-.52.18-.78.23.19.83.38,2.06-.51,2.82.02-.59-.31-.8-.56-1.37.52.48.48-.55.87-.69-.22.08-.35-.19-.37-.31-.07.3-.18.6-.33.9-.22-.46-.32-.27-.57-.38.54.86-.29.84-.55,1.19-.09-.33-.1-.67.28-.69-.31-.3-.33,0-.41.34-.06.34-.18.66-.44.39.1-.02.16.02.17-.15-.19.35-.79.12-.65-.18h.09c-.31-.04-.73-.09-1.13-.07-.39.02-.8.1-1.04.44.05-.1.53-.88.62-1.03-.67.73-1.59,1.32-2.64,1.66.29-.23.62-.77.99-1.21.37-.45.75-.81,1.05-.84-.05-.15-.05-.35-.43-.34-.03.13-.56.92-.72.87.31-.86.1-.52.38-1.3-.05.21-1.05.76-1.2.49.17-.06.94-.62,1.09-.62-.43.07-.83.05-1.29.02.26.06.86-.42,1.09-.65-.17.14-.18-.44-.31-.55-.06.1-.13.21-.17.32-.03-.65-1.75-.24-1.81-1.14.24.1,1.44.05,1.55-.29-.3-.06-.99-.19-1.67-.51-.68-.31-1.28-.82-1.41-1.35l.36-.11c-.07-.26-.14-.53-.16-.81.31.37.88.96,1.44,1.42.6.48,1.2.83,1.56,1.03.27-.23.37-.06.37-.38.32-.07.44.2.47.28.07-.22.16-.43.27-.6-.33-.06-.47-.21-.59-.39-.1-.17-.18-.35-.45-.44.11.35.28.68.47.96-.33-.03-.8-.22-1.11-.52-.33-.31-.48-.75-.28-1.07.32-.04,1.04.6,1.27.66-.2-.14-.17-.66,0-.62.05.12.14.26.21.37.16-.07.03-.26-.03-.46-.08-.21-.08-.42.28-.31.12-.08.8.41.56.11-.61-.51-2.36-2.1-2.54-2.72.05,0,.42-.07.81-.09.39,0,.81.09.99.19.28.19.33.57.41.93.07.36.17.69.38.87-.09-.16-.09-.42-.07-.52.2.07.2.52.44.33-.22-.65.63-.2-.08-.59.25-.33.4.03.76-.12-.25-.4.09-1.55.58-1.78-.01.17.1.4.15.5.88.02,1.3.41,2.02.6.03.18.29.47.06.71.13-.09.3-.28.51-.2.13.71-.46-.11-.44.68.15-.35.69-.32,1.07-.34.25-.59-.62-.48-.97-.33.14-.4.42-.76.83-.99.41-.25.94-.31,1.5-.18.8.37-.06.65.13.65.27.25.49.41.73.49.24.08.48.09.69.15.42.09.88.23.88,1.06-.28.72-.99.41-1.3.67-.39-.45-.11-.96-.37-1.32l.07.57c-.26-.07-.55-.3-.59-.54-.06.29.26.71.47,1.27.26.54.29,1.25.06,1.68.16.16.3.49.53.38l-.03-.33c.48-.31.51.72.77.29.25.52.55,1.33-.01,1.93l-.61-.15c.16.07.55-.26.43-.53.09.2-.24.36-.47.54-.23.18-.44.34-.19.69.21-.06.43-.12.63-.21.02.59.11,1.59-.54,1.99.67.16.05-.16.94-.1-.49-.11-.16-.44.08-.82.26-.37.46-.71-.13-.64.49-.01.67-.21.86-.42.19-.21.35-.45.8-.75-.2-.03-.45.16-.15-.49-.05-.05-.1-.13-.14-.19,0-.02.01-.03.02-.04l-.03.03s-.03-.04-.01.01c-.12.14-.27.23-.39.25-.17-.21-.21-.56-.25-.9-.02-.34-.07-.68-.21-.84.08-.37.24.15.45-.06-.13-.17-.25-.34-.38-.49.47-.07.52-1.18.99-.25-.05-.3-.11-.6-.18-.91.1-.6-.13-1.36-.53-1.65-.15-.43-.99-.6-.5-.51-.34-.32-.73-.58-1.1-.82l.07-.09c-.24-.22-.51-.4-.8-.55-.3-.12-.6-.24-.91-.36-.3-.1-.6-.2-.88-.37-.29-.15-.56-.33-.84-.63-.42.03-.83.05-1.47-.12l-.1-.4c-.51.07-1.61-.39-1.8.06-.34-.49-1.05-.44-1.75-.17-.71.27-1.36.76-1.85.96l.23.45c-.3.15-.56.38-.8.65-.25.26-.46.59-.66.97l.37.26c-.11.36-.4.64-.76.97-.34.33-.75.74-.89,1.25-.13-.13,0-.37.17-.5-.36.19-.55.49-.65.81-.09.33-.06.68-.02,1.02.11.68.33,1.25-.03,1.8.17.27.14.45.04.66,0-.03-.01-.05-.03-.06,0,.03,0,.07,0,.11-.06.13-.15.27-.19.41.08-.13.17-.25.2-.35.02.21.14.51.31.79l-.44.23s.02.04.03.07c-.1.35.28.18.59-.06.11.13.25.23.39.3-.34.22-.22.4-.1.57.13.17.26.35-.05.67.41.04,1,1.25,1.8.86-.09.07-.08.17-.17.05.09.32.23.63.6.69l-.36.52c.36,0,.74-.04,1.08-.09.05.55.11.86-.55.93.67.08.89.11,1.09.18.2.05.41.07.94-.05l-.21.34c.31.14.96-.22,1.03.16.12.22.4.39.79.52.39.09.88.17,1.39.14,1.04-.02,2.14-.3,3.13-.36-.4-.46-.16-.43.15-.39.31.04.7.04.5-.37.23.19.54.18.4.54.36-.36.71-.49,1-.66.3-.16.52-.39.5-.89.28.12.13.44.31.49.02-.1.07-.39.26-.35.19.04.06.27.02.47.74-.83.1-1.46-.49-1.99.56-.15.69-.4.38-.95.3,0,.68-.14.48.43.08-.14.45-.54.62-1.01.2-.45.21-.93-.09-1.01.18-.07.16-.45.08-.54.12-.73.17-.81.07-1.53l-.09.21c-.77-.21-.23-.55-.43-1.09h.08c.09-.69-.02-.82-.13-.92-.12-.1-.17-.21-.19-.92l-.39.28c-.49.19-.46-.1-.44-.51,0-.39.01-.95-.39-1.09l-.05.37c-.26-.03-.15-.46-.05-.95.09-.48.19-1.05.05-1.25-.02-.13.21,0,.36.04-.54-1.26-.53.36-1.28-.05.06-.37.69-.58.21-.98-.06-.19-.59-.24-1.16-.24-.56-.04-1.13-.03-1.44-.47.11.31.18.6-.25.68-.31-.01-.64-.38-1.05-.56-.4-.21-.86-.28-1.13.15-.08-.07-.12-.14-.13-.2-.07.04-.16.07-.26.11l-.92.34-.04.05c-.43.54-.89,1.43-.62,1.84-.87-.19-1.04.82-.89,1.56.15.76.48,1.29-.28,1.41.11.52.27,1.02.5,1.48l-.16.02c.32.99.91,1.09,1.38,1.12.05.24-.15.21-.23.24.36.66.7.99,1.06,1.16.38.15.83.17,1.52,0v.51c.19-.1.65.23,1.35.39.69.17,1.61.11,2.17-.42,0,.06.02.16-.07.27.67-.54,1.61-.71,2.39-1.14.76-.42,1.29-1.03.69-1.78.07-.35.09-.71.11-1.05-.35.5-.49.35-.62.13-.13-.22-.25-.49-.48-.38.09-.35.92-.75.82-.23l-.12.04c.38.28.63,0,.78-.4.18-.37.23-.82.55-.75.33-2.51-.36-5.1-2.02-6.78-.1.24-.22.47-.33.7-.16-.19-.34-.37-.52-.55-.04-.25.16-.63.57-.22.05-.53-.96-.34-1.05-.21-.73-.86.85-.45.59-.64-.14-.09-.29-.16-.43-.23l.04.13c-.49.03-.67.28-1.24-.07-.32-.31,0-.5-.15-.6.02-.04-.02-.1-.24-.13-.33-.14-.66-.29-1-.4.09.21.17.45.24.68-.5.11-.88-.24-.61.47-.09-.27-.36-.49-.72-.64-.36-.11-.81-.2-1.25-.17-.88,0-1.67.27-1.89.17-.48.55-.98.71-1.64.97.21.03.56.58.03.75-.44-1.29-1.22-.02-2.19-.41.39.11.03.41-.23.76-.26.36-.45.69.13.76-.44.29-.39-.34-.9-.23-.23.68-.71,1.2-1.15,1.89-.47.66-.82,1.53-.81,2.43.17.03.47-.22.7.14-.28.28-.56.62-.83,1,.14.39,1.05.14.61.91.12-.13.3-.31.41-.11.01.42.13.84.27,1.23.19.37.37.76.65,1.06.51.66,1.19,1.12,1.87,1.53.7.39,1.41.71,2.17,1,.75.33,1.56.58,2.54.92-.53-.32-.2-.34.17-.42-.25-.04-.05-.43-.13-.66.48.14,1.01.27,1.58.25.01-.35.36-.52.68-.75.34-.2.61-.46.45-.75-.09.12-.16.27-.27.38.02-.47-.43-.65-.85-.91-.44-.25-.82-.56-1.01-1,.04.45-.35.28-.63.06-.15-.11-.28-.2-.4-.2-.13-.01-.24.09-.4.4-.12-.19.11-.31.05-.53-.13.43-.35.46-.65.25l.06-.09c-.93-.12-1.25-.71-1.78-1.5l-.26.41c-.12-.2-.05-.34-.04-.48-.7.34.43.44-.27.88.18-.48-.09-.73-.3-1.04-.19-.3-.32-.63.18-.9-.1-.23-.47.28-.59.02.08-.05.18-.11.27-.16l-.38.04c.02-.21.36-.35.6-.39-.02.04.1.08.13.1.13-.12.1-.21.05-.3-.08-.08-.16-.2-.09-.23-.08.08-.14.14-.19.21-.11-.13-.06-.36-.07-.55.06-.19.08-.4.18-.59.14-.4.36-.78.46-1.32l-.21-.1c.12-.4.27-.48.46-.5.19-.03.36-.05.67-.34v.06c.02-.28.17-.5.4-.57-.07.33.56.29.44.67.25-.36.34-.46.35-.61.02-.15-.02-.35.16-.81l.22.33c.11-.37.09-.57.55-.72-.32.37.35.52.02.99.47.32.71.14.98-.03.24-.13.49-.24.56.38.26-.46.13-.66-.08-.72-.21-.06-.45-.02-.33-.12-.2-.34.42-.76.73-.58.15.04.22.39.3.74.08.38.15.72.43.83-.05-.03-.09.04-.14,0,.09.33.58-.12.61.41.48-.43.29.24.8-.36-.21-.09-.43-.16-.64-.21.38,0,1.31-.52,1.51.3-.15.07-.44.1-.61.1-.02.29.37.12.33.43-.58.51-.69-.42-1.34-.12-.06.34.87-.05.2.5.44-.34.55-.2.62-.03.08.18.13.37.59.29l-.39.27c.1,0,.36-.02.42.09-.21.05-.42.12-.62.19.63-.04-.07.73.28.8-.27-.49.46-.38.62-.78.5.23.27.51-.03.75-.29.25-.64.48-.46.76-.08-.06.2-.41.45-.32-.06.17-.2.39-.45.48.12.41.49-.11.79.06-.57.2.25.23.41.53l-.48-.05c-.39.44.98.35.44.83-.17-.16-.36-.31-.56-.44.04.1.06.2.08.3l-.49-.25c.28.38.12.46-.15.59.31.14.71.54.5.81-.35-.03-.26-.38-.5-.04-.14-.29-.36-.59.07-.42-.11-.12-.18-.25-.29-.36-.36-.08-.32.25-.42.33.05-.01.11-.02.17,0,.03.27.03.56-.01.85-.17-.1-.19-.27-.21-.42-.05.11,0,.33-.13.44-.14-.37-.32-.73-.29-.96-.02.18-.07.37-.14.55-.1-.14-.31-.39-.31-.54-.09-.09-.1.1-.17.29-.06.19-.19.35-.25.19-.02.07-.05.14-.11.19-.07-.07-.03-.2-.04-.29,0-.07-.03-.07-.31.03.14-.18.3-.37.48-.53-.1,0-.27.14-.44.31-.17.15-.35.35-.59.23-.37-.19.47-.38.61-.55-.18.03-.47.04-.65-.04-.18-.07-.26-.25.03-.4.13.07.05.15.11.22ZM266.86,27.37c-.14.05-.42.26-.35-.03.32-.46.29-.18.35.03ZM269.09,33.86c-.06-.17.08-.21.32-.21-.04.11-.14.19-.32.21ZM272.17,27.21s-.02,0-.03-.01c-.02-.51-.02-.33.03.01ZM272.27,28.22c.09.08.15.06.21,0-.14-.04-.19-.26-.23-.51-.1.11-.15.25.02.51ZM268.66,18.96l.09.18c-.38-.02-.24-.1-.09-.18Z"></path><path class="cls-1" d="M269.12,32.72c.08.02.16.05.25.09-.05-.08-.14-.12-.25-.09Z"></path><polygon class="cls-1" points="266.98 28.39 266.99 28.39 267.01 28.31 266.98 28.39"></polygon><path class="cls-1" d="M263.03,27.46c-.1-.02-.19-.07-.26-.14.06.1.14.17.26.14Z"></path><path class="cls-1" d="M272.07,33.46c.08-.19.15-.4.2-.61-.11.29-.26.33-.41.41.1.05.31.03.21.2Z"></path><path class="cls-1" d="M266.93,34.11c-.04.08-.11.05-.16.13l.07.21c.25-.11.36-.34.09-.34Z"></path><path class="cls-1" d="M270.45,33c-.35-.2-.41.11-.59.42.01-.02.02-.03.04-.05.35.45.49.05.55-.37Z"></path><path class="cls-1" d="M269.82,33.48c-.06.09-.12.18-.2.24.13.19.12-.06.2-.24Z"></path><path class="cls-1" d="M272.69,29.45c-.1.22.52.14.36.27.26.14.1-.27-.1-.51-.2-.24-.42-.35-.26.24Z"></path><path class="cls-1" d="M269.23,32.4l.46.22-.23-.38c-.08.05-.15.11-.23.15Z"></path><path class="cls-1" d="M270.57,30.48c-.08.15-.18.29-.27.43.08.02.11.09.12.18.11-.28.31-.58.15-.61Z"></path><path class="cls-1" d="M270.42,31.08c-.05.15-.11.29-.07.4.04-.08.1-.25.07-.4Z"></path><path class="cls-1" d="M269.46,31.81l.16-.06c.07-.08.12-.18.18-.27-.11.12-.21.23-.34.32Z"></path><path class="cls-1" d="M268.73,25.76c-.18-.06-.36-.11-.53-.16-.13.12-.07.28.13.32.17-.04.37.02.4-.16Z"></path><path class="cls-1" d="M268.78,27.72c.03-.15.11-.23.19-.38l-.49.38c.11-.01.2,0,.3,0Z"></path><path class="cls-1" d="M267.88,27.02c-.13.09-.73.13-.32.33.12-.12.5.01.32-.33Z"></path><path class="cls-1" d="M261.63,26.33l.09-.08-.59-.83c.16.31.33.61.5.91Z"></path><path class="cls-1" d="M262.15,31.43c.18-.39-.65.03-.39-.36-.26-.07-.21.32-.43.26.3.21.18.35.81.1Z"></path><path class="cls-1" d="M261.34,31.33s-.11-.07-.18-.11c.07.07.13.09.18.11Z"></path><path class="cls-1" d="M267.82,32.54c.21-.06.45-.11.65-.2-.17,0-.36-.01-.53-.03l-.11.23Z"></path><path class="cls-1" d="M268.22,31.25l.56.36c-.05-.22-.12-.44-.19-.64-.06.11-.2.32-.37.28Z"></path><path class="cls-1" d="M266.64,28.8l.11-.11c.08-.15.05-.19,0-.27-.03.13-.06.26-.1.39Z"></path><path class="cls-1" d="M266.39,26.95h-.01s0,0,0,0c0,0,.01,0-.04-.03l-.24-.17.23.17.06.04s0,0,0,0h0Z"></path><path class="cls-1" d="M267.37,27.47s-.11,0-.11-.03c.11,0-.53.4.11.03Z"></path><path class="cls-1" d="M585.73,30.4c.02.31.41.13.49.17-.18-.49-.6-.14-.49-.17Z"></path><polygon class="cls-1" points="583.8 25.67 583.98 25.71 583.4 25.1 583.8 25.67"></polygon><path class="cls-1" d="M582.55,21.18c-.55.63.61,1.58.59,2.45l-.12.18.65.21c-.35-.96-1.09-2.1-1.12-2.84Z"></path><path class="cls-1" d="M583.2,18.3c-.21.24-.41-.44.11.59,0-.06.02-.09.03-.12-.04-.1-.08-.23-.15-.46Z"></path><path class="cls-1" d="M583.35,18.76c.18.47.11-.39,0,0h0Z"></path><path class="cls-1" d="M582.39,16.65l.47.53c.1-.19-.08-.75.11-.59-.37-.59-.47-.39-.59.06Z"></path><path class="cls-1" d="M581.68,16.26l.22.28c.04-.08.03-.17-.22-.28Z"></path><path class="cls-1" d="M582.37,17.13l-.47-.59c-.07.13-.28.22.19.28-.22.02.02.08.27.31Z"></path><path class="cls-1" d="M582.41,17.55c-.02.4.05.88-.4.35.52,1.14.93.8.4-.35Z"></path><path class="cls-1" d="M581.77,21.18l-.05.52.35.32c-.17-.16-.09-.94-.3-.84Z"></path><path class="cls-1" d="M581.11,12.71c-.15.03-.28.37-.43.5l.36.37c0-.27-.12-.74.07-.87Z"></path><path class="cls-1" d="M580.68,13.21l-.54-.55c.25.6.4.66.54.55Z"></path><polygon class="cls-1" points="580.9 16.45 581.84 17.34 580.81 16.24 580.9 16.45"></polygon><polygon class="cls-1" points="579.87 10.14 580.38 10.36 579.55 9.93 579.87 10.14"></polygon><path class="cls-1" d="M578.84,8.47c.43.13.18-.64.52-.44-.34-.44-.8-.7-1.23-.92.36.29.59.72.71,1.36Z"></path><path class="cls-1" d="M577.46,6.73c.19.14.42.26.67.39-.19-.16-.4-.29-.67-.39Z"></path><path class="cls-1" d="M579.67,11.51c.06-.09.22-.3.12-.72l-.25.46c.04.08.08.17.13.27Z"></path><path class="cls-1" d="M579.53,11.26v-.02c-.13-.29-.22-.49-.26-.58.03.07.11.25.26.59Z"></path><path class="cls-1" d="M579.7,11.57s-.02-.04-.03-.07c-.02.04-.03.07.03.07Z"></path><path class="cls-1" d="M580.53,14.56c-.38-.3-.98-.98-.97-.06.39.16.38-.37.97.06Z"></path><path class="cls-1" d="M579.38,12.13l.24.73c.1-.06.18-.26.38-.12l-.62-.61Z"></path><polygon class="cls-1" points="579.09 11.85 579.38 12.13 579.29 11.86 579.09 11.85"></polygon><path class="cls-1" d="M577.93,8.12c-.34-.2-.58-.5-.85-.84.2.43.44.85.67,1.23.15-.02.46.02.18-.39Z"></path><path class="cls-1" d="M578.73,9.66s-.04-.04-.06-.05c0,.06,0,.1.06.05Z"></path><polygon class="cls-1" points="574.18 3.97 574.18 4.08 574.24 4.04 574.18 3.97"></polygon><path class="cls-1" d="M577.73,8.62c.11.34.32.45.53.55-.16-.2-.34-.42-.5-.66-.07,0-.1.03-.03.11Z"></path><path class="cls-1" d="M576.55,5.87c.06.2.12.42.2.64,0-.23-.06-.66-.2-.64Z"></path><path class="cls-1" d="M578.71,9.44s.03.02.04.04c.02-.14,0-.11-.04-.04Z"></path><path class="cls-1" d="M578.71,9.44c-.14-.12-.3-.19-.46-.26.13.16.27.31.41.42,0-.05.02-.11.04-.16Z"></path><path class="cls-1" d="M571.46,5.27c.27-.29,1.2-.04,1.43.78.72.27,1.34-.94,1.3-1.98-.14.12-.23.21-1.03-.14.12.34.99,1.58.26,1.38-.88-.55-.54-.66-.8-1.16.04.63-1.5-.2-1.7.55l.84.28c-.06.1-.41.07-.28.28Z"></path><path class="cls-1" d="M575.28,5.24l.27.22c-.22-.33-.28-.65-.44-1.24-.57-.27-.75-.25-.87-.18.42.4.8.82,1.16,1.25l-.12-.05Z"></path><path class="cls-1" d="M576.51,6.63c-.49.05-1.14-.43-1.19.23.6.72.69.3,1.18.64-1.02-1.17.47.22-.02-.83.24.2.44.41.6.62-.12-.26-.24-.52-.33-.78,0,.02,0,.03,0,.05h0s0,0,0,0c0,.09-.01.12-.04.04,0,0-.02-.02-.03-.02-.05.03-.11.04-.17.04-.21-.42.04-.13.17-.04.02,0,.04-.01.06-.02h0c-.38-.39-.8-.75-1.2-1.1.17.3.47.61.96,1.17Z"></path><path class="cls-1" d="M578.4,14.18c.02-.06.04-.07.07-.08-.09-.06-.13-.08-.07.08Z"></path><path class="cls-1" d="M578.38,13.53c.1.07.29.07.39.4,0,.32-.19.08-.31.16.19.14.58.53.5-.15l-.1-.07c-.1-.59.05-1.5.15-1.44-.27.32-.46.58-.64,1.09Z"></path><path class="cls-1" d="M577.56,10.12c-.27-.32-.54-.64-.83-.95l.02.73.18-.14c.28.65.44.38.63.37Z"></path><path class="cls-1" d="M574.21,3.7l.44-.21c-.34-.03-.71-.04-1.05-.05l.61.26Z"></path><polygon class="cls-1" points="572.7 2.6 572.99 2.32 572.44 2.22 572.7 2.6"></polygon><path class="cls-1" d="M588.58,40.98l.18-.32c-.1.14-.15.24-.18.32Z"></path><path class="cls-1" d="M586.68,42.67l.08.19c.01-.16,0-.25-.08-.19Z"></path><path class="cls-1" d="M556.23,30.31c-.15.62-.47,1.39-.08,1.16l.34-.31c-.21-.31-.27-.6-.27-.85Z"></path><path class="cls-1" d="M571.8,51.69c0-.06,0-.13,0-.2-.19,0-.37.02-.54.03.17.05.35.11.54.17Z"></path><path class="cls-1" d="M573.32,50.67c.07.2.14.4.22.59-.03-.16-.1-.35-.22-.59Z"></path><path class="cls-1" d="M598.53,31.35v-.6c-.47.43-.11.41,0,.6Z"></path><path class="cls-1" d="M555.63,6.79c-.42.35-.69.68-.89,1,.54-.44,1.1-.67.89-1Z"></path><path class="cls-1" d="M590.93,45.07c.11-.2.11-.33.05-.4-.11.2-.15.35-.05.4Z"></path><path class="cls-1" d="M554.09,9.18c.08-.07.13-.15.2-.22.08-.38.21-.76.44-1.17-.37.34-.74.78-.64,1.39Z"></path><path class="cls-1" d="M596.39,16.98s-.08.02-.12.03c.03.05.07.02.12-.03Z"></path><path class="cls-1" d="M583.74,25.16c.05-.15.17-.36.29-.56-.08.08-.19.24-.29.56Z"></path><path class="cls-1" d="M565.19.27c.44-.07.07-.05,0,0h0Z"></path><path class="cls-1" d="M567.11,2.02c-.08.04-.15.09-.17.19.04-.1.1-.16.17-.19Z"></path><path class="cls-1" d="M555.74,13.34v.03c.09-.08.08-.07,0-.03Z"></path><path class="cls-1" d="M565.85.43c-.16-.06-.35-.1-.56-.1.09.03.26.04.56.1Z"></path><path class="cls-1" d="M565.76.23c.15.02.27.03.38.05.06-.07,0-.12-.38-.05Z"></path><path class="cls-1" d="M564.58.35c.25-.03.48-.04.71-.03-.09-.02-.12-.04-.1-.06-.13.02-.31.04-.6.08Z"></path><path class="cls-1" d="M614.76,16.55s.03-.03.05-.05c-.15-.26-.14-.15-.05.05Z"></path><path class="cls-1" d="M563.83,36.32s-.02-.01-.04-.02c0,.02,0,.04,0,.05l.03-.03Z"></path><path class="cls-1" d="M564.65,37.18c-.7-.18-.78-.46-.85-.84l-.94.91,1.78-.07Z"></path><path class="cls-1" d="M592.99,36.82l-.88.27c.31-1.15,1-1.47.05-1.35.82,1.09-2.29,2.26-1.47,3.35l-.6.15c.12-.1.09-.17.21-.27-1.22.23.07,1.26-1.07,2.03-.42.24-.8.32-.67-.02l-.56.96c-.25.19-.35-.04-.1-.22l-1.13,1.17-.02-.04c-.03.31-.2.91-.29,1.18-.44.13.06-.25-.14-.3l-.44.85c-.51-.02-.18-.77.31-1.15-1.53-.44-.32.75-2.2,1.38l.51-.7c-.92-.2-1.23.45-2.26.73.34.03,2.23-.39,1.74.51-.27.11-.57.31-.78.87-.33-.35-.63.08-1.09.53l-.4-.5c-.39.6-.13.81-.24,1.3-.62.47-1.07.21-1.48.03-.99.76,1.17.01.16,1.09-.91.49-1.32,1.23-1.91,2.25-.62.23-.17-.37-.46-.37l-.09.73c-.11.07-.17-.09-.2-.16-.22.4.35.55-.12,1.05.1.35-.36.31-.76.18-.41-.13-.66-.35-.99.01-.11-.21.12-.38.1-.63-.33.22-.58.22-.78.26-.22.02-.42.1-1.02.12-.15-.27-.28-.56-.4-.85.17.77-.82.73-1.74.42,0,.35.04.65.08.83-.41-.23-.81-.49-1.2-.76-.03-.2.23-.23.57-.25-.1-.03-.2-.06-.28-.08-.13-.52.32-.56.8-.55l.02.61c.51-.03,1.01-.14,1.22-.45-.11,0-.26-.06-.4-.16.13-.02.23-.05.25-.12.02-.08-.17-.06-.42-.1l.35-.68-.26.14c-.23-.48-.45-1.01-.68-1.55-1.31-.49-2.79-.71-4.18-2.14.71.09.76-.41,1.28-.74-.23.81,1.09,1.05,1.58,1.92-.26-.46.05-.54.21-.5-.52-.35-1.02-.71-1.53-1.08.44-.26.09-.52,0-1.02-.62.86-1.3-.71-1.95-1.15.26-.23.63-.26,1.06.51.08-1.21-1.67-.4-1.67-1.55.12.18.15.3.34.28-.53-.26-.97-1.44-.57-1.35l.12.18c-.67-1.26-2.19-3.75-3.03-3.54.09-.06.99-.32,1.18-.33-1.23-.29-2.49-.6-3.73-.96.75-.13,1.92-1.68,2.82-.81-.06-.35-.14-.78-.69-1.3,0,.25-.69.98-.89.73.34-1.14.13-.74.29-2,0,.38-1.2.52-1.4,0,.19,0,1.01-.51,1.2-.38l-1.59-.79c.33.23.9-.33,1.07-.73-.15.22-.44-1.09-.68-1.38l-.02.63c-.43-1.48-2.05-.82-2.55-2.31.28.1,1.5-.07,1.36-.85-.67-.13-3.15-.56-4.02-1.78l.23-.36-.68-.93c1.02.43,3.34,1.61,4.33,2.29.06-.63.31-.28,0-1.08.19-.38.59.29.69.52-.15-.65-.31-1.3-.44-1.94-.62.29-1.09-1.23-1.6-1.01.42.63.86,1.24,1.3,1.85-.61.3-2.22-.6-2.49-2.04.16-.42,1.23-.06,1.43-.15-.28-.11-.77-1.17-.64-1.33l.49.48c.05-.8-1.17-1.02-.73-2.06-.01-.33.69-1.06.29-1.05-.68.61-2.99,1.16-3.62.87.01-.14.47-1.93.83-2.34.55-.58,1.5.68,1.97.18-.19,0-.44-.27-.52-.38.13-.34.58.09.45-.61-.69-.09.02-1.46-.59-.32-.21-.71.13-.76.12-1.58-.45.26-1.46-.85-1.54-1.67.17.07.41-.07.53-.13.33-1.51.84-2.21,1.41-3.46.21-.05.67-.54.81-.16-.03-.23-.14-.49.06-.86.9-.38-.38.83.54.66-.16-.12-.15-.41-.08-.76.1-.34.22-.73.31-1.04-.62-.23-.9,1.1-.95,1.72-.75-.36-1.05-1.81-.29-3.36.7-1.13.78-.06.84-.31.86-.82,1.04-1.39,1.23-1.94.09-.28.2-.53.43-.75.22-.23.55-.43,1.11-.55.99.08.52.94.86,1.19-.39.32-.76.43-1.1.54-.35.09-.68.17-.94.4.27-.11.54-.22.83-.3-.18.31-.58.83-.96.94.4-.02,1.12-.61,2.08-1.11.94-.51,2.12-.87,2.97-.77.26-.21.78-.44.51-.64l-.55.13c-.6-.38,1.02-.7.26-.83.76-.41,1.82-.85,2.97-.38l.08.65c0-.09-.15-.22-.37-.32-.22-.08-.48-.11-.65-.04.26-.11.68.15,1.06.4.4.22.77.44,1.15.15-.21-.22-.41-.46-.65-.66.88-.07,2.23-.25,3.08.51-.15-.77-.22-.08-.64-1.07.12.56-.52.2-1.16-.04-.65-.25-1.24-.42-.84.19-.27-.52-.62-.67-1-.84-.39-.15-.81-.25-1.36-.67.02.21.39.39-.63.27-.05.06-.16.13-.22.18-.03,0-.04,0-.07-.02l.06.02s-.05.04.02,0c.24.09.43.2.5.31-.5.42-1.98.5-2.4.89-.55.02.18-.27-.16-.42-.22.17-.44.33-.63.53-.17-.42-1.68-.24-.45-.91-.4.11-.8.25-1.17.41-.78.04-1.73.47-2.12.97-.56.23-.84,1.26-.68.67-.44.45-.83.94-1.2,1.42l-.09-.07c-.64.63-1.11,1.45-1.54,2.28-.46.82-.9,1.64-1.69,2.41-.13.6-.23,1.22-.61,2.15l-.42.09c-.08.76-.82,2.19-.44,2.56-.57.34-.7,1.29-.66,2.27.05.98.27,1.99.25,2.63h.51c.06.87.33,1.66.72,2.65l.43-.15c.53.79.17,2.3.61,3.62-.19-.04-.24-.4-.21-.66-.53,1.91,1.72,3.1,1.52,4.71.28.29.32.56.3.84-.01-.03-.03-.06-.05-.08,0,.04.03.09.05.14-.02.18-.04.37-.05.57.05-.18.08-.35.08-.49.1.26.31.65.57,1l-.38.34s.03.05.05.09c-.01.45.33.23.59-.11.15.17.31.31.47.41-.59.61.67.91.08,1.66.47.11,1.14,1.82,2,1.66-.09.06-.09.19-.19,0,.11.46.22.92.62,1.2l-.47.45,1.19.55c-.06.72-.13,1.05-.83.71,1.32,1,.8.95,2.02,1.73l-.38.14c.23.39,1.05.76.89,1.15-.17,1.27,2.44,4.34,3.38,6.85.66-1.08.28,1.29,1.07.84-.14.28-.05.67-.49.47,1.01.91.85,1.88,2.02,2.13-.12.29-.49.03-.54.23.11.05.45.19.41.4-.04.21-.3-.01-.53-.1.88,1.04,1.67.65,2.33.2.18.78.49,1.04,1.23,1.03,0,.36.14.87-.6.29.17.2.68.83,1.33,1.31.64.49,1.43.75,1.57.47.1.23.77.34.95.29.67.17,1.06.21,1.43.2.38,0,.76-.04,1.41-.27h-.39c.16-.44.37-.55.68-.63.3-.08.7-.14,1.07-.43l.02.08c1.05-.37,1.16-.6,1.29-.77.12-.18.27-.36,1.17-.75l-.4-.29c-.56-.88,1.63-.66,2.17-1.67l-.47.06c.2-.66,2.16-.07,2.69-.37.16-.02-.05.24-.14.41,1.56-.59-.27-.6.49-1.48.39.11.38.82.99.35.47-.06.93-2.33,2.16-2.56-.35-.04-.7-.07-.43-.58.55-.62,2.31-.76,2.31-1.87.13-.02.2,0,.25.05.32-.58,1.28-1.63,1.26-2.22,1.54.84,2.36-3.22,3.37-2.08l1.38-1.36.07.15c.98-.75,1.06-1.32,1.14-1.88.28-.11.22.13.26.21,1.55-.98,1.64-1.15,2.25-2.73l.45.26c.11-.49,2.46-1.18,3.38-2.79.02.05.06.15,0,.3,1.09-1.77,4.46-2.18,3.79-4.01l.68-1.21c-1.36,1.04-.34-.75-1.06-.5.43-.53,1.65-.76,1.1-.14l-.16.02c.41.9,1.79-1.17,2.19-.67,1.22-1.16,2.53-2.1,3.88-3.32,1.3-1.19,2.67-2.78,3.13-4.92-.27.11-.54.21-.82.29.14-.43.22-.88.26-1.34.2-.35.62-.5.49.58.23-.25.22-.73.03-1.11-.17-.38-.41-.65-.5-.66,0-.97.23-.86.47-.5.25.34.43.93.41.6-.04-.3-.12-.59-.18-.89l-.05.21c-.2-.33-.41-.47-.58-.69-.17-.22-.33-.49-.54-1.04-.19-.73.23-.55.12-.83.04-.02.03-.14-.21-.42-.3-.52-.64-1-1.01-1.45.02.29,0,.61,0,.9-.67-.41-1.01-1.14-.97-.18.04-.74-1.06-1.88-2.38-2.53-1.3-.7-2.78-.87-3.07-1.05-1.04.28-1.95.25-3.12.32.3.09.51.71-.43.75.08-.69-.39-.77-1.01-.74-.62.03-1.34.18-1.88-.15.45.2-.23.44-.81.74-.58.31-1.07.63-.39.84-.77.21-.24-.45-.93-.48-1.54,1.26-3.9,1.68-5.72,3.19.08.16.54.15.3.66l-1.51.03c-.32.35.3,1.06-.74,1.11.19.04.46.1.26.34-2.02,1.1-3.59,2.86-5.03,4.67-1.45,1.81-2.8,3.65-4.69,5.23.62-.36.43.02.19.43.23-.22.37.23.61.3-.53.43-1.01.89-1.52,1.35.42.62-.9,1.87-.39,2.33l.15-.6c.33,1.03,1.98-.27,2.78.29-.37-1.18,2.13-1.32,1.82-3.1.33-.15.12.38.39.37-.15-.51,0-.92.59-1.45l.03.13c1.18-1.84,2.09-2.34,3.91-3.93l-.47-.19c.4-.35.59-.31.85-.41-.1-.94-1.05,1.03-1.24.1.59.06,1.23-.6,1.89-1.2.66-.61,1.34-1.15,1.88-.89.6-.52-.54-.27.08-.78l.35.09-.08-.42c.45-.28.89-.16,1.06.03-.12.06-.24.28-.33.38.73-.16,1.43-1.24,1.69-1.29-.25.09-.48.2-.72.3.78-.77,1.81-1.41,2.82-2.04,1.01-.62,2-1.2,2.82-1.86l-.23-.15c1.31-.95,1.25-.27,2.79-.85l-.05.07c.27-.29.7-.49,1.15-.51-.37.3.81.43.31.77.73-.28.93-.34,1.06-.48.14-.14.18-.31.77-.69l.2.4c.41-.28.47-.47,1.31-.34-.72.1.31.69-.48.88.61.59,1.14.66,1.64.76.48.1.89.27.75.95.6-.15.46-.48.17-.76-.29-.28-.7-.46-.46-.44-.14-.49,1-.29,1.35.21.4.44-.18,1.56.35,2.49-.05-.1-.12-.07-.17-.17-.03.25.17.37.3.54.15.16.27.37.12.65.67.14.07.59.85.61-.07-.36-.21-.7-.37-1.03.19.26.53.49.77.86.22.36.35.87,0,1.4-.13-.13-.28-.48-.39-.7-.25.26.09.61-.24.86-.37-.15-.31-.46-.31-.81.04-.34-.02-.78-.36-.99-.26.27.63,1-.22.72.52.19.48.47.34.74-.14.28-.33.52-.13,1.06l-.4-.26c.01.13.09.47-.05.67-.1-.23-.2-.45-.33-.66.1.38-.18.6-.48.76-.3.17-.63.29-.75.64.88-1.07.65.13,1.29-.13-.3.91-.77.92-1.22.89-.48-.03-.96-.11-1.71.74.18-.26,1.02-.57.83-.08-.37.22-.92.47-1.3.48-1.11,1.14.51.2.2.87-.79-.07-.42.7-.81,1.3l-.33-.35c-1.55.98.32,1.07-1.14,1.88l.06-.96-.51.7-.24-.52c-.41.92-.69,1.04-1.47,1.53.38.11.5.73-.08,1.28-.6.15-.08-.54-.88.27-.01-.4-.06-.86.6-.87-.07-.15-.02-.39-.08-.54-.66.15-1.15.94-1.45,1.21.13-.09.29-.2.4-.21l-.77,1.6c-.31.04-.26-.21-.2-.45-.21.26-.23.58-.57.94-.17-.38-.46-.66-.07-1.26l-.87,1.37c-.19-.06-.91.19-.86-.05-.8.41-1.07,1.99-2.13,2.54,0,.1-.03.23-.18.44-.86.66-1.89.95-2.48,2.21l-1.01-.03c-.64.79,1.32,0,.26,1.31-.73.96-.73-.15-1.17-.01-.2.66-.47,1.88-1.66,2.19.18-.34.46-.45.67-.72ZM584.02,45.36c.11-.24.25-.79.58-.7.17.59-.17.54-.58.7ZM571.34,49.74c.23.04.34.3.39.64-.17-.14-.31-.34-.39-.64ZM560.89,1.94s-.01.02-.02.04c-.67.15-.43.1.02-.04ZM562.22,1.56c.1-.12.07-.18,0-.22-.05.15-.32.28-.66.39.14.08.33.09.67-.17ZM616.96,12.34l.02.3c-.41-.47-.22-.39-.02-.3Z"></path><path class="cls-1" d="M573.14,50.79c-.02.1-.07.17-.12.25.12,0,.18-.07.12-.25Z"></path><path class="cls-1" d="M598.53,31.46l.03-.02s-.02-.06-.03-.09v.11Z"></path><path class="cls-1" d="M557.5,17.6c-.06.21-.13.34-.21.43.12,0,.2-.11.21-.43Z"></path><path class="cls-1" d="M569.68.62c-.31-.07-.62-.11-.94-.14.45.08.58.23.76.38.02-.11-.1-.33.18-.24Z"></path><path class="cls-1" d="M573.72,6.94c.12.03.15.16.26.2l.15-.17c-.3-.33-.66-.43-.41-.03Z"></path><path class="cls-1" d="M569.88,2.4c-.1.41.4.47.93.66-.03-.02-.06-.03-.08-.05.42-.43-.23-.54-.85-.61Z"></path><path class="cls-1" d="M570.94,3.11c.16.07.31.15.45.25.18-.16-.16-.15-.45-.25Z"></path><path class="cls-1" d="M563.84.8c.32.04.09-.55.29-.42.13-.29-.37-.03-.66.23-.29.26-.4.5.37.2Z"></path><polygon class="cls-1" points="569.74 3.8 569.78 3.27 569.36 3.52 569.74 3.8"></polygon><path class="cls-1" d="M565.92,2.59c.28.06.55.09.82.16,0-.09.1-.12.24-.14-.5-.1-1.08-.15-1.06-.02Z"></path><path class="cls-1" d="M566.98,2.61c.26.04.52.06.68,0-.15-.02-.46-.04-.68,0Z"></path><path class="cls-1" d="M568.68,3.54l-.19-.18c-.18-.06-.36-.11-.53-.17.25.11.49.2.72.35Z"></path><path class="cls-1" d="M558.21,6.5c-.15.27-.3.53-.44.79.09.17.31.04.46-.25.04-.24.19-.54-.02-.54Z"></path><path class="cls-1" d="M561.01,5.7c-.23.05-.32-.02-.52-.07l.38.49.14-.42Z"></path><path class="cls-1" d="M559.43,7.41c.08.18-.32,1.19.26.41-.1-.18.34-.85-.26-.41Z"></path><polygon class="cls-1" points="555.94 19.05 555.9 18.84 554.89 18.99 555.94 19.05"></polygon><path class="cls-1" d="M561.36,29.18c-.13-1.01-.68,0-.71-.95-.31-.14.03.78-.25.63.46.47.44.82.96.32Z"></path><path class="cls-1" d="M560.4,28.86c-.07-.08-.16-.15-.25-.23.12.14.2.2.25.23Z"></path><path class="cls-1" d="M582.06,27.17c-.17.18-.34.36-.5.55l.5-.27v-.28Z"></path><path class="cls-1" d="M582.17,28.7l-.66-.11.36.62c.04-.15.11-.45.3-.5Z"></path><path class="cls-1" d="M581.78,45.62l.07.15c.19.06.31-.04.56-.23l-.63.08Z"></path><polygon class="cls-1" points="588.77 39.95 588.64 40.05 589.25 40.29 588.77 39.95"></polygon><path class="cls-1" d="M593.86,34.33c-.24.19-.43.53-.67.72.43-.53,1.22-.23.67-.72Z"></path><path class="cls-1" d="M830.36,73.98c.12-.03.2-.07.24-.11-.22.05-.28.09-.24.11Z"></path><path class="cls-1" d="M725.95,94.69l1.18-.4c-.78.24-1.07.34-1.18.4Z"></path><path class="cls-1" d="M893.88,79.75c-.09-.01-.09,0-.15-.01.96.24,2.24.61,4.35,1.18l-4.19-1.16Z"></path><path class="cls-1" d="M505.2,140.76l1.41-.06c-.64.02-1.05.03-1.41.06Z"></path><path class="cls-1" d="M637.29,120.55c-.39.15-1.07.34-1.72.53.84-.21,1.5-.4,1.72-.53Z"></path><path class="cls-1" d="M924.82,92.97l-1.57-.9c0,.07.55.4,1.57.9Z"></path><path class="cls-1" d="M975.32,131.65s-.02-.06-.07-.16c-.07-.07-.01.02.07.16Z"></path><path class="cls-1" d="M958.41,113.03c-.41-.35-.93-.72-1.43-1.11.6.48,1.36,1.1,1.43,1.11Z"></path><path class="cls-1" d="M956.28,111.4c.22.17.46.34.69.52-.38-.3-.68-.55-.69-.52Z"></path><path class="cls-1" d="M9.67,100.58c-1.8.52-3.31,1.08-4.91,1.64l4.91-1.64Z"></path><path class="cls-1" d="M381.59,38.16l-.15.36c.17-.32.19-.38.15-.36Z"></path><path class="cls-1" d="M7.76,102.44l-1.27.34c.47-.11.88-.23,1.27-.34Z"></path><path class="cls-1" d="M892.72,82.04c-1.83-.3-5.49-1.34-5.5-1.17,1.93.37,4.59,1.17,5.5,1.17Z"></path><path class="cls-1" d="M417.04,16.59l1.3.18c-.62-.09-1.01-.14-1.3-.18Z"></path><path class="cls-1" d="M7.76,102.44l1.48-.4c-.13.01-.3.04-.46.06-.32.11-.66.23-1.02.34Z"></path><path class="cls-1" d="M406.17,139.58s.04-.01.07-.02c.14-.06.24-.11.38-.17l-.45.2Z"></path><path class="cls-1" d="M395.57,142.76c.74-.22,1.47-.43,2.27-.66-1.21.31-1.84.51-2.27.66Z"></path><path class="cls-1" d="M4.76,102.22l-2.8.94c1.02-.31,1.92-.63,2.8-.94Z"></path><path class="cls-1" d="M275.93,137.01c.38.08.74.16,1.09.24-.47-.11-.83-.19-1.09-.24Z"></path><path class="cls-1" d="M645.64,118.43c.27-.06.64-.15.96-.22.1-.06.03-.06-.96.22Z"></path><path class="cls-1" d="M563.82,139.8h-.03s0,0,0,0c0,0,.03,0,.03,0Z"></path><path class="cls-1" d="M568.27,138.97c-1.4.18-3.39.57-4.44.83,1.41-.21,2.73-.43,4.44-.83Z"></path><path class="cls-1" d="M554.19,141.09c.18-.02.32-.03.53-.05-.19.02-.35.03-.53.05Z"></path><path class="cls-1" d="M643.36,123.1s.01-.01,0-.01c-.02.01-.04.02-.05.03h.05Z"></path><path class="cls-1" d="M625.91,127.6c-.32.05-.75.14-1.22.24.3-.05.71-.12,1.22-.24Z"></path><path class="cls-1" d="M509.44,145.22s.02,0,.02,0c-.04,0-.05,0-.09,0,.03,0,.05,0,.08,0Z"></path><path class="cls-1" d="M368.25,75.54c.54,4.42,1.54,9.11,3.15,13.79,1.6,4.68,3.79,9.34,6.55,13.66,1.35,2.18,2.91,4.23,4.54,6.19.81.98,1.69,1.84,2.53,2.76.85.9,1.67,1.82,2.54,2.67.9.82,1.79,1.64,2.67,2.44.9.79,1.72,1.65,2.66,2.33.92.72,1.82,1.43,2.71,2.13.89.7,1.75,1.4,2.67,1.98,3.28,1.91,7.92,4.89,12.92,7.2l.35.6,2.09.97c.7.31,1.42.57,2.13.86,1.68.84-3.28-1.31-.3.11l1.69.46c.14.12,2.83,1.35,4.66,1.99,1.81.7,2.67,1.07-1-.11l4.2,1.52c1.4.52,2.83.9,4.25,1.35,2.83.93,5.71,1.6,8.58,2.36,3.82.89,2.31.19,6.52,1.2.84.3-1.54-.25-1.22-.04,1.58.4,3.01.66,4.32.88,1.3.23,2.48.42,3.57.59,2.19.29,4.03.43,5.84.59,3.63.26,7.14.47,13.14,1.02l-1.02-.03c1.03.05,2.51.12,3.74.18.62.03,1.17.05,1.58.07.4.02.66.02.67,0-1.52-.5-2.17.13-5.82-.41.34-.27,4.57.15,4.35-.12,2.8.29,4.46.2,6.9.23,2.08.16,4.61.25,7.02.34,1.2.05,2.38.1,3.44.15,1.07.02,2.03.05,2.82.11,2.04-.11,4.32-.44,8.71-.48,3.15.21-.74.31,3.54.26l.68-.21c3.51-.1,2.96-.03,2.83.07,3.75-.13,3.11-.37,7.82-.43l-2.61.28c3.48-.17,4.89-.31,9.73-.6-.1.12-2.04.24-3.46.3,2.64.1,4.49-.42,5.91-.49-.41-.05-3.76.13-2.14-.16,2.4-.14,5.09-.57,6.81-.52-.86.15-1.73.27-2.6.39,4.99-.53,2.65-.47,8.38-.92-.31.04-.15.08-.28.13,1.8-.29,3.89-.5,6.2-.69,2.3-.23,4.82-.5,7.5-.81l-1.01.17c2.15-.33,3.31-.64,4.47-.77-3.06.27-2.23.11-2.53-.04,2.03-.09,3.55-.36,5.39-.71,1.83-.38,3.98-.82,7.26-1.21-.09.12-1.65.49-3.46.64-2.19.62-2.42,1.01-6.41,1.64,2.48-.35,5.39-.86,4.8-.63l.73-.41c1.5-.22,2.69-.39,3.83-.56.62-.28-3.08.15.38-.49,3.91-.68,2.13,0,2.72-.23,5.38-.92,2.19-.65,7.38-1.42-.51.11-1.51.34-1.96.39,3.73-.52,9.11-1.62,10.26-1.45-.54.17-.62.3-2.04.51l.05-.06c-4.04.96,3.4-.66,2.18-.12-.31-.12,4.89-1.09,7.24-1.51l-.79-.07c7.68-2.16-.34.51,7.36-1.08,4.85-1.19-1.86.33,1.11-.46,3.3-.67,4.57-.74,9.37-1.86,1.36-.19,4.12-.7,4.4-.52,2.9-.77,8.89-1.95,10.49-2.57-5.03.96-4.92,1.41-10.82,2.45l1.58-.61c4.03-.96,9.19-2.19,11.97-2.85-.57.09-.84.1-.49-.04,5.7-1.53,7.3-2.13,12.87-3.51.78.02-2.47.85-4.84,1.45,3.64-.72,3.75-.94,9.32-2.34.34.11-3.74.98-4.34,1.33l6.13-1.68s0,.02.01.04c.81-.55,4.7-1.19,8.42-2.35,8.88-2.45,10.11-3.26,14.93-4.93,1.34-.3,1.75-.33,1.22-.09-2.21.49-1.79.49-2.53.79,2.97-.9,6.62-1.59,4.99-.98,4.72-1.46-1.75.33,1.12-.6l6.49-1.9c-.81.07-3.1.72.22-.4,2.81-.89,4.18-1.27,7.88-2.36-.51.24,1.24-.11-1.54.71,1.8-.47,4.58-1.32,5.61-1.8-4.08,1.09,6.57-2.16,3.49-1.48l4.07-1.1c-.92.28-.99.42-2.35.8,1.22-.11,3.27-1.08,4.67-1.54,1.43-.39,5.12-1.51,5.45-1.51,1.25-.46,4.38-1.36,5-1.42,1.88-.63.11-.2.63-.45l6.45-1.96c.38.03,1.03.23.08.57,2.4-.86.75-.65,4.44-1.76-2.04.9,4.93-1.28,1.96-.05,2.16-.47,8.19-2.24,11.49-3.3,2-.81-3.62.95-3.47.68,4.65-1.43,7.09-2.28,9.22-3.05,2.13-.75,3.95-1.43,7.41-2.31l-1.8.43c4.27-1.29,3.79-1.13,6.25-1.99-.56.29.71.13,2.99-.34,2.3-.44,5.61-1.19,9.15-2.12.57-.28-4.03.76-2.92.26,1.57-.41,3.13-.85,4.71-1.22.35-.06-.16.11-.76.28,4.22-1.09,7.96-1.52,9.12-2.11l4.4-.54-1.74.2c.56-.26,5.33-1.31,6.3-1.57,4.85-1.14,6.67-1.3,9.37-1.65-.87.05-3.04.2.81-.56.02.37,8.14-1.15,8.06-.92,1.56-.25,4.35-.56,4.51-.73l-.23.3c.31-.41,6.03-1.15,10.41-1.71-.94.6,4.82-.48,6.81-.19.79-.5,7.8-.66,8.56-.99,3.4-.2,3.07.15,3.93.21.52-.08,1.05-.11,1.58-.16.86.07,2.88.09,5.15.1,1.14,0,2.34.01,3.5.02,1.15.02,2.26.09,3.2.13,1.17-.07,2.35-.17,3.52-.2l1.3.2c.57-.05,3.49.04,1.69-.16.63.03,1.26.07,1.89.13.18-.3,2.67.05,6.49.31.87.14.63.2-.2.16,1.89.19,1.06.28,2.08.5-1.33-.28,6.86.23,1.79-.56-.34-.18,2.65.1,4.5.4l1.08.47,2.27.03c2.91.38,4.1.87,6.43,1.31-2.39-.42-5.41-.4.75.73-3.24-.55-4.85-.71-6.55-.9,1.28.21,1.91.34-.1.16,4.82.72,1.64.09,6.4.91-.31.21.99.57,5.09,1.54l-3.04-.85c.15,0,.37.02.61.05-1.16-.28-1.49-.39-1.72-.54.93.19,5.56.83,6.29,1.22-2.32-.77-.23-.36,2.06.13,2.29.5,4.77,1.17,3.3.63.56.06,3.83.94,4.12,1.2-3.94-.97,2.83,1.17,2.15,1.16,1.46.36-2.99-1.11-1.01-.62,2.32.65,3.95,1.39,5.19,1.89l-.97-.27c1.16.44,2.33.84,3.49,1.3.63.06-3.34-1.38-.06-.34.83.36,4.08,1.47,3.94,1.54-1.6-.39-.57.25-3.33-.7,2.3.74,9.46,3.58,6.66,2.2.89.37,1.8.7,2.67,1.1-1.62-.82-6.28-2.86-.87-.75l-.07.03c1.27.45,2.53.94,3.79,1.41l1.56.84c-.02-.08.58.13,1.94.77.32.24,1.58.87,1.43.92,3.9,1.9,3.63,1.67,4.17,1.84,2.18,1.07,2.92,1.62,1.86,1.19,2.91,1.61,7.94,4.5,9.73,5.9,3.79,2.32-.74-.55,1.54.72.37.31.84.67,1.39,1.07.54.41,1.15.87,1.82,1.38.68.49,1.41,1.02,2.18,1.57.76.57,1.55,1.17,2.37,1.79,3.3,2.43,6.76,5.33,9.47,7.73-.6-.8-.21-.5.46.12.66.62,1.61,1.54,2.22,1.87-.61-.49.58.75,1.32,1.6.7.88,1.06,1.26-1.24-.91.96.87,1.84,1.81,2.74,2.73.83,1.03-.31-.09-1.33-1.09-1.02-1-2-1.8-.67-.31,3,3.1,5.31,4.85,8.39,8.92-1.3-1.15,2.54,2.99,1.48,2.21-.74-.76-1.6-1.88-2.53-2.99l.52.73c.74.92,1.32,1.65,1.78,2.22.44.58.77,1,1.01,1.31.49.61.65.74.73.75.17.03.03-.43,1.59,1.52,3.26,4.78,2.34,3.92,2.42,4.27.45.78,1.96,3.25,2.82,4.51-.99-1.46-1.79-2.88-2.22-3.77-.43-.89-.53-1.24,0-.62.51,1.18,1.63,3.01,2.69,4.74,1.01,1.75,2.01,3.38,2.45,4.04-1.81-3.72-2.49-4.99-3.22-6.16-.72-1.17-1.31-2.34-3.36-5.67-.69-.83-.78-.54-3.46-4.37,1.86,2.28.02-.26-.44-.96.44.8-2.09-2.49-3.03-3.55-.73-1.09,2.11,1.9-.9-1.78l-.9-.41c-1.18-1.43.76.39-1.95-2.5,1.59,1.44-.18-.71,3.42,3.27-.99-1.26-1.9-2.34-2.77-3.32-.9-.94-1.75-1.77-2.58-2.56-.82-.8-1.65-1.51-2.51-2.24-.85-.74-1.71-1.49-2.65-2.3.4.32.47.33.85.65-.83-.67-2.29-1.92-3.4-2.89-2.39-2.25,2.06,1.58,1.5.94-1.32-1.18-2.65-2.36-4.04-3.46-.07-.08-.09-.1-.08-.11-1.12-.84-2.16-1.68-2.5-2.03,1.33.85,1.87,1.2,2.78,1.77l-2.26-1.67-2.32-1.58c.57.26-3.54-2.98-.31-.65-1.09-.84-2.24-1.62-3.38-2.41-1.14-.79-2.27-1.58-3.44-2.31l-.44-.61c-1.69-1.04-1.77-1.03.21.3-.59-.4-1.56-1-2.65-1.68-1.12-.63-2.37-1.34-3.51-1.98-2.26-1.28-4.09-2.23-3.3-2.12-5.83-2.91-7.88-4.08-15.16-7.09,2.83,1.09,1.27.33-.26-.41-1.53-.73-3.05-1.38-.05-.2-1.71-.8-2.8-1.15-3.78-1.48-.99-.32-1.88-.62-3.29-1.08-2.57-1.06-1.32-.89,1.55.05l-3.37-1.1.08-.03c-.98-.31-1.96-.61-2.95-.87-3.04-1.16-.56-.48-3.75-1.57l-.77.02-2.14-.79c.78.37-1.12-.21-3.49-.82l.06-.04-2.88-.73c2.88.61-2.61-.75-1.26-.56-1.23-.3-1.87-.45-2.75-.66-.88-.21-2.01-.48-4.26-.92l.75.33c-5.88-1.08-.18-.33-4.94-1.27l.26.24c-6.79-1.63-11.7-1.74-16.78-2.49,2.94.25,2.23-.03,2.16,0-4.42-.45-11.64-1.04-16.25-.94-.83-.16-1.35-.26-2.25-.35-.9-.08-2.18-.2-4.54-.21-3.43.06-3.94.09-5.06.27-.83-.02-1.84-.01-2.9,0-1.05.03-2.15.11-3.14.15-1.99.11-3.59.18-3.68.09-.76.22-2.99.09-4.8.39l-.39-.05.3.16c-2.95.05-5.42.34-7.9.63-2.48.29-4.94.74-7.92.9l1.01-.18-2.47.39c-.4-.03.6-.21.7-.33l-2.89.35-2.87.44-5.75.89,2.28-.21c-2.41.4-4.01.82-6.78,1.24,4.52-1.13-3.8.7-4.57.62l2.44-.53q-3.34.64-3.04.78c-4.33.88-3.04.24-6.99,1.27l2.84-.59c.86-.07-1.15.52-3.05.92-.46.07-1.82.27-.37-.06-1.7.37-3.82.84-5.71,1.26-1.88.44-3.53.82-4.26,1.03-1.85.37-1.28.1-.29-.18-7.2,1.87-3.28.72-10.47,2.72l.09-.14-2.44.76c-1.2.22-2.4.46-3.59.71l1.3-.21c-2.35.66-3.8,1.13-6.57,1.82l1.07-.46c-6.63,1.88-7.74,1.9-13.98,3.89-.44.09.53-.23,1.02-.4-5.76,1.94-4.47,1.02-10.25,3.05.34-.16-.31-.03-.1-.15l-2.63.9.14-.27-2.08.96-1.7.28-1,.41c-2.96.46-6.88,1.99-10.84,2.89l.74.06c-9.62,3.55-22.43,6.62-34.18,10.37l.15-.27-4.81,1.68c-2.67.59,1.53-.63.68-.5-5.2,1.63-2.09.94-8.16,2.76-3.15.76,1.04-.47,2.48-.97-5.66,1.79-14.08,4.19-18.16,5.21-.08.05-.32.16-.11.11-3.81,1.1-8.87,2.36-13.09,3.46.08-.12,1.12-.4,2.17-.7-1.52.4-3.61.83-4.89,1.26l1.55-.58c-3.25.77-9.46,2.5-10.24,2.46.41-.03.29.21-2.53.84-1.63.03-7.63,1.94-12.18,2.77.53-.17,3.83-.97,2.9-.76-2.28.46-4.29,1.01-6.26,1.55l.58-.26c-3.51.8-7.01,1.65-10.53,2.41-1.63-.02-9.99,1.98-9.31,1.61-3.79.72,3.2-.47-1.58.49-1.3.11-4.33.82-4.16.58l.51-.11-3.35.59,2.08-.57c-2.88.54-4.97,1.11-5.09,1.3-2.75.39-6.64,1.06-7.92,1.04l1.01-.2c-3.85.61-7.07.95-10.07,1.27-3.01.26-5.81.52-8.83,1.08-.46.03-.41-.03.54-.15l-4.78.57c.38-.09.75-.2,1.12-.29-2.63.38-5.26.68-7.9,1.03l.09-.12c-5.23.54-13.43,1.11-20.18,1.55l1.01-.09c-7.37.44-7.12.16-12.51.48.19-.04.37-.05.57-.07-1.62.09-3.24.04-4.85.07l1.07-.11c-3.59.25-10.27-.26-8.06-.07-2.04.16-5.54.15-6.14.27-5.29-.14-1.29-.18-4.56-.36-3.82-.12-4.51.08-9.67-.34l.11-.1c-2.42-.1-3.92-.21-7.28-.45l1,.03c-2.75-.09-4.44-.43-5.99-.63-1.55-.21-2.95-.41-5.11-.49-1.13-.22-2.79-.42-4.11-.68-1.33-.26-2.34-.47-2.22-.56-3.38-.47-6.33-1.12-9.3-1.7-1.47-.33-2.93-.71-4.44-1.07-.75-.19-1.52-.36-2.3-.57-.77-.23-1.56-.46-2.37-.69-.47-.33-.81-.43-1.52-.62-.71-.19-1.8-.45-3.68-1.27l.22.28c-2.24-.8-4.57-1.63-6.86-2.7-1.15-.52-2.33-1-3.48-1.58-1.14-.59-2.29-1.19-3.44-1.79-.57-.3-1.16-.59-1.73-.91l-1.68-1.01c-1.12-.67-2.25-1.34-3.38-2.02l-3.24-2.22-1.62-1.09c-.53-.38-1.03-.79-1.54-1.19l-.11-.33-1.76-1.11c-.54-.44-1.11-.86-1.65-1.34-.53-.49-1.06-.99-1.6-1.49-.54-.5-1.09-1.01-1.64-1.52-.55-.51-1.12-1.02-1.61-1.6-1.03-1.12-2.07-2.26-3.11-3.4-.55-.55-.96-1.18-1.45-1.76-.47-.59-.94-1.17-1.36-1.8-3.52-4.86-5.91-10.14-7.36-14.28-1.06-2.66-2.51-6.85-3.12-11.41l.1.47c-1.38-7.86-1.35-16.55.91-24.95-.06.54.21-.27.02.67.16-1.02.44-2.26.87-3.43.2-.59.39-1.17.6-1.71.22-.53.42-1.03.59-1.45-.29.66-.63,1.3-.89,1.98.62-2.39,2.19-5.57,2.95-6.56l.82-1.75.93-1.69c.15-.2.38-.52.43-.55.09-.21.2-.41.31-.61l1.39-1.51c.27-.39,1.18-1.58,2.2-2.78.52-.59,1.06-1.2,1.53-1.73.5-.5.93-.95,1.18-1.26.28-.25,3.18-2.32,1.01-.63,3.62-2.9,7.79-5.09,12.21-6.47l-2.07.63c-.16-.04.74-.44,1.94-.91,1.23-.38,2.77-.82,3.85-.94-2.76.69-.17.31,1.03.22.92-.17.51-.16-.01-.14-.52.06-1.15.14-.67,0,.58-.17,1.33-.28,2.15-.4.82-.15,1.71-.21,2.58-.26.86-.08,1.69-.05,2.38-.04.69,0,1.25.03,1.56.09-.48-.03-.96,0-1.43.02.81-.03,1.51.05,2.16.12.64.08,1.23.13,1.81.27.58.12,1.16.23,1.79.36.63.15,1.3.31,2.09.47,2.85.5,4.82,1.39,4.36.88,1.01.3,1.59.55,1.93.7.34.15.43.22.44.26.02.08-.29.04.33.31.48.13,1.16.42,1.93.76.78.32,1.62.76,2.41,1.2.81.42,1.54.88,2.12,1.26.58.38,1,.66,1.13.8.54.22,1.41.71,2.4,1.38.97.69,2.07,1.52,3.07,2.4,1.04.84,1.94,1.76,2.7,2.42.73.7,1.26,1.19,1.49,1.27.79.85,1.47,1.79,2.21,2.68.14.03.81.35,2.59,2.56,1.52,2.19.94,1.82,1.32,2.53.44.42.9.82,1.33,1.26,1.96,3.29,3.74,7.03,5.05,11.09.36,1.01.58,2.06.89,3.1.22,1.06.49,2.12.65,3.21.41,2.15.44,4.42.64,6.67.34,9.05-1.81,18.28-5.26,25.95-.81,1.7-1.57,3.56-2.54,5.4-1.04,1.81-1.97,3.78-3.24,5.61-.6.93-1.21,1.87-1.82,2.81-.68.9-1.36,1.8-2.04,2.7-1.31,1.84-2.89,3.47-4.33,5.14l.61-.77c-.5.54-.96,1.11-1.49,1.62l-1.58,1.54c-1.05,1.02-2.08,2.07-3.22,2.99l1.23-1.02,1.16-1.1,2.33-2.2c-1.34,1.38-2.31,2.53-3.68,3.8-3.62,3.21-8.13,6.64-13.17,9.73-5.03,3.08-10.72,5.71-16.28,7.94-.89.4-1.63.72-2.27.98-.64.26-1.18.42-1.64.56-.92.29-1.54.43-2.16.56-1.22.3-2.41.49-5.96,1.62.6-.21.81-.33,1.35-.53-1.91.6-3.64,1.01-5.26,1.4-.81.2-1.59.39-2.35.58-.77.16-1.53.32-2.29.47-1.52.32-3.04.65-4.69.91-1.65.28-3.4.63-5.41.88.87-.55-5.23.57-4.54.22l-.66.24c-.9,0-2.41.08-3.62.13-1.21.02-2.12,0-1.82-.07l-3.56.39-.31-.18c-2.37.03-6.1.14-9.55.04-3.45-.07-6.62-.28-7.86-.54-1.47-.06-3.05-.12-4.71-.19-1.66-.11-3.41-.24-5.22-.36-3.62-.36-7.5-.73-11.46-1.2-7.92-1.03-16.19-2.34-23.46-3.77-2.07-.26-6.35-.98-9.66-1.71l-3.49-.98c-3.39-.62-7.02-1.18-10.11-2.05.03-.02.16-.01.38.03-1.71-.38-3.37-.77-5.01-1.16-1.63-.41-3.24-.78-4.86-1.08-3.73-.93-7.31-1.98-6.12-1.9-.46.27-7.86-2.12-7.86-2.12,0,0-11.9-3.23-30.44-8.63-18.56-5.32-43.71-13.03-70.95-19.26-13.61-3.1-27.74-5.76-41.7-7.58-13.95-1.82-27.74-2.77-40.55-2.73-1.6,0-3.19.01-4.76.02-1.57-.01-3.12.12-4.65.17-1.53.07-3.05.14-4.54.21-1.5.06-2.97.14-4.42.29-2.9.27-5.72.53-8.45.79-2.71.39-5.33.76-7.84,1.11-1.25.2-2.49.33-3.68.58-1.19.24-2.36.47-3.49.7-2.27.46-4.43.88-6.46,1.33-4.02,1.06-7.54,1.97-10.47,2.84-1.53.64-5.84,2.03-4.11,1.76-3.33,1.05-4.97,1.19-5.56,1.56,4.59-1.22-1.26.87,3.25-.21l-2.84.88c-.54.3,3.83-1.28,3.2-.85l.7-.57c2.33-.63,3.61-.93,4.46-1.05.53-.19,1.01-.39,1.51-.6.51-.19,1.04-.38,1.67-.58,1.26-.41,2.91-.86,5.57-1.38l-1.45.36c4.28-1.02,2.67-.39,3.58-.55l-.95.22,1.82-.34c.61-.1,1.23-.17,1.84-.25-1.4.15-3.2.64-4.36.97-1.16.33-1.68.52-.5.23,5.12-1.1-1.34.23,2.48-.71,2.38-.53,1.75-.17,1.67-.06l4.3-.78c-.12.19-2.85.5-1.08.35l5.39-1.14c1.06.19,5.92-.98,8.46-.94-3.92.6.37.09-.24.3,3.2-.49,6.43-.67,9.64-.95.92-.02-2.53.33-1.07.19,1.83-.03,2.98-.34,3.96-.42.84-.02,7.23-.3,6.97-.04,6.57-.04,2.75-.51,8.88-.34.81.17-4.86.02-2.14.2l6.35-.03c-.58.08-1.24.26-3.62.22,2.14.04,4.16.07,6.09.15,1.92.13,3.75.26,5.5.38,1.76.13,3.45.25,5.09.4,1.64.18,3.25.36,4.84.54,1.59.17,3.17.34,4.77.52,1.59.2,3.2.41,4.86.62,3.31.41,6.8.78,10.68,1.31,2.16.5-1.59-.09-3.16-.17,5.63.66,9.57,1.26,13.27,2.06,1.85.38,3.65.74,5.58,1.13,1.93.38,3.98.84,6.35,1.28l.2-.13c13.12,2.99,28.95,6.42,43.62,10.59l-1.73-.58c2.07.38,5.34,1.23,7.78,1.84.35.18-1.84-.15,2.44.96-.87-.3-2.65-.85-2.1-.78,6.26,1.92,16.04,4.77,26.84,7.94,10.82,3.14,22.65,6.58,33.02,9.58,14.09,3.83,28.84,7.7,43.71,10.93,14.86,3.23,29.84,5.79,44.21,7.2-4.38-.45-2.47-.65.81-.21,2.23.43,4.34.69,6.38.87,2.04.21,4.02.29,6,.38,3.97.17,7.96.21,12.61.47,8.45-.09,16.47-.5,24.3-1.49,7.82-1,15.48-2.61,22.97-5.27l.35.09c1.14-.32,1.86-.57,2.58-.83.72-.29,1.44-.58,2.6-1.05l-.04.07c2.79-.95,5.76-2.33,8.44-3.57,2.62-1.36,4.98-2.52,6.46-3.39l.08-.3c1.52-.89,1.94-1.09,2.36-1.3.43-.2.84-.44,2.3-1.51l-.03.15c1.12-.85,2.26-1.66,3.36-2.54-.05.28,1.93-1.23,4.2-3.01,1.1-.93,2.24-1.98,3.26-2.88.51-.45.99-.87,1.4-1.23.4-.38.74-.71,1-.94,3.33-3.12,8.89-9.8,12.61-15.64.2-.25.72-.84,1.24-1.77.54-.92,1.23-2.09,1.99-3.36.39-.63.74-1.32,1.08-2.04.34-.71.7-1.43,1.04-2.14.34-.72.71-1.41,1-2.11.28-.7.55-1.38.81-2.02.23-.62.48-1.26.72-1.91.26-.65.5-1.32.68-2.03.41-1.41.83-2.87,1.26-4.37.33-1.53.63-3.13.96-4.75.19-.81.27-1.64.36-2.48.09-.84.19-1.68.28-2.54.26-1.7.19-3.44.25-5.19,0-.87.08-1.75,0-2.63l-.2-2.63-.2-2.63c-.14-.88-.27-1.76-.4-2.63-.33-1.73-.71-3.44-1.2-5.09l-.17.31c-.3-1.16-.73-2.27-1.12-3.39.07.03-.06-.43.14.07-.34-1.35-1.13-3.27-2.08-5.11-.93-1.86-2-3.64-2.68-4.9.76,1.64,1.23,2.17,2.19,3.97,1.14,2.7-.16.22-2.06-3.22l.09.04c-.51-.74-.98-1.5-1.53-2.2,0-.35-1.3-2.43-1.36-2.77-3.52-4.71-7.13-8.12-11.05-11.17-.96-.78-2.01-1.46-3.03-2.21-1.07-.67-2.11-1.42-3.27-2.05-2.25-1.37-4.74-2.59-7.52-3.78.31.07-.04-.1-.71-.37-.34-.13-.75-.3-1.2-.48-.46-.15-.95-.32-1.43-.48-.96-.34-1.91-.61-2.46-.78-.55-.18-.7-.27-.08-.2-1.78-.47-2.63-.54-2.91-.57-.29-.02-.02.08.36.2.77.25,2.01.62.34.41-1.98-.47-4.13-.61-4.47-.81.97.03-1.63-.43.03-.26-1.63-.16-3.27-.29-4.91-.27-.47-.04.62-.07,1.16-.09-5.03-.03-9.51.57-13.68,1.81-4.15,1.28-8.04,3.08-11.67,5.81-.51.44,3.03-1.94,2.54-1.47-3.79,2.51-5.22,3.93-6.72,5.14-1.41,1.29-2.86,2.52-5.31,5.96.29-.51.57-1.03.91-1.51-1.55,2.26-2.18,3.26-4.46,7.08-.27.3.1-.58.74-1.73.67-1.14,1.52-2.59,2.15-3.48-.22.31-.49.69-.79,1.1-.26.43-.55.9-.85,1.38-.29.48-.6.97-.88,1.47-.26.5-.51.99-.74,1.44-.47.9-.83,1.67-.96,2.09-.15.42-.13.47.16-.04-.36.84-.68,1.54-.96,2.15-.26.61-.48,1.14-.68,1.62-.42.95-.77,1.7-1.08,2.63.02.04.3-.76.54-1.31.25-.54.42-.83.08.18-.82,2.33-1.81,5.34-2.38,8.57-.61,3.22-1.03,6.61-1.11,9.62-.05-.06-.15.36-.16-.16.01,1.21.02,2.09.03,2.82,0,.74-.04,1.33-.06,1.99,0,1.31-.1,2.86.3,6.16Z"></path><path class="cls-1" d="M645.63,122.53l-2.27.56s-.08.13-1.1.46l3.37-1.02Z"></path><path class="cls-1" d="M537.03,143.19c-.29.05-.57.1-.83.14.56-.06.74-.11.83-.14Z"></path><path class="cls-1" d="M510.18,145.35c1.92-.12.21-.11-.74-.13-.04.05,0,.1.74.13Z"></path><path class="cls-1" d="M705.5,104.33c-.38.14-.61.24-.53.26.51-.2.61-.26.53-.26Z"></path><path class="cls-1" d="M874.12,78.36c-.21-.04-.41-.08-.67-.14.12.04.36.08.67.14Z"></path><path class="cls-1" d="M864.74,76.87c-.46-.05-1.07-.1-1.93-.17.84.1,1.45.14,1.93.17Z"></path><path class="cls-1" d="M665.4,116.5c-.62.19-1.22.38-1.73.57.95-.28,1.42-.45,1.73-.57Z"></path><path class="cls-1" d="M860.83,76.61l-2.39-.2s-.04.02-.04.04l2.43.16Z"></path><path class="cls-1" d="M877.09,78.85c-.92-.15-2.17-.36-2.97-.49,1.17.24,2.1.39,2.97.49Z"></path><path class="cls-1" d="M766.31,86.6c-.07.02-.16.04-.25.06-1.8.55-.67.22.25-.06Z"></path><path class="cls-1" d="M850.37,76.44c-.1,0-.21-.01-.32-.02l-.7.04,1.02-.03Z"></path><path class="cls-1" d="M887.22,80.87c-.44-.09-.85-.16-1.18-.21.36.08.78.18,1.32.3-.12-.05-.15-.08-.14-.1Z"></path><path class="cls-1" d="M801.7,79.77c.66-.19.9-.28.92-.32-.79.13-1.29.24-.92.32Z"></path><path class="cls-1" d="M504.21,186.18c-14.53,14.69-29.62,28.82-45.23,42.36"></path><path class="cls-1" d="M466.05,223.89s.03.05.06.08c-.02-.04-.04-.06-.06-.08Z"></path><path class="cls-1" d="M470.12,221.11v.07s.01-.05,0-.07Z"></path><path class="cls-1" d="M463.68,225.63v-.02s-.1.06-.18.12l.18-.1Z"></path><path class="cls-1" d="M478.34,214.61l-.05.05s.04-.02.05-.05Z"></path><path class="cls-1" d="M473.44,218.44s0-.08.02-.11c-.03.02-.05.05-.02.11Z"></path><path class="cls-1" d="M461.12,225.06l.16.05s-.11-.07-.16-.05Z"></path><path class="cls-1" d="M459.26,227.44s.02.01.03.02c0-.01-.02-.02-.03-.02Z"></path><path class="cls-1" d="M460.52,227.11s.02-.06.02-.1c-.02.03-.06.06-.02.1Z"></path><path class="cls-1" d="M460.54,226.96v.05s.02-.03,0-.05Z"></path><path class="cls-1" d="M505.16,187.78c.06-.06.04-.18.03-.3l-.03.3Z"></path><path class="cls-1" d="M485.32,208.23l.03.06s-.01-.04-.03-.06Z"></path><path class="cls-1" d="M504.35,186.83l.06-.02s-.05,0-.06.02Z"></path><path class="cls-1" d="M462.05,223.73c-.03-.16.21-.15.12-.25-.05.08-.22.08-.12.25Z"></path><path class="cls-1" d="M483.14,203.02l.04-.04s-.03.03-.04.04Z"></path><path class="cls-1" d="M504.35,186.83l-.07.03s.04.02.06.03c0-.03,0-.05,0-.06Z"></path><path class="cls-1" d="M492.5,201.47h0s0,.02,0,.03v-.03Z"></path><path class="cls-1" d="M493.03,201.27s-.03.07-.05.11c.05-.03.06-.07.05-.11Z"></path><path class="cls-1" d="M505.19,187.48l.02-.17s-.02.11-.02.17Z"></path><path class="cls-1" d="M496.93,197.2s-.02.03-.02.05c.02-.01.03-.03.02-.05Z"></path><path class="cls-1" d="M473.09,218.64s-.04,0-.05,0c.02.03.04.04.05,0Z"></path><polygon class="cls-1" points="473.46 213.27 473.46 213.27 473.46 213.27 473.46 213.27"></polygon><path class="cls-1" d="M473.42,213.54c.07-.02.07-.16.04-.27-.05.04-.07.11-.04.27Z"></path><path class="cls-1" d="M473.83,213.03h-.03s.02,0,.03,0Z"></path><polygon class="cls-1" points="470.57 215.62 470.58 215.63 470.57 215.62 470.57 215.62"></polygon><path class="cls-1" d="M471.17,215.05s.06.01.08,0c-.03-.01-.06-.02-.08,0Z"></path><polygon class="cls-1" points="475.08 211.35 475.08 211.36 475.08 211.35 475.08 211.35"></polygon><path class="cls-1" d="M480.06,205.32c-.51.59-1.06,1.49-1.68,1.95.07.33-.1.5-.23.71l-.28-.26-.07.23c-.14-.03.07-.16-.14-.17l.11.23c-.11-.09-.45.29-.38-.14l-.59.54c-.14.11.14.3-.07.37-.11-.06,0-.1-.11-.19-.62.19,0,1-.51,1.25v-.07c0,.14-.14.25-.1.29.31.24-.07-.22.21-.17.21.25-.03.27.14.44-.17,0-.1.19-.17.28-.28-.02-.38.27-.66.18,0,.14.14.44,0,.59-.28-.09-.14-.2-.35-.14l.1.16c-.14.09-.15.03-.21-.04-.13.11.07.29-.17.34l-.04-.22c-.07.16-.14.18-.31.32-.07-.08,0-.14.07-.16-.28-.13-.07.23-.14.25.07.05.21-.03.28.16-.1.05,0,.35-.21.23l-.03-.21c-.07.26.07.26-.17.38,0-.02-.04-.05-.06-.08.04.29-.27.27-.46.43v-.07c-.03.11.04.27,0,.3.18-.01.19.05.32.18-.35-.11.03.46-.31.52-.07-.08-.1-.23.03-.2-.14-.31-.31-.51-.28-.75-.03.13-.1.26-.17.14l.17.24c-.05.05-.1.08-.14.11.1.16.31.13.28.33-.07.19-.28-.16-.21-.04-.1.26.14.31-.1.4,0-.03,0-.1.04-.1-.21.03-.28.32-.56.09-.04-.08-.1-.16-.04-.18l.03.04c-.04-.32-.07.16-.24-.12.14.13-.07.26-.17.31l.17.14c.17.73-.28-.33-.49-.03-.07.26.1-.01.1.2-.14.08-.31-.03-.42.19-.1-.02-.28-.02-.45-.2-.03.17-.38.2-.28.43.31,0,0-.35.42-.29l.1.23c-.15.12-.25.37-.4.39.05.02.1.05.12.1-.14.25-.04.48-.28.6-.17-.14-.03-.21.04-.3-.24-.02-.14.11-.38.23-.14-.13.14-.11.04-.27l-.18.24-.03-.03c.18.27-.18.13-.25.32-.31.28-.07.64-.07.99-.1-.02-.17-.07-.21-.15.17.04.08-.03.05-.12-.08.12-.44-.02-.47-.17-.11.22.17.07.14.24l-.24.19c.14.1.24.05.21.25-.07.12-.14.14-.28.25-.03-.08-.21-.15-.1-.23-.1.01-.21.09-.14.25.24-.02-.14.32.14.41l-.24.02s-.03-.11.04-.13c-.21-.15-.07.16-.1.22-.08,0-.23.11-.3.05,0,.09-.15.15-.25.08-.04.1.1.13.14.2l-.24.19c-.1-.09-.38-.36-.38-.43,0,.17.24.33.1.44-.1-.27-.31,0-.41-.33-.21-.08-.42.12-.49.28.07.22.21-.03.35.14-.28.36.1.82-.22.96h.1c-.07.22-.07.18-.04.4-.14-.24-.65-.38-.87-.12.07.12.31.07.41.26l-.14.18s-.04-.06-.04-.1c-.09.2-.51-.01-.35.26l-.41-.16.17.07c.07.12-.07.3-.07.37-.07.26-.21.23-.42.19.1.06.35.18.24.33-.29-.33-.39.13-.54-.04-.05.05-.24.04-.12.18l-.17-.21c.24.29.03.46-.08.64-.31-.42-.14.18-.52-.11.2.29-.18.34,0,.59-.11.12-.31-.14-.41-.19l.03.15c-.17-.07-.4.11-.61.14l.08.34-.14-.07c.03.08-.04.2.1.23l-.08.04c.22.26-.03.15-.07.37-.07-.01-.11-.08-.11-.14-.07.06-.15-.1-.26-.15.1.02.16.66.44.62.1.09.07.26-.04.27l-.24-.19.13.31c-.07.12-.24.02-.35.06.07-.09-.2-.6-.41-.41.09-.13.03-.31.05-.4-.05.03-.09.03-.11-.13-.11.22.07.19-.08.36-.17-.21-.27-.24-.48-.18l.24.05s.03.05.03.07c.06-.01.1,0,.18.08-.03.03.03.42-.11.32.45.17-.08.5.2.6.03.08-.07.19-.18.1,0-.28-.31-.14-.41-.3,0,.1.24.05.24.19-.07.09-.24.02-.35,0v-.07s-.21.02-.21.02c.07.12.28.06.2.22-.07-.02-.14.14-.21.06-.07-.19-.27-.34-.2-.46-.07.09-.32.35-.04.44l-.11.08c.14.03.45.03.27.24l-.03-.04v.28s-.16-.05-.16-.05c.05.05.07.12.01.16-.07-.05-.14-.03-.21-.12-.14.14-.04.23,0,.31-.07.09-.14.07-.21-.08-.14.07-.32.28-.49.24-.07.23.07.02.1.23-.45-.24-.63.31-.85.57.34.25-.04.1.16.42-.03-.15-.45-.03-.31-.31l-.11.15c-.24-.09.11-.32-.23-.44-.14.14.06.57-.22.61-.13-.27-.07.19-.24-.09-.03-.11.04-.13.07-.19l-.07-.02c-.39.22.13.34.09.65-.18.2-.31-.04-.41-.13-.07-.02-.14.11-.14.21,0-.24.35-.06.41.13-.31-.17-.32.24-.29.39.52.02.21-.16.73-.11-.03-.11-.23-.33,0-.38,0,.2.12.12.18.13-.14-.1.07-.15.07-.25.14.07.16.39.37.29l-.24-.33c.1-.01.17.25.24.06.06.22.24.23.09.44.45.07.22-.44.29-.7,0,.03.03.08.03.11-.03-.11.04-.17.07-.23.17-.03.03.22.13.27l.18-.17s.02.01.02.02c.01-.08.03-.15.12-.09.03.15.1.27.13.38v-.38c.08.12.32.04.25.23l.25-.29.2.19c.04-.1,0-.14-.1-.09.14-.04.12-.74.42-.29.08-.36.22-.37.4-.71-.04.37.45.03.31.31.21-.02.04-.27.11-.39.17,0,.31.24.27.41l.04-.2.03.04v-.21c.21.01.21.19.35.11l-.13-.2.17.04c-.1-.06-.07-.15,0-.24l.03.04.07-.12c0,.2.13-.04.2.13.1-.07.1-.07.22-.24l-.14-.1c.11-.29.17.18.35.04l-.14-.13c.45.03.29-.49.6-.49-.07.12.1.27.07.22.11-.19.39-.37.4-.68.24.16.31.21.55.16.11-.12.11-.15.04-.31.18-.02.29-.33.43-.18-.08-.14.12-.07.1-.22l.07.05-.14-.13c.48.14.18-.48.63-.38v.07s.03-.13.03-.13c.07.05.07.12.14.2l.42-.33-.17-.04c.07-.09,0-.28.18-.27.03.35.14-.11.31.03l-.04.13q.11-.12-.03-.25c.11-.18.35.18.35-.1l-.11.08c-.1-.06-.14-.24-.07-.29.04,0,.14.03.1.09.07-.16.32-.25.32-.35.1-.01.17.11.17.18.14-.35.14-.07.29-.43l.07.08v-.17s.28.06.28.06l-.14-.06c.07-.09.07-.19.21-.23l.07.15c.18-.28.45-.04.53-.41.03,0,.03.08.03.11.04-.37.35.07.35-.34.02.05.09.08.11.12l.03-.16.14.17-.14-.31.21.11-.03-.11c.38.22.31-.14.66-.04l-.21-.18c-.03-.74,1.02-.48,1.26-1.06l.14.17v-.35c.21.04.07.19.18.24.11-.26-.14-.31.04-.55.21,0,.07.15.07.26.13-.26.35-.62.58-.66-.02-.02-.03-.06-.05-.06.07-.19.31-.28.45-.43.06.08.04.12.01.17.06-.04.18-.05.16-.17l.07.19c.14-.08.25-.4.42-.26-.07-.05-.17-.18-.07-.26.28.2.18-.35.45-.36.03.08-.07.19-.04.17.14,0,.11-.19.11-.33l.07.12.25-.47c.28.2.31-.35.45-.15.14-.11-.21,0-.07-.19.14.06.1-.19.24-.02v.04s.1-.12.1-.12l.07.22c.07-.13,0-.35-.1-.47.17,0,.24-.19.42-.09v.07c.21-.31.84.03.8-.43.04,0,.07.05.04.08l.17-.14.07.15.11-.43.07.08c.21-.13.45-.43.66-.66v.07c.14-.35.31-.15.42-.4.01.03.01.04.01.05l.16-.16.03.11c-.04-.28.56-.1.35-.17,0-.14.03-.34-.04-.46.17-.17.14.06.31.03.14-.11.03-.27.28-.36l.07.08c.07-.09.07-.19.17-.31v.07c.03-.34.45.02.28-.47.14,0,.24-.2.38-.03.14-.32.28-.53.45-.81.28.23.03-.06.31-.04l-.14-.13c.31-.32,1.01-.33,1.32-.72l.14.13-.07-.22c.45-.3,1-.71,1.32-1,.03-.17.03-.48.24-.58v.04c.21-.34.45-.68.83-.89.04.08.11.09.11.16-.07-.22.17-.18.24-.23l-.17-.03c-.04-.21.21-.2.35-.14v-.28s.05.01.08.03l-.05-.1.25.11c0-.07.14-.29.03-.52.07.05.24-.02.18.1l.55-.42h-.14c-.14-.12-.07-.35.06-.36,0,.21.18.21.32.27,0-.14-.18-.07-.21-.18,0-.17.13-.39.24-.37v.1c.07-.16.35.03.45-.09,0-.21.17-.18-.08-.4.1-.19.21.11.28.09-.04-.18.24-.3.38-.21-.25-.43.52-.25.27-.57l.28.05c-.07-.08-.21-.28-.15-.41.17,0,.28.16.39.21l-.22-.35c.83-.19,1.34-1.07,2.17-1.38.2-.31.4-.76.74-1.01v.07s.38-.21.38-.21l-.35.08c.03-.1.03-.2.1-.26.45-.2,1.03-.47,1.3-1.01-.06-.59.46.13.48-.36,0,.05.05.11.06.16.16-.37.26-.57.34-1.03.29.36.17-.18.31.02l-.11-.16c.14.02.31-.08.38.03l-.04-.28.14.13c.17-.14.4-.59.76-.39.19-.59.87-1.13,1.42-1.56-.04-.18.09-.33.2-.45l.28.05c.06-.16-.01-.49.19-.48.02.02.03.04.03.05.08-.15.28-.17.24-.42.14-.12.34-.15.45.04-.25-.28.31-.22.31-.22,0,0,1.79-1.44,3.59-3.26,1.8-1.82,3.6-4.04,3.65-5.55-.08-.18-.02-.42-.23-.52.06-.16.35.02.24-.14-.24.07-.3-.39-.61-.4l.06-.13c-.07-.11-.02.24-.17.04l.22.27c-.12.04-.21.03-.32-.02.02.17.31.55,0,.58l.03-.06c-.13.15-.25-.07-.32-.08l.03-.03h-.24c.17-.01.12-.36.06-.27-.24.1.1.02,0,.17-.07.09-.18-.06-.25-.14l-.13.15c-.11-.12.1-.09-.08-.15l-.06.3c-.33-.26-.05.33-.41.14.06-.2-.11-.09-.18-.2l-.3.33c-.07-.01,0-.17-.04-.11-.14-.02-.03.17-.06.2-.11-.05-.23.24-.42.04-.34.09.16.33-.15.42-.14-.09.13-.19-.08-.22l-.16.25c-.04-.08-.15-.23-.05-.28-.71.41-1.63.09-1.98.75-.21-.07-.04-.14-.08-.29-.18.55-.82.21-1.12.54l.11.12c-.8.08-1.11.82-1.75,1.16l.14.02c.04.18-.06.3-.09.43-.07-.05-.19-.31-.28-.11.07.01.17,0,.21.07-.73.12-1.55,1.09-2.4,1.63-.86,1.02-2.12,1.81-2.99,2.79.13-.15.35.2.18.24-.77-.2-.43.58-1.06.54-.4.69-1.3.74-1.44,1.61l-.14-.13c-.14.01-.07.13-.13.22l-.04-.04c-.24.13-.33.49-.51.53l.14.16c-.1.12-.17-.06-.2.14l-.07-.08v.28c-.24-.29-.33.28-.54.25-.1.19-.26.57-.54.73-.18-.1-.45.16-.69.26-.3.36-.74.87-1.22,1.22l.18.17-.1.12s-.07-.05-.07-.08c-.28-.12-.2.31-.41.27.21.11.1-.05.17-.11.17,0,.25.25.04.28l-.03-.04v.17c-.14-.13-.28-.12-.42-.25-.34.38-.36.86-.81,1.16-.11-.19-.24.3-.42-.04-.13.32.24.18.32.47-.07.06-.07.19-.17.11-.03-.09-.21-.12-.18-.19l-.13.17s-.04-.08-.04-.11c-.17.45-.72.35-.86.77.07.12.14-.08.21.04-.1.46-.42.06-.55.45l-.07-.19c0,.17.07.32-.17.35-.18-.14,0-.24,0-.38-.1.08-.31.35-.1.43-.07.16-.24.06-.34.07.03.04.21,0,.21.14-.24.06-.48.29-.69.46-.04-.04-.1-.09-.11-.12.04.35-.28-.02-.45.23Z"></path><path class="cls-1" d="M470.47,215.67l.1-.05s-.07-.08-.07-.15l-.04.2Z"></path><path class="cls-1" d="M474.3,212.37s0-.04-.01-.07c-.01.02,0,.05.01.07Z"></path><path class="cls-1" d="M474.95,211.25c-.03.09.06.08.13.1-.03-.03-.07-.07-.13-.1Z"></path><path class="cls-1" d="M468.73,218.01s-.01-.06-.04-.09c0,.05.02.07.04.09Z"></path><path class="cls-1" d="M462.71,223.16s.02,0,.05,0c-.01,0-.03,0-.05,0Z"></path><path class="cls-1" d="M463.26,223.13s.03-.04.05-.08c-.04.02-.05.05-.05.08Z"></path><path class="cls-1" d="M470.1,216.67s.03-.06.02-.11c-.03.03-.03.07-.02.11Z"></path><path class="cls-1" d="M463.35,222.95l.1-.06s-.02-.02-.03-.03l-.07.09Z"></path><path class="cls-1" d="M462.58,223.23s.08-.06.12-.07c-.08,0-.11.02-.12.07Z"></path><path class="cls-1" d="M466.75,220.16s0,0,0-.01c0-.13-.01-.06,0,.01Z"></path><polygon class="cls-1" points="463.46 222.35 463.48 222.34 463.46 222.28 463.46 222.35"></polygon><path class="cls-1" d="M462.17,223.48s.02-.04.02-.07c-.02,0-.04.01-.06.02.02.02.04.03.05.04Z"></path><path class="cls-1" d="M465.28,221.01c.03.08.06.13.08.16.03-.03.02-.07-.08-.16Z"></path><path class="cls-1" d="M460.38,185.83c18.2,16.29,35.15,33.98,50.66,52.85"></path><path class="cls-1" d="M505.56,230.35s.05-.03.08-.05c-.04.02-.06.03-.08.05Z"></path><path class="cls-1" d="M502.24,225.56l.08.02s-.06-.03-.08-.02Z"></path><path class="cls-1" d="M507.6,233.16h-.02c.03.05.07.11.14.21l-.12-.21Z"></path><path class="cls-1" d="M494.49,215.89l.06.05s-.03-.05-.06-.05Z"></path><path class="cls-1" d="M499.07,221.63s-.08,0-.12-.03c.03.04.06.06.12.03Z"></path><path class="cls-1" d="M507.16,235.92l.05-.17s-.07.11-.05.17Z"></path><path class="cls-1" d="M509.84,238.25s.01-.02.02-.03c-.01,0-.02.02-.02.03Z"></path><path class="cls-1" d="M509.41,236.83s-.07-.02-.11-.04c.03.03.06.07.11.04Z"></path><path class="cls-1" d="M509.24,236.78h.06s-.04-.02-.06,0Z"></path><path class="cls-1" d="M461.99,184.86c-.07-.07-.21-.05-.34-.04l.34.04Z"></path><path class="cls-1" d="M486.84,207.69l.06-.02s-.05,0-.06.02Z"></path><path class="cls-1" d="M461.07,185.7l-.03-.07s.02.06.03.07Z"></path><path class="cls-1" d="M505.67,234.75c-.17.01-.18-.25-.28-.16.09.07.1.25.28.16Z"></path><path class="cls-1" d="M481.41,209.68l-.05-.04s.04.04.05.04Z"></path><path class="cls-1" d="M461.07,185.7l.04.08s.02-.05.03-.07c-.03,0-.05,0-.07-.01Z"></path><path class="cls-1" d="M478.66,199.36h0s.02,0,.03,0h-.04Z"></path><path class="cls-1" d="M478.38,198.76s.08.04.13.06c-.04-.06-.08-.07-.13-.06Z"></path><path class="cls-1" d="M461.66,184.82l-.19-.03c.05.03.12.03.19.03Z"></path><path class="cls-1" d="M473.43,194.27s.04.02.06.03c-.02-.02-.04-.03-.06-.03Z"></path><path class="cls-1" d="M499.32,222.04s0,.04.01.06c.03-.02.04-.04-.01-.06Z"></path><polygon class="cls-1" points="493.48 221.13 493.48 221.13 493.48 221.13 493.48 221.13"></polygon><path class="cls-1" d="M493.78,221.19c-.03-.08-.18-.09-.29-.06.05.06.12.09.29.06Z"></path><path class="cls-1" d="M493.18,220.7s0,.02,0,.03c0-.01,0-.02,0-.03Z"></path><polygon class="cls-1" points="496.27 224.52 496.28 224.51 496.27 224.52 496.27 224.52"></polygon><path class="cls-1" d="M495.6,223.82s0-.06,0-.09c0,.03-.01.06,0,.09Z"></path><polygon class="cls-1" points="491.26 219.18 491.26 219.18 491.26 219.17 491.26 219.18"></polygon><path class="cls-1" d="M484.23,213.23c.7.6,1.72,1.27,2.29,1.99.35-.06.55.15.8.31l-.26.29.26.09c-.02.15-.18-.09-.17.14l.24-.1c-.09.11.36.51-.12.41l.64.69c.13.16.32-.13.4.1-.05.11-.11,0-.2.1.26.7,1.09.08,1.4.67h-.07c.15,0,.28.17.32.13.23-.32-.23.06-.2-.24.25-.21.3.06.47-.12.02.19.21.13.32.21,0,.3.33.44.26.74.15.01.47-.12.64.05-.07.3-.21.14-.12.37l.16-.1c.11.16.05.17-.02.23.13.15.31-.05.39.22l-.23.02c.18.09.21.17.37.37-.08.07-.15-.01-.18-.09-.11.29.25.1.28.17.05-.07-.05-.23.15-.29.06.12.37.03.27.25l-.23.02c.29.1.27-.05.43.23-.02,0-.05.03-.08.06.31-.02.32.32.5.55h-.07c.13.04.29-.03.33.03-.03-.2.04-.2.16-.33-.08.37.49,0,.6.39-.08.07-.24.09-.22-.06-.32.13-.53.3-.79.24.15.05.29.14.16.2l.25-.17c.06.06.09.12.13.16.16-.1.12-.33.33-.27.22.09-.15.29-.03.22.29.14.32-.12.44.15-.04,0-.11-.01-.11-.05.05.23.38.33.15.62-.08.03-.16.1-.19.02l.04-.03c-.34,0,.18.09-.11.26.13-.14.29.1.35.22l.14-.18c.77-.12-.34.27.01.53.29.1-.02-.12.2-.1.09.16,0,.34.24.48-.02.11,0,.3-.18.48.18.05.25.44.48.35-.03-.34-.37-.03-.35-.49l.24-.09c.14.18.42.31.46.48.01-.05.05-.11.1-.13.28.18.52.09.67.37-.14.18-.23.02-.33-.07,0,.27.13.16.28.44-.13.14-.13-.16-.29-.06l.27.22-.03.03c.27-.18.15.21.36.31.33.37.7.14,1.08.18-.02.11-.06.18-.14.21.02-.19-.04-.1-.14-.07.14.1.01.48-.15.5.25.14.06-.18.25-.13l.23.29c.09-.14.03-.26.25-.2.14.09.17.17.3.33-.08.03-.14.21-.24.09.02.12.12.24.28.18-.04-.27.35.19.43-.11l.04.27s-.12.03-.14-.05c-.14.21.18.09.25.14.02.09.14.26.08.34.1,0,.17.18.1.29.11.05.13-.1.21-.13l.22.29c-.09.11-.36.38-.43.37.19.02.34-.23.47-.07-.28.09.03.34-.33.42-.07.22.16.47.34.56.24-.05-.04-.23.13-.37.41.34.88-.02,1.05.34l-.02-.12c.25.1.21.1.44.08-.25.13-.36.68-.06.94.12-.06.05-.34.25-.43l.2.17s-.06.04-.1.03c.23.12.02.56.3.41l-.14.44.07-.18c.12-.06.32.11.4.12.29.11.26.26.23.48.05-.11.17-.36.34-.23-.33.28.17.44,0,.59.06.06.06.27.2.16l-.22.17c.3-.23.49.02.7.15-.43.29.2.17-.08.56.29-.19.38.23.64.07.13.13-.13.33-.18.43l.16-.02c-.06.18.14.46.19.69l.36-.05-.06.15c.08-.03.22.06.24-.09l.05.09c.26-.21.16.05.41.12-.01.07-.08.11-.14.11.06.08-.1.16-.15.28.02-.11.7-.11.64-.42.09-.1.27-.04.29.07l-.19.24.32-.11c.14.09.03.27.09.39-.1-.09-.63.15-.41.41-.15-.11-.33-.07-.44-.1.04.06.04.11-.13.11.24.14.2-.05.4.12-.22.16-.23.28-.16.51l.04-.26s.06-.02.08-.02c-.02-.07,0-.11.07-.19.03.04.45.02.36.16.15-.48.55.14.63-.15.08-.03.21.1.12.21-.3-.04-.13.33-.3.42.11.01.04-.26.19-.24.1.09.03.27.01.38h-.07s.04.22.04.22c.12-.06.05-.3.22-.2-.01.07.16.17.08.24-.2.05-.35.26-.49.17.1.09.4.39.48.1l.09.13c.02-.15,0-.49.24-.28l-.04.03.3.04-.05.16c.05-.05.12-.06.17,0-.05.07-.02.15-.11.21.16.17.25.07.33.04.1.09.09.16-.07.22.09.16.32.38.29.57.25.11.01-.07.24-.08-.23.47.37.73.67,1,.25-.35.11.05.44-.13-.15.02,0,.49-.32.3l.17.14c-.08.26-.35-.16-.46.21.16.17.61,0,.67.32-.29.11.21.1-.08.26-.12.02-.14-.06-.21-.1v.07c.25.45.35-.1.68-.02.23.22-.02.34-.11.44-.01.07.12.17.24.18-.26-.04-.09-.39.11-.44-.17.32.28.38.44.36-.02-.57-.19-.25-.17-.82-.12.02-.34.22-.41-.05.22.03.12-.11.13-.18-.1.15-.17-.09-.27-.11.06-.14.4-.14.29-.38l-.34.22c-.02-.12.26-.16.04-.26.24-.05.23-.24.47-.05.04-.49-.48-.29-.77-.41.04,0,.08-.03.12-.02-.12.02-.18-.06-.25-.11-.04-.2.23,0,.29-.11l-.19-.22s.01-.02.02-.02c-.09-.02-.17-.06-.1-.14.16-.02.28-.08.4-.1l-.41-.05c.12-.06.02-.34.23-.24l-.33-.31.19-.2c-.11-.05-.15-.02-.09.1-.05-.16-.8-.22-.34-.5-.4-.13-.41-.28-.79-.52.4.09,0-.49.32-.3-.04-.23-.29-.07-.43-.17,0-.19.24-.31.42-.25l-.22-.07.04-.03-.23-.03c0-.23.19-.21.1-.37l-.21.13.03-.19c-.06.11-.16.06-.26-.03l.04-.03-.14-.09c.21.03-.05-.15.12-.2-.08-.11-.08-.11-.28-.27l-.1.14c-.32-.15.18-.17.02-.38l-.13.14c0-.5-.55-.37-.57-.72.14.09.28-.08.24-.05-.21-.14-.42-.47-.76-.51.15-.25.2-.32.13-.59-.13-.13-.17-.13-.33-.08-.04-.21-.38-.36-.23-.5-.15.07-.08-.14-.25-.13l.05-.07-.13.14c.12-.52-.53-.25-.46-.74h.07s-.15-.05-.15-.05c.05-.07.12-.06.21-.13l-.38-.5-.03.19c-.1-.09-.3-.03-.31-.23.38,0-.13-.17.01-.34l.14.05q-.13-.13-.27,0c-.21-.14.17-.36-.13-.4l.1.13c-.05.11-.25.12-.31.04,0-.04.02-.15.09-.1-.18-.1-.29-.38-.4-.39-.02-.12.1-.18.18-.17-.39-.2-.09-.16-.48-.36l.09-.07-.19-.02.04-.3-.06.15c-.1-.09-.21-.1-.27-.26l.16-.06c-.31-.22-.08-.5-.49-.62,0-.04.08-.03.12-.03-.41-.08.05-.38-.4-.42.05-.02.08-.09.12-.11l-.18-.05.17-.13-.32.12.11-.22-.12.02c.21-.4-.18-.36-.09-.73l-.18.21c-.79-.04-.6-1.17-1.24-1.5l.17-.13-.38-.04c.03-.22.2-.06.25-.16-.29-.14-.32.12-.6-.1,0-.23.16-.06.27-.05-.3-.17-.7-.45-.77-.7-.03.02-.06.03-.06.05-.22-.1-.33-.37-.5-.54.08-.06.13-.03.18,0-.05-.07-.07-.21-.2-.19l.2-.06c-.09-.16-.46-.31-.32-.49-.05.07-.17.17-.27.05.19-.29-.39-.23-.43-.54.08-.03.22.1.18.06-.02-.15-.21-.13-.36-.15l.12-.06-.53-.32c.19-.29-.41-.38-.21-.51-.13-.16.01.23-.2.06.05-.15-.21-.13-.04-.27h.04s-.14-.12-.14-.12l.24-.06c-.14-.09-.38-.03-.5.07-.01-.19-.23-.29-.14-.47h.08c-.35-.25-.04-.91-.54-.91,0-.04.05-.07.08-.03l-.17-.2.16-.06-.48-.16.08-.07c-.16-.24-.51-.54-.78-.79h.08c-.4-.18-.19-.35-.48-.49.03-.01.04-.01.05,0l-.18-.19.12-.03c-.31.01-.16-.62-.22-.4-.15-.01-.37-.07-.49,0-.21-.21.05-.15,0-.34-.14-.16-.3-.06-.42-.34l.08-.07c-.1-.08-.22-.09-.36-.22h.08c-.37-.06-.02-.49-.53-.34-.02-.15-.24-.28-.07-.42-.36-.18-.61-.35-.93-.56.22-.29-.07-.04-.08-.35l-.13.14c-.38-.37-.46-1.13-.92-1.5l.13-.14-.23.06c-.37-.52-.87-1.16-1.22-1.53-.19-.05-.52-.07-.65-.31h.04c-.4-.25-.79-.54-1.05-.97.08-.03.09-.11.16-.1-.23.06-.21-.2-.28-.28l-.02.19c-.23.02-.24-.24-.19-.39l-.3-.02s0-.06.03-.08l-.1.04.1-.26c-.08,0-.33-.17-.56-.07.04-.07-.05-.27.09-.19l-.51-.64.02.15c-.13.14-.38.05-.41-.1.23.01.2-.18.26-.33-.15,0-.05.19-.17.22-.19-.01-.44-.18-.43-.29h.11c-.18-.08,0-.37-.15-.5-.23-.01-.21-.2-.42.06-.22-.12.09-.22.06-.3-.19.03-.36-.28-.27-.43-.44.24-.33-.58-.66-.34l.02-.3c-.08.07-.28.21-.43.13-.02-.19.14-.3.18-.41l-.36.21c-.31-.93-1.32-1.54-1.75-2.47-.36-.24-.88-.49-1.19-.88h.08s-.27-.43-.27-.43l.12.39c-.11-.04-.22-.05-.29-.13-.27-.5-.64-1.16-1.26-1.49-.64.03.08-.49-.45-.54.06,0,.11-.04.17-.05-.43-.2-.66-.32-1.17-.43.36-.29-.22-.2-.02-.34l-.16.11c0-.15-.13-.34-.01-.42l-.3.03.12-.15c-.18-.19-.69-.47-.52-.85-.66-.25-1.35-1.02-1.88-1.64-.19.03-.37-.12-.52-.24v-.3c-.17-.08-.51-.01-.54-.24.02-.02.04-.03.06-.03-.17-.1-.22-.31-.49-.28-.14-.15-.21-.38-.02-.49-.28.26-.28-.35-.28-.35,0,0-1.81-2.03-4.05-4.07-2.24-2.05-4.93-4.09-6.6-4.21-.19.08-.45,0-.53.23-.19-.07-.03-.38-.18-.26.11.26-.38.31-.35.65l-.15-.07c-.11.08.26.03.07.19l.27-.23c.06.13.07.23.02.35.18-.02.56-.32.64.03l-.07-.04c.19.15-.04.27-.04.34l-.04-.04.03.27c-.03-.19-.41-.15-.3-.07.15.26,0-.11.19,0,.11.08-.04.19-.12.27l.18.15c-.11.12-.11-.11-.15.08l.34.07c-.23.34.37.07.22.45-.22-.07-.08.12-.19.19l.41.34c0,.08-.19,0-.11.04,0,.15.19.03.23.07-.04.11.29.26.1.45.14.37.34-.16.49.18-.08.15-.22-.15-.23.08l.3.19c-.08.04-.23.15-.3.04.55.78.32,1.77,1.1,2.18-.05.23-.15.04-.3.08.63.22.34.9.75,1.24l.12-.11c.19.87,1.05,1.24,1.51,1.96v-.15c.2-.04.34.08.49.12-.04.07-.31.19-.09.3,0-.08-.03-.19.05-.23.23.79,1.39,1.74,2.1,2.69,1.23.99,2.24,2.41,3.42,3.4-.18-.15.17-.37.24-.18-.13.83.68.51.71,1.19.8.47.96,1.46,1.92,1.67l-.12.15c.03.15.15.08.25.16l-.04.04c.17.27.58.39.64.58l.16-.15c.14.12-.05.19.17.23l-.08.07h.3c-.28.26.35.4.33.62.22.12.65.32.86.63-.09.19.23.5.36.77.43.35,1.03.86,1.47,1.41l.17-.18.14.12s-.04.07-.08.07c-.1.3.36.24.34.47.09-.22-.07-.12-.13-.19-.02-.19.25-.25.3-.02l-.04.04h.19c-.13.15-.1.31-.23.45.46.4.98.46,1.35.96-.2.1.35.28,0,.45.36.17.17-.25.48-.32.07.08.22.08.13.19-.1.03-.1.22-.19.18l.2.16s-.08.03-.12.03c.51.21.45.82.93.99.12-.07-.1-.16.02-.23.51.14.11.46.54.63l-.19.07c.19.01.34-.06.4.21-.13.18-.26-.01-.41-.02.1.12.42.36.48.14.18.08.09.27.12.38.04-.04-.02-.23.13-.22.09.27.36.55.57.78-.04.04-.08.11-.12.11.38-.02,0,.3.29.51Z"></path><path class="cls-1" d="M496.33,224.64l-.06-.12s-.08.07-.16.06l.22.06Z"></path><path class="cls-1" d="M492.43,220.12s-.05,0-.07,0c.03.02.05,0,.07,0Z"></path><path class="cls-1" d="M491.17,219.32c.11.04.09-.06.09-.14-.03.03-.07.07-.09.14Z"></path><path class="cls-1" d="M499.01,226.78s-.06,0-.09.04c.05,0,.08-.02.09-.04Z"></path><path class="cls-1" d="M505,233.96s0-.03,0-.05c0,.02,0,.03,0,.05Z"></path><path class="cls-1" d="M504.93,233.34s-.04-.04-.09-.06c.02.04.06.06.09.06Z"></path><path class="cls-1" d="M497.45,225.14s-.06-.04-.12-.03c.04.04.08.04.12.03Z"></path><path class="cls-1" d="M504.73,233.23l-.07-.11s-.02.02-.03.03l.1.09Z"></path><path class="cls-1" d="M505.09,234.1s-.07-.1-.09-.14c0,.09.03.13.09.14Z"></path><path class="cls-1" d="M501.48,229.18h-.01c-.14-.02-.07,0,.01,0Z"></path><polygon class="cls-1" points="504.08 233.04 504.08 233.02 504.01 233.03 504.08 233.04"></polygon><path class="cls-1" d="M505.39,234.59s-.04-.03-.07-.02c0,.02.02.04.03.07.02-.02.03-.04.04-.05Z"></path><path class="cls-1" d="M502.51,230.89c.09-.02.14-.05.17-.08-.03-.03-.08-.03-.17.08Z"></path><path class="cls-1" d="M488.64,185.36c-6.27,20.62-10.64,41.81-13.04,63.23"></path><path class="cls-1" d="M477.84,240.08s.05.02.1.02c-.04-.02-.07-.02-.1-.02Z"></path><path class="cls-1" d="M479.19,235.15l.04.07s-.02-.06-.04-.07Z"></path><path class="cls-1" d="M477.18,243.06h-.02s-.02.1-.04.2l.07-.2Z"></path><path class="cls-1" d="M481.68,224.62v.07s.01-.05,0-.07Z"></path><path class="cls-1" d="M480.11,230.84s-.05-.06-.05-.1c-.01.04-.01.07.05.1Z"></path><path class="cls-1" d="M474.87,244.4l.15-.07c-.06,0-.13.02-.15.07Z"></path><path class="cls-1" d="M475.08,247.55s.02,0,.03,0c-.01,0-.02,0-.03,0Z"></path><path class="cls-1" d="M475.79,246.41s-.03-.06-.05-.09c0,.04,0,.08.05.09Z"></path><path class="cls-1" d="M475.71,246.28l.03.05s0-.04-.03-.05Z"></path><path class="cls-1" d="M490.23,186.35c.03-.08-.05-.19-.11-.29l.11.29Z"></path><path class="cls-1" d="M483.66,215.05l.05.03s-.03-.03-.05-.03Z"></path><path class="cls-1" d="M489.07,185.88l.05-.05s-.04.03-.05.05Z"></path><path class="cls-1" d="M474.7,242.72c-.13-.11.06-.27-.07-.28,0,.1-.11.22.07.28Z"></path><path class="cls-1" d="M478.93,211.9v-.06s0,.05,0,.06Z"></path><path class="cls-1" d="M489.07,185.88l-.05.06s.05,0,.07,0c-.01-.02-.02-.04-.02-.06Z"></path><path class="cls-1" d="M485.98,205.15h0s.01.02.02.03l-.02-.03Z"></path><path class="cls-1" d="M486.33,204.68s.01.08.02.12c.03-.06.01-.09-.02-.12Z"></path><path class="cls-1" d="M490.11,186.06l-.07-.17c0,.05.03.11.07.17Z"></path><path class="cls-1" d="M487.56,199s0,.04,0,.06c0-.02,0-.04,0-.06Z"></path><path class="cls-1" d="M479.97,231.23s-.03.03-.04.04c.03.01.05.01.04-.04Z"></path><polygon class="cls-1" points="476.97 226.62 476.97 226.62 476.97 226.62 476.97 226.62"></polygon><path class="cls-1" d="M477.1,226.86c.04-.06-.04-.17-.13-.24-.01.07,0,.14.13.24Z"></path><path class="cls-1" d="M477.12,226.17l-.02.02s.02-.01.02-.02Z"></path><polygon class="cls-1" points="476.11 230.43 476.13 230.44 476.11 230.43 476.11 230.43"></polygon><path class="cls-1" d="M476.23,229.58s.05-.03.07-.05c-.03.01-.06.03-.07.05Z"></path><polygon class="cls-1" points="477.11 223.98 477.11 223.98 477.11 223.98 477.11 223.98"></polygon><path class="cls-1" d="M477.66,215.76c-.09.82-.01,1.92-.25,2.7.25.23.21.48.22.75l-.38-.05.08.24c-.13.06-.04-.18-.21-.05l.22.13c-.14,0-.2.53-.4.12l-.16.83c-.05.18.29.17.16.35-.12.02-.06-.09-.2-.1-.39.55.6.84.32,1.37l-.04-.06c.08.11.03.3.09.31.39,0-.19-.14.07-.27.32.08.13.25.38.28-.14.11.03.22.02.34-.24.16-.15.47-.43.57.08.11.38.28.35.49-.28.1-.23-.08-.36.11l.18.07c-.06.16-.11.12-.19.1-.04.18.23.19.07.39l-.16-.16c.04.18,0,.24-.06.46-.11-.02-.08-.11-.04-.18-.3.07.08.23.04.3.08,0,.15-.16.32-.05-.05.11.21.29-.02.33l-.16-.16c.1.26.21.17.09.43-.01-.02-.06-.02-.1-.03.21.21-.05.4-.11.65l-.04-.06c.04.11.2.2.18.25.13-.13.18-.08.36-.06-.34.14.3.35.07.63-.1-.02-.22-.12-.09-.19-.3-.16-.56-.22-.67-.44.05.13.07.28-.06.23l.29.09c0,.07-.03.13-.04.18.18.06.33-.09.42.1.06.2-.32.05-.19.1.07.28.3.16.15.39-.02-.03-.06-.09-.03-.1-.15.16-.02.45-.39.44-.07-.04-.18-.06-.14-.13h.05c-.22-.23.04.19-.27.07.19.02.1.26.05.37h.22c.58.49-.42-.09-.41.29.1.26.08-.08.2.09-.06.15-.27.18-.21.43-.1.05-.23.16-.48.13.07.16-.18.41.04.53.24-.21-.21-.28.15-.52l.22.12c-.05.19.03.47-.08.59.05-.02.11-.02.16,0,.04.29.27.41.15.67-.22,0-.16-.15-.16-.27-.2.15-.04.18-.16.44-.19-.02.04-.18-.14-.24v.31s-.03,0-.03,0c.31.1-.07.23,0,.43-.07.44.34.57.55.85-.1.05-.18.06-.26.02.16-.08.04-.08-.03-.13,0,.15-.36.27-.48.17.05.25.18-.06.26.1l-.07.32c.17-.01.22-.12.32.07.02.15-.02.21-.06.39-.08-.04-.25.02-.22-.12-.07.08-.1.22.05.29.18-.18.09.35.36.24l-.18.18s-.1-.07-.05-.13c-.25.02.04.17.06.25-.06.06-.11.24-.21.24.06.07-.02.22-.15.23.03.1.16.03.23.07l-.07.32c-.14,0-.52-.03-.56-.09.11.14.39.1.35.29-.25-.15-.24.21-.53.01-.21.08-.25.38-.2.55.19.13.15-.16.36-.12,0,.48.59.59.44.92l.07-.08c.09.23.07.2.23.35-.26-.1-.75.13-.75.49.13.05.28-.16.49-.07v.24s-.06-.02-.09-.05c.06.22-.4.34-.1.44l-.42.15.18-.06c.13.05.13.29.18.34.11.26-.01.33-.2.43.12-.03.38-.09.39.1-.43-.06-.22.37-.44.33,0,.08-.16.19.02.23l-.27-.05c.37.07.32.34.35.56-.5-.12,0,.24-.47.27.34.09.08.39.37.47,0,.16-.33.1-.44.13l.12.09c-.17.06-.24.36-.38.53l.28.21-.15.04c.07.04.1.18.23.11l-.03.09c.33.05.08.14.19.34-.06.04-.14.01-.18-.03-.02.09-.18.03-.3.06.09-.05.56.41.74.18.14,0,.22.16.15.24l-.31.02.3.15c.03.15-.17.18-.22.29,0-.12-.54-.33-.58-.03-.02-.16-.18-.26-.23-.35-.02.06-.05.09-.17-.03.06.25.17.1.18.34-.27-.05-.36,0-.48.2l.22-.13s.05.02.07.04c.04-.05.08-.06.19-.06,0,.05.3.31.13.33.45-.18.27.45.54.33.07.04.07.2-.07.2-.18-.22-.33.11-.51.05.07.08.22-.13.31-.02,0,.12-.17.18-.27.24l-.04-.05-.14.16c.13.05.25-.14.3.03-.06.04-.01.21-.12.19-.17-.1-.43-.08-.45-.22,0,.12-.01.49.26.38l-.03.14c.12-.07.36-.29.36,0h-.05s.18.21.18.21l-.15.07c.07,0,.13.04.11.12-.08,0-.12.07-.23.05-.01.21.13.21.2.25,0,.12-.06.16-.21.08-.05.16-.05.44-.21.53.1.23.06-.04.23.11-.49.13-.27.68-.25,1.04.42-.05.04.1.4.21-.12-.09-.36.29-.44-.03l.02.19c-.24.1-.13-.33-.47-.17-.01.21.42.4.24.63-.28-.12.07.2-.24.1-.1-.06-.06-.13-.07-.2l-.06.04c-.14.45.33.17.5.44,0,.28-.26.19-.39.19-.06.04-.03.18.03.26-.16-.19.22-.29.39-.2-.35.09-.08.41.05.5.4-.36.05-.27.47-.61-.1-.06-.4-.09-.25-.3.13.16.17,0,.22-.02-.18.02-.05-.16-.12-.24.15-.05.38.18.48-.04l-.4-.09c.07-.08.29.07.22-.13.2.13.33,0,.36.27.38-.27-.13-.49-.25-.74.02.03.08.04.1.06-.1-.06-.08-.15-.1-.23.11-.15.17.15.28.12l.02-.25s.02,0,.03,0c-.05-.07-.08-.14.03-.15.12.09.25.14.35.2l-.25-.3c.13.04.26-.19.33,0v-.4s.27,0,.27,0c-.04-.1-.09-.11-.14,0,.08-.13-.4-.65.12-.52-.19-.34-.09-.44-.17-.83.21.32.36-.29.44.03.14-.16-.15-.24-.17-.38.13-.12.39-.02.47.13l-.1-.18h.05s-.13-.15-.13-.15c.17-.14.28,0,.33-.15l-.24-.06.15-.09c-.12.03-.15-.07-.16-.19h.05s-.03-.14-.03-.14c.13.16.07-.12.23-.04.03-.12.02-.12,0-.34l-.17.02c-.11-.3.25.02.29-.21h-.19c.36-.3-.11-.59.13-.81.03.15.25.14.2.13-.04-.22.05-.55-.15-.8.28-.04.37-.05.52-.26,0-.16-.02-.19-.17-.27.13-.14.01-.46.21-.44-.15-.06.05-.14-.07-.24h.08s-.19-.02-.19-.02c.46-.22-.17-.5.24-.73l.04.06-.06-.13c.08,0,.13.05.24.07l.11-.54-.16.09c0-.12-.17-.22-.04-.34.25.26.04-.18.26-.18l.06.13q0-.16-.19-.18c-.04-.22.38-.09.2-.31l-.03.14c-.12.02-.26-.1-.24-.19.03-.02.13-.07.14,0-.05-.17.08-.41.02-.49.07-.08.2-.03.24.02-.12-.37.06-.15-.05-.53l.11.02-.11-.14.25-.14-.15.04c0-.12-.07-.2.02-.33l.15.08c-.04-.34.32-.33.15-.68.03-.02.08.04.1.07-.21-.32.32-.17.06-.51.05.03.12,0,.17.02l-.08-.15.21.04-.3-.15.23-.05-.1-.07c.43-.08.15-.32.49-.46h-.28c-.48-.58.48-1.06.32-1.68l.21.04-.21-.28c.19-.1.17.11.29.08-.08-.28-.3-.16-.31-.47.17-.13.15.08.21.16-.06-.3-.11-.73.04-.91-.03,0-.06-.03-.08-.02-.06-.2.07-.43.09-.64.1.02.1.07.12.13.03-.07.11-.16.02-.24l.17.11c.06-.15-.05-.48.17-.48-.09,0-.24-.03-.21-.16.34-.02-.08-.39.14-.58.07.04.06.2.07.16.1-.09-.03-.22-.12-.33l.13.05-.09-.54c.34-.02.04-.49.27-.41.04-.18-.17.13-.17-.11.15-.04-.03-.22.18-.17l.02.03v-.16s.2.14.2.14c-.02-.15-.21-.28-.37-.32.14-.11.08-.31.28-.34l.04.06c-.02-.38.68-.51.38-.86.03-.02.09,0,.08.04l.05-.22.15.08-.18-.42.11.02c.09-.24.1-.64.12-.96l.04.06c-.1-.38.16-.32.09-.59.03.01.04.02.04.03l.04-.23.09.07c-.2-.21.39-.43.18-.36-.08-.11-.17-.3-.3-.35.04-.25.15-.04.27-.17.05-.18-.13-.24,0-.47l.11.03c0-.12-.06-.2-.05-.36l.04.06c-.17-.3.38-.26-.05-.56.11-.09.08-.31.29-.26-.08-.35-.09-.61-.12-.95.36.02,0-.07.23-.23l-.19-.02c.07-.46.63-.89.66-1.4l.19.02-.19-.14c.2-.52.41-1.2.5-1.63-.07-.16-.25-.42-.14-.63l.02.03c-.03-.41-.02-.84.18-1.24.07.04.14.01.18.07-.19-.14.04-.25.07-.34l-.16.08c-.15-.16.06-.29.21-.33l-.16-.23s.05-.02.08-.02l-.09-.05.27-.05c-.04-.06-.05-.32-.27-.45.09,0,.19-.16.2-.02l.22-.68-.11.09c-.19-.03-.26-.26-.16-.35.12.17.26.07.41.04-.08-.12-.18.05-.27-.03-.1-.15-.11-.41-.01-.45l.06.09c-.03-.18.31-.18.33-.34-.12-.18.04-.25-.28-.29-.02-.22.24-.03.28-.09-.13-.13.03-.4.2-.4-.44-.22.29-.52-.09-.65l.26-.12c-.1-.03-.33-.12-.35-.26.14-.1.32-.03.44-.05l-.37-.18c.59-.65.53-1.69,1.07-2.42,0-.38-.07-.88.08-1.29l.04.06.21-.39-.25.26c-.02-.1-.08-.19-.06-.28.27-.42.61-.99.56-1.6-.36-.48.46-.15.22-.58.03.04.1.07.13.1-.06-.42-.08-.64-.25-1.08.44.15.05-.25.28-.16l-.17-.08c.13-.06.22-.25.34-.18l-.18-.22.19.03c.07-.22.04-.73.44-.75-.15-.62.17-1.46.42-2.13-.13-.14-.09-.34-.06-.5l.26-.11c-.03-.18-.26-.42-.08-.53.03,0,.04.02.05.03,0-.17.15-.3-.01-.5.06-.17.22-.32.41-.21-.36-.11.15-.36.15-.36,0,0,.83-2.21,1.52-4.76.69-2.55,1.25-5.42.6-6.83-.16-.13-.21-.37-.45-.35-.02-.18.32-.16.15-.24-.18.18-.44-.21-.73-.06v-.15c-.12-.07.09.23-.14.12l.32.14c-.08.09-.17.13-.3.14.1.14.53.35.26.53v-.07c-.05.2-.25.06-.32.08l.02-.04-.22.12c.15-.09-.06-.39-.07-.27-.17.21.1-.04.09.15-.02.12-.19.03-.29,0l-.05.2c-.15-.05.05-.13-.14-.1l.09.3c-.41-.07.11.33-.3.34-.04-.21-.14-.02-.26-.09l-.11.45c-.07.03-.09-.15-.09-.08-.13.05.05.17.04.21-.12,0-.09.33-.35.24-.27.25.29.23.06.46-.17,0,.03-.23-.17-.16l-.03.31c-.07-.05-.24-.13-.17-.23-.45.73-1.4.92-1.4,1.7-.22.05-.11-.11-.21-.22.1.6-.63.62-.73,1.08l.15.05c-.66.49-.59,1.32-.99,1.98l.13-.05c.12.14.1.3.14.44-.08,0-.31-.18-.3.05.07-.03.15-.1.22-.05-.57.5-.83,1.81-1.3,2.76-.24,1.39-.93,2.79-1.18,4.15.04-.21.41-.02.28.11-.76.25-.07.76-.63,1.08.02.83-.73,1.39-.4,2.24l-.19-.03c-.11.09.01.15,0,.27l-.05-.02c-.14.25-.03.62-.15.76l.21.06c-.02.16-.18.04-.1.24l-.1-.03.15.24c-.36-.11-.14.45-.33.53.02.22.08.66-.07.95-.2.01-.29.4-.45.62-.07.49-.17,1.19-.37,1.79l.24.04-.02.16c-.05-.01-.08,0-.1-.03-.3.06,0,.39-.2.48.24-.03.06-.1.09-.19.14-.1.35.07.19.22l-.05-.02.1.15c-.19-.03-.3.06-.49.03-.07.54.17.97-.04,1.49-.2-.1-.03.4-.37.21.06.36.31.01.53.22-.03.09.05.21-.09.19-.08-.06-.24.03-.25-.06l-.02.22s-.07-.04-.09-.07c.11.49-.41.74-.28,1.18.12.06.07-.15.2-.09.18.46-.31.3-.2.72l-.16-.12c.1.15.24.23.06.4-.22-.01-.14-.21-.22-.32-.04.13-.06.49.16.43.04.18-.17.2-.25.27.05.01.18-.12.25,0-.17.2-.24.54-.31.81-.05-.01-.14-.01-.16-.04.23.28-.24.15-.24.47Z"></path><path class="cls-1" d="M476.06,230.54l.05-.11s-.1-.02-.15-.08l.09.19Z"></path><path class="cls-1" d="M477.09,225.33s-.03-.03-.05-.05c0,.03.03.04.05.05Z"></path><path class="cls-1" d="M476.94,223.99c.03.1.1.03.17,0-.04,0-.09-.02-.17,0Z"></path><path class="cls-1" d="M476.16,233.6s-.04-.04-.09-.04c.04.03.06.04.09.04Z"></path><path class="cls-1" d="M474.82,241.81s.02-.02.04-.03c-.02,0-.03.01-.04.03Z"></path><path class="cls-1" d="M475.22,241.39s0-.05-.02-.1c-.02.04,0,.07.02.1Z"></path><path class="cls-1" d="M476.39,231.6s-.01-.06-.05-.1c0,.05.02.08.05.1Z"></path><path class="cls-1" d="M475.16,241.2l.04-.11s-.02,0-.04,0v.12Z"></path><path class="cls-1" d="M474.78,241.95s.02-.1.05-.14c-.07.05-.07.09-.05.14Z"></path><path class="cls-1" d="M475.97,236.66s0,0,0-.01c-.08-.1-.05-.04,0,.01Z"></path><polygon class="cls-1" points="474.86 240.64 474.87 240.63 474.82 240.59 474.86 240.64"></polygon><path class="cls-1" d="M474.63,242.43s0-.04-.03-.06c0,.02-.02.04-.03.06.03,0,.05,0,.07,0Z"></path><path class="cls-1" d="M475.4,238.33c.08.04.13.06.17.07,0-.04-.03-.07-.17-.07Z"></path></g></svg>