<svg xmlns="http://www.w3.org/2000/svg" viewBox="0 0 1003.46 321.78"><defs><style>.cls-1{isolation:isolate;}.cls-2{mix-blend-mode:multiply;}.cls-3{fill:#692228;}</style></defs><g class="cls-1"><g id="Capa_2"><g id="Capa_1-2"><g class="cls-2"><path class="cls-3" d="M292.75,10.07c-9.4,5.37-17.79,13.43-25.85,22.83,27.87,15.11,1.68,85.95-50.36,85.95h-5.04c-29.88,47.34-66.81,91.32-132.95,91.32C24.51,210.16,0,176.59,0,140.33,0,96.35,37.94,47.34,98.7,47.34c40.62,0,59.09,27.53,59.09,58.75,0,33.91-29.88,75.87-79.9,75.87-26.86,0-41.29-11.41-47-25.85-.34-1.34,1.34-2.01,2.01-.34,5.04,12.76,17.46,22.49,40.29,22.49,49.02,0,78.56-41.97,78.56-76.88,0-28.2-16.79-52.04-53.04-52.04C38.94,49.35,2.01,97.7,2.01,140.33c0,35.59,23.84,67.82,76.21,67.82s89.3-44.32,121.87-91.99c-44.65-17.79-22.16-111.12,66.47-111.12,7.05,0,16.79,1.34,25.85,2.69,10.07-5.04,19.47-7.72,31.89-7.72,11.75,0,13.43,11.75-13.09,11.75-4.7,0-11.42-.67-18.46-1.68ZM254.48,29.88c4.03,0,8.06,1.01,8.06,1.01,8.39-8.73,17.46-16.11,26.86-21.49-8.06-1.01-16.79-2.35-22.83-2.35-82.25,0-105.08,89.64-65.13,107.1,19.81-29.21,38.27-59.42,59.42-81.58,0,0-3.02-.67-6.38-.67-22.49,0-39.62,16.12-39.62,36.59,0,1.01.34,3.69.34,4.03,0,3.36-2.35,5.04-5.04,5.04-2.01,0-4.36-1.34-4.36-4.36,0-5.71,13.76-43.31,48.68-43.31ZM265.56,34.24c-18.46,22.49-34.24,53.04-52.71,82.59h3.69c50.36,0,76.21-68.82,49.02-82.59Z"></path><path class="cls-3" d="M212.85,164.5s22.16-29.54,34.58-29.54c5.04,0,8.06,4.03,8.06,9.4s-2.35,12.09-5.71,18.8h.67c11.75-13.43,26.86-28.2,38.27-28.2,6.04,0,10.74,3.36,10.74,10.07,0,22.16-36.26,35.92-36.26,50.02,0,4.03,3.36,5.71,7.39,5.71,16.79,0,42.97-36.26,42.97-36.26h2.35s-27.53,38.27-45.32,38.27c-7.39,0-13.43-4.36-13.43-12.09,0-21.15,36.26-33.57,36.26-49.69,0-2.35-1.68-4.03-4.7-4.03-19.14,0-47.67,41.63-66.81,65.47h-.67s-2.01-2.01-6.04-2.01c-5.37,0-11.41,4.37-11.41,4.37-.67.67-.67,0-.67,0,6.04-6.04,48.34-49.35,48.34-63.12,0-3.02-1.01-4.7-4.36-4.7-11.08,0-31.89,27.53-31.89,27.53h-2.35Z"></path><path class="cls-3" d="M407.23,136.98h-59.09l-9.06,14.77c-35.92,57.07-99.71,168.2-178.94,168.2s-63.79-87.96-8.73-87.96c9.74,0,17.79,2.69,23.5,6.71.67.67.33,2.01-.67,1.34-5.71-4.03-13.09-6.71-22.83-6.71-52.04,0-65.8,84.94,9.74,84.94,56.74,0,102.73-63.79,137.98-119.18,22.16-38.94,16.12-58.75,39.28-63.12l16.12-23.5c-3.69.34-7.72.67-11.41.67-38.27,0-34.92-36.93-8.73-39.62,1.01,0,1.01,1.01,0,1.01-24.17,2.69-28.2,37.27,8.73,37.27,4.03,0,8.39-.34,12.76-1.01,30.89-43.98,72.52-95.35,97.7-95.35,33.57,0-23.84,79.23-88.63,95.01l-15.44,24.51h60.43l-2.69,2.01ZM337.06,138.32c-15.11,3.69-15.44,16.79-25.18,39.95l17.46-28.2c2.35-3.69,4.7-7.72,7.72-11.75ZM366.27,108.44c61.77-16.45,116.5-90.98,85.61-90.98-22.49,0-57.41,48.01-85.61,90.98Z"></path><path class="cls-3" d="M434.75,164.5h2.35s-11.42,14.1-22.83,14.1c-4.36,0-6.71-2.01-8.06-5.37-10.07,15.78-25.85,29.54-37.94,29.54-8.73,0-13.43-8.73-13.43-16.45,0-25.52,35.59-51.37,57.41-51.37,2.35,0,2.35,2.01,1.34,2.01-18.13,0-51.37,39.28-51.37,57.74,0,3.69,1.68,6.04,6.71,6.04,10.74,0,26.52-14.44,36.59-30.55-1.01-11.08,8.06-29.21,16.45-29.21,2.35,0,4.03,1.68,4.03,4.36,0,8.73-17.46,17.46-17.46,26.19,0,3.02,2.35,5.04,6.04,5.04,10.07,0,20.14-12.09,20.14-12.09Z"></path><path class="cls-3" d="M450.53,200.76c16.45,0,42.64-36.26,42.64-36.26h2.35s-27.53,38.27-44.99,38.27c-7.72,0-13.77-4.03-13.77-11.42,0-21.15,39.28-35.25,39.28-50.69,0-6.38-6.04-10.07-9.74-14.77-6.71,9.74-17.46,22.83-29.21,38.61h-2.35c12.42-16.79,23.5-30.21,30.21-40.29,0,0-1.34-2.69-1.34-5.37,0-15.11,11.42-19.81,11.42-11.75,0,4.03-2.69,9.74-7.72,17.12,4.03,6.04,13.43,11.08,13.43,21.15,0,19.14-37.27,34.92-37.27,49.35,0,4.03,2.35,6.04,7.05,6.04Z"></path><path class="cls-3" d="M542.51,202.44h-.67s-2.01-2.01-5.37-2.01c-5.71,0-11.75,4.37-11.75,4.37-.34,0-1.01.67-.34,0,5.37-6.04,47-49.69,47-63.45,0-3.02-1.68-4.36-4.7-4.36-13.76,0-42.97,36.93-64.46,65.47h-.67s-2.35-2.01-6.04-2.01c-5.37,0-11.42,4.37-11.42,4.37-.67.67-.67,0-.67,0,6.04-6.04,48.01-49.69,48.01-63.45,0-3.02-1.01-4.36-4.03-4.36-11.41,0-31.89,27.53-31.89,27.53h-2.35s21.49-29.54,34.58-29.54c5.04,0,7.72,4.03,7.72,9.4,0,5.71-2.35,12.42-6.04,19.14h1.01c11.42-13.09,26.86-28.54,36.59-28.54,5.04,0,8.73,4.03,8.73,9.4,0,5.71-2.35,12.42-6.38,19.81h1.01c11.75-13.76,27.53-29.21,38.94-29.21,6.04,0,10.74,3.36,10.74,10.07,0,22.16-36.26,35.92-36.26,50.02,0,4.03,3.02,5.71,8.06,5.71,15.78,0,42.3-36.26,42.3-36.26h2.35s-27.53,38.27-45.32,38.27c-7.38,0-13.43-4.36-13.43-12.09,0-21.15,36.26-33.57,36.26-49.69,0-2.35-1.34-4.03-4.7-4.03-19.14,0-50.02,44.32-66.81,65.47Z"></path><path class="cls-3" d="M684.53,134.96c6.04,0,8.06,3.02,8.06,7.39,0,3.02-1.34,7.05-1.34,7.05h.67c6.04-7.72,10.74-13.43,10.74-13.43h.34s2.01,2.01,6.04,2.01c5.71,0,11.08-4.7,11.08-4.7.34-.34,1.01-.34.67,0,0,0-45.32,46.33-45.32,61.1,0,4.03,2.01,6.38,6.38,6.38,14.77,0,41.29-36.26,41.29-36.26h2.35s-27.87,38.27-43.98,38.27c-5.71,0-9.74-4.03-9.74-11.42,0-4.7,1.68-10.07,4.03-15.78h-.67c-11.75,14.44-27.19,27.19-36.93,27.19-8.73,0-12.76-8.06-12.76-16.45,0-24.84,38.27-51.37,59.09-51.37ZM638.53,200.76c16.11,0,52.04-41.29,52.04-58.42,0-3.36-1.34-5.37-5.04-5.37-16.79,0-53.04,41.29-53.04,57.74,0,3.69,2.01,6.04,6.04,6.04Z"></path><path class="cls-3" d="M756.37,159.47c0-3.69,2.69-6.38,6.04-6.38,0,0,18.8,3.69,18.8-12.42,0-3.02-2.01-5.71-5.71-5.71-17.79,0-52.04,37.27-52.04,57.41,0,5.71,2.69,10.07,10.74,10.07,26.19,0,54.72-37.94,54.72-37.94h2.35s-29.88,39.95-58.08,39.95c-11.08,0-17.46-7.72-17.46-19.14,0-26.86,37.94-52.04,58.75-52.04,6.04,0,8.39,3.36,8.39,8.06,0,9.4-10.41,23.84-20.48,23.84-3.02,0-6.04-2.69-6.04-5.71Z"></path><path class="cls-3" d="M830.9,164.5s-27.53,38.27-44.65,38.27c-6.04,0-9.74-3.36-9.74-11.08,0-19.14,33.91-55.73,33.91-55.73h.67s2.01,2.01,6.04,2.01c5.37,0,11.41-4.7,11.41-4.7,1.01-.34.67,0,.67,0,0,0-49.02,47.34-49.02,61.44,0,3.69,1.68,6.04,6.71,6.04,15.44,0,41.63-36.26,41.63-36.26h2.35ZM845.67,101.72c0,4.03-9.4,11.08-13.09,11.08-4.03,0,1.01-14.77,8.06-14.77,2.69,0,5.04,1.68,5.04,3.69Z"></path><path class="cls-3" d="M900.39,164.5h2.35s-11.41,14.1-22.83,14.1c-4.37,0-6.71-2.01-8.06-5.37-10.07,15.78-25.85,29.54-37.94,29.54-8.73,0-13.43-8.73-13.43-16.45,0-25.52,35.59-51.37,57.41-51.37,2.35,0,2.35,2.01,1.34,2.01-18.13,0-51.37,39.28-51.37,57.74,0,3.69,1.68,6.04,6.71,6.04,10.74,0,26.52-14.44,36.59-30.55-1.01-11.08,8.06-29.21,16.45-29.21,2.35,0,4.03,1.68,4.03,4.36,0,8.73-17.46,17.46-17.46,26.19,0,3.02,2.35,5.04,6.04,5.04,10.07,0,20.14-12.09,20.14-12.09ZM886.63,111.46c-1.34,0-1.34-1.68-1.34-1.68,12.76,0,22.49-21.49,29.21-21.49,2.35,0,3.36,1.34,3.36,3.36,0,7.05-20.82,19.81-31.22,19.81Z"></path><path class="cls-3" d="M900.39,164.5s22.16-29.54,34.58-29.54c5.04,0,8.06,4.03,8.06,9.4s-2.35,12.09-5.71,18.8h.67c11.75-13.43,26.86-28.2,38.27-28.2,6.04,0,10.74,3.36,10.74,10.07,0,22.16-36.26,35.92-36.26,50.02,0,4.03,3.36,5.71,7.38,5.71,16.79,0,42.97-36.26,42.97-36.26h2.35s-27.53,38.27-45.32,38.27c-7.38,0-13.43-4.36-13.43-12.09,0-21.15,36.26-33.57,36.26-49.69,0-2.35-1.68-4.03-4.7-4.03-19.14,0-47.67,41.63-66.81,65.47h-.67s-2.01-2.01-6.04-2.01c-5.37,0-11.42,4.37-11.42,4.37-.67.67-.67,0-.67,0,6.04-6.04,48.34-49.35,48.34-63.12,0-3.02-1.01-4.7-4.37-4.7-11.08,0-31.89,27.53-31.89,27.53h-2.35Z"></path></g><g class="cls-2"><path class="cls-3" d="M387.52,263.6c-5.25,1.18-6.33,2.26-6.6,4.07-.27,1.36-.63,5.16-.63,15.83v14.02c0,9.41.18,15.28.54,17.63.36,1.63.72,2.08,1.99,2.71.99.45,2.35.9,3.71,1.27.27.09.36.18.36.36,0,.27-.36.63-.45.81-4.43-.27-8.05-.36-10.76-.27-3.26.09-6.69.54-8.23.54-.63,0-.81-.27-.9-.36-.09-.36-.09-.54-.09-.63,3.8-1,5.97-1.99,6.42-3.89.36-1.36.72-4.34.72-17.91v-15.37c0-15.1,0-16.28-2.08-17.18-1.18-.63-2.35-1-3.89-1.27-.45-.09-.54-.27-.54-.36.09-.09.09-.27.18-.36.09-.18.27-.27.54-.27.63-.09,1.27-.09,2.35-.09,1.99,0,3.62.27,7.05.27,4.07-.09,7.87-.36,9.32-.36.72,0,.81.09.9.27l.09.54Z"></path><path class="cls-3" d="M419.81,320.58c-4.88-.45-10.31-.54-15.19-.45-.81,0-.99-.09-1.18-.36-.09-.18-.18-.54-.09-.63,4.07-.9,5.88-1.99,6.33-6.51.54-4.52,1.09-12.3,1.36-22.79l.54-18.72c.18-5.7-1-6.6-7.24-7.51-.09-.18,0-.36.09-.54.36-.18.36-.27.81-.27.9,0,5.61.36,7.69.36,1.45,0,2.98-.09,4.7-.09.09,1.72.45,3.26,1.09,4.43,4.88,10.85,15.37,30.21,21.07,40.97.27.45.81.54.99.18,6.96-13.38,16.37-31.65,21.07-41.6.63-1.18.81-2.62.81-3.89,3.98,0,7.05-.27,13.47-.36.18.27.09.72-.18.99-5.79.9-7.05,2.17-7.33,4.52-.36,2.89-.36,9.68-.36,21.53-.09,10.22,0,17.09.18,20.8.27,5.61.72,6.87,5.25,7.96.99.27,1.08.45,1.08.72s-.09.45-1.08.45h-5.25c-2.26,0-8.23.27-12.03.72v-.36c-.09-.54.18-.72.63-.9,3.71-1.45,4.07-1.99,4.34-6.06.18-2.35.27-7.51.72-41.15,0-.54-.27-.72-.63-.18-1.45,3.17-10.13,21.25-15.1,31.74-4.61,9.68-6.06,13.11-6.69,14.29-.9,1.81-1.63,3.08-1.9,3.08-.18,0-.72-.81-1-1.36-.9-1.54-2.44-4.88-3.8-7.87-8.68-18.9-15.56-32.56-19.54-40.52-.27,6.24-.45,18.63-.45,29.03s.45,13.84.72,15.28c.36,1.9,1.54,2.8,5.06,3.71.9.27.99.54,1.08.9l-.09.45Z"></path><path class="cls-3" d="M489.91,319.67c4.52-1.27,5.43-2.35,5.88-5.25.27-1.54.45-6.33.45-14.65v-15.28c0-12.48,0-14.83-.72-17.09-.45-1.63-1.36-2.53-5.43-3.53-.36-.09-.45-.27-.45-.45,0-.27.27-.45.45-.54,1.36,0,5.16.27,8.32.27,1.72,0,9.77-.27,11.4-.27,4.7,0,11.12.81,16.91,5.06,4.97,3.71,6.33,9.68,6.33,12.21,0,5.7-2.26,9.22-5.88,12.66-4.88,4.88-13.57,6.69-20.26,6.69h-3.62c-.54,0-.81.18-.81,1.36,0,4.79.18,8.23.45,11.21.18,2.44.54,4.25,2.89,5.34.72.36,3.08,1.17,4.79,1.63.63.18.72.36.72.54s-.18.45-.27.45c-5.34,0-8.77-.09-11.67-.09-3.62,0-6.6.36-8.68.54-.45,0-.54,0-.72-.27l-.09-.54ZM509.26,264.42c-3.35,0-4.61.81-5.25,1.27-.36.27-.72.81-.81,2.26-.27,3.17-.54,21.8-.54,27.22,0,1.08.18,1.27,1.08,1.72,1.09.54,2.71,1,4.7,1,2.35,0,5.06-.63,6.87-1.36,4.61-1.99,9.77-7.33,9.77-15.56,0-3.53-.63-16.55-15.83-16.55Z"></path><path class="cls-3" d="M609.29,290.28c0,11.12-5.34,18.9-9.95,23.51-6.06,5.79-13.93,7.78-18.27,7.78-9.59,0-18.36-3.62-24.6-10.49-4.52-5.25-7.33-12.84-7.33-19.81,0-7.87,2.98-15.74,9.95-21.61,6.06-5.25,13.11-8.14,20.44-8.14,15.38,0,29.75,12.57,29.75,28.76ZM563.71,269.66c-4.97,5.25-6.24,13.2-6.24,20.08,0,8.05,2.89,16.28,7.78,21.52,5.61,5.97,11.03,8.14,17.09,8.14,10.85,0,18.99-7.96,18.99-25.78,0-8.05-2.17-16.19-8.23-23.15-3.53-3.98-8.41-6.96-15.74-6.96-5.43,0-9.59,1.72-13.66,6.15Z"></path><path class="cls-3" d="M624.21,263.69c-.09-.18,0-.36.54-.36,3.89-.09,7.87-.09,11.67-.54,3.89-.36,6.33-.45,7.96-.45,4.61,0,10.13.81,14.65,3.98,4.07,2.8,6.24,7.05,6.24,11.58,0,7.51-6.06,10.94-9.95,13.2-.45.27-1.18.72-.9,1.54.36,1.54,3.26,7.24,6.6,12.39,4.52,6.78,8.59,12.03,15.38,15.19.72.27.81.81.72,1.09-.09.18-.36.27-1.27.18-5.88-.54-11.49-2.98-16.19-7.42-3.62-3.35-6.6-7.96-9.95-14.47-2.17-3.98-3.17-5.25-7.78-5.25-2.26,0-3.62.09-4.25.27-.54.18-1.08.63-1.08,1.36,0,7.14.09,12.57.45,18.18.09,1.45.45,2.35,1,2.8.81.72,2.8,1.72,4.97,2.53,0,.09-.18.27-.27.45-.09.18-.27.18-.72.18-1.45,0-6.33-.18-9.59-.18-3.62,0-5.16.36-7.14.36-.81,0-1,0-1.09-.18-.09-.09-.27-.36-.18-.54,1.54-.72,4.07-1.54,4.97-2.89.9-1.17,1.09-5.25,1.09-10.94v-8.14c0-12.48-.27-24.42-.36-28.67-.09-2.53-.36-3.35-5.34-4.52l-.18-.72ZM643.48,263.96c-2.53,0-4.16.36-5.43,1.18-.72.36-.9.9-1.09,1.72-.27,2.62-.27,7.87-.27,19.26,0,5.88.18,6.24.63,6.51.36.09,1.45.27,2.53.27,6.87,0,11.67-1.18,14.29-4.61,2.26-2.89,3.44-5.88,3.44-10.31,0-7.05-4.79-14.02-14.11-14.02Z"></path><path class="cls-3" d="M695.76,319.4c1.27-.18,3.44-.63,5.06-1.27,1.81-.54,3.17-1.36,3.53-3.71.18-1,.45-6.96.45-20.35v-9.13c0-16.73.09-19.54-.36-19.9h-7.23c-9.22,0-10.76,1.09-11.85,1.63-1.54.9-3.44,3.98-4.7,6.69-.18.45-.36.36-.54.18-.36-.27-.45-.63-.45-1.09.81-1.99,2.99-6.78,4.16-13.2.18-.09.36-.09.63.09.27.09.36.18.45.54.27,1.81.54,2.35,1.18,2.53.72.45,1.63.54,3.89.54,3.17.18,6.6.18,14.2.18,9.77,0,18.54-.18,23.7-.36,3.35-.09,4.25-.27,5.25-.72.9-.27,1.81-1.27,2.35-2.35.18-.27.27-.36.45-.36s.36.27.54.54c.09.18,0,.63-.09.99-1.63,4.79-1.72,6.78-2.17,11.94,0,.45-.09.63-.27.63-.09,0-.36,0-.54-.18-.18-.09-.36-.36-.36-.9-.18-1.63-.36-3.35-.54-4.34-.18-.81-.54-1.54-1.36-1.99-.9-.45-4.25-1.17-11.58-1.17h-5.7c-1.36,0-1.72.9-1.81,2.17-.09,1.63-.45,6.87-.45,18.63v9.22c0,13.02.27,17,.45,18.63.18,1.36.54,2.35,1.45,3.17,1.45,1.36,4.7,1.9,7.78,2.35.27.09.45.18.36.36l-.09.27c-.18.36-.45.54-1.54.54-2.62,0-7.96-.27-11.94-.27s-7.6.63-10.85.63c-1.09,0-1.36-.18-1.45-.63v-.54Z"></path><path class="cls-3" d="M769.65,262.79c2.8,8.41,4.7,13.02,7.87,21.16,2.98,7.78,10.04,24.51,11.21,27.04,1.9,4.16,2.8,7.33,8.14,8.5.18.18-.18.99-.27.99-5.06,0-7.96-.27-10.76-.27-2.98,0-6.42.36-7.51.36-.18,0-.36-.09-.45-.27-.09-.18-.09-.45-.09-.63,4.97-1.63,5.16-2.89,3.71-7.24-.54-1.54-3.07-8.68-4.43-12.12-.36-1.08-.72-1.81-1.63-1.81-5.97-.09-13.93.09-19.08.45-1,0-1.63.54-1.99,1.36-1.36,3.26-4.52,11.4-4.61,14.29,0,2.08,1.09,3.08,5.7,4.7.27.36,0,.9-.36,1-3.98-.09-6.15-.36-8.14-.36-2.35,0-5.06.36-6.33.36-.45,0-.72-.09-.81-.27s-.09-.54-.09-.72c3.89-1.18,4.52-2.08,7.6-8.95,2.35-4.97,12.75-30.03,17.54-42.24.9-2.35,1.45-3.8,1.9-5.16.09-.45.18-.72.54-.9.36-.18,1.09-.54,1.45-.54.54,0,.72.45.9,1.27ZM765.4,296.07c4.16,0,6.51-.09,8.5-.18,1.08,0,1.27-.54,1.08-1.27-3.44-9.13-5.15-13.75-8.41-21.52-.45-1.08-1-.9-1.27-.18-3.89,9.41-5.16,12.21-8.77,21.98-.27.63.18,1.08,1.72,1.08.54,0,2.8.09,7.14.09Z"></path><path class="cls-3" d="M809.45,262.79c3.44.09,6.33.36,10.58.36.81,0,1.18.09,1.54.36.27.45.45.81.81,1.45.36,1,4.52,6.06,5.52,7.14,5.34,5.88,18.72,19.17,35.54,36,.27-3.71.36-11.03.27-18.63-.09-9.13-.18-14.56-.54-19.08-.27-2.8-.63-4.43-2.62-5.15-1.36-.63-3.62-1.18-4.16-1.27-.27-.18-.45-.36-.45-.72l-.09-.27c2.62,0,5.25.18,7.96.18,3.26,0,6.15-.63,8.14-.54.63,0,.81.09.9.36l.18.45c-1.81.63-3.17,1.08-4.52,2.08-1.45.99-2.08,3.53-2.44,16.28-.18,8.41-.36,14.47-.36,26.32,0,4.88.45,10.22.45,12.21,0,.54-.45,1.08-1,1.45-.27.09-.45,0-.81-.54-4.34-7.14-13.38-15.83-21.89-24.69-7.33-7.6-14.38-14.83-22.34-22.88-.36,1.63-.36,6.42-.36,14.02,0,16.37.18,24.51,1.08,27.49.63,2.26,2.62,2.89,7.24,4.16l.18.45c.18.45-.09.54-.36.54-4.07,0-7.33-.36-10.4-.36s-5.16.45-6.42.54c-.27-.27-.45-.63-.36-.9,4.88-1.81,5.61-2.8,6.06-6.15.36-2.44.91-10.31.91-23.42l.09-11.31c0-8.5-.54-10.22-1.63-11.67-1.27-1.63-2.62-2.44-6.06-2.98-.45-.09-.63-.27-.63-.63v-.63Z"></path><path class="cls-3" d="M902.15,319.4c1.27-.18,3.44-.63,5.06-1.27,1.81-.54,3.17-1.36,3.53-3.71.18-1,.45-6.96.45-20.35v-9.13c0-16.73.09-19.54-.36-19.9h-7.23c-9.22,0-10.76,1.09-11.85,1.63-1.54.9-3.44,3.98-4.7,6.69-.18.45-.36.36-.54.18-.36-.27-.45-.63-.45-1.09.81-1.99,2.98-6.78,4.16-13.2.18-.09.36-.09.63.09.27.09.36.18.45.54.27,1.81.54,2.35,1.18,2.53.72.45,1.63.54,3.89.54,3.17.18,6.6.18,14.2.18,9.77,0,18.54-.18,23.69-.36,3.35-.09,4.25-.27,5.25-.72.9-.27,1.81-1.27,2.35-2.35.18-.27.27-.36.45-.36s.36.27.54.54c.09.18,0,.63-.09.99-1.63,4.79-1.72,6.78-2.17,11.94,0,.45-.09.63-.27.63-.09,0-.36,0-.54-.18-.18-.09-.36-.36-.36-.9-.18-1.63-.36-3.35-.54-4.34-.18-.81-.54-1.54-1.36-1.99-.9-.45-4.25-1.17-11.58-1.17h-5.7c-1.36,0-1.72.9-1.81,2.17-.09,1.63-.45,6.87-.45,18.63v9.22c0,13.02.27,17,.45,18.63.18,1.36.54,2.35,1.45,3.17,1.45,1.36,4.7,1.9,7.78,2.35.27.09.45.18.36.36l-.09.27c-.18.36-.45.54-1.54.54-2.62,0-7.96-.27-11.94-.27s-7.6.63-10.85.63c-1.09,0-1.36-.18-1.45-.63v-.54Z"></path><path class="cls-3" d="M973.7,290.01c4.07,0,8.05-.09,11.67-.27,4.7-.18,5.79-.45,8.14-5.06.27-.27.72-.18,1.08-.09-.09,2.08-.63,4.97-.63,7.69.09,2.98.45,5.52.54,6.78,0,.27-.18.36-.63.36-.27,0-.54-.09-.72-.63-.36-1-.81-2.35-1.45-3.53-.91-1.63-2.17-2.71-5.88-2.98-1.9-.18-5.06-.18-9.59-.18-3.53,0-4.61.36-4.97.45-.36.09-.54.27-.72.63-.18.54-.81,4.25-.81,11.49,0,6.15.09,9.31.72,10.76.9,1.81,2.53,2.53,10.49,2.53,13.02,0,16.1-1.27,19.72-11.03.09-.09.36.09.63.27.18.09.18.27.18.45-.18,3.98-1.54,9.22-2.62,11.85-.36.54-.63.72-1.09.72-.72,0-1.27,0-4.16-.09-2.8-.09-8.77-.18-14.65-.18-6.96,0-13.93.36-21.53.72-.18-.09-.27-.36-.09-.63.09-.36.18-.36.36-.45,3.8-1.27,4.88-2.08,4.97-3.53.09-.99.54-7.69.54-17v-15.1c0-10.76-.18-14.29-.45-16.82-.18-1.17-.54-1.63-1.27-2.08-1-.54-2.35-.9-4.34-1.17-.18-.09-.27-.27-.27-.54l.09-.18c0-.18.18-.27,1.17-.27h2.53c2.8,0,5.88.27,11.12.27h7.51c4.97,0,11.21-.54,15.65-.54,1.9,0,2.17.18,2.44.54.18.27.36.72.18,1.45-.81,5.34-.81,8.41-.81,10.22-.81-.09-1.18-.27-1.27-.72-1.45-7.51-2.53-9.13-8.86-9.13h-7.14c-4.7,0-7.51.36-8.59.63-.81.27-1,.72-1,3.35,0,6.96.09,13.11.09,19.44,0,.9.45,1.63,1.18,1.63h2.53Z"></path></g></g></g></g></svg>