<svg xmlns="http://www.w3.org/2000/svg" id="Capa_2" viewBox="0 0 656.36 335.26"><defs><style>.cls-1{fill:#fff;}</style></defs><g id="Capa_1-2"><path class="cls-1" d="M18.02,3.59c3.44.09,6.33.36,10.58.36.81,0,1.18.09,1.54.36.27.45.45.81.81,1.45.36.99,4.52,6.06,5.52,7.14,5.34,5.88,18.72,19.17,35.54,35.99.27-3.71.36-11.03.27-18.63-.09-9.13-.18-14.56-.54-19.08-.27-2.8-.63-4.43-2.62-5.16-1.36-.63-3.62-1.17-4.16-1.27-.27-.18-.45-.36-.45-.72l-.09-.27c2.62,0,5.25.18,7.96.18,3.26,0,6.15-.63,8.14-.54.63,0,.81.09.9.36l.18.45c-1.81.63-3.17,1.08-4.52,2.08-1.45,1-2.08,3.53-2.44,16.28-.18,8.41-.36,14.47-.36,26.32,0,4.88.45,10.22.45,12.21,0,.54-.45,1.09-1,1.45-.27.09-.45,0-.81-.54-4.34-7.14-13.38-15.83-21.89-24.69-7.33-7.6-14.38-14.83-22.34-22.88-.36,1.63-.36,6.42-.36,14.02,0,16.37.18,24.51,1.08,27.49.63,2.26,2.62,2.89,7.24,4.16l.18.45c.18.45-.09.54-.36.54-4.07,0-7.33-.36-10.4-.36s-5.15.45-6.42.54c-.27-.27-.45-.63-.36-.9,4.88-1.81,5.61-2.8,6.06-6.15.36-2.44.9-10.31.9-23.42l.09-11.3c0-8.5-.54-10.22-1.63-11.67-1.27-1.63-2.62-2.44-6.06-2.98-.45-.09-.63-.27-.63-.63v-.63Z"></path><path class="cls-1" d="M154.59,4.4c-1.08.27-2.26.54-3.17,1.09-1.18.54-1.99,1.27-2.17,3.35-.18,1.63-.45,5.97-.81,22.34-.27,8.59-.91,15.56-5.34,21.89-4.16,5.88-12.3,9.32-19.72,9.32-6.51,0-12.3-2.26-15.92-5.52-5.43-5.06-6.33-11.94-6.42-17.91-.09-3.62-.09-9.59.18-18.45.36-10.67.36-12.39-.54-13.84-.81-1-2.98-1.81-4.7-2.17l.09-.36c.09-.27.45-.54,1.63-.54,1.9,0,5.88.45,7.69.36,3.71-.18,7.23-.54,9.31-.54.45,0,.54,0,.54.27,0,.36-.18.72-.27.81-4.52.9-5.52,1.9-6.06,3.8-.36,1.54-.63,4.61-.72,9.5-.09,4.97-.36,14.11-.36,20.71,0,8.32,2.8,13.2,6.6,16.37,3.35,2.8,7.42,3.71,12.48,3.8,9.31.09,13.11-4.43,14.92-6.87,3.26-4.43,4.16-12.12,4.16-21.89.09-10.49,0-17.09-.36-19.9-.45-3.62-2.71-4.61-7.14-5.15-.91-.18-1-.36-.91-.54.09-.09.09-.27.18-.36.18-.27.9-.45,1.54-.36,2.26.18,5.16.36,6.78.36,2.53,0,7.05-.45,8.5-.54.45,0,.45.09.36.36l-.36.63Z"></path><path class="cls-1" d="M184.62,30.81c4.07,0,8.05-.09,11.67-.27,4.7-.18,5.79-.45,8.14-5.06.27-.27.72-.18,1.09-.09-.09,2.08-.63,4.97-.63,7.69.09,2.98.45,5.52.54,6.78,0,.27-.18.36-.63.36-.27,0-.54-.09-.72-.63-.36-1-.81-2.35-1.45-3.53-.9-1.63-2.17-2.71-5.88-2.98-1.9-.18-5.06-.18-9.59-.18-3.53,0-4.61.36-4.97.45-.36.09-.54.27-.72.63-.18.54-.81,4.25-.81,11.49,0,6.15.09,9.32.72,10.76.9,1.81,2.53,2.53,10.49,2.53,13.02,0,16.1-1.27,19.71-11.03.09-.09.36.09.63.27.18.09.18.27.18.45-.18,3.98-1.54,9.22-2.62,11.85-.36.54-.63.72-1.08.72-.72,0-1.27,0-4.16-.09-2.8-.09-8.77-.18-14.65-.18-6.96,0-13.93.36-21.52.72-.18-.09-.27-.36-.09-.63.09-.36.18-.36.36-.45,3.8-1.27,4.88-2.08,4.97-3.53.09-1,.54-7.69.54-17v-15.1c0-10.76-.18-14.29-.45-16.82-.18-1.18-.54-1.63-1.27-2.08-1-.54-2.35-.9-4.34-1.18-.18-.09-.27-.27-.27-.54l.09-.18c0-.18.18-.27,1.18-.27h2.53c2.8,0,5.88.27,11.12.27h7.51c4.97,0,11.21-.54,15.65-.54,1.9,0,2.17.18,2.44.54.18.27.36.72.18,1.45-.81,5.34-.81,8.41-.81,10.22-.81-.09-1.18-.27-1.27-.72-1.45-7.51-2.53-9.13-8.86-9.13h-7.14c-4.7,0-7.51.36-8.59.63-.81.27-1,.72-1,3.35,0,6.96.09,13.11.09,19.44,0,.91.45,1.63,1.18,1.63h2.53Z"></path><path class="cls-1" d="M228.67,62.28c-.27-.54-.45-1.72-.54-3.8-.18-3.89-.54-7.69-1.18-10.58-.09-.72-.27-1.36-.09-1.54.27-.18.45-.18.72-.18.18,0,.45.18.63.99.18,1.18,1.08,4.07,2.71,6.33,2.62,3.8,7.6,6.96,14.29,6.96,7.33,0,12.66-6.06,12.66-13.29,0-3.07-1.36-5.25-3.98-7.42-1.72-1.27-3.71-2.44-9.95-5.25-6.33-2.89-9.68-4.79-12.48-8.23-1.63-1.99-2.89-5.52-2.89-9.04,0-5.88,3.08-9.68,7.05-11.85,1.72-1,6.69-2.89,11.39-2.89,2.35,0,6.69.45,7.96.72,1.36.27,2.62.45,3.08.45.63-.09,1.36-1.09,2.08-1.99.27-.09.54,0,.81.18-.18,4.79,0,8.86.72,12.03.09.63.09,1-.09,1.18-.09.18-.36.36-.54.36-.09.09-.18,0-.36-.36-.72-2.26-1.9-4.7-3.89-6.69-2.53-2.53-6.51-4.07-11.58-4.07-6.33,0-10.49,5.15-10.49,10.67,0,3.17.72,4.97,2.26,6.87,1.81,2.17,5.15,3.98,10.58,6.42,6.06,2.62,9.77,4.25,12.84,7.33,2.89,2.8,4.16,6.15,4.16,9.95,0,6.42-3.08,10.76-7.6,13.29-3.89,2.35-10.58,3.44-13.29,3.44-3.17,0-6.51-.54-10.4-1.27-.54-.18-1.09-.09-1.54.27-.45.18-.9.63-1.36.99-.45.45-.72.54-1,.54s-.45-.09-.72-.54Z"></path><path class="cls-1" d="M292.89,60.2c1.27-.18,3.44-.63,5.07-1.27,1.81-.54,3.17-1.36,3.53-3.71.18-1,.45-6.96.45-20.35v-9.13c0-16.73.09-19.54-.36-19.9h-7.24c-9.22,0-10.76,1.09-11.85,1.63-1.54.9-3.44,3.98-4.7,6.69-.18.45-.36.36-.54.18-.36-.27-.45-.63-.45-1.09.81-1.99,2.98-6.78,4.16-13.2.18-.09.36-.09.63.09.27.09.36.18.45.54.27,1.81.54,2.35,1.18,2.53.72.45,1.63.54,3.89.54,3.17.18,6.6.18,14.2.18,9.77,0,18.54-.18,23.7-.36,3.35-.09,4.25-.27,5.25-.72.9-.27,1.81-1.27,2.35-2.35.18-.27.27-.36.45-.36s.36.27.54.54c.09.18,0,.63-.09.99-1.63,4.79-1.72,6.78-2.17,11.94,0,.45-.09.63-.27.63-.09,0-.36,0-.54-.18-.18-.09-.36-.36-.36-.9-.18-1.63-.36-3.35-.54-4.34-.18-.81-.54-1.54-1.36-1.99-.9-.45-4.25-1.18-11.58-1.18h-5.7c-1.36,0-1.72.9-1.81,2.17-.09,1.63-.45,6.87-.45,18.63v9.22c0,13.02.27,17,.45,18.63.18,1.36.54,2.35,1.45,3.17,1.45,1.36,4.7,1.9,7.78,2.35.27.09.45.18.36.36l-.09.27c-.18.36-.45.54-1.54.54-2.62,0-7.96-.27-11.94-.27s-7.6.63-10.85.63c-1.08,0-1.36-.18-1.45-.63v-.54Z"></path><path class="cls-1" d="M347.61,4.49c-.09-.18,0-.36.54-.36,3.89-.09,7.87-.09,11.67-.54,3.89-.36,6.33-.45,7.96-.45,4.61,0,10.13.81,14.65,3.98,4.07,2.8,6.24,7.05,6.24,11.58,0,7.51-6.06,10.94-9.95,13.2-.45.27-1.18.72-.9,1.54.36,1.54,3.26,7.24,6.6,12.39,4.52,6.78,8.59,12.03,15.38,15.19.72.27.81.81.72,1.08-.09.18-.36.27-1.27.18-5.88-.54-11.49-2.98-16.19-7.42-3.62-3.35-6.6-7.96-9.95-14.47-2.17-3.98-3.17-5.25-7.78-5.25-2.26,0-3.62.09-4.25.27-.54.18-1.08.63-1.08,1.36,0,7.15.09,12.57.45,18.18.09,1.45.45,2.35,1,2.8.81.72,2.8,1.72,4.97,2.53,0,.09-.18.27-.27.45-.09.18-.27.18-.72.18-1.45,0-6.33-.18-9.59-.18-3.62,0-5.16.36-7.14.36-.81,0-1,0-1.09-.18-.09-.09-.27-.36-.18-.54,1.54-.72,4.07-1.54,4.97-2.89.9-1.18,1.08-5.25,1.08-10.94v-8.14c0-12.48-.27-24.42-.36-28.67-.09-2.53-.36-3.35-5.34-4.52l-.18-.72ZM366.87,4.76c-2.53,0-4.16.36-5.43,1.18-.72.36-.9.9-1.09,1.72-.27,2.62-.27,7.87-.27,19.26,0,5.88.18,6.24.63,6.51.36.09,1.45.27,2.53.27,6.87,0,11.67-1.18,14.29-4.61,2.26-2.89,3.44-5.88,3.44-10.31,0-7.05-4.79-14.02-14.11-14.02Z"></path><path class="cls-1" d="M439.59,3.59c2.8,8.41,4.7,13.02,7.87,21.16,2.98,7.78,10.04,24.51,11.21,27.04,1.9,4.16,2.8,7.33,8.14,8.5.18.18-.18,1-.27,1-5.06,0-7.96-.27-10.76-.27-2.98,0-6.42.36-7.51.36-.18,0-.36-.09-.45-.27-.09-.18-.09-.45-.09-.63,4.97-1.63,5.16-2.89,3.71-7.23-.54-1.54-3.08-8.68-4.43-12.12-.36-1.09-.72-1.81-1.63-1.81-5.97-.09-13.93.09-19.08.45-1,0-1.63.54-1.99,1.36-1.36,3.26-4.52,11.39-4.61,14.29,0,2.08,1.08,3.08,5.7,4.7.27.36,0,.9-.36.99-3.98-.09-6.15-.36-8.14-.36-2.35,0-5.06.36-6.33.36-.45,0-.72-.09-.81-.27-.09-.18-.09-.54-.09-.72,3.89-1.18,4.52-2.08,7.6-8.95,2.35-4.97,12.75-30.03,17.54-42.24.9-2.35,1.45-3.8,1.9-5.16.09-.45.18-.72.54-.9.36-.18,1.09-.54,1.45-.54.54,0,.72.45.9,1.27ZM435.34,36.87c4.16,0,6.51-.09,8.5-.18,1.08,0,1.27-.54,1.08-1.27-3.44-9.13-5.16-13.75-8.41-21.53-.45-1.08-.99-.9-1.27-.18-3.89,9.41-5.16,12.21-8.77,21.98-.27.63.18,1.08,1.72,1.08.54,0,2.8.09,7.14.09Z"></path><path class="cls-1" d="M43.52,301.81c0-7.17.6-13.44,2.09-19.71-74.37-3.28-51.37-108.41,22.7-114.39-11.95-30.16,11.65-81.53,71.08-81.53,39.42,0,60.63,21.21,95.57,21.21,10.75,0,14.63-6.27,19.41-6.27,5.97,0,5.97,9.26-1.49,9.26-69.29,0-73.77-22.4-113.49-22.4-58.24,0-81.24,50.47-69.29,79.44h4.78c18.22,0,29.87,8.06,35.54,19.41,47.49-7.47,62.42-73.47,24.49-73.47-20.31,0-33.15,14.04-33.15,26.58,0,6.87,3.29,8.96,3.29,11.95,0,2.69-2.09,4.18-4.48,4.18-3.29,0-4.48-2.69-4.48-7.77,0-15.53,13.14-36.73,38.83-36.73,40.02,0,25.68,68.69-23.59,76.76,2.09,5.38,3.29,11.05,3.29,17.02,0,2.39-.3,5.08-.3,5.08,14.63-6.57,30.16-11.35,44.8-14.93,31.06-40.92,59.13-81.53,87.81-81.53,1.49,0,1.49,1.79,0,1.79-25.39,0-46.29,37.33-72.87,76.46,12.24-2.99,28.07-5.08,45.1-9.86,39.42-50.77,104.53-103.93,129.02-103.93,8.06,0,13.14,4.48,13.14,12.84,0,23.59-55.25,66.6-128.12,89.3-21.21,27.77-36.44,55.25-36.44,72.57,0,13.74,8.36,19.41,21.2,19.41,32.85,0,71.08-42.71,71.08-68.09,0-10.15-6.57-15.23-16.43-15.23-23.3,0-51.37,34.05-51.37,57.94,0,6.27,1.79,10.15,5.67,10.15,1.49,0,1.49,1.19-.9,1.19-6.87,0-10.75-6.57-10.75-15.53,0-22.1,29.87-56.15,55.85-56.15,11.05,0,19.71,5.97,19.71,17.32,0,26.88-39.12,70.78-74.07,70.78-17.32,0-28.67-10.15-28.67-28.37,0-16.43,11.65-38.53,29.27-61.52-14.93,3.88-30.76,6.27-44.8,9.56-29.57,43.01-66,87.51-123.35,87.51h-1.49c-1.49,5.97-2.09,12.54-2.09,19.41,0,20.31,11.95,24.19,11.95,29.87,0,2.39-2.39,3.88-4.48,3.88-7.17,0-9.56-21.8-9.56-33.45ZM17.84,239.99c3.58,14.34,15.53,20.31,31.06,20.31,1.49,0,4.78-.3,4.78-.3,11.35-20.61,31.06-35.24,52.86-45.99,0,0,1.19-5.97,1.19-11.95,0-4.48-.9-8.96-2.39-12.84h-3.88c-16.43,0-27.18-8.06-32.55-19.71-72.57,5.08-95.87,108.11-23,110.8,1.79-6.57,3.88-12.54,6.87-18.22h-3.88c-15.83,0-29.27-6.87-32.25-21.8-.3-1.49.9-1.79,1.19-.3ZM54.87,261.79c-2.99,5.67-5.38,11.65-6.87,18.52h1.19c41.81,0,76.75-40.92,108.11-82.43-14.34,3.88-29.27,8.66-43.31,14.63-4.48,28.37-33.45,46.59-59.13,49.28ZM105.94,216.4c-20.91,10.15-38.83,24.19-49.88,43.6,20.61-2.99,43.31-18.52,49.88-43.6ZM101.46,187.43h3.29c-4.78-10.75-14.93-18.22-29.87-18.22-2.69,0-3.58.3-3.58.3,5.08,10.75,14.93,17.92,30.16,17.92ZM234.96,177.87c70.18-22.7,124.54-64.21,124.54-86.61,0-7.77-4.18-11.05-11.35-11.05-21.21,0-75.56,48.98-113.19,97.66Z"></path><path class="cls-1" d="M332.92,237.3s-24.49,34.05-39.72,34.05c-5.38,0-8.66-2.99-8.66-9.86,0-17.02,30.16-49.58,30.16-49.58h.6s1.79,1.79,5.38,1.79c4.78,0,10.15-4.18,10.15-4.18.9-.3.6,0,.6,0,0,0-43.6,42.11-43.6,54.65,0,3.29,1.49,5.38,5.97,5.38,13.74,0,37.03-32.25,37.03-32.25h2.09ZM346.06,181.45c0,3.58-8.36,9.86-11.65,9.86-3.58,0,.9-13.14,7.17-13.14,2.39,0,4.48,1.49,4.48,3.29Z"></path><path class="cls-1" d="M355.02,222.07c.9-4.18,2.39-7.76,3.88-10.45-6.27,6.57-13.14,16.13-18.22,23.59-.6.9-2.69.6-2.09,0,21.8-30.16,30.76-38.23,39.42-38.23,8.06,0,6.87,9.56.9,9.56-2.69,0-3.29-2.69-8.66-2.69-7.47,0-13.44,11.95-13.44,21.5,0,7.76,2.69,13.14,2.69,22.7,0,14.63-14.63,24.79-28.67,24.79-12.84,0-18.22-8.36-18.22-17.32,0-10.15,7.47-21.2,16.43-21.2,3.58,0,6.27,2.39,6.27,5.67,0,6.27-7.76,12.24-16.73,12.24,3.88-4.48,8.96-10.15,8.96-13.44,0-1.49-.6-2.09-1.79-2.09-4.48,0-11.65,8.96-11.65,19.11,0,7.77,4.48,15.23,15.83,15.23,21.8,0,21.2-30.16,25.09-48.98ZM352.33,268.66c14.63-5.67,32.25-31.36,32.25-31.36h2.09s-17.92,26.28-33.75,32.85c-.9.3-1.49-1.19-.6-1.49Z"></path><path class="cls-1" d="M392.35,199.37c2.09-1.49,5.38-2.39,9.26-2.39,5.08,0,11.65.9,11.65.9,9.26-11.65,17.62-22.7,22.7-30.76h.3s.6,1.79,5.67,1.79c6.57,0,12.54-7.17,16.43-11.05.6-.6,1.49-.3,1.19,0-1.49,1.49-18.82,20.01-37.03,41.51,0,0,5.97.6,12.84.6,3.58,0,6.27-.9,8.06-2.09,1.19-.6,1.79.3.9.9-2.39,1.79-5.38,2.69-9.86,2.69-6.27,0-13.14-.6-13.14-.6-21.2,24.79-43.31,53.16-43.31,63.02,0,2.99.9,5.67,6.57,5.67,16.13,0,39.42-32.25,39.42-32.25h2.09s-23.89,34.05-41.51,34.05c-6.87,0-9.86-3.88-9.86-10.15,0-13.14,19.71-38.83,37.33-61.82,0,0-5.67-.9-11.35-.9-2.99,0-5.67.9-7.76,2.09-1.19.6-1.79-.3-.6-1.19Z"></path><path class="cls-1" d="M487.92,237.3h2.09s-10.15,12.54-20.31,12.54c-3.88,0-5.97-1.79-7.17-4.78-8.96,14.04-23,26.28-33.75,26.28-7.76,0-11.95-7.76-11.95-14.63,0-22.7,31.66-45.7,51.07-45.7,2.09,0,2.09,1.79,1.19,1.79-16.13,0-45.7,34.94-45.7,51.37,0,3.29,1.49,5.38,5.97,5.38,9.56,0,23.59-12.84,32.55-27.18-.9-9.86,7.17-25.98,14.63-25.98,2.09,0,3.58,1.49,3.58,3.88,0,7.77-15.53,15.53-15.53,23.3,0,2.69,2.09,4.48,5.38,4.48,8.96,0,17.92-10.75,17.92-10.75Z"></path><path class="cls-1" d="M501.95,269.56c14.63,0,37.93-32.25,37.93-32.25h2.09s-24.49,34.05-40.02,34.05c-6.87,0-12.24-3.58-12.24-10.15,0-18.82,34.94-31.36,34.94-45.1,0-5.67-5.38-8.96-8.66-13.14-5.97,8.66-15.53,20.31-25.98,34.35h-2.09c11.05-14.93,20.91-26.88,26.88-35.84,0,0-1.2-2.39-1.2-4.78,0-13.44,10.15-17.62,10.15-10.45,0,3.58-2.39,8.66-6.87,15.23,3.58,5.38,11.95,9.86,11.95,18.82,0,17.02-33.15,31.06-33.15,43.9,0,3.58,2.09,5.38,6.27,5.38Z"></path><path class="cls-1" d="M577.21,237.3s-24.49,34.05-39.72,34.05c-5.38,0-8.66-2.99-8.66-9.86,0-17.02,30.16-49.58,30.16-49.58h.6s1.79,1.79,5.38,1.79c4.78,0,10.15-4.18,10.15-4.18.9-.3.6,0,.6,0,0,0-43.6,42.11-43.6,54.65,0,3.29,1.49,5.38,5.97,5.38,13.74,0,37.03-32.25,37.03-32.25h2.09ZM590.35,181.45c0,3.58-8.36,9.86-11.65,9.86-3.58,0,.9-13.14,7.17-13.14,2.39,0,4.48,1.49,4.48,3.29Z"></path><path class="cls-1" d="M619.92,211.02c5.38,0,7.17,2.69,7.17,6.57,0,2.69-1.19,6.27-1.19,6.27h.6c5.38-6.87,9.56-11.95,9.56-11.95h.3s1.79,1.79,5.38,1.79c5.08,0,9.86-4.18,9.86-4.18.3-.3.9-.3.6,0,0,0-40.32,41.22-40.32,54.36,0,3.58,1.79,5.67,5.67,5.67,13.14,0,36.73-32.25,36.73-32.25h2.09s-24.79,34.05-39.12,34.05c-5.08,0-8.66-3.58-8.66-10.15,0-4.18,1.49-8.96,3.58-14.04h-.6c-10.45,12.84-24.19,24.19-32.85,24.19-7.77,0-11.35-7.17-11.35-14.63,0-22.1,34.05-45.7,52.56-45.7ZM579,269.56c14.34,0,46.29-36.73,46.29-51.97,0-2.99-1.2-4.78-4.48-4.78-14.93,0-47.19,36.73-47.19,51.37,0,3.29,1.79,5.38,5.38,5.38Z"></path></g></svg>