<svg xmlns="http://www.w3.org/2000/svg" id="Capa_2" data-name="Capa 2" viewBox="0 0 336.84 261.04"><defs><style>      .cls-1 {        fill: #682329;      }      .cls-2 {        fill: #fff;      }    </style></defs><g id="Capa_1-2" data-name="Capa 1"><path class="cls-2" d="M336.5,94.13c-.07-1.04-.15-2.12-.21-3.16-.01-.23-.05-.46-.07-.69,0-.08-.02-.16-.03-.23-.04-.37-.1-.73-.17-1.09-.04-.23-.09-.47-.15-.7-.05-.2-.1-.4-.15-.6-.1-.38-.22-.76-.35-1.13-.01-.04-.03-.08-.04-.12-.62-1.71-1.52-3.35-2.75-4.82-3.01-3.61-3.32-3.97-38.91-17.49-.91-3.62-3.79-10.87-12.83-16.37-4.74-2.88-10.1-4.47-15.07-4.47-3.63,0-6.9.81-9.73,2.41-1.32.75-2.53,1.68-3.55,2.74-.08.08-.15.16-.23.24-1.85-.65-3.69-1.3-5.5-1.93-2.15-.75-4.32-1.51-6.5-2.28-1.68-1-3.57-1.7-5.6-2.03-3.08-1.15-6.15-2.33-9.14-3.59-11.81-5-28.93-11.07-40.3-15.1-4.2-1.49-8.54-3.03-9.69-3.5-7.07-2.87-12.59-4.68-17.47-6.28-4.82-1.58-9.37-3.08-15.38-5.52-3.87-1.57-8.72-3.02-13.91-4.56-3.34-1-6.8-2.03-9.47-2.96-1.69-.59-3.46-.88-5.25-.88-5.28,0-10.12,2.61-13.07,6.79-19.11,22-37.58,44.45-54.88,66.76-14.02,18.07-28.36,36.3-42.63,54.21-3.64,4.57-4.35,10.53-2.42,15.64.07.18.13.37.2.55.02.04.04.08.05.12.12.29.25.57.38.84.43,1.89.79,3.8,1.04,5.71.81,6.12,5.06,11.06,10.63,13,1.03.4,2.11.69,3.22.87.95.2,3.44,1.74,5.09,2.75.81.5,1.62,1,2.44,1.49,7.32,4.35,15.1,7.46,22.01,10.23l1.44.57c8.5,3.37,14.19,5.74,18.01,7.41,1.72,1.27,3.68,2.2,5.77,2.68.07.03.13.05.2.08.65.33,1.06.56,1.31.71,7.6,4.6,15.64,7.32,22.74,9.73,3.1,1.05,5.63,2.43,8.57,4.04,3.52,1.93,7.91,4.33,13.65,6.27.86.29,1.81.67,2.79,1.08,1.13.7,2.34,1.24,3.61,1.63,2.89,1.38,6.02,3.01,9.1,4.62,3.41,1.78,6.94,3.63,10.17,5.12.66.3,1.71.75,4.64,1.98l.57.24c9.75,4.1,16.65,7.08,21.5,9.24,1.9,1.48,4.1,2.49,6.47,2.95,2.25,1.07,3.47,1.71,4.07,2.09,2.56,1.7,5.95,3.13,12.25,5.75,2.62,1.08,7.45,3.09,8.87,3.88,3.53,2.27,8.4,3.94,16,6.47,2.16.72,5.9,1.96,7.78,2.71.07.05.14.11.21.16,2.63,1.74,5.69,2.67,8.84,2.67,5.33,0,10.27-2.63,13.24-7.02.05-.07.09-.13.14-.2,8.96-13.4,16.89-26.1,24.24-38.82,2.63-4.55,4.72-8.63,6.74-12.58,2.42-4.72,4.51-8.8,7.19-13.06,6.74-10.71,11.99-19.34,18.12-29.78,5.39-9.19,12.45-20.49,16.42-26.29,3.66-5.35,6.67-10.73,9.11-15.07,1.56-2.77,3.02-5.4,4.32-7.42,3.13-4.85,2.84-9.03,2.31-16.68Z"></path><g><path class="cls-1" d="M20.22,139.11c-.22,0-.42-.14-.48-.37-.07-.27.08-.54.35-.62,3.17-.89,6.32-1.95,9.37-3.17.26-.1.55.02.65.28.1.26-.02.55-.28.65-3.08,1.23-6.27,2.31-9.47,3.21-.04.01-.09.02-.13.02Z"></path><path class="cls-1" d="M26.44,142.74c-.2,0-.38-.12-.46-.31-.11-.25.01-.55.27-.65,2.07-.86,4.23-1.54,6.42-2.01.27-.06.54.11.59.38.06.27-.11.54-.38.59-2.13.46-4.23,1.12-6.24,1.96-.06.03-.13.04-.19.04Z"></path><path class="cls-1" d="M31.91,145.6c-.22,0-.42-.14-.48-.36-.08-.27.08-.54.34-.62,4.98-1.43,10.09-2.61,15.19-3.5.27-.05.53.13.58.41.05.27-.13.53-.41.58-5.06.89-10.14,2.06-15.09,3.48-.05.01-.09.02-.14.02Z"></path><path class="cls-1" d="M45.92,146.48c-.23,0-.43-.16-.49-.39-.06-.27.11-.54.37-.6l3.71-.86c.27-.06.54.11.6.37.06.27-.11.54-.37.6l-3.71.86s-.08.01-.11.01Z"></path><path class="cls-1" d="M61.64,154.76c-.19,0-.38-.11-.46-.3-.11-.25,0-.55.26-.66,1.14-.49,2.35-.79,3.58-.9.27-.03.52.18.54.46.02.27-.18.52-.46.54-1.13.1-2.23.37-3.28.82-.06.03-.13.04-.2.04Z"></path><path class="cls-1" d="M45.35,153.64c-.22,0-.43-.15-.48-.38-.07-.27.09-.54.36-.61,4.14-1.05,8.39-1.85,12.63-2.36.25-.03.52.16.56.44.03.27-.16.52-.44.56-4.19.51-8.4,1.29-12.5,2.34-.04.01-.08.02-.12.02Z"></path><g><path class="cls-1" d="M15.98,138.73c-.22,0-.44-.07-.62-.22-.43-.34-.5-.97-.16-1.41,14.32-17.97,28.71-36.26,42.75-54.36,17.42-22.46,36.03-45.06,55.29-67.2.36-.42,1-.46,1.41-.1.42.36.46.99.1,1.41-19.24,22.11-37.82,44.69-55.22,67.11-14.05,18.11-28.44,36.41-42.77,54.38-.2.25-.49.38-.78.38Z"></path><path class="cls-1" d="M233.06,233.92c-.2,0-.39-.06-.57-.18-.45-.31-.57-.94-.25-1.39,5.28-7.62,11.04-17.23,16.61-26.53,4.14-6.92,8.06-13.45,11.51-18.73,20.02-30.55,43.56-69.39,58.91-95.55.28-.48.89-.64,1.37-.36.48.28.64.89.36,1.37-15.37,26.18-38.93,65.06-58.96,95.64-3.43,5.24-7.34,11.76-11.47,18.66-5.58,9.32-11.36,18.96-16.68,26.64-.19.28-.51.43-.82.43Z"></path><path class="cls-1" d="M234.73,245.88c-.49,0-.92-.36-.99-.86-.26-1.9-.57-3.96-.87-6.01-.31-2.09-.62-4.17-.88-6.11-.08-.55.31-1.05.85-1.13.56-.08,1.05.31,1.13.85.27,1.93.57,4.01.88,6.09.31,2.06.61,4.12.87,6.03.08.55-.31,1.05-.85,1.13-.05,0-.09,0-.14,0Z"></path><path class="cls-1" d="M234.67,246.04c-.19,0-.38-.05-.55-.17-.46-.31-.58-.93-.28-1.39,8.79-13.15,16.55-25.57,23.72-37.99,2.42-4.19,4.41-8.07,6.33-11.83,2.5-4.87,4.86-9.47,7.94-14.37,6.63-10.54,11.81-19.03,17.85-29.33,5.57-9.48,12.9-21.21,17.05-27.28,3.23-4.72,5.92-9.52,8.29-13.75,1.66-2.97,3.24-5.78,4.81-8.23.1-.73-.11-3.84-.29-6.35-.08-1.11-.16-2.26-.22-3.37-.03-.55.39-1.02.94-1.06.54-.04,1.03.39,1.06.94.07,1.1.15,2.25.22,3.35.41,5.91.42,6.89.04,7.46-1.56,2.43-3.14,5.25-4.82,8.24-2.39,4.27-5.11,9.11-8.39,13.91-4.13,6.04-11.43,17.72-16.98,27.17-6.06,10.31-11.24,18.82-17.88,29.38-3.04,4.82-5.37,9.38-7.85,14.21-1.94,3.78-3.94,7.69-6.38,11.92-7.2,12.45-14.98,24.92-23.79,38.1-.19.29-.51.44-.83.44Z"></path><path class="cls-1" d="M18.59,149.53c-.49,0-.92-.37-.99-.87-.47-3.56-1.2-7.12-2.17-10.58-.15-.53.16-1.08.69-1.23.53-.15,1.08.16,1.23.69.99,3.55,1.74,7.2,2.23,10.85.07.55-.31,1.05-.86,1.12-.04,0-.09,0-.13,0Z"></path><path class="cls-1" d="M233.06,233.92c-.17,0-.34-.04-.5-.13-1.42-.82-7.25-2.83-11.8-4.29-2.49-.8-5.41-1.92-8.24-3.01l-2.14-.82c-5.84-2.23-13.36-5.79-19.41-8.66l-1.68-.8c-9.79-4.64-16.13-7.1-27.13-10.54-3.71-1.16-6.01-2.32-9.83-4.25-1.07-.54-2.26-1.14-3.63-1.82-.09-.05-.29-.13-.6-.27-1.71-.75-6.91-3.01-15.87-7.82-8.12-3.65-13.88-5.94-23.68-9.67-5.54-2.11-10.9-4.5-16.09-6.82-5.37-2.4-10.93-4.88-16.66-7.03-11.48-4.3-22.78-9.43-33.57-15.24-2.66-1.43-5.36-3.04-7.98-4.6-5.96-3.55-12.12-7.22-18.52-9.27-.53-.17-.82-.73-.65-1.26.17-.53.73-.81,1.26-.65,6.62,2.12,12.88,5.85,18.93,9.46,2.59,1.54,5.28,3.14,7.9,4.56,10.71,5.77,21.92,10.86,33.32,15.13,5.79,2.17,11.37,4.66,16.77,7.08,5.16,2.3,10.5,4.69,15.98,6.77,9.84,3.74,15.62,6.04,23.86,9.74,8.94,4.8,14.09,7.04,15.78,7.78.35.15.58.25.69.31,1.38.68,2.57,1.28,3.65,1.83,3.72,1.88,5.97,3.02,9.52,4.13,11.1,3.47,17.5,5.95,27.39,10.64l1.68.8c6.01,2.85,13.49,6.4,19.26,8.6l2.15.82c2.8,1.08,5.69,2.19,8.13,2.97,2.36.76,10.23,3.33,12.19,4.46.48.28.64.89.37,1.37-.19.32-.52.5-.87.5Z"></path><path class="cls-1" d="M234.73,245.96c-.23,0-.45-.08-.64-.23-1.21-1.02-6.69-2.84-11.52-4.45-5.45-1.81-10.59-3.52-12.67-4.89-1.84-1.21-6.81-3.27-11.18-5.08-4.41-1.83-8.22-3.41-9.69-4.38-4.49-2.98-25.54-11.84-34.53-15.62-2.55-1.07-4.23-1.78-4.72-2.01-2.88-1.33-6.11-3.02-9.52-4.8-6.08-3.18-12.37-6.46-17.64-8.25-4.5-1.53-7.94-3.41-11.27-5.23-3.25-1.78-6.61-3.62-10.95-5.09-6.68-2.26-13.59-4.6-19.78-8.35-5.21-3.15-22.02-9.81-27.54-12l-1.42-.56c-6.67-2.67-13.56-5.42-19.88-9.18-.74-.44-1.48-.89-2.21-1.35-3.34-2.07-6.8-4.2-10.6-4.81-.55-.09-.92-.6-.83-1.14.09-.54.6-.92,1.14-.83,4.19.67,7.82,2.91,11.33,5.08.73.45,1.45.9,2.18,1.33,6.19,3.68,13,6.4,19.6,9.04l1.42.56c6.15,2.44,22.5,8.91,27.84,12.15,6.01,3.64,12.81,5.94,19.39,8.17,4.5,1.53,7.94,3.41,11.27,5.23,3.25,1.78,6.61,3.62,10.95,5.09,5.41,1.83,11.77,5.16,17.92,8.37,3.39,1.77,6.6,3.45,9.44,4.76.46.21,2.22.95,4.66,1.98,9.81,4.12,30.21,12.71,34.86,15.79,1.31.87,5.4,2.56,9.35,4.2,4.68,1.94,9.52,3.95,11.52,5.26,1.86,1.22,7.12,2.97,12.2,4.66,6.64,2.21,10.77,3.63,12.17,4.81.42.35.48.99.12,1.41-.2.24-.48.36-.77.36Z"></path><path class="cls-1" d="M320.3,92.83c-.23,0-.45-.08-.63-.22-1.43-.83-19.5-7.87-45.14-17.6-.52-.2-.78-.77-.58-1.29.2-.52.77-.78,1.29-.58,45.01,17.06,45.58,17.75,45.83,18.05.35.42.3,1.05-.12,1.41-.19.16-.42.23-.64.23Z"></path><path class="cls-1" d="M258.51,68.98c-.12,0-.24-.02-.35-.06-.55-.21-1.09-.41-1.6-.61l-.31-.12c-5.04-1.92-10.15-3.7-15.09-5.42-7.31-2.55-14.87-5.18-22.27-8.31-11.34-4.8-28.18-10.77-39.32-14.72-5.19-1.84-8.93-3.17-10.44-3.78-6.51-2.64-11.52-4.29-16.37-5.88-4.88-1.6-9.93-3.26-16.49-5.93-3.1-1.26-7.78-2.65-12.3-4-3.55-1.06-7.23-2.15-10.26-3.21-.52-.18-.8-.75-.61-1.27.18-.52.75-.79,1.27-.61,2.99,1.05,6.64,2.13,10.17,3.18,4.78,1.42,9.29,2.77,12.48,4.06,6.5,2.64,11.52,4.29,16.37,5.88,4.88,1.6,9.93,3.26,16.5,5.93,1.46.59,5.39,1.99,10.36,3.75,11.16,3.96,28.03,9.94,39.43,14.76,7.34,3.11,14.87,5.73,22.15,8.26,4.96,1.73,10.08,3.51,15.15,5.45l.31.12c.51.19,1.03.4,1.58.6.52.19.78.77.59,1.29-.15.4-.53.65-.94.65Z"></path></g><path class="cls-1" d="M195.61,189.06c-1.23,0-2.04-1.25-2.89-2.58-.18-.28-.37-.57-.56-.85-.52-.76-.07-1.21,1.27-2.54.02-.02.04-.04.05-.05-1.83-1.94-2.87-3.15-3.54-4.08-.25-.35-.25-.82,0-1.17.14-.19.33-.48.58-.85,1.49-2.24,4.98-7.47,10.33-12.31.34-.31.85-.34,1.23-.09,2.2,1.49,4.65,3.15,6.56,5.3.05.03.11.07.16.11,4.06,3.62,3.87,4.06,3.6,4.66-.34.75-2.43,2.6-8.55,7.76-.94.79-1.83,1.54-2.6,2.2l-4.98,4.24c-.17.15-.39.23-.62.24-.01,0-.03,0-.04,0ZM194.23,185.14c.06.09.12.18.17.27.31.48.74,1.16,1.06,1.49l4.5-3.83c.77-.66,1.67-1.41,2.61-2.2,2.64-2.23,6.47-5.45,7.7-6.7-.48-.54-1.41-1.45-2.37-2.32-.16-.06-.32-.16-.44-.31-1.6-1.93-3.72-3.45-5.83-4.88-4.84,4.52-8.04,9.31-9.44,11.4-.07.11-.14.21-.2.3.72.91,1.84,2.16,3.6,4,.7.73.09,1.33-.74,2.16-.17.16-.41.41-.61.62Z"></path><path class="cls-1" d="M195.07,183.96c-.25,0-.51-.1-.7-.29-.39-.39-.4-1.02-.01-1.41.86-.87,2.26-2.19,3.88-3.72,3.19-3,7.15-6.73,8.99-8.95.35-.42.98-.48,1.41-.13.43.35.48.98.13,1.41-1.92,2.32-5.93,6.1-9.16,9.13-1.61,1.51-3,2.82-3.83,3.66-.2.2-.45.3-.71.3Z"></path><path class="cls-1" d="M202.95,166.75c-.19,0-.37-.05-.54-.16-.46-.3-.6-.92-.3-1.38,9.13-14.19,18.2-28.81,28.52-46.01,1.54-2.57,3.33-4.97,5.07-7.3.57-.77,1.14-1.54,1.71-2.31,1.52-2.09,3.06-4.21,4.51-6.33,3.36-4.93,17.05-28.88,19.55-33.99.17-.34.52-.56.9-.56h0c3.43,0,5.82,1.42,7.08,4.21.23.5,0,1.1-.5,1.32-.5.23-1.1,0-1.32-.5-.86-1.9-2.35-2.87-4.65-3.02-3.2,6.3-16.04,28.73-19.4,33.66-1.46,2.15-3.02,4.28-4.52,6.34-.6.82-1.17,1.6-1.75,2.37-1.7,2.29-3.47,4.65-4.96,7.14-10.33,17.22-19.4,31.85-28.55,46.06-.19.3-.51.46-.84.46Z"></path><path class="cls-1" d="M208.15,171.51c-.18,0-.37-.05-.54-.16-.46-.3-.6-.92-.3-1.38.82-1.28,1.68-2.59,2.54-3.92,3.59-5.51,7.3-11.2,10.02-16.7,3.62-7.35,8.5-14.05,13.22-20.54,2.68-3.68,5.45-7.49,7.95-11.36.21-.33,21.79-35.28,26.55-44.48.25-.49.85-.68,1.35-.43.49.25.68.86.43,1.35-4.8,9.26-26.42,44.27-26.63,44.62-2.54,3.94-5.33,7.77-8.02,11.47-4.67,6.42-9.49,13.05-13.04,20.25-2.77,5.61-6.51,11.36-10.14,16.91-.87,1.33-1.72,2.63-2.54,3.91-.19.3-.51.46-.84.46Z"></path><path class="cls-1" d="M274.79,75.43c-.22,0-.43-.07-.62-.21-.43-.34-.51-.97-.17-1.4,1.08-1.37,1.84-2.6,2.72-4.04l.41-.66c.02-.11.06-.24.12-.36.03-.63-.7-3.74-5.25-6.51-3.75-2.28-6.74-2.12-7.49-1.84-1.32,1.37-2.03,2.42-3,3.85-.37.55-.77,1.14-1.26,1.82-.32.45-.94.56-1.39.24-.45-.32-.56-.94-.24-1.39.47-.67.87-1.25,1.23-1.79,1.02-1.5,1.82-2.69,3.35-4.25.07-.07.14-.12.22-.17,1.42-.8,5.34-.77,9.61,1.83,4.91,2.98,5.92,6.4,6.12,7.38.14.69.11,1.24-.07,1.64-.03.41-.18.69-.43.88l-.24.38c-.92,1.49-1.71,2.77-2.85,4.22-.2.25-.49.38-.79.38Z"></path><path class="cls-1" d="M274.56,75.44c-.17,0-.35-.05-.51-.14-.47-.28-.63-.9-.34-1.37.22-.4.06-3.39-5.99-6.92-2.37-1.38-6.25-1.75-7.29-1.01-.45.32-1.08.21-1.39-.24-.32-.45-.21-1.07.24-1.39,1.97-1.4,6.79-.65,9.46.91,5.15,3,6.52,5.8,6.88,7.21.25.97.18,1.85-.19,2.47-.19.31-.52.49-.86.49Z"></path><path class="cls-1" d="M270.13,77.96c-1.02,0-2.16-.15-3.41-.44-.54-.13-.87-.66-.75-1.2s.66-.87,1.2-.75c2.02.47,5.53.93,6.42-1.34.2-.51.78-.77,1.3-.57.51.2.77.78.57,1.29-.77,1.98-2.62,3-5.33,3Z"></path><path class="cls-1" d="M260.28,74.15c-.28,0-.55-.12-.75-.34-.91-1.03-1.52-2.12-1.81-3.24-.52-1.92-.18-4.75,1.47-6.21.41-.36,1.05-.33,1.41.09.37.41.33,1.05-.09,1.41-.96.85-1.22,2.85-.86,4.19.22.82.68,1.64,1.38,2.44.37.41.32,1.05-.09,1.41-.19.17-.43.25-.66.25Z"></path><path class="cls-1" d="M259.99,110.79c-.54,0-.99-.43-1-.98-.01-.55.43-1.01.98-1.02,3.3-.07,6.11-.83,8.33-2.24,1.47-.93,2.83-2.24,4.02-3.9,1.08-1.51,1.71-2.88,1.9-4.17.31-2.04-.39-4.32-1.93-6.26-1.56-1.95-3.06-3.18-5.19-4.25-.49-.25-.69-.85-.44-1.34.25-.49.85-.69,1.34-.44,2.37,1.19,4.12,2.63,5.85,4.79,1.89,2.38,2.74,5.22,2.34,7.81-.25,1.61-.98,3.26-2.25,5.04-1.35,1.87-2.88,3.36-4.57,4.42-2.53,1.61-5.68,2.46-9.36,2.55,0,0-.02,0-.02,0Z"></path><path class="cls-1" d="M267.51,88.07c-.15,0-.3-.03-.44-.1-1.66-.82-3.48-1.38-5.41-1.66-.55-.08-.92-.59-.84-1.14.08-.55.59-.93,1.14-.84,2.14.32,4.16.94,6,1.85.5.24.7.84.45,1.34-.17.35-.53.56-.9.56Z"></path><path class="cls-1" d="M244.25,102.45c-.36,0-.71-.2-.89-.54-.45-.85-.75-1.71-.91-2.55-.44-2.4-.05-4.72,1.19-7.12.61-1.17,1.74-2.57,3.37-4.15.87-.84,1.99-1.57,3.44-2.22.83-.37,1.69-.69,2.55-.94.53-.16,1.09.15,1.24.68s-.15,1.09-.68,1.24c-.78.23-1.55.51-2.3.85-1.23.55-2.17,1.15-2.86,1.83-1.45,1.42-2.48,2.68-2.99,3.64-1.03,1.99-1.36,3.89-1,5.83.12.65.36,1.31.71,1.99.26.49.07,1.09-.42,1.35-.15.08-.31.11-.46.11Z"></path><path class="cls-1" d="M259.81,113.95c-.74,0-1.48-.03-2.23-.1-.55-.05-.95-.54-.9-1.09.05-.55.55-.95,1.09-.9,3.58.33,7.06-.21,10.07-1.58,1.11-.51,1.93-1.02,2.58-1.6l.4-.36c.75-.67,1.53-1.36,1.97-2.14.37-.67.92-1.78,1.22-2.59.62-1.64.55-3.38.47-5.23-.02-.44-.04-.89-.05-1.34-.01-.55.43-1.01.98-1.02h.02c.54,0,.99.43,1,.98,0,.44.03.87.04,1.3.08,1.96.16,3.99-.6,6.02-.36.94-.95,2.14-1.35,2.86-.61,1.06-1.55,1.91-2.38,2.65l-.38.34c-.81.73-1.79,1.35-3.09,1.94-2.69,1.23-5.72,1.86-8.86,1.86Z"></path><path class="cls-1" d="M243.04,104.36c-.46,0-.87-.31-.97-.78-.18-.81-.3-1.7-.37-2.73-.12-1.92-.04-3.49.26-4.94.11-.54.64-.89,1.18-.77.54.11.89.64.77,1.18-.26,1.27-.34,2.67-.22,4.4.06.92.17,1.71.33,2.42.12.54-.22,1.07-.75,1.2-.07.02-.15.02-.22.02Z"></path><g><path class="cls-1" d="M139.85,93.53c-.74,0-1.53-.18-1.96-.82-.07-.1-.12-.22-.14-.34-.37-1.66.78-2.99,2.1-3.31.17-.04.33-.04.49,0,.08-.03.17-.05.26-.07.96-.21,1.94.15,2.43.9.35.53.41,1.2.17,1.83-.28.74-.91,1.34-1.66,1.55-.23.07-.93.25-1.68.25ZM141.14,90.94s-.08,0-.12.01c-.31.07-.64.34-.86.54,0,0-.02.02-.03.03.26-.02.55-.07.85-.16.2-.06.36-.3.35-.4-.01,0-.09-.03-.2-.03Z"></path><path class="cls-1" d="M139.16,97.87c-.52,0-.96-.41-1-.94-.05-.8-.13-1.53-.23-2.3-.09-.76-.18-1.55-.24-2.41-.03-.55.39-1.03.94-1.06.55-.04,1.03.39,1.06.94.05.8.13,1.53.23,2.3.09.76.18,1.55.24,2.41.03.55-.39,1.03-.94,1.06-.02,0-.04,0-.06,0Z"></path><path class="cls-1" d="M143.16,96.97c-.53,0-.97-.41-1-.94-.09-1.62-.41-3.83-.67-5.1-.11-.54.24-1.07.78-1.18.54-.11,1.07.24,1.18.78.28,1.37.61,3.65.71,5.38.03.55-.39,1.02-.94,1.06-.02,0-.04,0-.06,0Z"></path><path class="cls-1" d="M141.02,98.68c-.88,0-1.86-.26-2.43-.91-.36-.42-.32-1.05.09-1.41.42-.36,1.05-.32,1.41.1.11.13.7.3,1.29.2.31-.05.69-.2.76-.58.1-.54.62-.91,1.16-.81.54.1.91.62.81,1.16-.2,1.15-1.09,1.97-2.38,2.2-.22.04-.47.06-.72.06Z"></path></g><path class="cls-1" d="M209.57,192.04c-.25,0-.51-.1-.7-.29-1.14-1.11-2.18-2.34-3.09-3.64-.22-.31-.44-.64-.66-.96-.97-1.44-1.88-2.8-3.23-3.55-.48-.27-.66-.88-.39-1.36.27-.48.87-.66,1.36-.39,1.76.98,2.86,2.61,3.92,4.18.21.31.42.62.63.93.68.97,1.43,1.89,2.25,2.75l.14-.11c-.19-.38-.48-.75-.75-1.1l-3.32-4.26c-.76-.97-1.55-1.98-2.4-2.88-.38-.4-.36-1.03.04-1.41.4-.38,1.04-.36,1.41.04.91.97,1.73,2.01,2.52,3.02l3.32,4.26c.41.52.91,1.16,1.18,1.95.08.23.17.57.06.97-.13.46-.46.71-.62.83l-1.06.82c-.18.14-.4.21-.61.21Z"></path><path class="cls-1" d="M239.08,134.12c-.46,0-.93-.05-1.37-.17-1.24-.32-2.46-1.47-3.11-2.92-.64-1.42-.63-2.89,0-4.14.25-.49.86-.69,1.35-.43.49.25.69.85.43,1.35-.48.94-.18,1.91.04,2.41.45,1,1.24,1.66,1.79,1.8,1.27.33,3.09-.14,4.43-1.14,1.32-.98,2.34-2.38,3.33-3.73l10.35-14.13c1.49-2.04,3.07-4.08,4.6-6.07.9-1.17,1.79-2.33,2.68-3.5,1.14-1.51,2.01-2.97,2.64-4.46.78-1.84.53-3.47-.72-4.58-1.41-1.26-3.7-1.46-5.44-.47-2.26,1.28-3.43,2.57-5.09,4.56-.35.42-.99.48-1.41.12-.42-.35-.48-.98-.12-1.41,1.75-2.1,3.1-3.58,5.64-5.02,2.51-1.42,5.7-1.12,7.76.72,1.88,1.68,2.34,4.24,1.23,6.85-.7,1.65-1.65,3.25-2.89,4.89-.88,1.17-1.78,2.34-2.69,3.51-1.52,1.97-3.09,4.01-4.57,6.03l-10.35,14.13c-1.03,1.4-2.19,3-3.75,4.16-1.2.89-3,1.64-4.75,1.64Z"></path><path class="cls-1" d="M133.52,164.24c-.98,0-1.97-.02-2.97-.05-35.17-1.2-50.5-15.87-55.54-20.7-10.67-10.21-12.5-22.38-14.12-33.12-3.09-20.5,8.58-35.97,15.81-43.37.19-.19.31-.32.37-.38,22.62-27.09,64.74-30.96,65.15-30.99,6.12-.39,12.41.08,18.87.64,3.69.32,21.96,4.29,27.96,6.9,6.13,2.67,15.32,10.34,19.24,13.61.59.49,1.16.96,1.37,1.13.12.06.23.14.32.24,5.92,6.81,10.15,13.93,12.55,21.17,2.9,8.72,2.34,18.69,1.36,25.51-1.88,13.07-12.73,25.22-16.01,28.63-2.82,2.94-10.19,9.22-14.59,12.45-.26.19-27.08,18.32-59.77,18.32ZM146.97,37.49c-1.55,0-3.09.04-4.62.14-8.59.55-44.58,7.31-63.75,30.27h0c-.07.08-.23.25-.47.5-6.97,7.13-18.22,22.04-15.26,41.68,1.57,10.42,3.35,22.23,13.53,31.97,19.82,18.97,44.81,19.82,54.22,20.14,29.11,1,56.32-14.1,61.48-17.89,4.34-3.18,11.57-9.35,14.33-12.22,3.17-3.3,13.67-15.05,15.47-27.53.95-6.61,1.5-16.24-1.27-24.59-2.31-6.95-6.38-13.82-12.09-20.41-.35-.25-.83-.64-1.53-1.23-3.53-2.94-12.9-10.75-18.76-13.31-5.71-2.49-23.82-6.44-27.33-6.74-4.75-.41-9.41-.78-13.95-.78Z"></path><path class="cls-1" d="M130.66,170.59c-.74,0-1.47,0-2.21-.02-29.53-.57-45.31-12.73-56.85-24.55-10.23-10.48-13.88-31.22-11.49-45.21.09-.54.61-.91,1.15-.82.54.09.91.61.82,1.15-2.93,17.19,3.26,35.61,10.95,43.48,11.26,11.53,26.65,23.39,55.46,23.95,19.91.39,40.3-4.53,55.85-13.48,11.96-6.88,27.93-19.53,33.62-32.5,5.24-11.97,6.32-22.52,3.84-37.63-.09-.55.28-1.06.82-1.15.55-.08,1.06.28,1.15.82,2.51,15.32,1.36,26.55-3.98,38.75-5.88,13.42-22.23,26.4-34.45,33.44-15.28,8.79-35.09,13.77-54.67,13.77Z"></path><path class="cls-1" d="M261.06,122.18h-.02c-.55-.01-.99-.47-.98-1.02l.15-7.87c.01-.55.46-.98,1-.98h.02c.55.01.99.47.98,1.02l-.15,7.87c-.01.55-.46.98-1,.98Z"></path><path class="cls-1" d="M261.31,129.18c-.53,0-1.07-.04-1.59-.12-.47-.07-.83-.46-.85-.94-.11-2.26-.24-4.52-.38-6.78-.02-.34.13-.67.41-.87.28-.2.64-.25.95-.12.69.27,1.3.34,2.04.36.29-.3.73-.42,1.13-.29.58.19.89.8.89,1.3v6.33c-.01.49-.37.91-.85.99-.58.09-1.16.14-1.74.14ZM260.81,127.17c.36.02.72.02,1.08,0v-4.44c-.45,0-.89-.04-1.33-.11.09,1.52.17,3.04.25,4.56Z"></path><path class="cls-1" d="M70.11,92.65s-.09,0-.14-.02c-.26-.08-.42-.36-.34-.62,7.48-25.3,27.55-37.65,43.06-43.55,17.5-6.66,37.8-8.12,60.33-4.34.19.03,5.18.73,12.81,4.07.25.11.37.41.26.66-.11.25-.41.37-.66.26-7.49-3.28-12.51-3.99-12.56-4-22.37-3.75-42.49-2.3-59.82,4.29-15.3,5.82-35.09,17.99-42.46,42.9-.06.22-.26.36-.48.36Z"></path><path class="cls-1" d="M130.56,154.82c-12.37,0-27.5-2.82-38.4-11.07-.22-.17-.26-.48-.1-.7.17-.22.48-.26.7-.1,13.38,10.13,33.32,11.93,46.33,10.38,13.83-1.64,23.87-3.2,36.73-9.75,21.47-10.94,34.39-25.72,38.39-43.95.06-.27.32-.44.6-.38.27.06.44.33.38.6-4.07,18.53-17.16,33.55-38.91,44.63-13.01,6.63-23.12,8.21-37.07,9.86-2.64.31-5.56.49-8.66.49Z"></path><path class="cls-1" d="M74.62,100.46s-.09,0-.13-.02c-.27-.07-.42-.35-.35-.62,8.4-30.1,26.37-40.3,41.1-45.82,15.31-5.74,33.07-7.28,52.8-4.57.27.04.46.29.43.56-.04.27-.29.47-.56.43-19.56-2.68-37.16-1.16-52.31,4.52-14.5,5.44-32.21,15.49-40.49,45.15-.06.22-.26.37-.48.37Z"></path><path class="cls-1" d="M86.32,90.44c-.08,0-.16-.02-.23-.06-.25-.13-.34-.43-.21-.67,9.3-18.04,17.62-23.64,32.74-29.37,13.56-5.13,26.33-6.72,41.41-5.16.27.03.47.27.45.55-.03.27-.28.46-.55.45-14.92-1.55-27.55.02-40.96,5.1-12.99,4.92-22.25,9.59-32.2,28.89-.09.17-.26.27-.44.27Z"></path><path class="cls-1" d="M91.61,96.05s-.1,0-.15-.02c-.26-.08-.41-.36-.33-.63.86-2.78,1.71-4.41,1.74-4.48,7.87-14.88,18.16-19.62,29.81-23.89,10.54-3.86,22.69-5.43,37.12-4.8.1,0,2.65.11,8.31,1.92.26.08.41.37.32.63-.08.26-.37.41-.63.32-5.5-1.76-8.02-1.87-8.05-1.88-14.31-.62-26.32.93-36.74,4.74-11.87,4.35-21.56,8.83-29.27,23.42,0,.01-.84,1.62-1.67,4.31-.07.21-.26.35-.48.35Z"></path><path class="cls-1" d="M132.32,145.24c-10.12,0-19.5-1.7-27.74-5.07-.26-.1-.38-.4-.27-.65.1-.26.4-.38.65-.27,14.06,5.75,31.46,6.55,50.32,2.31,6.53-1.47,21.56-7.79,28.94-13.52,12.72-9.87,19.82-18.29,23.28-36.9.05-.27.31-.45.58-.4.27.05.45.31.4.58-3.52,18.93-10.73,27.48-23.65,37.51-7.49,5.81-22.72,12.22-29.34,13.71-8.03,1.81-15.81,2.7-23.18,2.7Z"></path><path class="cls-1" d="M132.19,137.21c-9.8,0-20.5-1.49-30.21-5.5-.25-.11-.38-.4-.27-.65.11-.25.4-.38.65-.27,17.63,7.3,38.64,6.14,51.27,2.92,19.77-5.04,34.68-16.27,43.11-32.47.13-.25.43-.34.67-.21.25.13.34.43.21.67-8.56,16.47-23.69,27.87-43.75,32.98-5.84,1.49-13.45,2.54-21.7,2.54Z"></path><path class="cls-1" d="M132.74,129.27c-5.91,0-10.7-.74-13.69-1.59-.27-.08-.42-.35-.34-.62.08-.27.35-.42.62-.34,7.78,2.23,27.86,3.62,48.11-7.02,16.02-8.41,21.19-16.86,24.72-28.61.08-.26.36-.41.62-.33.26.08.41.36.33.62-3.51,11.7-8.96,20.67-25.21,29.21-12.76,6.7-25.46,8.69-35.16,8.69Z"></path><path class="cls-1" d="M239.3,130.49c-.49,0-.97-.04-1.45-.12-.21-.03-.82-.14-1.17-.7-.18-.29-.21-.57-.22-.73l-.38-3.68c-.06-.55.34-1.04.89-1.1.54-.06,1.04.34,1.1.89l.35,3.37c.4.05.78.07,1.15.06.5-.02,1.17-.12,1.5-.49.16-.18.28-.49.4-.79.21-.51.79-.76,1.3-.55.51.21.76.79.55,1.3-.16.41-.37.92-.75,1.36-.64.73-1.62,1.13-2.93,1.18-.11,0-.22,0-.33,0Z"></path><path class="cls-1" d="M242.55,128.48c-.53,0-.97-.41-1-.95-.11-2.21-.31-4.45-.6-6.66-.06-.44-.11-.79-.25-1.05-.27-.48-.11-1.09.37-1.36.48-.27,1.09-.11,1.36.37.35.62.44,1.29.5,1.78.29,2.26.5,4.55.61,6.81.03.55-.4,1.02-.95,1.05-.02,0-.03,0-.05,0Z"></path><path class="cls-1" d="M250.07,112.15c-.48,0-.89-.34-.98-.81-.33-1.71-.59-3.46-.77-5.21-.06-.55.34-1.04.89-1.1.56-.05,1.04.34,1.1.89.15,1.39.35,2.79.59,4.17l.65-.04c.51-.03,1.03-.07,1.39-.27.18-.1.39-.49.36-.69-.38-3-.64-6.06-.78-9.09-.03-.55.4-1.02.95-1.04.56-.02,1.02.4,1.04.95.14,2.97.39,5.98.77,8.93.13,1.02-.48,2.21-1.4,2.7-.74.4-1.56.46-2.21.5l-1.54.1s-.04,0-.07,0Z"></path><path class="cls-1" d="M233.51,241.71c-.21,0-.4-.13-.47-.34-.09-.26.05-.55.31-.64.19-.06.35-.21.45-.39-.82.16-1.69.15-2.5-.05-.15-.04-.28-.14-.34-.28-.06-.14-.06-.31.02-.44l.09-.16c-.68.34-1.4.6-2.14.75-.18.04-.36-.03-.48-.16-.12-.14-.15-.33-.09-.5.05-.14.11-.27.17-.4-.22.12-.45.24-.68.34-.21.1-.47.03-.61-.15-.14-.19-.13-.45.02-.63l.74-.87c-1.21.74-2.47,1.41-3.76,2-.21.1-.46.04-.61-.15-.14-.19-.14-.44.01-.62.26-.31.52-.61.79-.91-.41.13-.82.23-1.23.32-.22.05-.44-.06-.54-.26-.1-.2-.06-.44.1-.59l1.14-1.1c-.98.54-1.98,1.04-3,1.5-.21.1-.46.03-.6-.16-.14-.19-.13-.45.02-.62.08-.09.15-.18.23-.26-.07-.03-.13-.08-.17-.13-.16-.19-.16-.48.02-.66l1.13-1.22c-1.38.83-2.81,1.57-4.28,2.22-.22.09-.46.03-.6-.16-.14-.19-.13-.45.02-.62.55-.64,1.13-1.25,1.75-1.82-1.4.47-2.84.83-4.29,1.06-.23.04-.46-.09-.55-.32-.08-.22,0-.47.2-.6l1.57-.99c-.85.29-1.71.55-2.58.77-.24.06-.48-.06-.58-.27-.1-.22-.03-.48.17-.62l2.38-1.67c-1.56.53-3.16.91-4.78,1.12-.24.03-.46-.11-.54-.33-.05-.13-.03-.27.03-.39-1.12.38-2.26.71-3.41.99-.23.05-.46-.06-.57-.27-.1-.21-.04-.47.14-.61,1.34-1.06,2.74-2.06,4.17-3l-4.99,1.71c-.22.07-.46-.01-.58-.21-.12-.2-.1-.45.06-.62.6-.61,1.22-1.2,1.87-1.75-.97.34-1.96.65-2.96.91-.21.05-.43-.03-.54-.21-.12-.18-.11-.42.03-.58.17-.21.34-.42.52-.62-1.52.57-3.08,1.03-4.67,1.37-.23.05-.46-.07-.56-.28-.1-.21-.03-.47.16-.61l2.69-2c-1.75.8-3.52,1.54-5.32,2.19-.23.09-.49-.01-.61-.23-.12-.22-.06-.49.13-.64l1.35-1.04c-.89.34-1.79.64-2.71.87-.23.06-.47-.05-.57-.27-.1-.21-.04-.47.14-.62l1.86-1.43c-.54.22-1.08.43-1.63.63-.21.08-.45,0-.58-.19-.13-.19-.11-.44.04-.61.59-.66,1.21-1.3,1.86-1.89l-2.83,1.38c-.2.1-.45.05-.6-.12-.15-.17-.16-.42-.04-.61.2-.3.41-.59.63-.87-.9.4-1.81.77-2.73,1.11-.23.08-.49-.01-.61-.23-.1-.18-.07-.39.05-.55l-.76.42c-.23.13-.53.05-.67-.18-.14-.23-.07-.53.15-.68,1.43-.94,2.8-1.99,4.07-3.13l-5.73,2.28c-.21.08-.44.02-.57-.15-.14-.17-.15-.41-.02-.59l1.65-2.45-6.79,3.66c-.21.11-.48.06-.63-.13-.15-.19-.14-.46.02-.64l2.71-3.03c-.99.55-2.01,1.03-3.06,1.45-.21.08-.44.02-.58-.16-.14-.18-.14-.42-.01-.6.08-.11.16-.22.24-.33-.58.34-1.17.65-1.78.93-.22.1-.48.04-.62-.16-.14-.2-.12-.47.05-.64l1.26-1.29s0-.01-.01-.02c-.14-.2-.11-.48.06-.65l1.07-1.03c-.15.1-.3.19-.45.29-1.37.88-2.8,1.79-4.33,2.64-.2.11-.45.07-.61-.1-.16-.17-.18-.42-.05-.62.54-.82,1.16-1.6,1.84-2.31-.66.22-1.34.39-2.02.52-.21.04-.43-.06-.53-.26-.1-.19-.07-.43.08-.58.12-.12.24-.24.36-.36-.91.39-1.84.72-2.78,1.01-.19.06-.4,0-.53-.16-.13-.15-.15-.37-.06-.55.24-.47.52-.93.82-1.37-.4.15-.81.28-1.21.4-.19.06-.4,0-.53-.17-.13-.16-.15-.37-.05-.55.37-.7.81-1.36,1.29-1.98-1.3.58-2.64,1.05-4.03,1.4-.22.06-.45-.04-.56-.24-.11-.19-.07-.43.08-.59-.64.28-1.29.54-1.94.76-.22.08-.47-.01-.59-.21-.12-.2-.08-.46.09-.62l3.01-2.8-4.08,2.06c-.2.1-.44.06-.6-.11-.15-.17-.17-.41-.05-.6.12-.18.24-.36.36-.54-.87.43-1.76.8-2.68,1.1-.2.07-.42,0-.55-.17-.13-.17-.14-.39-.03-.57.34-.54.71-1.06,1.1-1.57l-3.15,1.95c-.21.13-.47.09-.64-.09-.16-.18-.17-.45-.02-.64.62-.79,1.28-1.55,1.97-2.28-.32.12-.65.23-.98.32-.22.06-.46-.04-.57-.24-.11-.2-.07-.46.1-.61.64-.58,1.26-1.19,1.85-1.82l-4.35,2.59c-.22.13-.51.07-.66-.13-.15-.21-.12-.5.07-.67,1.33-1.19,2.46-2.62,3.31-4.19l-5.13,2.52c-.19.1-.42.06-.57-.09-.15-.15-.19-.38-.1-.57l.68-1.39-3.27,1.96c-.2.12-.46.08-.62-.09-.16-.17-.18-.43-.04-.63l.97-1.4-1.88,1.09c-.17.1-.38.09-.54-.03-.16-.12-.24-.32-.19-.51.03-.12.06-.24.09-.36-.36.17-.73.32-1.11.44-.14.05-.3.02-.42-.05-.4.2-.81.36-1.24.48-.2.06-.41-.02-.54-.19-.09-.12-.12-.27-.08-.42-.1.04-.21.07-.31.1-.21.06-.45-.02-.57-.21-.12-.19-.1-.44.05-.6l3.72-4.1c-1.03.34-1.95.61-2.85.87-1.4.41-2.84.83-4.66,1.52-.23.09-.49,0-.61-.22-.12-.22-.07-.49.13-.64l1.54-1.19c-1.29.25-2.59.41-3.91.47-.19.02-.39-.11-.47-.29-.08-.18-.05-.4.09-.55l.66-.7c-1.02.43-2.09.77-3.18,1.01-.2.04-.4-.04-.52-.2-.12-.16-.12-.38-.02-.55.26-.41.54-.8.85-1.17-1.12.42-2.28.74-3.44.97-.21.04-.43-.06-.53-.25-.11-.19-.08-.42.07-.58l4.16-4.5-7.87,2.86c-.21.08-.44,0-.57-.17-.13-.18-.13-.42,0-.6.67-.87,1.39-1.72,2.14-2.53l-3.23,1.57c-.21.1-.46.05-.61-.14-.15-.18-.15-.44,0-.62.75-.95,1.55-1.88,2.37-2.77l-4.12,2.27c-.2.11-.44.07-.6-.09-.16-.16-.19-.41-.07-.6.36-.61.74-1.2,1.15-1.77-1.25.69-2.54,1.32-3.84,1.89-.21.09-.45.03-.6-.15-.14-.18-.14-.43,0-.61l1.08-1.39c-.89.49-1.83.89-2.8,1.2-.22.07-.45-.02-.58-.22-.12-.19-.09-.45.07-.61.94-.97,1.81-2.01,2.61-3.1-1.53.82-3.14,1.51-4.79,2.07-.2.07-.42,0-.55-.17-.13-.17-.14-.4-.03-.58l1.38-2.17c-1.05.6-2.14,1.16-3.24,1.66-.17.08-.37.05-.52-.07-.15-.12-.21-.31-.17-.5.13-.58.33-1.14.58-1.68-.42.19-.86.35-1.31.48-.19.05-.39,0-.52-.16-.13-.15-.16-.36-.07-.53.14-.3.29-.59.44-.87-.91.49-1.89.86-2.89,1.09-.21.05-.43-.04-.54-.23-.11-.19-.09-.42.05-.59l.29-.33c-.73.32-1.49.57-2.26.73-.2.04-.39-.04-.51-.2-.11-.16-.12-.36-.03-.53-.28.1-.57.18-.86.25-.21.04-.41-.04-.52-.21-.12-.17-.12-.39,0-.56.39-.57.81-1.13,1.25-1.66-.15.06-.3.11-.45.17-.18.06-.38.02-.52-.12-.14-.13-.18-.34-.12-.52.3-.87.75-1.7,1.32-2.43l-3.56,1.11c-.19.06-.39,0-.53-.15-.13-.15-.16-.36-.08-.54.23-.49.37-.91.49-1.28.04-.11.07-.23.11-.34-1.11.51-2.19.73-3.9.96-.18.03-.37-.06-.47-.21-.11-.15-.12-.35-.04-.52.36-.69.76-1.36,1.2-1.99-1.7.86-3.51,1.51-5.35,1.92-.2.04-.42-.04-.53-.22-.11-.18-.1-.41.02-.57l.8-1.05c-1.29.49-2.68.73-4.07.67-.2,0-.38-.13-.45-.32-.07-.19-.03-.4.12-.54l.81-.8c-1.15.43-2.36.68-3.6.74-.22.01-.41-.12-.49-.31-.08-.2-.02-.42.14-.56l1-.87c-.83.29-1.7.51-2.67.76l-1.04.27c-.21.05-.42-.03-.54-.2-.12-.18-.12-.41,0-.58.18-.24.34-.46.49-.65-.17.05-.33.09-.51.14-.66.18-1.34.37-2.19.69-.19.07-.41.01-.55-.14-.14-.16-.16-.38-.06-.57l.26-.49c.04-.08.08-.15.12-.22-.39.1-.79.19-1.24.28-.38.08-.8.16-1.3.28-.21.05-.43-.04-.54-.23-.11-.19-.09-.43.06-.59.82-.92,1.32-1.63,1.85-2.39.14-.2.28-.4.43-.61-1.65.75-3.31,1.23-5.55,1.63-.22.04-.42-.06-.52-.25-.1-.19-.08-.42.06-.58.82-.93,1.46-1.78,2.08-2.61.29-.39.58-.78.9-1.18l-6.22,2.4c-.2.08-.42.02-.56-.14-.14-.16-.16-.39-.05-.57l1.99-3.48c-.92.23-1.88.34-2.82.33-.19,0-.36-.11-.44-.28-.08-.17-.06-.37.05-.51-.41.15-.83.26-1.26.33-.21.03-.41-.07-.52-.25-.1-.18-.08-.41.05-.57l.71-.83-2.78,1.23c-.16.07-.35.05-.49-.05-.14-.1-.22-.27-.21-.45l.07-.95-4.85,1.96c-.17.07-.36.04-.5-.07-.14-.11-.21-.29-.18-.47l.27-1.83c-.54.14-.99.21-1.43.29-.62.1-1.21.2-2.04.48-.19.06-.4,0-.53-.14-.13-.15-.17-.36-.09-.54.27-.63.32-1.09.38-1.57.03-.24.05-.48.1-.74l-3.43,1.58c-.2.09-.43.04-.58-.12-.15-.16-.17-.4-.06-.59l1.21-2.04c-.67.37-1.38.68-2.11.94-.16.06-.34.03-.48-.08-.13-.11-.21-.27-.19-.44,0-.02,0-.05,0-.07-.63.3-1.32.49-2.02.55-.2.03-.38-.08-.48-.26-.09-.17-.08-.38.04-.54l1.1-1.47c-.78.57-1.59,1.1-2.42,1.58-.19.11-.44.08-.6-.08-.16-.16-.2-.4-.09-.6.2-.37.43-.73.67-1.08-.08-.03-.16-.09-.21-.16-.12-.16-.14-.38-.04-.56.17-.29.34-.47.5-.58-.63.2-1.29.36-1.95.45-.2.03-.39-.06-.5-.23-.11-.17-.1-.38,0-.55l.79-1.18c-.57.27-1.17.48-1.78.62-.2.04-.41-.04-.53-.21-.12-.17-.11-.4.01-.57l.87-1.2-1.49,1.06c-.2.14-.48.12-.65-.06-.17-.18-.19-.45-.04-.65l1.19-1.58s-.05.01-.08.02c-.22.04-.43-.06-.54-.25-.04-.07-.06-.14-.06-.22-.96.39-1.98.64-3.01.74-.39.04-.81.05-1.21-.15-1.14-.56-.86-1.78-.62-2.77.08-.35.17-.71.2-1.04-1.25,1.06-2.63,1.94-4.11,2.64-.21.1-.45.04-.6-.14-.15-.18-.15-.43-.02-.61.13-.18.26-.37.38-.56-.35.18-.71.32-1.09.44-.16.05-.34.01-.47-.1-.13-.11-.19-.29-.16-.46.08-.48.24-.93.46-1.35l-.61.12c-.22.04-.44-.07-.54-.26-.1-.2-.06-.44.1-.59.37-.35.69-.77.95-1.22-1.05.62-2.2,1.07-3.4,1.32-.17.04-.35-.02-.47-.15-.12-.13-.16-.31-.12-.48.06-.23.14-.45.23-.67-.84.52-1.72.97-2.64,1.35-.16.07-.34.05-.48-.05-.14-.1-.22-.26-.21-.43.01-.34.05-.68.12-1.02-.45.25-.94.42-1.44.51-.16.03-.33-.03-.45-.15-.12-.12-.16-.29-.13-.45.07-.33.16-.65.26-.97-.27.17-.58.33-.91.48-.16.07-.35.06-.49-.05-.14-.1-.22-.27-.21-.45.03-.38.05-.75.07-1.12.1-1.78.19-3.46,1.26-5.02.16-.23.47-.29.7-.13.23.16.29.47.13.7-.92,1.33-1,2.81-1.09,4.51,0,.08,0,.16-.01.24.65-.4,1.14-.88,1.61-1.45.36-.58.79-1.13,1.26-1.63.18-.19.48-.21.69-.04.2.17.23.47.07.68l-.38.5c-.29.38-.55.73-.83,1.07-.39.64-.71,1.33-.93,2.05.6-.25,1.14-.67,1.53-1.19.16-.21.45-.26.67-.12.22.14.29.43.17.66-.27.49-.46,1.03-.57,1.59,1.41-.67,2.73-1.52,3.92-2.53.21-.18.52-.15.7.05.18.2.16.51-.04.7-.54.5-.99,1.11-1.3,1.78,1.24-.38,2.41-1,3.42-1.82.17-.13.4-.15.58-.04.18.11.27.33.23.53-.16.72-.45,1.42-.86,2.05l.57-.11c.23-.04.45.07.54.27.1.2.05.45-.12.6-.3.26-.54.58-.73.93.6-.31,1.14-.72,1.59-1.22.17-.18.44-.21.64-.08.21.13.28.4.18.62-.17.37-.35.74-.54,1.1,1.04-.63,2.02-1.37,2.91-2.21.12-.11.28-.16.44-.13.16.03.29.14.36.29.34.78.13,1.68-.05,2.47-.25,1.07-.27,1.46.09,1.64.17.09.43.07.68.05,1.97-.19,3.89-1,5.39-2.29.2-.17.51-.16.69.04.17.18.18.47.02.66,0,0,0,0,.02.01.22.16.27.47.11.7-.03.04-.06.08-.09.12l-.81,1.08,1.35-.96c.2-.14.47-.12.65.06.17.17.19.45.05.65l-1.75,2.42c.74-.33,1.43-.78,2.04-1.32.19-.17.47-.17.66,0,.19.17.23.45.09.66l-1.5,2.24c1.37-.35,2.68-.97,3.82-1.82.2-.15.49-.13.66.06.17.18.18.47.02.66l-.44.53c.09.16.08.37-.04.53-.26.36-.57.69-.91.98,0,0,0,.01.01.02,1.03-.8,2-1.69,2.9-2.64.18-.19.48-.21.68-.04.2.17.24.47.08.68l-3.18,4.26c.57-.21,1.1-.52,1.55-.93.15-.19.32-.37.51-.52.2-.16.49-.15.67.04.18.19.19.48.02.67-.14.17-.3.33-.46.48-.06.08-.11.16-.16.25.95-.42,1.85-.95,2.69-1.58.19-.14.45-.13.63.03.18.16.22.42.1.63l-1.46,2.48,3-1.38c.19-.09.41-.05.56.1.15.15.19.37.11.56-.27.63-.32,1.09-.38,1.57-.03.29-.06.59-.14.92.47-.11.87-.18,1.27-.24.62-.1,1.21-.2,2.04-.48.16-.06.34-.02.48.09.13.11.2.28.17.46l-.26,1.74,4.79-1.94c.16-.06.34-.04.48.06.14.1.22.27.2.44l-.07.92,4.01-1.77c.21-.09.46-.03.6.16.14.19.13.45-.02.62l-1.01,1.19c.65-.31,1.25-.74,1.75-1.26.18-.19.49-.21.69-.03.2.17.23.48.07.69l-1.19,1.51c.9-.08,1.8-.29,2.64-.61.2-.08.42-.02.56.14.14.16.16.39.05.57l-1.93,3.37,6.7-2.58c.21-.08.46,0,.59.18.13.19.12.44-.04.62-.82.93-1.46,1.78-2.08,2.61-.38.51-.77,1.03-1.21,1.57,2.29-.51,3.97-1.18,5.95-2.35.21-.12.48-.08.64.11.16.19.15.47-.01.65-.82.92-1.32,1.63-1.85,2.39-.3.43-.61.88-.98,1.36,1.13-.23,1.85-.39,3.19-1.08.24-.12.53-.03.66.2.13.23.06.53-.17.67-.77.49-1,.64-1.24,1,.37-.11.72-.21,1.04-.3,1.18-.33,2.12-.59,3.52-1.43.02-.01.04-.03.07-.04,0,0,0,0,0,0h0s0,0,0,0c.23-.14.54-.07.69.17.14.24.07.54-.17.69,0,0,0,0,0,0h0s0,0,0,0c-.03.02-.05.03-.08.05-.99.6-1.48.91-2.01,1.46,2.17-.56,3.69-1.01,5.71-2.47.22-.16.52-.11.68.09.17.21.14.51-.06.69l-2.95,2.57c1.8-.36,3.51-1.17,4.92-2.36.21-.17.51-.15.69.05.18.2.17.5-.02.69l-2.73,2.69c1.5-.15,2.97-.66,4.24-1.49.2-.13.48-.1.64.08.17.18.18.45.03.64l-1.25,1.64c2.19-.64,4.3-1.64,6.17-2.92.21-.15.5-.11.67.09.17.2.15.49-.03.67-.95.94-1.77,2-2.45,3.14,1.88-.3,2.86-.69,4.62-1.93.22-.16.53-.11.69.12.16.22.11.53-.11.69-.89.65-1.05,1.13-1.31,1.94-.04.12-.08.25-.13.39l4.51-1.4c.23-.07.48.03.59.25.11.22.05.48-.14.63-.83.63-1.52,1.45-2.01,2.37.59-.26,1.12-.53,1.67-.87.22-.13.5-.08.66.12.16.2.13.49-.06.67-.73.68-1.41,1.41-2.03,2.19.33-.17.64-.36.93-.57.41-.47.87-.9,1.35-1.3.2-.16.49-.15.67.03.18.18.2.47.04.67-.4.52-.87.97-1.39,1.36-.13.15-.26.31-.39.47,1.47-.52,2.83-1.38,3.91-2.49.19-.2.5-.2.7-.02.2.18.21.49.04.7l-1.8,2.04c1.16-.48,2.24-1.16,3.18-2,.28-.31.57-.6.88-.88.2-.18.5-.17.69.02.19.19.2.49.02.69-.28.31-.57.6-.88.88-.52.58-.99,1.21-1.4,1.88.67-.31,1.31-.7,1.88-1.17.19-.19.4-.38.61-.55.21-.17.51-.14.69.06.18.2.17.5-.02.69-.19.19-.4.37-.6.55-.62.63-1.11,1.38-1.44,2.2,1.36-.66,2.68-1.41,3.94-2.23.2-.13.46-.1.62.06.17.17.2.43.07.62l-1.75,2.74c1.77-.69,3.47-1.55,5.08-2.56.2-.12.45-.1.62.07.17.16.2.42.07.62-.74,1.21-1.58,2.36-2.49,3.45,1.18-.57,2.29-1.31,3.26-2.18.19-.17.48-.17.67,0,.19.18.21.47.05.67l-1.87,2.4c1.46-.72,2.88-1.51,4.26-2.36.21-.13.49-.09.65.11.16.19.15.48-.02.66-.62.67-1.2,1.37-1.73,2.11l5.47-3.01c.22-.12.5-.06.65.15.15.21.12.49-.07.66-1.16,1.07-2.26,2.2-3.31,3.4l3.89-1.89c.22-.11.5-.04.63.17.14.21.1.48-.08.65-1.1.98-2.13,2.04-3.09,3.16l8.11-2.95c.21-.08.46,0,.59.19.13.19.11.45-.05.62l-4.45,4.81c1.51-.42,2.98-1,4.36-1.74.51-.35,1.04-.66,1.59-.93.24-.12.52-.02.65.21.13.23.06.52-.17.66-.5.32-1.02.63-1.56.91-.75.53-1.43,1.16-2.02,1.86,1.44-.44,2.82-1.07,4.11-1.87.21-.13.49-.09.65.11.16.19.15.47-.02.66l-1.75,1.88c1.61-.15,3.2-.46,4.75-.92.23-.07.48.04.59.25.11.21.05.48-.14.62l-1.02.78c.64-.2,1.25-.38,1.84-.55,1.4-.41,2.84-.83,4.66-1.52.22-.08.46,0,.59.19.13.19.11.45-.04.62l-3.14,3.46c.4-.34.83-.64,1.28-.91.22-.13.5-.07.65.13.04.05.06.1.08.15.17-.09.39-.07.54.06.15.12.2.31.17.48.2-.21.42-.41.66-.58.21-.15.5-.12.67.08.17.19.17.49-.01.67-.24.25-.5.49-.76.71-.1.12-.2.25-.29.39l2.55-1.47c.2-.12.46-.08.62.09.16.17.18.43.04.62l-.93,1.34,2.73-1.63c.19-.11.43-.09.59.06.16.15.21.39.11.59l-.78,1.59,5.12-2.51c.19-.09.41-.06.56.09.15.14.2.37.12.56-.5,1.17-1.13,2.29-1.89,3.32l4.03-2.4c.21-.12.47-.08.63.1.16.18.17.44.03.64-.65.85-1.34,1.67-2.08,2.45.65-.34,1.26-.74,1.84-1.19.19-.16.37-.32.56-.47.21-.17.52-.15.7.06.18.21.16.52-.05.7-.19.17-.38.33-.58.49-.87.75-1.71,1.54-2.51,2.38l4.25-2.64c.23-.14.53-.08.68.15.15.22.1.52-.12.68-1.25.92-2.38,2.03-3.33,3.27,1.23-.52,2.41-1.16,3.51-1.92.69-.67,1.44-1.27,2.24-1.79.22-.14.51-.1.67.11.16.2.14.5-.05.68-.7.64-1.44,1.24-2.22,1.78-.31.31-.62.63-.9.96l5.33-2.7c.22-.11.49-.04.64.16s.11.48-.07.65l-3.59,3.35c1.11-.52,2.19-1.12,3.22-1.79.94-.76,1.91-1.48,2.89-2.18.21-.15.52-.11.68.1.16.21.14.51-.07.69-.92.79-1.89,1.53-2.92,2.2-.57.46-1.13.93-1.68,1.41,1.62-.58,3.18-1.32,4.64-2.23.44-.33.9-.64,1.38-.92.23-.13.53-.06.67.16.14.22.09.52-.13.68-.43.31-.87.61-1.32.89-1.08.83-2.03,1.83-2.8,2.96.58-.22,1.16-.47,1.71-.76,1.03-.99,2.23-1.8,3.54-2.35.23-.1.49-.01.62.2.13.21.09.48-.1.64-1.06.91-2.23,1.69-3.47,2.33-.5.5-.96,1.04-1.35,1.62,1.69-.6,3.33-1.39,4.86-2.33.91-.71,1.85-1.38,2.82-2,.22-.14.52-.08.67.13.15.21.11.51-.09.68-.9.73-1.84,1.4-2.83,2.01-.66.52-1.31,1.07-1.93,1.64,1.16-.37,2.27-.88,3.3-1.51.17-.11.34-.23.52-.33.23-.14.54-.07.68.16.15.23.08.53-.14.69-.17.12-.35.23-.52.34-1.01.68-1.95,1.48-2.79,2.38.68-.42,1.34-.84,1.99-1.26,1.37-.88,2.8-1.79,4.33-2.64.22-.12.49-.06.64.14.15.2.12.48-.06.66l-.79.76c.06.15.04.33-.06.47-.55.77-1.22,1.45-1.97,2.02l-.22.22c.58-.4,1.14-.83,1.68-1.28.59-.61,1.21-1.19,1.86-1.74.2-.17.5-.16.69.03.18.19.18.5,0,.69-.59.62-1.21,1.2-1.86,1.75-.53.54-1.03,1.1-1.51,1.68,1.49-.73,2.9-1.6,4.22-2.61.21-.16.5-.13.67.06.17.19.18.48,0,.67l-3.33,3.73,6.08-3.27c.2-.11.45-.07.61.11.15.17.17.42.04.62l-1.88,2.79,6.58-2.61c.22-.09.47,0,.6.19.13.2.11.46-.05.63-.38.39-.76.77-1.16,1.15l2-1.12c.23-.13.52-.06.66.17.14.22.09.52-.12.67l-2.61,1.93c.58-.29,1.16-.59,1.72-.9.59-.42,1.21-.78,1.87-1.09.24-.11.52-.02.65.21.13.23.05.52-.17.66-.59.37-1.2.73-1.81,1.07-.52.37-1,.78-1.45,1.23l5.8-2.82c.24-.12.53-.02.66.22.13.24.04.53-.19.67-1.64.94-3.16,2.06-4.54,3.34,1.52-.67,2.98-1.46,4.38-2.35.23-.14.52-.09.68.13.15.22.11.52-.1.68l-4.12,3.18c1.98-.78,3.85-1.83,5.54-3.1l.32-.25c.22-.17.53-.13.7.09.17.22.13.53-.09.7-.11.09-.22.17-.33.25l-3.85,2.97c2.52-1.07,4.99-2.29,7.36-3.64.23-.13.52-.06.67.16.14.22.09.52-.12.67l-5.55,4.12c1.59-.48,3.14-1.08,4.63-1.8,1.1-.83,2.3-1.51,3.59-2.02.24-.09.51,0,.63.24.12.23.04.51-.17.65-1.14.74-2.31,1.4-3.52,1.99-.46.35-.9.74-1.32,1.15,1.89-.59,3.74-1.34,5.51-2.23.45-.26.91-.5,1.38-.73.24-.12.54-.02.66.22.13.24.04.54-.2.67-.45.25-.91.5-1.37.73-1.39.79-2.7,1.72-3.91,2.76l7.54-2.58c.25-.08.52.04.62.28.1.24,0,.52-.23.64-2.17,1.13-4.26,2.42-6.26,3.85,2.85-.89,5.6-2.1,8.19-3.61l.74-.44c.23-.14.54-.06.68.17.14.24.07.54-.17.68-.25.15-.5.3-.75.44l-4.4,2.62c2.48-.64,4.88-1.66,7.04-3.03.23-.14.53-.08.68.15.15.23.09.53-.13.69l-4.68,3.27c2.16-.77,4.23-1.75,6.2-2.93.24-.14.54-.07.68.17.14.23.07.54-.16.68l-5.56,3.52c1.54-.42,3.04-.99,4.48-1.69,1-.68,2.06-1.29,3.15-1.8.23-.11.52-.02.65.21.13.23.06.52-.16.66-1,.67-2.05,1.27-3.14,1.8-.79.54-1.54,1.13-2.25,1.77,1.83-.98,3.57-2.12,5.21-3.39.2-.16.5-.14.68.06.18.19.18.49,0,.68l-.23.25c.3-.25.6-.49.91-.73.21-.17.52-.13.69.07.17.2.15.51-.04.69-.79.72-1.6,1.41-2.44,2.07-.44.41-.88.82-1.3,1.25,1.73-.93,3.39-2,4.94-3.2.21-.16.51-.13.68.07.17.2.16.5-.03.69l-3.55,3.42c.57-.23,1.12-.51,1.64-.83.62-.54,1.28-1.04,1.96-1.51.21-.15.5-.11.67.09.17.2.15.5-.04.68-.6.59-1.28,1.11-2,1.55-.28.24-.55.49-.82.74,1.46-.82,2.86-1.74,4.19-2.76.2-.16.49-.13.67.05.18.19.18.47.02.67l-.64.75c.19-.08.41-.04.56.11.19.19.19.51,0,.7-.09.09-.18.18-.27.27-.43.45-.81.96-1.12,1.5.87-.31,1.69-.78,2.4-1.38.18-.16.45-.16.64,0,.19.15.24.42.12.63l-.71,1.3c.68.07,1.39-.01,2.03-.23.14-.05.28-.03.41.04.12.07.21.19.24.33.18.88-.36,1.82-1.2,2.11-.05.02-.11.03-.16.03ZM43.53,157.65c.12,0,.24.03.35.07,0,0,.02-.01.03-.02l.27-.33c-.23.1-.47.19-.71.28.02,0,.04,0,.06,0Z"></path><path class="cls-1" d="M236.03,240.3c-.22,0-.42-.15-.48-.37l-2.33-8.42c-.07-.27.08-.54.35-.62.27-.07.54.08.61.35l1.37,4.97.02-3.32c-.09-1.78-.08-3.56.03-5.33.02-.27.23-.47.51-.47.02,0,.04,0,.06,0,0-.08,0-.17,0-.25,0-.28.22-.5.5-.5.2,0,.38.12.46.3l.1-.98c.03-.26.24-.48.52-.45.26,0,.47.22.48.49l.07,2.77.64-4.22c.04-.26.27-.43.53-.42.26.02.46.23.47.49l.09,3.98c.54-3.03.92-6.1,1.11-9.17.02-.27.2-.49.52-.47.27.01.48.25.47.52l-.1,2.5.9-5.66c.04-.26.27-.44.53-.42.26.02.46.23.46.49l.12,7.41c1.14-3.96,1.76-8.05,1.85-12.19,0-.27.23-.49.5-.49h0c.27,0,.5.22.5.49l.07,6.07c.65-2.74,1.01-5.53,1.1-8.35,0-.27.23-.49.5-.49h0c.27,0,.49.22.5.5l.05,6c.71-3.59,1.15-7.24,1.33-10.9.01-.27.23-.48.5-.48h0c.27,0,.49.21.5.48l.27,5.92c.48-3.26.7-6.57.65-9.87,0-.27.2-.49.47-.51.28-.01.5.18.53.44l.7,5.87c.5-3.11.74-6.27.73-9.42,0-.27.21-.49.47-.5.28-.02.5.19.52.45l.53,5.55,2.19-10.18c.05-.23.25-.39.48-.4h0c.23,0,.43.16.49.39l.48,2.05c.63-2.51,1.51-4.96,2.63-7.3.1-.21.33-.33.56-.27.23.05.39.25.4.48l.11,4.74,1.16-6.14c.05-.25.22-.43.52-.41.25.01.45.21.47.45l.18,2.03c.64-3.97,1.76-7.85,3.34-11.57.09-.22.32-.34.55-.3.23.04.4.24.41.48v.39s.32-3.12.32-3.12c.03-.26.27-.47.51-.45.26,0,.47.22.48.48l.13,4.2,2.36-9.38c.06-.24.3-.41.55-.37.25.03.44.24.44.49l.02,2.68,2.41-8.33c.07-.23.28-.38.53-.36.24.02.43.22.45.46l.35,4.79,2.15-9.05c.06-.23.24-.4.51-.38.24.01.44.19.47.43l.23,1.77,1.02-6.51c.04-.27.3-.46.57-.42.27.04.46.29.42.56-.12.88-.14,1.78-.06,2.67l1.09-6.82c.04-.27.31-.45.56-.42.27.04.46.28.43.55-.08.71-.06,1.43.03,2.14.54-2.27.95-4.57,1.21-6.85.03-.26.23-.47.51-.44.26,0,.47.22.48.48.03.77.06,1.54.08,2.31.13-.64.24-1.28.32-1.92l.14-3.45c.01-.27.23-.48.5-.48h0c.08,0,.16.02.23.06.02-.46.05-.95.07-1.48l.03-.57c.01-.27.25-.52.5-.47.27,0,.49.22.49.49.05,1.7-.02,3.03-.17,4.3,0,.06,0,.12,0,.18.12-.55.23-1.1.35-1.63.39-1.81.8-3.68,1.08-5.87.03-.26.26-.44.52-.44.26.01.47.22.48.48.05,1.42,0,2.51-.07,3.56.63-2.51,1.02-5.08,1.17-7.67.01-.27.23-.47.5-.47h0c.27,0,.49.21.5.48l.19,5.36c.93-2.87,1.47-5.31,1.51-8.59,0-.26.2-.47.46-.49.27-.03.49.15.54.4.1.52.18.88.26,1.18l.87-3.82c.06-.25.29-.42.55-.38.26.03.44.26.43.52-.06,1.39-.05,2.79.04,4.19l2.89-10.25c.06-.21.25-.36.47-.36.23,0,.42.13.49.34.27.83.48,1.69.62,2.56l1.64-7.59c.05-.24.26-.4.52-.39.25.02.45.21.46.46l.23,2.99c1.32-3.22,2.36-6.56,3.12-9.96.06-.25.29-.42.54-.39.25.02.45.23.45.48l.05,1.62,1.93-6.03c.08-.24.32-.39.57-.34.25.05.42.27.41.53l-.02.33.91-4.09c.06-.25.31-.42.56-.39.26.04.45.26.43.52v.02s.3-1.3.3-1.3c.06-.25.28-.42.54-.38.2.02.37.17.42.35l.36-2.16c.04-.25.25-.44.53-.42.26.02.46.23.46.49l.02,1.14s.03.03.04.05c.55.78.5,1.93-.11,2.67-.13.16-.35.22-.55.15-.02,0-.04-.02-.06-.03l-.68,4.07c-.04.26-.26.45-.54.41-.26-.02-.46-.24-.46-.5v-1.33l-.6,2.62c-.06.25-.3.42-.56.38-.21-.03-.37-.19-.42-.38l-1.08,4.86c-.06.25-.3.43-.56.39-.26-.04-.45-.27-.43-.53l.2-2.89-1.55,4.86c-.07.23-.3.38-.55.34-.24-.03-.42-.24-.43-.48l-.03-.96c-.82,2.91-1.86,5.77-3.09,8.52-.09.21-.32.33-.54.29-.23-.04-.4-.23-.41-.45l-.13-1.62-1.74,8.04c-.06.26-.31.43-.56.39-.26-.04-.45-.27-.43-.53.11-1.45.02-2.93-.28-4.37l-3.12,11.04c-.07.23-.28.38-.52.36-.24-.02-.43-.2-.46-.43-.12-.89-.21-1.79-.27-2.69l-.41,1.79c-.05.23-.23.39-.5.39-.24,0-.44-.17-.48-.4-.37,2.69-1.13,5.03-2.2,8.06-.08.23-.3.37-.55.33-.24-.04-.42-.24-.42-.48l-.07-2.03c-.37,1.83-.87,3.63-1.49,5.39-.08.23-.31.36-.55.33-.24-.04-.42-.24-.43-.48-.01-.32-.02-.63-.02-.92-.38,1.73-.76,3.53-1.03,5.6-.03.25-.25.44-.5.44h0c-.25,0-.46-.2-.49-.45,0-.05-.01-.1-.02-.15l-.2,1.03c-.05.26-.28.43-.55.41-.06,0-.12-.03-.18-.06-.12.38-.25.75-.38,1.12-.08.23-.31.36-.55.32-.24-.04-.41-.24-.42-.48v-.27c-.26,1.23-.56,2.45-.89,3.67-.06.21-.25.36-.46.37-.23,0-.42-.12-.49-.33-.06-.17-.12-.34-.17-.51l-.92,5.71c-.04.23-.23.4-.46.42-.24.02-.44-.12-.51-.34-.1-.3-.19-.61-.26-.92l-.82,5.24c-.04.25-.23.44-.5.42-.25,0-.46-.19-.49-.43l-.33-2.51-2.27,9.55c-.06.24-.26.4-.53.38-.25-.02-.44-.22-.46-.46l-.39-5.23-2.59,8.97c-.07.24-.31.39-.55.36-.25-.03-.43-.24-.43-.49v-2.2s-2.29,9.04-2.29,9.04c-.06.24-.29.4-.54.38-.25-.03-.44-.23-.45-.48v-.13s-.37,3.63-.37,3.63c-.03.26-.21.46-.52.45-.26-.01-.47-.22-.48-.49l-.14-6.09c-1.65,4.49-2.63,9.19-2.91,13.99-.01.26-.23.47-.49.47-.21.02-.48-.19-.51-.46l-.31-3.46-1.37,7.28c-.05.25-.27.43-.53.41-.25-.02-.45-.23-.46-.49l-.17-7.24c-.94,2.31-1.65,4.71-2.13,7.16-.04.23-.25.4-.48.4-.28-.02-.44-.16-.5-.39l-.47-2.01-2.4,11.17c-.05.24-.27.41-.52.39-.25-.01-.45-.21-.47-.45l-.2-2.07c-.23,2.04-.56,4.07-1,6.07-.05.24-.24.42-.51.39-.24-.01-.44-.2-.47-.44l-.33-2.74c-.24,2.67-.65,5.33-1.23,7.96-.05.24-.26.42-.53.39-.25-.02-.45-.22-.46-.48l-.15-3.18c-.39,2.75-.94,5.48-1.63,8.17-.06.24-.29.41-.54.37-.25-.03-.44-.24-.44-.49l-.02-2.57c-.31,1.43-.69,2.85-1.14,4.25-.08.23-.3.38-.55.34-.24-.04-.42-.24-.42-.49v-1.18c-.48,2.37-1.12,4.71-1.94,7-.08.23-.3.37-.55.32-.24-.04-.41-.24-.42-.49l-.07-4.69-1.31,8.22c-.04.26-.27.44-.54.42-.25-.02-.44-.23-.45-.47-.19.94-.39,1.87-.61,2.8-.06.25-.29.41-.54.38-.25-.03-.44-.23-.45-.49l-.06-2.59-.63,4.16c-.04.26-.24.44-.53.42-.26-.02-.46-.23-.47-.49v-.31s-.38,3.81-.38,3.81c-.03.25-.23.44-.49.45,0,0-.01,0-.02,0v1.64c-.01.25-.2.46-.45.49-.02,0-.04,0-.07,0Z"></path><g><path class="cls-1" d="M236.05,82.59c-.89,0-1.83-.16-2.93-.49-.49-.14-1-.33-1.43-.71-.81-.7-1.1-1.91-.74-3.01.27-.8.86-1.54,1.72-2.12,1.13-.76,2.26-.89,3.59-.84.03,0,.06,0,.09,0,1.64.09,2.94.41,3.98,1.65.57.69.65,1.61.64,2.1-.01.64-.31,1.29-.86,1.85-.85.88-2.09,1.42-3.49,1.53-.19.01-.38.02-.57.02ZM235.77,77.42c-.78,0-1.39.11-1.97.51-.34.23-.78.61-.94,1.09-.11.33-.04.7.15.87.15.13.44.23.69.3,1.1.33,1.98.45,2.78.39.9-.07,1.71-.41,2.22-.94.22-.22.29-.4.3-.49,0-.37-.08-.67-.17-.78-.44-.53-.97-.84-2.48-.93-.03,0-.05,0-.07,0-.17,0-.34-.01-.49-.01Z"></path><path class="cls-1" d="M231.96,86.99c-.54,0-.99-.43-1-.97l-.17-6.86c-.01-.55.42-1.01.97-1.02,0,0,.02,0,.03,0,.54,0,.99.43,1,.97l.17,6.86c.01.55-.42,1.01-.97,1.02,0,0-.02,0-.03,0Z"></path><path class="cls-1" d="M240.12,86.79c-.54,0-.99-.43-1-.98l-.13-6.65c-.01-.55.43-1.01.98-1.02h.02c.54,0,.99.43,1,.98l.13,6.65c.01.55-.43,1.01-.98,1.02h-.02Z"></path><path class="cls-1" d="M236.26,88.91c-.07,0-.15,0-.23,0-1.71-.04-2.42-.28-3.48-.85-.62-.34-1.37-.99-1.57-1.81-.13-.53.19-1.06.72-1.19.53-.14,1.07.19,1.22.71.03.09.25.36.57.53.74.4,1.13.58,2.58.61,1.89.03,2.64-.56,2.83-.74.16-.16.21-.29.21-.33,0-.55.45-1,1-1s1,.45,1,1c0,.63-.29,1.25-.81,1.76-.87.85-2.3,1.31-4.04,1.31Z"></path></g><path class="cls-1" d="M131.98,190.42c-.18,0-.35-.1-.44-.26-.13-.24-.04-.55.2-.68l8.1-4.36c.25-.13.55-.04.68.2.13.24.04.55-.2.68l-8.1,4.36c-.08.04-.16.06-.24.06Z"></path><path class="cls-1" d="M141.8,194.63c-.2,0-.38-.12-.46-.31-.11-.26.02-.55.27-.65,6.08-2.51,11.81-5.8,17.04-9.79.22-.17.53-.13.7.09.17.22.12.53-.09.7-5.3,4.04-11.1,7.38-17.26,9.92-.06.03-.13.04-.19.04Z"></path><path class="cls-1" d="M156.79,195.48c-.11,0-.21-.03-.3-.1-.22-.17-.26-.48-.1-.7.81-1.06,2.03-1.76,3.35-1.91.27-.04.52.16.55.44.03.27-.17.52-.44.55-1.04.12-2.04.69-2.67,1.52-.1.13-.25.2-.4.2Z"></path><path class="cls-1" d="M159.88,202.49c-.18,0-.35-.1-.44-.27-.13-.24-.04-.55.21-.68,2.7-1.42,3.54-1.8,4.35-2.16.8-.36,1.62-.73,4.29-2.13.24-.13.55-.04.67.21.13.24.04.55-.21.67-2.7,1.42-3.54,1.79-4.35,2.16-.8.36-1.62.73-4.29,2.13-.07.04-.15.06-.23.06Z"></path><path class="cls-1" d="M168.41,205.81c-.13,0-.26-.05-.36-.15-.19-.2-.19-.51,0-.71,1.39-1.36,2.99-2.46,4.75-3.27.25-.12.55,0,.66.24.12.25,0,.55-.24.66-1.66.77-3.17,1.81-4.47,3.08-.1.09-.22.14-.35.14Z"></path><path class="cls-1" d="M184.23,210.91c-.19,0-.37-.11-.45-.29-.12-.25,0-.55.24-.66l6.43-3.01c.25-.12.55,0,.67.24.12.25,0,.55-.24.66l-6.43,3.01c-.07.03-.14.05-.21.05Z"></path><path class="cls-1" d="M191.93,216.89c-.17,0-.33-.09-.43-.24-.14-.24-.07-.54.17-.69,2.49-1.49,5.12-2.77,7.84-3.81.26-.1.55.03.64.29.1.26-.03.55-.29.65-2.66,1.01-5.24,2.27-7.68,3.73-.08.05-.17.07-.26.07Z"></path><path class="cls-1" d="M207.83,215.25c-.18,0-.36-.1-.45-.28-.12-.25-.02-.55.23-.67l4.3-2.12c.25-.12.55-.02.67.23.12.25.02.55-.23.67l-4.3,2.12c-.07.03-.15.05-.22.05Z"></path><path class="cls-1" d="M207.75,225.38c-.18,0-.35-.09-.44-.26-.13-.24-.05-.55.2-.68l12.43-6.86c.24-.13.55-.05.68.2.13.24.05.55-.2.68l-12.43,6.86c-.08.04-.16.06-.24.06Z"></path><path class="cls-1" d="M61.64,160.24c-.25,0-.47-.19-.5-.44-.03-.27.17-.52.44-.55l5.42-.62c.26-.04.52.16.55.44.03.27-.17.52-.44.55l-5.42.62s-.04,0-.06,0Z"></path><path class="cls-1" d="M220.96,228.35c-.2,0-.39-.12-.46-.31-.1-.26.02-.55.28-.65,1.82-.73,3.63-1.54,5.39-2.41.25-.12.55-.02.67.23.12.25.02.55-.23.67-1.79.88-3.62,1.71-5.46,2.44-.06.02-.12.04-.19.04Z"></path><path class="cls-1" d="M124.18,28.66c-.17,0-.33-.08-.42-.23-.15-.23-.08-.54.15-.69,3.24-2.06,6.76-3.66,10.44-4.76.27-.08.54.07.62.34.08.26-.07.54-.34.62-3.6,1.07-7.03,2.63-10.19,4.65-.08.05-.18.08-.27.08Z"></path><path class="cls-1" d="M133.68,29.64c-.16,0-.33-.08-.42-.23-.15-.23-.08-.54.15-.69,2.28-1.45,4.75-2.54,7.36-3.24.27-.07.54.09.61.35.07.27-.09.54-.35.61-2.51.67-4.89,1.73-7.08,3.12-.08.05-.18.08-.27.08Z"></path><path class="cls-1" d="M117.86,23.77c-.16,0-.31-.07-.41-.21-.16-.23-.1-.54.12-.7l2.29-1.6c.23-.16.54-.1.7.12.16.23.1.54-.12.7l-2.29,1.6c-.09.06-.19.09-.29.09Z"></path><path class="cls-1" d="M290.84,89.04c-.18,0-.35-.1-.44-.27-.13-.24-.03-.55.21-.68,3.58-1.87,7.59-3.01,11.62-3.27.28-.01.51.19.53.47.02.28-.19.51-.47.53-3.89.25-7.77,1.35-11.22,3.16-.07.04-.15.06-.23.06Z"></path><path class="cls-1" d="M292.26,95.87c-.19,0-.38-.11-.46-.3-.11-.25,0-.55.26-.66l2.58-1.11c.25-.11.55,0,.66.26.11.25,0,.55-.26.66l-2.58,1.11c-.06.03-.13.04-.2.04Z"></path><path class="cls-1" d="M302.55,96.73c-.2,0-.39-.12-.47-.32-.1-.26.03-.55.29-.64l13.2-5.01c.26-.1.55.03.65.29.1.26-.03.55-.29.64l-13.2,5.01c-.06.02-.12.03-.18.03Z"></path><path class="cls-1" d="M281.69,81.89c-.23,0-.43-.15-.49-.38-.07-.27.1-.54.37-.6,2.31-.57,4.59-1.33,6.77-2.28.25-.11.55,0,.66.26.11.25,0,.55-.26.66-2.23.97-4.56,1.76-6.93,2.34-.04,0-.08.01-.12.01Z"></path><path class="cls-1" d="M234.26,68.51c-.24,0-.45-.17-.49-.42-.05-.27.14-.53.41-.58,1.04-.18,2.05-.57,2.94-1.14.23-.15.54-.08.69.15.15.23.08.54-.15.69-1,.64-2.14,1.08-3.31,1.28-.03,0-.06,0-.08,0Z"></path><path class="cls-1" d="M224.53,61.31c-.19,0-.37-.11-.46-.29-.11-.25,0-.55.25-.66.64-.29,1.28-.59,1.91-.88,1.34-.62,2.72-1.26,4.1-1.84.17-.07.46-.14.91-.23.08-.14.24-.24.41-.24.51-.02.99-.03,1.04.47.06.49-.32.57-1.14.73-.27.06-.74.15-.84.19-1.36.57-2.74,1.21-4.06,1.82-.64.3-1.28.59-1.92.88-.07.03-.14.04-.21.04Z"></path><path class="cls-1" d="M243.69,69.34c-.19,0-.37-.11-.46-.3-.11-.25,0-.55.25-.66,2.58-1.16,5.32-1.96,8.12-2.38.27-.03.53.15.57.42.04.27-.15.53-.42.57-2.71.41-5.35,1.18-7.85,2.31-.07.03-.14.04-.2.04Z"></path><path class="cls-1" d="M180.51,203.04c-.14,0-.28-.06-.38-.18-.18-.21-.15-.53.06-.7l2.02-1.7c.21-.18.53-.15.71.06.18.21.15.53-.06.7l-2.02,1.7c-.09.08-.21.12-.32.12Z"></path><path class="cls-1" d="M227.96,220.06c-.19,0-.37-.11-.46-.3-.11-.25,0-.55.26-.66.84-.37,1.62-.87,2.3-1.48.21-.18.52-.17.71.04.18.21.17.52-.04.71-.76.68-1.63,1.24-2.56,1.65-.07.03-.13.04-.2.04Z"></path><path class="cls-1" d="M223.04,66.35c-.17,0-.33-.09-.43-.24-.14-.24-.07-.54.17-.69l3.85-2.34c.23-.14.54-.07.69.17.14.24.07.54-.17.69l-3.85,2.34c-.08.05-.17.07-.26.07Z"></path><path class="cls-1" d="M124.18,33.52c-.16,0-.32-.08-.42-.22-.15-.23-.09-.54.14-.69l2.9-1.94c.23-.15.54-.09.69.14.15.23.09.54-.14.69l-2.9,1.94c-.08.06-.18.08-.28.08Z"></path><path class="cls-1" d="M195.64,187.44s-.09,0-.13-.02c-.15-.04-.28-.15-.33-.3-.08.18-.25.3-.45.3h0c-.21,0-.4-.14-.47-.34-.33-.97-.31-2.02.05-2.98.08-.22.3-.35.53-.32.05,0,.09.02.13.04.03-.17.06-.34.09-.51.04-.38.1-.75.17-1.12.05-.27.31-.44.57-.4.27.04.45.29.42.56-.05.37-.1.73-.16,1.1-.08.72-.09,1.44-.05,2.16.94-1.45,1.55-3.13,1.73-4.84.03-.26.24-.47.51-.45.26,0,.47.22.48.48l.07,1.51c.65-.93,1.06-2.04,1.15-3.17,0-.16,0-.31.02-.47.02-.27.26-.46.52-.46.27.01.48.23.48.5,0,.16,0,.31-.02.47,0,.38.05.76.14,1.13.71-.88,1.23-1.9,1.52-3,.07-.26.33-.42.59-.36.26.06.43.31.38.58-.08.42-.13.77-.02,1.04.04.11.15.21.25.25.03.01.08.02.11,0,.1-.05.19-.3.24-.42.5-1.35.93-2.73,1.3-4.12.07-.25.32-.42.57-.37.26.05.44.29.41.55-.03.3-.04.6-.02.9.27-.72.45-1.48.51-2.25.02-.25.22-.45.48-.46.31-.01.61-.1.87-.26.16-.1.36-.1.52,0,.16.1.25.28.23.47-.07.85-.27,1.67-.6,2.45-.11.26-.4.38-.65.27-.13-.05-.23-.16-.27-.28-.21.65-.49,1.27-.84,1.85-.1.17-.28.27-.48.24-.19-.02-.36-.15-.42-.33-.01-.04-.03-.08-.04-.12-.2.61-.4,1.21-.62,1.81-.1.27-.27.73-.71.96-.28.15-.6.16-.92.05-.22-.08-.42-.22-.58-.4-.43.84-.98,1.6-1.65,2.27-.12.12-.29.17-.44.14-.16-.03-.3-.14-.37-.29,0-.02-.02-.04-.02-.05-.39.94-.97,1.81-1.72,2.52-.14.13-.35.18-.53.1-.07-.03-.13-.07-.18-.13-.47,1.21-1.13,2.34-1.95,3.33-.1.12-.24.18-.38.18Z"></path><path class="cls-1" d="M250.97,110.98c-.07,0-.14-.01-.2-.04-.22-.1-.34-.35-.28-.58.25-.97.46-1.96.61-2.96,0,0,0,0,0,0-.15.06-.32.05-.45-.03-.15.06-.32.06-.46-.03-.08-.05-.14-.11-.18-.18-.06,0-.12-.03-.18-.06-.22-.12-.32-.4-.22-.63.37-.86.87-1.65,1.49-2.34.05-.09.1-.17.15-.26.13-.23.42-.32.66-.2.22.11.32.36.25.59,0,.12-.05.25-.14.34,0,0-.01.01-.02.02l-.2.44c.21.13.29.4.19.63l-.06.14c.2.09.33.29.3.51-.12,1.11-.3,2.21-.55,3.3.04,0,.09,0,.13.01.27.04.46.29.42.57-.04.27-.31.46-.57.42-.11-.02-.23.04-.29.13-.09.15-.25.23-.42.23Z"></path><path class="cls-1" d="M250.32,112.05c-.17,0-.33-.09-.43-.24-.12-.2-.09-.45.07-.61l.57-.58c.18-.18.45-.2.65-.05.4-.28.75-.63,1.03-1.03-.08-.03-.16-.07-.22-.14-.13-.14-.17-.33-.11-.5l.33-.97c-.22.12-.46.23-.7.33-.16.06-.34.04-.48-.06-.14-.1-.22-.26-.21-.43.05-.94.39-1.88.95-2.64.17-.22.48-.27.7-.11.22.16.27.48.11.7-.26.36-.46.76-.59,1.19.3-.19.59-.4.86-.65.17-.16.42-.18.61-.05.19.12.27.36.2.58l-.54,1.58c.14,0,.27.06.36.16.12.14.16.33.1.51-.51,1.39-1.71,2.54-3.12,3-.05.02-.1.02-.15.02Z"></path><path class="cls-1" d="M238.89,129.42c-.06,0-.12-.01-.18-.04-.24-.1-.37-.36-.29-.61.09-.3.18-.61.26-.92-.08,0-.15,0-.22-.04-.24-.1-.36-.37-.28-.62l.45-1.33s0,0,0,0l-.09.17c-.13.24-.44.33-.67.2-.24-.13-.33-.43-.21-.67l2.37-4.53c.13-.25.43-.34.67-.21.24.13.34.43.21.67l-.25.48c0,.07,0,.15-.04.22l-.46,1.07c.19.12.28.36.2.58l-.28.84c.13.08.21.21.23.36l.11-.21c.12-.23.39-.33.63-.24.24.1.37.36.29.61l-.39,1.29c.15.11.23.29.21.47-.07.54-.41,1.04-.9,1.29-.14.07-.31.07-.45,0l-.45.88c-.09.17-.26.27-.45.27Z"></path><path class="cls-1" d="M274.53,73.53c-.28,0-.5-.22-.5-.5,0-1.44.22-2.87.66-4.24-.07-.06-.13-.14-.17-.23-.09-.21-.08-.42-.05-.59-.37.16-.76.25-1.16.27-.14,0-.29-.05-.39-.16-.1-.11-.15-.25-.13-.4.03-.26.08-.52.15-.77-.65.26-1.26.24-1.81-.08-.19-.11-.28-.33-.24-.54.03-.13.06-.26.1-.38-.09.04-.18.08-.28.11-.19.07-.41.01-.54-.14-.13-.15-.16-.38-.07-.56l.6-1.17c-.34.17-.7.31-1.07.41-.19.05-.39,0-.51-.16-.13-.15-.15-.35-.07-.53l.24-.54-2.02,1.53c-.18.14-.43.14-.61,0-.18-.14-.24-.38-.15-.59.02-.05.04-.09.06-.14,0,0-.02-.01-.03-.02-.13-.11-.19-.29-.16-.45-.17.1-.34.19-.52.27-.21.1-.46.04-.61-.13-.15-.18-.15-.44,0-.62.15-.2.29-.4.44-.6-.12.05-.26.05-.38,0,0,0,0,0,0,0-.52.6-1.08,1.17-1.66,1.71-.16.16-.42.18-.61.06-.19-.12-.28-.35-.21-.57.05-.17.11-.34.17-.51-.03-.06-.05-.12-.06-.18-.09.08-.18.16-.28.23-.18.15-.45.15-.63,0-.18-.15-.24-.41-.13-.62.32-.62.78-1.18,1.31-1.63.13-.11.29-.14.44-.1.19-.22.37-.44.54-.68.16-.2.44-.26.66-.13.06.04.11.09.15.15.18-.13.43-.12.6.02.15.12.21.3.18.47.08.01.16.05.23.11.05.04.09.09.12.14.32-.25.63-.52.92-.8.17-.17.44-.19.64-.05.2.14.26.4.16.62-.07.15-.15.3-.22.44.09-.12.19-.23.29-.34.18-.2.48-.22.69-.05.2.17.24.47.09.68-.12.16-.24.31-.36.46.04-.03.09-.06.14-.09.21-.14.49-.1.65.09.03.04.06.08.08.12l1.05-.8c.18-.14.43-.14.62,0,.18.14.24.39.14.6l-.55,1.2c.5-.28.95-.64,1.32-1.07.17-.19.45-.23.66-.09.21.14.28.42.16.64l-.59,1.14s.04-.06.06-.08c.16-.21.46-.26.68-.11.22.15.29.45.14.68-.08.12-.16.24-.25.36-.29.46-.53.96-.69,1.48.76.07,1.68-.86,2.07-1.31.18-.21.5-.23.7-.05.21.18.23.49.06.7-.41.48-.72,1.06-.9,1.68.58-.21,1.09-.64,1.35-1.2.12-.24.41-.35.65-.24.25.11.36.39.26.64l-.64,1.61c.24.1.36.36.29.61,0,.02-.01.04-.02.05-.53,1.43-.79,2.92-.79,4.44,0,.28-.22.5-.5.5h0Z"></path><path class="cls-1" d="M89.46,157.97s-.08,0-.12-.01c-.27-.07-.43-.34-.37-.6.12-.51.17-1.03.13-1.56-.37.28-.8.52-1.3.61-.54.1-1.13-.05-1.56-.39-.35-.28-.55-.66-.57-1.07,0-.1,0-.2.01-.3l-.9,1.07c-.14.17-.38.22-.58.14-.2-.09-.32-.29-.3-.51l.25-2.46-.95.77c-.15.12-.35.14-.52.07-.17-.08-.29-.24-.3-.43l-.05-.84-1.75,1.68c-.16.15-.39.18-.58.08s-.29-.32-.25-.53l.51-2.67c-.2.26-.38.52-.56.79-.12.19-.35.27-.56.21-.21-.06-.36-.26-.36-.48v-2.14s-.44.52-.44.52c-.14.17-.37.22-.57.14-.2-.08-.33-.28-.31-.5l.05-.71c-.12.06-.26.07-.39.02-.21-.08-.35-.29-.33-.51l.02-.26s-.07.04-.1.06c-.38.2-.87.22-1.27.07-.34-.13-.59-.38-.7-.69-.12-.34-.07-.68-.03-.92l.11-.67-.6.62c-.15.15-.37.2-.56.11-.19-.08-.31-.28-.3-.49.03-.43.09-.85.17-1.26-.16.14-.39.16-.58.05-.19-.11-.29-.34-.23-.56l.16-.6c-.12.03-.24.02-.35-.03-.2-.1-.31-.32-.28-.54l.11-.66c-.25.21-.51.4-.79.56-.18.11-.41.09-.57-.04-.16-.13-.23-.35-.16-.55l.45-1.31c-.1.02-.2.04-.3.05-.14.01-.27-.03-.37-.11-.1-.08-.17-.21-.18-.34l-.05-.57c-.06.04-.13.07-.19.1-.16.07-.35.05-.49-.05-.14-.1-.22-.27-.21-.45l.1-1.27c-.07,0-.15,0-.22-.02-.18-.03-.34-.1-.48-.2-.18.14-.38.25-.6.31-.16.05-.33.02-.46-.09-.13-.1-.2-.26-.19-.42-.16.09-.35.09-.5,0-.16-.1-.24-.26-.23-.45.03-.54.13-1.08.29-1.6-.24.01-.48,0-.71-.04-.13-.02-.25-.1-.33-.21-.08-.11-.11-.25-.08-.38.13-.65.52-1.22,1.08-1.57.23-.15.54-.08.69.15.15.23.08.54-.15.69-.14.09-.27.21-.37.34.17-.02.34-.07.5-.13.19-.08.41-.03.55.12.14.15.17.37.08.56-.24.5-.41,1.05-.49,1.6.07.02.14.06.2.1.07.04.13.09.19.15.05-.05.09-.1.12-.16.1-.18.31-.28.51-.25.21.03.37.19.41.39,0,.03.07.08.16.09.09.02.16,0,.18-.03.12-.19.36-.28.58-.2.22.07.36.28.34.51l-.06.8c.08-.04.18-.05.28-.03.22.04.39.22.41.45l.1,1.08c.16-.07.31-.17.45-.29.17-.15.42-.17.61-.04.19.13.27.36.2.58l-.26.76c.13-.15.25-.3.36-.46.13-.19.39-.26.6-.18.22.09.34.32.3.55l-.11.61c.15-.12.36-.13.54-.04.2.11.31.34.25.57l-.19.74.14-.13c.17-.16.44-.18.63-.05.2.14.27.39.17.61-.19.42-.34.86-.46,1.3l.6-.62c.15-.16.39-.2.58-.1.2.1.31.31.27.53l-.36,2.25c-.02.14-.05.32-.02.42.02.04.06.08.13.11.13.05.32.04.44-.02.3-.16.52-.49.76-.92.12-.2.36-.29.58-.22.22.07.37.29.35.52v.08c.11-.05.23-.05.36-.01.21.07.35.28.33.51l-.06.88.33-.39c.14-.16.36-.22.55-.15.2.07.33.26.33.47v1.99c.3-.35.62-.69.96-1.01.16-.15.39-.18.58-.07.19.1.29.32.25.53l-.55,2.87,1.41-1.34c.14-.14.35-.18.53-.1.18.07.3.24.32.44l.05.94,1.12-.91c.16-.13.37-.15.55-.05.18.1.28.29.26.49l-.21,2.05.54-.64c.14-.17.37-.22.57-.14.69.28.59,1.01.53,1.45-.02.14-.04.28-.04.41,0,.12.07.24.19.34.2.16.5.23.76.19.52-.09.96-.47,1.49-.96.13-.12.31-.16.48-.11.17.05.3.19.34.36.23.94.24,1.94,0,2.88-.06.23-.26.38-.49.38Z"></path><path class="cls-1" d="M123.84,168.24c-.09,0-.18-.02-.26-.07-.18-.1-.27-.31-.24-.51l.19-1.21c-.58.59-1.26,1.09-2,1.45-.17.08-.38.06-.53-.05-.15-.12-.22-.31-.18-.5l.19-.87c-.43.25-.89.43-1.37.55-.16.03-.32,0-.44-.11-.12-.1-.19-.26-.17-.42l.05-.64c-.53.43-1.17.71-1.85.77-.16.01-.32-.05-.42-.16-.11-.12-.15-.28-.12-.44.16-.72.16-1.47.03-2.19-1.19.61-2.31,1.34-3.34,2.18-.17.14-.41.15-.59.03-.18-.12-.27-.34-.21-.55l.4-1.42-1.72,1.49c-.17.14-.41.16-.59.05-.19-.12-.27-.34-.22-.55l.34-1.3c-.81.51-1.68.93-2.6,1.23-.16.06-.35.02-.48-.1-.13-.11-.2-.29-.17-.46l.25-1.47-2.17,1.77c-.17.14-.42.15-.6.02-.18-.13-.26-.36-.18-.58l.7-1.98-2.03,1.69c-.17.14-.42.15-.6.03-.18-.12-.26-.36-.2-.57l.66-2.03c-.27.23-.52.47-.75.74-.17.19-.45.22-.66.08-.21-.15-.27-.42-.16-.65.14-.25.25-.52.35-.79-.7.58-1.45,1.11-2.24,1.58-.15.09-.34.09-.49.01-.15-.08-.25-.24-.26-.41l-.07-1.33c-.54.54-1.16.95-1.93,1-.82.06-1.51-.49-1.83-1.1-.26.17-.54.27-.82.27h-.01c-.4,0-.74-.22-.92-.6-.14-.31-.12-.62-.08-.87-.21.22-.43.42-.67.61-.16.13-.38.15-.56.05-.17-.1-.27-.29-.25-.48-.19.12-.4.21-.62.28-.16.05-.33.02-.46-.08-.13-.1-.2-.26-.19-.42l.08-1.26c-.39.39-.82.74-1.28,1.04-.17.11-.38.11-.55,0-.11-.07-.18-.19-.21-.31-.05-.09-.06-.2-.04-.31.26-1.4.67-2.79,1.21-4.11.1-.26.4-.38.65-.27.26.1.38.4.27.65-.14.33-.26.67-.38,1.01.18.13.25.37.17.59l-.31.77c.24-.26.45-.54.64-.83.12-.19.36-.27.58-.2.22.07.36.28.34.51l-.11,1.87c.21-.21.38-.47.46-.76.07-.25.33-.4.58-.35.26.05.43.3.39.55l-.04.29c.31-.4.57-.84.77-1.31.1-.23.36-.36.6-.28.24.07.39.32.35.57l-.42,2.26c-.02.12-.06.32-.02.4.11.04.44-.15.7-.44.07-.22.21-.42.4-.58.18-.15.44-.16.62-.02.19.14.25.39.16.6-.06.14-.15.29-.24.42,0,.07.02.15.05.23.14.33.55.67.91.65.79-.06,1.45-.8,2.03-1.6.12-.17.35-.24.54-.18.2.06.34.24.36.45l.1,1.75c.91-.6,1.75-1.29,2.52-2.06.15-.15.38-.19.57-.1.19.09.3.29.28.5-.02.25-.06.49-.11.74.22-.16.45-.3.69-.44.18-.1.41-.09.57.04.16.13.23.35.16.54l-.59,1.82,2.09-1.74c.17-.14.42-.15.61-.03.18.13.26.37.18.58l-.71,2.01,1.82-1.48c.16-.13.39-.15.57-.04.18.1.28.31.24.52l-.33,1.93c.95-.4,1.83-.93,2.64-1.59.17-.14.41-.15.59-.03.18.12.27.34.21.55l-.28,1.09,1.76-1.52c.17-.15.41-.16.59-.04.19.12.27.34.21.56l-.44,1.59c.92-.64,1.89-1.2,2.9-1.68.13-.06.28-.06.42,0,.13.06.23.17.28.31.25.81.33,1.66.26,2.5.66-.27,1.22-.81,1.46-1.47.09-.23.33-.37.58-.32.24.05.41.28.39.53l-.12,1.62c.51-.22.97-.54,1.34-.95.15-.16.4-.21.6-.1.2.1.3.33.26.55l-.24,1.09c.77-.57,1.42-1.31,1.87-2.15.11-.22.37-.32.6-.24.23.08.37.31.33.55l-.32,1.99,2.8-2.14c.12-.09.28-.12.43-.09.15.04.27.14.33.28.15.34.25.71.3,1.08.62-.47,1.18-1.02,1.66-1.64.14-.18.39-.24.6-.15.21.09.33.32.29.55l-.21,1.14c.51-.43.95-.96,1.26-1.55.11-.21.35-.31.57-.25.23.06.38.27.37.5-.03.78.26,1.56.78,2.15.18.21.17.52-.04.71-.21.18-.52.17-.71-.04-.38-.43-.67-.94-.85-1.49-.52.61-1.15,1.11-1.86,1.48-.17.09-.37.07-.53-.04-.15-.11-.23-.3-.19-.49l.11-.61c-.46.41-.96.78-1.49,1.1-.16.1-.37.09-.53,0-.16-.1-.25-.29-.22-.48.04-.31.03-.62-.03-.92l-3.23,2.47c-.09.07-.2.1-.3.1Z"></path><path class="cls-1" d="M132.58,169.32c-.08,0-.15-.02-.22-.05-.21-.11-.32-.34-.26-.57l.44-1.69c-.41.48-.87.91-1.37,1.31-.15.12-.36.14-.54.06-.17-.09-.28-.27-.28-.46.04-1.17.46-2.31,1.19-3.23.17-.22.49-.25.7-.08.22.17.25.49.08.7-.29.36-.52.77-.68,1.2.71-.78,1.3-1.69,1.72-2.67.1-.24.37-.36.62-.28.25.08.39.35.32.6l-.65,2.51,2.29-2.88c.14-.18.39-.24.6-.14.21.1.33.32.28.55l-.54,2.82,3.41-2.86c.16-.13.39-.15.57-.05.18.1.28.31.25.51l-.4,2.53,3-3.33c.16-.17.41-.21.62-.1.2.11.3.35.24.58l-.66,2.22,4.82-4.37c.17-.15.41-.17.6-.05.19.12.28.35.22.56l-.65,2.26,3.59-3.73c.15-.16.38-.2.58-.1.19.09.31.3.28.52-.05.38-.12.75-.23,1.12.54-.61,1.05-1.26,1.51-1.94.14-.21.42-.28.65-.16.22.12.32.39.23.62l-.9,2.28c.98-.97,1.85-2.06,2.59-3.24.13-.21.39-.29.62-.19.23.1.35.34.29.58l-.56,2.2,3.26-3.09c.14-.13.35-.17.53-.1.18.07.3.25.31.44.02.32,0,.65-.04.97l1.78-1.81c.17-.17.43-.2.63-.07.2.13.28.39.19.61l-.7,1.68c1.06-.87,1.95-1.96,2.58-3.17.03-.06.06-.12.09-.18.13-.24.43-.34.67-.21.24.12.34.42.22.67-.03.06-.06.12-.09.18-.39.79-.6,1.68-.61,2.56,1.2-.81,2.25-1.85,3.07-3.04.14-.2.41-.27.63-.17.22.11.33.36.26.59-.18.59-.24,1.22-.17,1.83,1.71-.9,3.07-2.47,3.7-4.31.08-.22.29-.37.53-.34.23.03.42.22.44.45l.07.83,2.43-2.92c.13-.16.35-.22.55-.15.2.07.33.25.34.46l.05,2.23c0,.28-.21.51-.49.51-.3.03-.51-.21-.51-.49l-.02-.9-2.36,2.83c-.13.16-.34.22-.53.16-.19-.06-.33-.23-.35-.44l-.02-.2c-.94,1.53-2.36,2.76-4.02,3.46-.13.06-.29.05-.42-.01-.13-.07-.23-.19-.26-.33-.09-.37-.14-.75-.15-1.14-.87.93-1.87,1.74-2.97,2.37-.15.08-.32.09-.47.01-.15-.07-.25-.22-.27-.39-.05-.39-.06-.79-.04-1.19-.79.88-1.72,1.63-2.73,2.22-.18.11-.42.08-.58-.06-.16-.14-.21-.37-.13-.57l.36-.88-1.57,1.6c-.18.18-.47.2-.67.04-.2-.16-.25-.44-.11-.66.27-.42.46-.88.58-1.37l-3.56,3.37c-.16.15-.4.18-.6.07-.19-.11-.29-.34-.23-.56l.34-1.34c-.83.99-1.77,1.9-2.79,2.7-.18.14-.43.14-.61,0-.18-.13-.25-.37-.17-.58l.47-1.19c-.49.52-1.01,1.02-1.56,1.49-.19.16-.48.16-.66,0-.19-.17-.22-.45-.08-.66.32-.46.59-.96.8-1.48l-3.67,3.81c-.16.17-.41.2-.61.09-.2-.12-.29-.35-.23-.57l.72-2.5-4.83,4.38c-.17.15-.41.17-.6.05-.19-.12-.28-.35-.21-.56l.54-1.82-2.66,2.95c-.15.16-.39.21-.59.12-.2-.1-.31-.31-.28-.53l.46-2.88-3.46,2.9c-.16.14-.39.16-.57.05-.18-.11-.28-.32-.24-.52l.42-2.21-2.49,3.14c-.1.12-.24.19-.39.19Z"></path><path class="cls-1" d="M178.56,157.94c-.07,0-.13-.01-.2-.04-.15-.07-.26-.2-.29-.36-.07.02-.15.01-.23,0-.24-.06-.4-.28-.37-.53l.27-3.01c.02-.27.27-.48.54-.45.26.02.45.23.46.49l.8-1.85c.11-.24.38-.36.63-.27.25.09.38.35.31.61l-.23.81c.49-.96.96-1.94,1.4-2.91.11-.24.38-.35.63-.26.25.09.38.35.31.6l.58-.96c.14-.22.42-.3.65-.18.23.12.33.4.23.64-.39.93-.67,1.89-.85,2.87.89-1.15,1.71-2.35,2.44-3.6.13-.21.39-.3.62-.21.23.09.36.34.3.58l-.66,2.67c.8-.98,1.48-2.05,2.05-3.19.1-.2.33-.31.55-.27.22.05.39.24.4.46l.15,2.95c2.14-2.14,3.81-4.74,4.84-7.59.09-.24.34-.38.59-.31.25.06.41.3.37.55l-.34,2.42c1.61-1.83,2.94-3.88,3.95-6.11.1-.23.36-.35.61-.27.24.08.39.32.34.57l-.21,1.09,2.01-3.51c.13-.23.43-.32.66-.19.24.12.34.41.22.66-.17.36-.33.73-.49,1.1.69-1.31,1.34-2.64,1.96-3.98.11-.25.41-.36.66-.25.25.11.36.4.25.66-.37.84-.64,1.74-.82,2.65l3.25-5.97c.13-.23.41-.33.65-.21.09.04.16.11.21.19l.15-.28c.13-.26.27-.52.43-.76.14-.23.45-.3.68-.17.13.08.21.21.24.34.46-.74.9-1.48,1.32-2.24.29-.68.65-1.32,1.06-1.94.12-.18.35-.26.55-.2l1.9-3.4c.13-.24.44-.32.67-.2.09.05.16.12.2.2.35-.69.68-1.38.99-2.08.11-.25.41-.37.66-.26.25.11.37.41.26.66-1.07,2.44-2.38,4.78-3.91,6.95-.14.2-.41.27-.63.16-.03-.02-.06-.04-.09-.06l-1.37,2.46c-.12.21-.38.31-.61.23-.74,1.22-1.53,2.41-2.34,3.57-.13.19-.38.26-.59.18-.06-.02-.11-.05-.15-.09l-1.76,3.15c-.13.23-.42.32-.65.21-.06-.03-.12-.07-.16-.12l-1.27,2.34c-.11.2-.34.3-.57.24-.22-.06-.38-.26-.37-.49,0-.31.02-.63.04-.94-.79,1.51-1.63,2.99-2.51,4.44-.13.21-.39.3-.62.2-.23-.09-.35-.34-.29-.58.05-.21.11-.42.16-.63l-.62,1.09c-.12.21-.38.31-.61.22-.23-.09-.36-.32-.32-.56l.15-.79c-1.03,1.65-2.24,3.18-3.63,4.57-.15.15-.38.19-.58.09-.19-.1-.3-.3-.27-.52l.08-.61c-1.17,2.09-2.68,3.99-4.46,5.6-.14.13-.35.16-.53.09-.18-.07-.3-.24-.31-.44l-.11-2.3c-.76,1.22-1.66,2.34-2.69,3.36-.16.16-.4.19-.6.08-.19-.11-.29-.34-.24-.56l.42-1.71c-.63.89-1.3,1.75-2,2.58-.14.17-.37.22-.57.14-.2-.08-.32-.28-.31-.5.03-.46.08-.91.15-1.36l-.6.98c-.13.21-.4.3-.63.2-.05-.02-.1-.05-.14-.09-.57,1.09-1.16,2.16-1.78,3.2-.09.16-.26.25-.43.25Z"></path><path class="cls-1" d="M61.89,167.49c-.16,0-.32-.08-.42-.22-2.12-3.15-4.12-4.46-5.97-3.9-.2.06-.4.14-.61.21-.96.35-2.15.79-2.92-.16-.23-.29-.32-.62-.41-.91-.5-1.77-1.41-3.36-2.66-4.65-.71-.73-1.34-1.12-1.97-1.23-.45-.07-.94,0-1.45.08-.46.07-.93.14-1.42.12-.78-.04-1.59-.52-1.98-1.15-.11-.19-.19-.39-.22-.59l-3.64.67c-.29.05-.9.17-1.34-.23-.4-.35-.41-.88-.42-1.17l-.05-2.03c-.71.19-1.55.33-2.34.07-.65-.21-1.2-.78-1.41-1.43-.04-.11-.06-.22-.08-.33-.82.32-1.68.53-2.56.62-.16.02-.3-.04-.41-.15-.11-.11-.16-.26-.14-.42l.35-2.53c-.58.09-1.24-.09-1.78-.42-.2-.12-.39-.26-.59-.4-.43-.31-.83-.6-1.27-.66-.28-.04-.61,0-.96.05-.68.09-1.45.19-2.06-.35-.26-.24-.41-.53-.54-.79-.09-.17-.17-.33-.27-.45-.4-.45-.98-.28-2.13.18-.69.28-1.41.57-2.15.57-.15.03-.35-.1-.44-.25-.09-.16-.09-.35,0-.5l1.8-3.02c.14-.24.45-.31.69-.17.24.14.31.45.17.69l-1.23,2.05c.25-.09.51-.19.77-.29,1.09-.44,2.34-.94,3.25.08.19.21.31.45.42.66.1.21.19.38.31.49.25.22.64.19,1.26.11.4-.05.82-.11,1.24-.05.68.1,1.22.49,1.71.84.17.12.35.25.53.36.5.31,1.21.43,1.48.07.14-.18.38-.25.59-.16.21.09.33.3.3.53l-.39,2.84c.86-.16,1.69-.44,2.48-.84.21-.1.46-.06.61.12.15.18.16.43.03.62-.14.19-.11.42-.06.58.12.35.43.68.78.79.69.23,1.48.02,2.36-.26.15-.05.31-.02.44.07.13.09.2.24.21.39l.06,2.69c0,.1,0,.38.08.45.04.03.15.05.5,0l4.31-.8c.18-.04.37.04.49.19.11.15.14.35.05.52-.03.06-.11.22.05.48.21.36.71.64,1.17.67.39.02.79-.04,1.21-.11.57-.09,1.15-.18,1.76-.08,1.12.18,1.98.95,2.52,1.52,1.36,1.4,2.36,3.14,2.89,5.02.08.27.13.48.23.6.29.36.9.18,1.8-.15.23-.08.46-.17.67-.23,2.31-.69,4.7.75,7.09,4.31.15.23.09.54-.14.69-.09.06-.18.08-.28.08Z"></path><path class="cls-1" d="M138.2,114.06c-3.46,0-9.9-.51-15.34-4.88-3.48-2.79-4.3-6.43-4.96-9.35-1.35-5.96,1.9-10.71,3.96-13.01l.07-.08c6.24-8.18,18.67-10.11,18.8-10.12,1.81-.23,3.68-.22,5.59-.19,1.14.02,6.57.78,8.45,1.42,1.92.66,4.79,2.65,6.01,3.5.16.11.29.2.36.25.09.04.17.1.25.17,1.92,1.85,3.33,3.83,4.19,5.89,1.06,2.51,1.08,5.42.92,7.41-.32,3.89-3.37,7.63-4.3,8.69-.78.89-2.85,2.82-4.09,3.83-.08.06-8.17,6.1-18.29,6.44-.41.01-.96.03-1.61.03ZM144.62,78.41c-1.25,0-2.47.04-3.64.19-2.42.31-12.48,2.81-17.47,9.37,0,0,0,0,0,0-.02.03-.08.09-.16.19-1.8,2.01-4.65,6.15-3.5,11.24.62,2.75,1.33,5.87,4.26,8.23,5.9,4.73,12.98,4.5,15.64,4.41,9.33-.31,17.03-5.94,17.1-6,1.16-.93,3.13-2.78,3.85-3.59,1.7-1.93,3.59-4.92,3.81-7.53.21-2.51-.06-4.81-.77-6.47-.75-1.79-1.99-3.52-3.68-5.17-.14-.08-.28-.18-.41-.28-1.05-.73-3.86-2.69-5.51-3.25-1.61-.55-6.87-1.3-7.84-1.31-.56,0-1.11-.02-1.66-.02Z"></path></g></g></svg>